<?xml version="1.0" encoding="utf-8"?>
<!-- Generator: Adobe Illustrator 25.3.0, SVG Export Plug-In . SVG Version: 6.00 Build 0)  -->
<svg version="1.1" id="Background" xmlns="http://www.w3.org/2000/svg" xmlns:xlink="http://www.w3.org/1999/xlink" x="0px" y="0px"
	 viewBox="0 0 500 500" style="enable-background:new 0 0 500 500;" xml:space="preserve">
<style type="text/css">
	.st0{opacity:0.2;}
	.st1{fill:#085BBF;}
</style>
<g class="st0">
	<g>
		<g>
			<path class="st1" d="M128.3,477.5c0-12.2-9.9-22.2-22.2-22.2c-12.2,0-22.2,9.9-22.2,22.2c0,12.2,9.9,22.2,22.2,22.2
				C118.4,499.7,128.3,489.7,128.3,477.5z"/>
			<path class="st1" d="M190.1,477.5c0-12.2-9.9-22.2-22.2-22.2c-12.2,0-22.2,9.9-22.2,22.2c0,12.2,9.9,22.2,22.2,22.2
				C180.2,499.7,190.1,489.7,190.1,477.5z"/>
			<path class="st1" d="M251.9,477.5c0-12.2-9.9-22.2-22.2-22.2c-12.2,0-22.2,9.9-22.2,22.2c0,12.2,9.9,22.2,22.2,22.2
				C242,499.7,251.9,489.7,251.9,477.5z"/>
			<path class="st1" d="M313.7,477.5c0-12.2-9.9-22.2-22.2-22.2c-12.2,0-22.2,9.9-22.2,22.2c0,12.2,9.9,22.2,22.2,22.2
				C303.8,499.7,313.7,489.7,313.7,477.5z"/>
			<circle class="st1" cx="353.3" cy="477.5" r="22.2"/>
			<path class="st1" d="M437.3,477.5c0-12.2-9.9-22.2-22.2-22.2c-12.2,0-22.2,9.9-22.2,22.2c0,12.2,9.9,22.2,22.2,22.2
				C427.4,499.7,437.3,489.7,437.3,477.5z"/>
			
				<ellipse transform="matrix(0.7071 -0.7071 0.7071 0.7071 -197.9602 477.087)" class="st1" cx="476.9" cy="477.5" rx="22.2" ry="22.2"/>
		</g>
		<g>
			<path class="st1" d="M476.8,393.7c12.2,0,22.2,9.9,22.2,22.2c0,12.2-9.9,22.2-22.2,22.2c-12.2,0-22.2-9.9-22.2-22.2
				C454.6,403.6,464.5,393.7,476.8,393.7z"/>
			<path class="st1" d="M476.8,331.9c12.2,0,22.2,9.9,22.2,22.2c0,12.2-9.9,22.2-22.2,22.2c-12.2,0-22.2-9.9-22.2-22.2
				C454.6,341.8,464.5,331.9,476.8,331.9z"/>
			<path class="st1" d="M476.8,270.1c12.2,0,22.2,9.9,22.2,22.2c0,12.2-9.9,22.2-22.2,22.2c-12.2,0-22.2-9.9-22.2-22.2
				C454.6,280,464.5,270.1,476.8,270.1z"/>
			<path class="st1" d="M476.8,208.3c12.2,0,22.2,9.9,22.2,22.2c0,12.2-9.9,22.2-22.2,22.2c-12.2,0-22.2-9.9-22.2-22.2
				C454.6,218.3,464.5,208.3,476.8,208.3z"/>
			<path class="st1" d="M476.8,146.5c12.2,0,22.2,9.9,22.2,22.2c0,12.2-9.9,22.2-22.2,22.2c-12.2,0-22.2-9.9-22.2-22.2
				C454.6,156.5,464.5,146.5,476.8,146.5z"/>
			<path class="st1" d="M476.8,84.8c12.2,0,22.2,9.9,22.2,22.2c0,12.2-9.9,22.2-22.2,22.2c-12.2,0-22.2-9.9-22.2-22.2
				C454.6,94.7,464.5,84.8,476.8,84.8z"/>
		</g>
	</g>
	<g>
		<path class="st1" d="M401,400.4c8.7-8.7,22.7-8.7,31.3,0c8.7,8.7,8.7,22.7,0,31.3c-8.7,8.7-22.7,8.7-31.3,0
			C392.4,423.1,392.4,409.1,401,400.4z"/>
		<path class="st1" d="M357.3,356.7c8.7-8.7,22.7-8.7,31.3,0c8.7,8.7,8.7,22.7,0,31.3c-8.7,8.7-22.7,8.7-31.3,0
			C348.7,379.4,348.7,365.4,357.3,356.7z"/>
		<path class="st1" d="M313.6,313c8.7-8.7,22.7-8.7,31.3,0c8.7,8.7,8.7,22.7,0,31.3c-8.7,8.7-22.7,8.7-31.3,0
			C305,335.7,305,321.7,313.6,313z"/>
		<path class="st1" d="M269.9,269.4c8.7-8.7,22.7-8.7,31.3,0c8.7,8.7,8.7,22.7,0,31.3c-8.7,8.7-22.7,8.7-31.3,0
			C261.3,292,261.3,278,269.9,269.4z"/>
		<path class="st1" d="M226.2,225.7c8.7-8.7,22.7-8.7,31.3,0c8.7,8.7,8.7,22.7,0,31.3c-8.7,8.7-22.7,8.7-31.3,0
			C217.6,248.3,217.6,234.3,226.2,225.7z"/>
		<path class="st1" d="M182.6,182c8.7-8.7,22.7-8.7,31.3,0c8.7,8.7,8.7,22.7,0,31.3c-8.7,8.7-22.7,8.7-31.3,0
			C173.9,204.7,173.9,190.6,182.6,182z"/>
	</g>
	<g>
		<path class="st1" d="M182.2,181.6c8.7-8.7,22.7-8.7,31.3,0c8.7,8.7,8.7,22.7,0,31.3c-8.7,8.7-22.7,8.7-31.3,0
			C173.5,204.3,173.5,190.2,182.2,181.6z"/>
		<path class="st1" d="M138.5,137.9c8.7-8.7,22.7-8.7,31.3,0c8.7,8.7,8.7,22.7,0,31.3c-8.7,8.7-22.7,8.7-31.3,0
			C129.8,160.6,129.8,146.6,138.5,137.9z"/>
		<path class="st1" d="M94.8,94.2c8.7-8.7,22.7-8.7,31.3,0c8.7,8.7,8.7,22.7,0,31.3c-8.7,8.7-22.7,8.7-31.3,0
			C86.1,116.9,86.1,102.9,94.8,94.2z"/>
		<path class="st1" d="M51.1,50.5c8.7-8.7,22.7-8.7,31.3,0c8.7,8.7,8.7,22.7,0,31.3c-8.7,8.7-22.7,8.7-31.3,0
			C42.4,73.2,42.4,59.2,51.1,50.5z"/>
		<path class="st1" d="M7.4,6.8c8.7-8.7,22.7-8.7,31.3,0c8.7,8.7,8.7,22.7,0,31.3c-8.7,8.7-22.7,8.7-31.3,0
			C-1.2,29.5-1.2,15.5,7.4,6.8z"/>
	</g>
</g>
</svg>
