<?xml version="1.0" encoding="utf-8"?>
<!-- Generator: Adobe Illustrator 25.3.0, SVG Export Plug-In . SVG Version: 6.00 Build 0)  -->
<svg version="1.1" id="Layer_1" xmlns="http://www.w3.org/2000/svg" xmlns:xlink="http://www.w3.org/1999/xlink" x="0px" y="0px"
	 viewBox="0 0 789.3 601" style="enable-background:new 0 0 789.3 601;" xml:space="preserve">
<style type="text/css">
	.st0{fill:#FFFFFF;}
	.st1{fill:none;stroke:#085BBF;stroke-linejoin:round;stroke-miterlimit:10;}
	.st2{clip-path:url(#SVGID_2_);fill:#FFFFFF;}
	.st3{clip-path:url(#SVGID_2_);fill:none;stroke:#085BBF;stroke-linejoin:round;stroke-miterlimit:10;}
	.st4{clip-path:url(#SVGID_2_);fill:#085BBF;}
	.st5{clip-path:url(#SVGID_2_);fill:none;stroke:#085BBF;stroke-miterlimit:10;}
	.st6{clip-path:url(#SVGID_2_);fill:none;stroke:#085BBF;stroke-linecap:round;stroke-miterlimit:10;}
	.st7{clip-path:url(#SVGID_2_);fill:none;stroke:#085BBF;stroke-width:1.25;stroke-linecap:round;stroke-miterlimit:10;}
	
		.st8{clip-path:url(#SVGID_2_);fill:none;stroke:#085BBF;stroke-width:1.25;stroke-linecap:round;stroke-miterlimit:10;stroke-dasharray:4.016,10.041;}
</style>
<g>
	<rect x="524.6" y="20.5" class="st0" width="21.5" height="83.1"/>
	<rect x="524.6" y="20.5" class="st1" width="21.5" height="83.1"/>
	<rect x="535.4" y="11.8" class="st0" width="222.6" height="29.5"/>
	<rect x="535.4" y="11.8" class="st1" width="222.6" height="29.5"/>
	<g>
		<defs>
			<rect id="SVGID_1_" width="789.3" height="601"/>
		</defs>
		<clipPath id="SVGID_2_">
			<use xlink:href="#SVGID_1_"  style="overflow:visible;"/>
		</clipPath>
		<path class="st2" d="M510.3,25.9c0-13.8,11.2-25,25.1-25c13.8,0,25,11.2,25,25c0,13.8-11.2,25-25,25
			C521.5,51,510.3,39.8,510.3,25.9"/>
		<path class="st3" d="M510.3,25.9c0-13.8,11.2-25,25.1-25c13.8,0,25,11.2,25,25c0,13.8-11.2,25-25,25
			C521.5,51,510.3,39.8,510.3,25.9z"/>
		<path class="st4" d="M540.8,25.9c0,3-2.5,5.5-5.5,5.5c-3,0-5.5-2.4-5.5-5.5c0-3,2.5-5.5,5.5-5.5C538.4,20.5,540.8,22.9,540.8,25.9
			"/>
		<path class="st2" d="M535.4,74.5c-12.4,0-22.4,10-22.4,22.4v23.1h44.8V96.9C557.8,84.5,547.7,74.5,535.4,74.5"/>
		<path class="st5" d="M535.4,74.5c-12.4,0-22.4,10-22.4,22.4v23.1h44.8V96.9C557.8,84.5,547.7,74.5,535.4,74.5z"/>
		<line class="st6" x1="535.4" y1="119.9" x2="535.4" y2="150.5"/>
		<line class="st6" x1="518.7" y1="119.9" x2="518.7" y2="141.4"/>
		<line class="st6" x1="552.6" y1="119.9" x2="552.6" y2="141.4"/>
		<line class="st7" x1="283.8" y1="244.7" x2="280.2" y2="244.7"/>
		<path class="st8" d="M262.2,244.7H69c-37.5,0-67.9,30.4-67.9,67.9c0,37.5,30.4,67.9,67.9,67.9h531.9c37.5,0,67.9-30.4,67.9-67.9
			c0-37.5-30.4-67.9-67.9-67.9h-3.1"/>
		<line class="st7" x1="588.8" y1="244.7" x2="585.2" y2="244.7"/>
		<line class="st7" x1="605.3" y1="244.7" x2="255.1" y2="244.7"/>
		<path class="st2" d="M35.5,312.6c0-18.9,15.3-34.2,34.2-34.2c18.9,0,34.2,15.3,34.2,34.2c0,18.9-15.3,34.2-34.2,34.2
			C50.8,346.7,35.5,331.5,35.5,312.6"/>
		<path class="st5" d="M35.5,312.6c0-18.9,15.3-34.2,34.2-34.2c18.9,0,34.2,15.3,34.2,34.2c0,18.9-15.3,34.2-34.2,34.2
			C50.8,346.7,35.5,331.5,35.5,312.6z"/>
		<path class="st2" d="M246.6,312.6c0-18.9,15.3-34.2,34.2-34.2c18.9,0,34.2,15.3,34.2,34.2c0,18.9-15.3,34.2-34.2,34.2
			C261.9,346.7,246.6,331.5,246.6,312.6"/>
		<path class="st5" d="M246.6,312.6c0-18.9,15.3-34.2,34.2-34.2c18.9,0,34.2,15.3,34.2,34.2c0,18.9-15.3,34.2-34.2,34.2
			C261.9,346.7,246.6,331.5,246.6,312.6z"/>
		<path class="st2" d="M352.1,312.6c0-18.9,15.3-34.2,34.2-34.2c18.9,0,34.2,15.3,34.2,34.2c0,18.9-15.3,34.2-34.2,34.2
			C367.4,346.7,352.1,331.5,352.1,312.6"/>
		<path class="st5" d="M352.1,312.6c0-18.9,15.3-34.2,34.2-34.2c18.9,0,34.2,15.3,34.2,34.2c0,18.9-15.3,34.2-34.2,34.2
			C367.4,346.7,352.1,331.5,352.1,312.6z"/>
		<path class="st2" d="M457.6,312.6c0-18.9,15.3-34.2,34.2-34.2c18.9,0,34.2,15.3,34.2,34.2c0,18.9-15.3,34.2-34.2,34.2
			C472.9,346.7,457.6,331.5,457.6,312.6"/>
		<path class="st5" d="M457.6,312.6c0-18.9,15.3-34.2,34.2-34.2c18.9,0,34.2,15.3,34.2,34.2c0,18.9-15.3,34.2-34.2,34.2
			C472.9,346.7,457.6,331.5,457.6,312.6z"/>
		<path class="st2" d="M587.8,279.8c-9.7,2.8-17.6,9.8-21.7,18.9c3.9-1.5,8-2.4,12.3-2.8L587.8,279.8z"/>
		<path class="st5" d="M587.8,279.8c-9.7,2.8-17.6,9.8-21.7,18.9c3.9-1.5,8-2.4,12.3-2.8L587.8,279.8z"/>
		<path class="st2" d="M203.9,328.5c-0.1-0.4-0.3-0.8-0.4-1.2c0.3,1,0.7,2,0.9,3c1.7-2.8,3-5.9,3.9-9.2L203.9,328.5z"/>
		<path class="st5" d="M203.9,328.5c-0.1-0.4-0.3-0.8-0.4-1.2c0.3,1,0.7,2,0.9,3c1.7-2.8,3-5.9,3.9-9.2L203.9,328.5z"/>
		<path class="st2" d="M164.6,280.1c-9.1,3-16.5,9.6-20.4,18.2c3.6-1.2,7.4-2.1,11.3-2.4L164.6,280.1z"/>
		<path class="st5" d="M164.6,280.1c-9.1,3-16.5,9.6-20.4,18.2c3.6-1.2,7.4-2.1,11.3-2.4L164.6,280.1z"/>
		<path class="st4" d="M77,312.6c0,4.4-3.6,8-8,8c-4.4,0-8-3.6-8-8c0-4.4,3.6-8,8-8C73.4,304.6,77,308.2,77,312.6"/>
		<path class="st4" d="M288.7,312.6c0,4.4-3.6,8-8,8c-4.4,0-8-3.6-8-8c0-4.4,3.6-8,8-8C285.2,304.6,288.7,308.2,288.7,312.6"/>
		<path class="st4" d="M394.3,312.6c0,4.4-3.6,8-8,8c-4.4,0-8-3.6-8-8c0-4.4,3.6-8,8-8C390.7,304.6,394.3,308.2,394.3,312.6"/>
		<path class="st4" d="M499.8,312.6c0,4.4-3.6,8-8,8c-4.4,0-8-3.6-8-8c0-4.4,3.6-8,8-8C496.2,304.6,499.8,308.2,499.8,312.6"/>
		<rect x="101.6" y="20.5" class="st2" width="21.5" height="83.1"/>
		<rect x="101.6" y="20.5" class="st3" width="21.5" height="83.1"/>
		<rect x="112.4" y="11.8" class="st2" width="222.6" height="29.5"/>
		<rect x="112.4" y="11.8" class="st3" width="222.6" height="29.5"/>
		<path class="st2" d="M87.3,25.9c0-13.8,11.2-25,25-25c13.8,0,25.1,11.2,25.1,25c0,13.8-11.2,25-25.1,25
			C98.5,51,87.3,39.8,87.3,25.9"/>
		<path class="st3" d="M87.3,25.9c0-13.8,11.2-25,25-25c13.8,0,25.1,11.2,25.1,25c0,13.8-11.2,25-25.1,25
			C98.5,51,87.3,39.8,87.3,25.9z"/>
		<rect x="509.6" y="425.7" class="st2" width="145" height="174.3"/>
		<rect x="509.6" y="425.7" class="st3" width="145" height="174.3"/>
		<path class="st2" d="M627.7,353.6c-5,20.3-23.4,35.4-45.2,35.4c-21.9,0-40.2-15.1-45.2-35.4c-16.1,14.4-26.9,41.3-26.9,72.1h144.3
			C654.6,394.9,643.8,368,627.7,353.6"/>
		<path class="st3" d="M627.7,353.6c-5,20.3-23.4,35.4-45.2,35.4c-21.9,0-40.2-15.1-45.2-35.4c-16.1,14.4-26.9,41.3-26.9,72.1h144.3
			C654.6,394.9,643.8,368,627.7,353.6z"/>
		<path class="st2" d="M773.8,15.8c-13.9-8-31.7-3.3-39.8,10.7L578.5,296c1.3-0.1,2.6-0.2,4-0.2c20.9,0,38.6,13.8,44.5,32.7
			L784.5,55.6C792.5,41.7,787.8,23.9,773.8,15.8"/>
		<path class="st3" d="M773.8,15.8c-13.9-8-31.7-3.3-39.8,10.7L578.5,296c1.3-0.1,2.6-0.2,4-0.2c20.9,0,38.6,13.8,44.5,32.7
			L784.5,55.6C792.5,41.7,787.8,23.9,773.8,15.8z"/>
		<path class="st4" d="M766,43.6c0,3.5-2.8,6.4-6.4,6.4c-3.5,0-6.4-2.9-6.4-6.4c0-3.5,2.9-6.4,6.4-6.4C763.1,37.2,766,40,766,43.6"
			/>
		<rect x="86.6" y="425.7" class="st2" width="145" height="174.4"/>
		<rect x="86.6" y="425.7" class="st3" width="145" height="174.4"/>
		<path class="st2" d="M204.7,353.6c-5,20.3-23.4,35.4-45.2,35.4c-21.9,0-40.2-15.1-45.2-35.4c-16.1,14.4-26.9,41.3-26.9,72.1h144.3
			C231.6,394.9,220.8,368.1,204.7,353.6"/>
		<path class="st3" d="M204.7,353.6c-5,20.3-23.4,35.4-45.2,35.4c-21.9,0-40.2-15.1-45.2-35.4c-16.1,14.4-26.9,41.3-26.9,72.1h144.3
			C231.6,394.9,220.8,368.1,204.7,353.6z"/>
		<path class="st2" d="M350.8,15.8c-13.9-8-31.7-3.3-39.8,10.7L155.5,296c1.3-0.1,2.6-0.2,4-0.2c20.9,0,38.6,13.8,44.5,32.7
			L361.5,55.6C369.5,41.7,364.8,23.9,350.8,15.8"/>
		<path class="st3" d="M350.8,15.8c-13.9-8-31.7-3.3-39.8,10.7L155.5,296c1.3-0.1,2.6-0.2,4-0.2c20.9,0,38.6,13.8,44.5,32.7
			L361.5,55.6C369.5,41.7,364.8,23.9,350.8,15.8z"/>
		<path class="st2" d="M206.1,342.4c0,25.7-20.9,46.6-46.6,46.6c-25.7,0-46.6-20.9-46.6-46.6c0-25.7,20.9-46.6,46.6-46.6
			C185.2,295.8,206.1,316.6,206.1,342.4"/>
		<path class="st3" d="M206.1,342.4c0,25.7-20.9,46.6-46.6,46.6c-25.7,0-46.6-20.9-46.6-46.6c0-25.7,20.9-46.6,46.6-46.6
			C185.2,295.8,206.1,316.6,206.1,342.4z"/>
		<path class="st2" d="M134.7,342.4c0-13.7,11.1-24.7,24.7-24.7c13.7,0,24.7,11.1,24.7,24.7c0,13.7-11.1,24.7-24.7,24.7
			C145.8,367.1,134.7,356.1,134.7,342.4"/>
		<path class="st3" d="M134.7,342.4c0-13.7,11.1-24.7,24.7-24.7c13.7,0,24.7,11.1,24.7,24.7c0,13.7-11.1,24.7-24.7,24.7
			C145.8,367.1,134.7,356.1,134.7,342.4z"/>
		<path class="st4" d="M165.8,342.4c0,3.5-2.9,6.4-6.4,6.4c-3.5,0-6.4-2.9-6.4-6.4c0-3.5,2.9-6.4,6.4-6.4
			C163,336,165.8,338.9,165.8,342.4"/>
		<path class="st4" d="M342.9,43.6c0,3.5-2.9,6.4-6.4,6.4c-3.5,0-6.4-2.9-6.4-6.4c0-3.5,2.9-6.4,6.4-6.4
			C340.1,37.2,342.9,40,342.9,43.6"/>
		<path class="st4" d="M117.8,25.9c0,3-2.5,5.5-5.5,5.5c-3,0-5.5-2.4-5.5-5.5c0-3,2.5-5.5,5.5-5.5C115.4,20.5,117.8,22.9,117.8,25.9
			"/>
		<path class="st2" d="M237.6,207.2c-4.4-2.8-5.7-8.7-2.9-13.1c2.8-4.4,8.7-5.7,13.1-2.9c4.4,2.8,5.7,8.7,2.9,13.1
			C247.8,208.7,242,210,237.6,207.2"/>
		<path class="st5" d="M237.6,207.2c-4.4-2.8-5.7-8.7-2.9-13.1c2.8-4.4,8.7-5.7,13.1-2.9c4.4,2.8,5.7,8.7,2.9,13.1
			C247.8,208.7,242,210,237.6,207.2z"/>
		<path class="st2" d="M259.5,171.4c-4.4-2.8-5.7-8.7-2.9-13.1c2.8-4.4,8.7-5.7,13.1-2.9c4.4,2.8,5.7,8.7,2.9,13.1
			C269.7,172.9,263.9,174.2,259.5,171.4"/>
		<path class="st5" d="M259.5,171.4c-4.4-2.8-5.7-8.7-2.9-13.1c2.8-4.4,8.7-5.7,13.1-2.9c4.4,2.8,5.7,8.7,2.9,13.1
			C269.7,172.9,263.9,174.2,259.5,171.4z"/>
		<path class="st2" d="M281,137.4c-4.4-2.8-5.7-8.7-2.9-13.1c2.8-4.4,8.6-5.7,13.1-2.9c4.4,2.8,5.7,8.7,2.9,13.1
			C291.3,138.9,285.4,140.2,281,137.4"/>
		<path class="st5" d="M281,137.4c-4.4-2.8-5.7-8.7-2.9-13.1c2.8-4.4,8.6-5.7,13.1-2.9c4.4,2.8,5.7,8.7,2.9,13.1
			C291.3,138.9,285.4,140.2,281,137.4z"/>
		<path class="st2" d="M661.7,207.2c-4.4-2.8-5.7-8.7-2.9-13.1c2.8-4.4,8.7-5.7,13.1-2.9c4.4,2.8,5.7,8.7,2.9,13.1
			C671.9,208.7,666.1,210,661.7,207.2"/>
		<path class="st5" d="M661.7,207.2c-4.4-2.8-5.7-8.7-2.9-13.1c2.8-4.4,8.7-5.7,13.1-2.9c4.4,2.8,5.7,8.7,2.9,13.1
			C671.9,208.7,666.1,210,661.7,207.2z"/>
		<path class="st2" d="M683.6,171.4c-4.4-2.8-5.7-8.7-2.9-13.1c2.8-4.4,8.6-5.7,13.1-2.9c4.4,2.8,5.7,8.7,2.9,13.1
			C693.8,172.9,688,174.2,683.6,171.4"/>
		<path class="st5" d="M683.6,171.4c-4.4-2.8-5.7-8.7-2.9-13.1c2.8-4.4,8.6-5.7,13.1-2.9c4.4,2.8,5.7,8.7,2.9,13.1
			C693.8,172.9,688,174.2,683.6,171.4z"/>
		<path class="st2" d="M705.2,137.4c-4.4-2.8-5.7-8.7-2.9-13.1c2.8-4.4,8.7-5.7,13.1-2.9c4.4,2.8,5.7,8.7,2.9,13.1
			C715.4,138.9,709.6,140.2,705.2,137.4"/>
		<path class="st5" d="M705.2,137.4c-4.4-2.8-5.7-8.7-2.9-13.1c2.8-4.4,8.7-5.7,13.1-2.9c4.4,2.8,5.7,8.7,2.9,13.1
			C715.4,138.9,709.6,140.2,705.2,137.4z"/>
		<path class="st2" d="M112.4,74.5C100,74.5,90,84.5,90,96.9v23.1h44.8V96.9C134.7,84.5,124.7,74.5,112.4,74.5"/>
		<path class="st5" d="M112.4,74.5C100,74.5,90,84.5,90,96.9v23.1h44.8V96.9C134.7,84.5,124.7,74.5,112.4,74.5z"/>
		<line class="st6" x1="112.4" y1="119.9" x2="112.4" y2="150.5"/>
		<line class="st6" x1="95.7" y1="119.9" x2="95.7" y2="141.4"/>
		<line class="st6" x1="129.6" y1="119.9" x2="129.6" y2="141.4"/>
		<rect x="82.6" y="184.2" class="st2" width="60.3" height="60.3"/>
		<rect x="82.6" y="184.2" class="st3" width="60.3" height="60.3"/>
		<rect x="505.7" y="184.2" class="st2" width="60.3" height="60.3"/>
		<rect x="505.7" y="184.2" class="st3" width="60.3" height="60.3"/>
		<rect x="408.4" y="184.2" class="st2" width="60.3" height="60.3"/>
		<rect x="408.4" y="184.2" class="st3" width="60.3" height="60.3"/>
		<rect x="316" y="184.2" class="st2" width="60.3" height="60.3"/>
		<rect x="316" y="184.2" class="st3" width="60.3" height="60.3"/>
		<path class="st2" d="M629.1,342.4c0,25.7-20.9,46.6-46.6,46.6s-46.6-20.9-46.6-46.6c0-25.7,20.9-46.6,46.6-46.6
			S629.1,316.6,629.1,342.4"/>
		<path class="st3" d="M629.1,342.4c0,25.7-20.9,46.6-46.6,46.6s-46.6-20.9-46.6-46.6c0-25.7,20.9-46.6,46.6-46.6
			S629.1,316.6,629.1,342.4z"/>
		<path class="st2" d="M557.7,342.4c0-13.7,11.1-24.7,24.7-24.7c13.7,0,24.7,11.1,24.7,24.7c0,13.7-11.1,24.7-24.7,24.7
			C568.8,367.1,557.7,356.1,557.7,342.4"/>
		<path class="st3" d="M557.7,342.4c0-13.7,11.1-24.7,24.7-24.7c13.7,0,24.7,11.1,24.7,24.7c0,13.7-11.1,24.7-24.7,24.7
			C568.8,367.1,557.7,356.1,557.7,342.4z"/>
		<path class="st4" d="M588.8,342.4c0,3.5-2.9,6.4-6.4,6.4c-3.5,0-6.4-2.9-6.4-6.4c0-3.5,2.9-6.4,6.4-6.4
			C586,336,588.8,338.9,588.8,342.4"/>
		<path class="st2" d="M335.7,439.1c-1-1.4-2.1-2.6-3.2-3.9l8.1-10.3l-12-9.4l-8.2,10.4c-2.7-1.3-5.5-2.4-8.4-3.1l0.5-13.3
			l-15.3-0.6l-0.5,13.4c-2.9,0.5-5.8,1.2-8.6,2.4l-7.4-11.1l-12.7,8.5l7.4,11.1c-2.1,2.1-3.9,4.5-5.5,7l-12.6-4.6l-5.3,14.3
			l12.5,4.6c-0.5,2.9-0.6,5.9-0.4,9l-12.8,3.6l4.2,14.7l12.6-3.6c0.7,1.5,1.4,3,2.4,4.5c0.8,1.2,1.7,2.1,2.6,3.2l-8,10.2l12,9.4
			l7.9-10c2.8,1.5,5.7,2.6,8.7,3.3l-0.5,12.6l15.3,0.6l0.5-12.5c3.1-0.5,6.2-1.2,9.1-2.5l6.9,10.3l12.7-8.5l-6.9-10.3
			c2.3-2.3,4.1-4.8,5.8-7.5l11.8,4.3l5.3-14.3l-11.9-4.4c0.5-3.1,0.5-6.2,0.2-9.3l12.3-3.5l-4.2-14.7l-12.5,3.5
			C337,441.5,336.5,440.3,335.7,439.1 M310.3,471.7c-5.9,4-14,2.4-18-3.6c-4-5.9-2.4-14,3.6-18c5.9-4,14-2.4,18,3.6
			C317.9,459.6,316.3,467.7,310.3,471.7"/>
		<path class="st3" d="M335.7,439.1c-1-1.4-2.1-2.6-3.2-3.9l8.1-10.3l-12-9.4l-8.2,10.4c-2.7-1.3-5.5-2.4-8.4-3.1l0.5-13.3
			l-15.3-0.6l-0.5,13.4c-2.9,0.5-5.8,1.2-8.6,2.4l-7.4-11.1l-12.7,8.5l7.4,11.1c-2.1,2.1-3.9,4.5-5.5,7l-12.6-4.6l-5.3,14.3
			l12.5,4.6c-0.5,2.9-0.6,5.9-0.4,9l-12.8,3.6l4.2,14.7l12.6-3.6c0.7,1.5,1.4,3,2.4,4.5c0.8,1.2,1.7,2.1,2.6,3.2l-8,10.2l12,9.4
			l7.9-10c2.8,1.5,5.7,2.6,8.7,3.3l-0.5,12.6l15.3,0.6l0.5-12.5c3.1-0.5,6.2-1.2,9.1-2.5l6.9,10.3l12.7-8.5l-6.9-10.3
			c2.3-2.3,4.1-4.8,5.8-7.5l11.8,4.3l5.3-14.3l-11.9-4.4c0.5-3.1,0.5-6.2,0.2-9.3l12.3-3.5l-4.2-14.7l-12.5,3.5
			C337,441.5,336.5,440.3,335.7,439.1z M310.3,471.7c-5.9,4-14,2.4-18-3.6c-4-5.9-2.4-14,3.6-18c5.9-4,14-2.4,18,3.6
			C317.9,459.6,316.3,467.7,310.3,471.7z"/>
		<path class="st2" d="M454.9,491.5c-1.3-1.4-2.7-2.6-4.1-3.8l7.5-12.6l-14.6-8.7l-7.6,12.8c-3.2-1.1-6.4-1.9-9.7-2.2l-1.4-14.8
			l-17,1.6l1.4,14.9c-3.1,0.9-6.2,2.2-9.1,3.9l-9.8-11.2l-12.8,11.2l9.8,11.2c-2.1,2.7-3.7,5.5-5,8.5l-14.6-3.3l-3.8,16.6l14.5,3.3
			c-0.1,3.3,0.2,6.6,0.9,9.9l-13.6,5.8l6.7,15.6l13.4-5.8c1,1.6,2,3.1,3.3,4.6c1,1.2,2.2,2.1,3.3,3.1l-7.4,12.4l14.6,8.7l7.3-12.2
			c3.3,1.2,6.7,2,10.1,2.4l1.3,14l17-1.6l-1.3-13.9c3.4-1,6.6-2.2,9.8-4l9.1,10.4l12.8-11.2l-9.1-10.4c2.2-2.9,3.9-5.9,5.3-9.2
			l13.6,3.1l3.8-16.6l-13.8-3.1c0.1-3.5-0.3-6.9-1.1-10.3l13.1-5.6l-6.7-15.6l-13.3,5.7C456.7,493.9,455.9,492.6,454.9,491.5
			 M438.3,538.7c-10.4,9.1-26.3,8.1-35.4-2.3c-9.1-10.4-8.1-26.3,2.3-35.4c10.4-9.1,26.3-8.1,35.4,2.3
			C449.7,513.7,448.7,529.6,438.3,538.7"/>
		<path class="st3" d="M454.9,491.5c-1.3-1.4-2.7-2.6-4.1-3.8l7.5-12.6l-14.6-8.7l-7.6,12.8c-3.2-1.1-6.4-1.9-9.7-2.2l-1.4-14.8
			l-17,1.6l1.4,14.9c-3.1,0.9-6.2,2.2-9.1,3.9l-9.8-11.2l-12.8,11.2l9.8,11.2c-2.1,2.7-3.7,5.5-5,8.5l-14.6-3.3l-3.8,16.6l14.5,3.3
			c-0.1,3.3,0.2,6.6,0.9,9.9l-13.6,5.8l6.7,15.6l13.4-5.8c1,1.6,2,3.1,3.3,4.6c1,1.2,2.2,2.1,3.3,3.1l-7.4,12.4l14.6,8.7l7.3-12.2
			c3.3,1.2,6.7,2,10.1,2.4l1.3,14l17-1.6l-1.3-13.9c3.4-1,6.6-2.2,9.8-4l9.1,10.4l12.8-11.2l-9.1-10.4c2.2-2.9,3.9-5.9,5.3-9.2
			l13.6,3.1l3.8-16.6l-13.8-3.1c0.1-3.5-0.3-6.9-1.1-10.3l13.1-5.6l-6.7-15.6l-13.3,5.7C456.7,493.9,455.9,492.6,454.9,491.5z
			 M438.3,538.7c-10.4,9.1-26.3,8.1-35.4-2.3c-9.1-10.4-8.1-26.3,2.3-35.4c10.4-9.1,26.3-8.1,35.4,2.3
			C449.7,513.7,448.7,529.6,438.3,538.7z"/>
		<path class="st4" d="M412.7,527.7c-4.3-5-3.8-12.5,1.1-16.8c5-4.3,12.5-3.9,16.8,1.1c4.4,5,3.9,12.5-1.1,16.9
			C424.6,533.2,417.1,532.7,412.7,527.7"/>
	</g>
</g>
</svg>
