<?xml version="1.0" encoding="utf-8"?>
<!-- Generator: Adobe Illustrator 25.3.0, SVG Export Plug-In . SVG Version: 6.00 Build 0)  -->
<svg version="1.1" id="Layer_1" xmlns="http://www.w3.org/2000/svg" xmlns:xlink="http://www.w3.org/1999/xlink" x="0px" y="0px"
	 viewBox="0 0 795.1 687.4" style="enable-background:new 0 0 795.1 687.4;" xml:space="preserve">
<style type="text/css">
	.st0{fill:#085BBF;}
	.st1{clip-path:url(#SVGID_2_);fill:#085BBF;}
	.st2{clip-path:url(#SVGID_2_);fill:#FFFFFF;}
</style>
<g>
	<path class="st0" d="M542,11.5H599v672.4H542V11.5z M538.6,687.4h63.8V8h-63.8V687.4z"/>
	<g>
		<defs>
			<rect id="SVGID_1_" width="795.1" height="687.4"/>
		</defs>
		<clipPath id="SVGID_2_">
			<use xlink:href="#SVGID_1_"  style="overflow:visible;"/>
		</clipPath>
		<path class="st1" d="M601,72.9c-0.4,0-0.9-0.2-1.2-0.5L539.1,11c-0.7-0.7-0.7-1.8,0-2.4c0.7-0.7,1.8-0.7,2.4,0L602.2,70
			c0.7,0.7,0.7,1.8,0,2.4C601.9,72.8,601.4,72.9,601,72.9"/>
		<path class="st1" d="M601,134.4c-0.4,0-0.9-0.2-1.2-0.5l-60.7-61.4c-0.7-0.7-0.7-1.8,0-2.4c0.7-0.7,1.8-0.7,2.4,0l60.7,61.4
			c0.7,0.7,0.7,1.8,0,2.4C601.9,134.2,601.4,134.4,601,134.4"/>
		<path class="st1" d="M601,195.8c-0.4,0-0.9-0.2-1.2-0.5l-60.7-61.4c-0.7-0.7-0.7-1.8,0-2.4c0.7-0.7,1.8-0.7,2.4,0l60.7,61.4
			c0.7,0.7,0.7,1.8,0,2.4C601.9,195.6,601.4,195.8,601,195.8"/>
		<path class="st1" d="M601,257.3c-0.4,0-0.9-0.2-1.2-0.5l-60.7-61.4c-0.7-0.7-0.7-1.8,0-2.4c0.7-0.7,1.8-0.7,2.4,0l60.7,61.4
			c0.7,0.7,0.7,1.8,0,2.4C601.9,257.1,601.4,257.3,601,257.3"/>
		<path class="st1" d="M601,318.7c-0.4,0-0.9-0.2-1.2-0.5l-60.7-61.4c-0.7-0.7-0.7-1.8,0-2.4c0.7-0.7,1.8-0.7,2.4,0l60.7,61.4
			c0.7,0.7,0.7,1.8,0,2.4C601.9,318.5,601.4,318.7,601,318.7"/>
		<path class="st1" d="M601,380.1c-0.4,0-0.9-0.2-1.2-0.5l-60.7-61.4c-0.7-0.7-0.7-1.8,0-2.4c0.7-0.7,1.8-0.7,2.4,0l60.7,61.4
			c0.7,0.7,0.7,1.8,0,2.4C601.9,380,601.4,380.1,601,380.1"/>
		<path class="st1" d="M601,441.6c-0.4,0-0.9-0.2-1.2-0.5l-60.7-61.4c-0.7-0.7-0.7-1.8,0-2.4c0.7-0.7,1.8-0.7,2.4,0l60.7,61.4
			c0.7,0.7,0.7,1.8,0,2.4C601.9,441.4,601.4,441.6,601,441.6"/>
		<path class="st1" d="M631.2,533.9c-0.4,0-0.9-0.2-1.2-0.5l-90.9-92.3c-0.7-0.7-0.7-1.8,0-2.4c0.7-0.7,1.8-0.7,2.4,0l90.9,92.3
			c0.7,0.7,0.7,1.8,0,2.4C632.1,533.7,631.6,533.9,631.2,533.9"/>
		<path class="st1" d="M631.2,595.3c-0.4,0-0.9-0.2-1.2-0.5L509,471.9c-0.7-0.7-0.7-1.8,0-2.4c0.7-0.7,1.8-0.7,2.4,0l121,122.9
			c0.7,0.7,0.7,1.8,0,2.4C632.1,595.2,631.6,595.3,631.2,595.3"/>
		<path class="st1" d="M631.3,656.6c-0.4,0-0.9-0.2-1.2-0.5l-121.5-123c-0.7-0.7-0.7-1.8,0-2.4c0.7-0.7,1.8-0.7,2.4,0l121.5,123
			c0.7,0.7,0.7,1.8,0,2.4C632.2,656.5,631.8,656.6,631.3,656.6"/>
		<path class="st1" d="M601,687.4c-0.4,0-0.9-0.2-1.2-0.5l-91.2-92c-0.7-0.7-0.7-1.8,0-2.4c0.7-0.7,1.8-0.7,2.4,0l91.2,92
			c0.7,0.7,0.7,1.8,0,2.4C601.9,687.2,601.4,687.4,601,687.4"/>
		<path class="st1" d="M540.3,72.9c-0.4,0-0.9-0.2-1.2-0.5c-0.7-0.7-0.7-1.8,0-2.4l60.7-61.4c0.7-0.7,1.8-0.7,2.4,0
			c0.7,0.7,0.7,1.8,0,2.4l-60.7,61.4C541.2,72.8,540.7,72.9,540.3,72.9"/>
		<path class="st1" d="M540.3,134.4c-0.4,0-0.9-0.2-1.2-0.5c-0.7-0.7-0.7-1.8,0-2.4L599.8,70c0.7-0.7,1.8-0.7,2.4,0
			c0.7,0.7,0.7,1.8,0,2.4l-60.7,61.4C541.2,134.2,540.7,134.4,540.3,134.4"/>
		<path class="st1" d="M540.3,195.8c-0.4,0-0.9-0.2-1.2-0.5c-0.7-0.7-0.7-1.8,0-2.4l60.7-61.4c0.7-0.7,1.8-0.7,2.4,0
			c0.7,0.7,0.7,1.8,0,2.4l-60.7,61.4C541.2,195.6,540.7,195.8,540.3,195.8"/>
		<path class="st1" d="M540.3,257.3c-0.4,0-0.9-0.2-1.2-0.5c-0.7-0.7-0.7-1.8,0-2.4l60.7-61.4c0.7-0.7,1.8-0.7,2.4,0
			c0.7,0.7,0.7,1.8,0,2.4l-60.7,61.4C541.2,257.1,540.7,257.3,540.3,257.3"/>
		<path class="st1" d="M540.3,318.7c-0.4,0-0.9-0.2-1.2-0.5c-0.7-0.7-0.7-1.8,0-2.4l60.7-61.4c0.7-0.7,1.8-0.7,2.4,0
			c0.7,0.7,0.7,1.8,0,2.4l-60.7,61.4C541.2,318.5,540.7,318.7,540.3,318.7"/>
		<path class="st1" d="M540.3,380.1c-0.4,0-0.9-0.2-1.2-0.5c-0.7-0.7-0.7-1.8,0-2.4l60.7-61.4c0.7-0.7,1.8-0.7,2.4,0
			c0.7,0.7,0.7,1.8,0,2.4l-60.7,61.4C541.2,380,540.7,380.1,540.3,380.1"/>
		<path class="st1" d="M540.3,441.6c-0.4,0-0.9-0.2-1.2-0.5c-0.7-0.7-0.7-1.8,0-2.4l60.7-61.4c0.7-0.7,1.8-0.7,2.4,0
			c0.7,0.7,0.7,1.8,0,2.4l-60.7,61.4C541.2,441.4,540.7,441.6,540.3,441.6"/>
		<path class="st1" d="M509.8,533.6c-0.4,0-0.9-0.2-1.2-0.5c-0.7-0.7-0.7-1.8,0-2.4l91.2-92c0.7-0.7,1.8-0.7,2.4,0
			c0.7,0.7,0.7,1.8,0,2.4l-91.2,92C510.7,533.4,510.2,533.6,509.8,533.6"/>
		<path class="st1" d="M509.8,595.3c-0.4,0-0.9-0.2-1.2-0.5c-0.7-0.7-0.7-1.8,0-2.4L630,469.5c0.7-0.7,1.8-0.7,2.4,0
			c0.7,0.7,0.7,1.8,0,2.4L511,594.8C510.7,595.2,510.2,595.3,509.8,595.3"/>
		<path class="st1" d="M509.8,656.8c-0.4,0-0.9-0.2-1.2-0.5c-0.7-0.7-0.7-1.8,0-2.4L630,531c0.7-0.7,1.8-0.7,2.4,0
			c0.7,0.7,0.7,1.8,0,2.4L511,656.3C510.7,656.6,510.2,656.8,509.8,656.8"/>
		<path class="st1" d="M540.3,687.4c-0.4,0-0.9-0.2-1.2-0.5c-0.7-0.7-0.7-1.8,0-2.4l90.9-92c0.7-0.7,1.8-0.7,2.4,0
			c0.7,0.7,0.7,1.8,0,2.4l-90.9,92C541.2,687.2,540.7,687.4,540.3,687.4"/>
		<path class="st1" d="M787.3,133.7H107.9V69.9h679.3V133.7z M111.4,130.2h672.4v-57H111.4V130.2z"/>
		<path class="st1" d="M724.1,134c-0.4,0-0.9-0.2-1.2-0.5c-0.7-0.7-0.7-1.8,0-2.4l61.4-60.7c0.7-0.7,1.8-0.7,2.4,0
			c0.7,0.7,0.7,1.8,0,2.4l-61.4,60.7C725,133.8,724.5,134,724.1,134"/>
		<path class="st1" d="M662.7,134c-0.4,0-0.9-0.2-1.2-0.5c-0.7-0.7-0.7-1.8,0-2.4l61.4-60.7c0.7-0.7,1.8-0.7,2.4,0
			c0.7,0.7,0.7,1.8,0,2.4l-61.4,60.7C663.5,133.8,663.1,134,662.7,134"/>
		<path class="st1" d="M601.2,134c-0.4,0-0.9-0.2-1.2-0.5c-0.7-0.7-0.7-1.8,0-2.4l61.4-60.7c0.7-0.7,1.8-0.7,2.4,0
			c0.7,0.7,0.7,1.8,0,2.4l-61.4,60.7C602.1,133.8,601.6,134,601.2,134"/>
		<path class="st1" d="M539.8,134c-0.4,0-0.9-0.2-1.2-0.5c-0.7-0.7-0.7-1.8,0-2.4L600,70.4c0.7-0.7,1.8-0.7,2.4,0
			c0.7,0.7,0.7,1.8,0,2.4L541,133.5C540.6,133.8,540.2,134,539.8,134"/>
		<path class="st1" d="M478.3,134c-0.4,0-0.9-0.2-1.2-0.5c-0.7-0.7-0.7-1.8,0-2.4l61.4-60.7c0.7-0.7,1.8-0.7,2.4,0
			c0.7,0.7,0.7,1.8,0,2.4l-61.4,60.7C479.2,133.8,478.8,134,478.3,134"/>
		<path class="st1" d="M416.9,134c-0.4,0-0.9-0.2-1.2-0.5c-0.7-0.7-0.7-1.8,0-2.4l61.4-60.7c0.7-0.7,1.8-0.7,2.4,0
			c0.7,0.7,0.7,1.8,0,2.4l-61.4,60.7C417.7,133.8,417.3,134,416.9,134"/>
		<path class="st1" d="M355.4,134c-0.4,0-0.9-0.2-1.2-0.5c-0.7-0.7-0.7-1.8,0-2.4l61.4-60.7c0.7-0.7,1.8-0.7,2.4,0
			c0.7,0.7,0.7,1.8,0,2.4l-61.4,60.7C356.3,133.8,355.9,134,355.4,134"/>
		<path class="st1" d="M294,134c-0.4,0-0.9-0.2-1.2-0.5c-0.7-0.7-0.7-1.8,0-2.4l61.4-60.7c0.7-0.7,1.8-0.7,2.4,0
			c0.7,0.7,0.7,1.8,0,2.4l-61.4,60.7C294.9,133.8,294.4,134,294,134"/>
		<path class="st1" d="M232.5,134c-0.4,0-0.9-0.2-1.2-0.5c-0.7-0.7-0.7-1.8,0-2.4l61.4-60.7c0.7-0.7,1.8-0.7,2.4,0
			c0.7,0.7,0.7,1.8,0,2.4l-61.4,60.7C233.4,133.8,233,134,232.5,134"/>
		<path class="st1" d="M171.1,134c-0.4,0-0.9-0.2-1.2-0.5c-0.7-0.7-0.7-1.8,0-2.4l61.4-60.7c0.7-0.7,1.8-0.7,2.4,0
			c0.7,0.7,0.7,1.8,0,2.4l-61.4,60.7C172,133.8,171.5,134,171.1,134"/>
		<path class="st1" d="M109.7,134c-0.4,0-0.9-0.2-1.2-0.5c-0.7-0.7-0.7-1.8,0-2.4l61.4-60.7c0.7-0.7,1.8-0.7,2.4,0
			c0.7,0.7,0.7,1.8,0,2.4l-61.4,60.7C110.5,133.8,110.1,134,109.7,134"/>
		<path class="st1" d="M785.5,133.7c-0.4,0-0.9-0.2-1.2-0.5l-61.4-60.4c-0.7-0.7-0.7-1.8,0-2.4c0.7-0.7,1.8-0.7,2.4,0l61.4,60.4
			c0.7,0.7,0.7,1.8,0,2.4C786.4,133.5,786,133.7,785.5,133.7"/>
		<path class="st1" d="M724.1,133.7c-0.4,0-0.9-0.2-1.2-0.5l-61.4-60.4c-0.7-0.7-0.7-1.8,0-2.4c0.7-0.7,1.8-0.7,2.4,0l61.4,60.4
			c0.7,0.7,0.7,1.8,0,2.4C725,133.5,724.5,133.7,724.1,133.7"/>
		<path class="st1" d="M662.7,133.7c-0.4,0-0.9-0.2-1.2-0.5L600,72.8c-0.7-0.7-0.7-1.8,0-2.4c0.7-0.7,1.8-0.7,2.4,0l61.4,60.4
			c0.7,0.7,0.7,1.8,0,2.4C663.5,133.5,663.1,133.7,662.7,133.7"/>
		<path class="st1" d="M601.2,133.7c-0.4,0-0.9-0.2-1.2-0.5l-61.4-60.4c-0.7-0.7-0.7-1.8,0-2.4c0.7-0.7,1.8-0.7,2.4,0l61.4,60.4
			c0.7,0.7,0.7,1.8,0,2.4C602.1,133.5,601.7,133.7,601.2,133.7"/>
		<path class="st1" d="M539.8,133.7c-0.4,0-0.9-0.2-1.2-0.5l-61.4-60.4c-0.7-0.7-0.7-1.8,0-2.4c0.7-0.7,1.8-0.7,2.4,0l61.4,60.4
			c0.7,0.7,0.7,1.8,0,2.4C540.7,133.5,540.2,133.7,539.8,133.7"/>
		<path class="st1" d="M478.3,133.7c-0.4,0-0.9-0.2-1.2-0.5l-61.4-60.4c-0.7-0.7-0.7-1.8,0-2.4c0.7-0.7,1.8-0.7,2.4,0l61.4,60.4
			c0.7,0.7,0.7,1.8,0,2.4C479.2,133.5,478.8,133.7,478.3,133.7"/>
		<path class="st1" d="M416.9,133.7c-0.4,0-0.9-0.2-1.2-0.5l-61.4-60.4c-0.7-0.7-0.7-1.8,0-2.4c0.7-0.7,1.8-0.7,2.4,0l61.4,60.4
			c0.7,0.7,0.7,1.8,0,2.4C417.8,133.5,417.3,133.7,416.9,133.7"/>
		<path class="st1" d="M355.4,133.7c-0.4,0-0.9-0.2-1.2-0.5l-61.4-60.4c-0.7-0.7-0.7-1.8,0-2.4c0.7-0.7,1.8-0.7,2.4,0l61.4,60.4
			c0.7,0.7,0.7,1.8,0,2.4C356.3,133.5,355.9,133.7,355.4,133.7"/>
		<path class="st1" d="M294,133.7c-0.4,0-0.9-0.2-1.2-0.5l-61.4-60.4c-0.7-0.7-0.7-1.8,0-2.4c0.7-0.7,1.8-0.7,2.4,0l61.4,60.4
			c0.7,0.7,0.7,1.8,0,2.4C294.9,133.5,294.4,133.7,294,133.7"/>
		<path class="st1" d="M232.5,133.7c-0.4,0-0.9-0.2-1.2-0.5l-61.4-60.4c-0.7-0.7-0.7-1.8,0-2.4c0.7-0.7,1.8-0.7,2.4,0l61.4,60.4
			c0.7,0.7,0.7,1.8,0,2.4C233.4,133.5,233,133.7,232.5,133.7"/>
		<path class="st1" d="M171.1,133.7c-0.4,0-0.9-0.2-1.2-0.5l-61.4-60.4c-0.7-0.7-0.7-1.8,0-2.4c0.7-0.7,1.8-0.7,2.4,0l61.4,60.4
			c0.7,0.7,0.7,1.8,0,2.4C172,133.5,171.5,133.7,171.1,133.7"/>
		<path class="st1" d="M632.9,687.4H508.1V464.8l31.6-26.7h62l31.3,26.7V687.4z M511.5,683.9h118V466.4l-29.1-24.8h-59.4l-29.4,24.8
			V683.9z"/>
		<path class="st1" d="M109.7,73.3c-0.8,0-1.6-0.6-1.7-1.5c-0.1-0.9,0.5-1.8,1.5-1.9L540,8.1c0.9-0.1,1.8,0.5,1.9,1.5
			c0.1,0.9-0.5,1.8-1.5,1.9L109.9,73.3C109.8,73.3,109.7,73.3,109.7,73.3"/>
		<path class="st1" d="M785.5,73.3c-0.2,0-0.4,0-0.5-0.1L600.1,11.4c-0.9-0.3-1.4-1.3-1.1-2.2c0.3-0.9,1.3-1.4,2.2-1.1l184.9,61.8
			c0.9,0.3,1.4,1.3,1.1,2.2C786.9,72.8,786.3,73.3,785.5,73.3"/>
		<rect x="717.3" y="118.5" class="st2" width="35.5" height="15.6"/>
		<path class="st1" d="M750.8,132.1h-31.5v-11.6h31.5V132.1z M754.8,116.5h-39.6v19.7h39.6V116.5z"/>
		<path class="st2" d="M765.2,118.5H791v45.6h-25.8V118.5z M766.3,162.5H790v-12.6h-23.7V162.5z"/>
		<path class="st1" d="M789,120.5v27.3h-1.1h-19.6h-1.1v-27.3H789z M793.1,116.5h-29.8v49.6h29.8V116.5z M768.3,151.9h19.6v8.5
			h-19.6V151.9z"/>
		<rect x="539.3" y="2" class="st2" width="61.7" height="15.5"/>
		<path class="st1" d="M599.1,15.5h-57.7V4.1h57.7V15.5z M603.1,0h-65.8v19.5h65.8V0z"/>
		<rect x="625.9" y="63" class="st2" width="50.8" height="14.2"/>
		<path class="st1" d="M674.7,75.2h-46.8V65.1h46.8V75.2z M678.8,61h-54.9v18.3h54.9V61z"/>
		<path class="st2" d="M137.9,126.5h35v43.9h-35V126.5z M158.8,154.9h10.8v-20.2h-10.8V154.9z M141.2,154.9h10.7v-20.2h-10.7V154.9z
			"/>
		<path class="st1" d="M170.9,128.5v4.3h-3.3h-6.7h-4.1v4.1v16.1v4.1h4.1h6.7h3.3v11.4h-31v-11.4h3.3h6.7h4.1v-4.1v-16.1v-4.1h-4.1
			h-6.7h-3.3v-4.3H170.9z M174.9,124.4h-39.1v48h39.1V124.4z M160.9,136.8h6.7v16.1h-6.7V136.8z M143.2,136.8h6.7v16.1h-6.7V136.8z"
			/>
		<path class="st1" d="M155.4,241.8c-0.9,0-1.7-0.8-1.7-1.7v-74c0-0.9,0.8-1.7,1.7-1.7c0.9,0,1.7,0.8,1.7,1.7v74
			C157.1,241.1,156.3,241.8,155.4,241.8"/>
		<path class="st1" d="M124.3,427.6c-0.2,0-0.5-0.1-0.7-0.2c-0.4-0.2-0.7-0.5-0.9-1l-5.6-15.4c-5,0.7-10.1,0.7-15.1,0l-5.6,15.4
			c-0.2,0.4-0.5,0.8-0.9,1c-0.4,0.2-0.9,0.2-1.3,0.1l-19.6-7.1c-0.9-0.3-1.4-1.3-1-2.2l5.6-15.4c-4.3-2.7-8.1-6-11.6-9.7l-14.2,8.2
			c-0.4,0.2-0.9,0.3-1.3,0.2c-0.4-0.1-0.8-0.4-1-0.8l-10.4-18.1c-0.5-0.8-0.2-1.9,0.6-2.3l14.2-8.2c-1.5-4.8-2.4-9.8-2.6-14.9
			l-16.1-2.8c-0.9-0.2-1.6-1.1-1.4-2l3.6-20.5c0.1-0.4,0.3-0.8,0.7-1.1c0.4-0.3,0.8-0.4,1.3-0.3l16.1,2.8c1.9-4.7,4.5-9.1,7.6-13.1
			l-10.5-12.5c-0.6-0.7-0.5-1.8,0.2-2.4l16-13.4c0.7-0.6,1.8-0.5,2.4,0.2l10.5,12.5c4.5-2.4,9.3-4.1,14.2-5.2V283
			c0-0.9,0.8-1.7,1.7-1.7H120c0.9,0,1.7,0.8,1.7,1.7v16.4c5,1.1,9.7,2.8,14.2,5.2l10.5-12.5c0.6-0.7,1.7-0.8,2.4-0.2l16,13.4
			c0.4,0.3,0.6,0.7,0.6,1.2c0,0.5-0.1,0.9-0.4,1.3l-10.5,12.5c3.1,4,5.6,8.4,7.6,13.1l16.1-2.8c0.4-0.1,0.9,0,1.3,0.3
			c0.4,0.3,0.6,0.7,0.7,1.1l3.6,20.5c0.2,0.9-0.5,1.8-1.4,2l-16.1,2.8c-0.2,5.1-1.1,10.1-2.6,14.9l14.2,8.2c0.4,0.2,0.7,0.6,0.8,1
			c0.1,0.4,0.1,0.9-0.2,1.3L168,400.6c-0.2,0.4-0.6,0.7-1,0.8c-0.4,0.1-0.9,0.1-1.3-0.2l-14.2-8.2c-3.4,3.8-7.3,7-11.6,9.7l5.6,15.4
			c0.3,0.9-0.1,1.9-1,2.2l-19.6,7.1C124.7,427.6,124.5,427.6,124.3,427.6 M118.3,407.5c0.7,0,1.4,0.4,1.6,1.1l5.5,15.1l16.4-6
			l-5.5-15.1c-0.3-0.8,0-1.6,0.7-2.1c4.8-2.9,9.2-6.5,12.9-10.8c0.5-0.6,1.4-0.8,2.2-0.4l13.9,8l8.7-15.1l-13.9-8
			c-0.7-0.4-1-1.3-0.8-2c1.8-5.3,2.8-10.9,2.9-16.6c0-0.8,0.6-1.5,1.4-1.7l15.8-2.8l-3-17.2l-15.8,2.8c-0.8,0.1-1.6-0.3-1.9-1.1
			c-2-5.3-4.9-10.2-8.4-14.6c-0.5-0.6-0.5-1.6,0-2.2l10.3-12.3L148,295.5l-10.3,12.3c-0.5,0.6-1.4,0.8-2.2,0.4
			c-4.9-2.8-10.3-4.7-15.8-5.8c-0.8-0.2-1.4-0.9-1.4-1.7v-16.1h-17.4v16.1c0,0.8-0.6,1.5-1.4,1.7c-5.6,1.1-10.9,3-15.8,5.8
			c-0.7,0.4-1.6,0.2-2.2-0.4l-10.3-12.3l-13.3,11.2L68.1,319c0.5,0.6,0.5,1.5,0,2.2c-3.6,4.4-6.4,9.3-8.4,14.6
			c-0.3,0.8-1.1,1.2-1.9,1.1L42,334.1l-3,17.2l15.8,2.8c0.8,0.1,1.4,0.8,1.4,1.7c0.1,5.7,1.1,11.3,2.9,16.6c0.3,0.8-0.1,1.6-0.8,2
			l-13.9,8l8.7,15.1l13.9-8c0.7-0.4,1.6-0.3,2.2,0.4c3.7,4.3,8.1,7.9,12.9,10.8c0.7,0.4,1,1.3,0.7,2.1l-5.5,15.1l16.4,6l5.5-15.1
			c0.3-0.8,1.1-1.2,1.9-1.1c5.6,0.9,11.3,0.9,16.8,0C118.1,407.5,118.2,407.5,118.3,407.5 M109.6,381.5c-7.1,0-13.8-2.8-18.8-7.8
			c-5.9-5.9-8.6-14-7.6-22.3c1.5-11.8,11.1-21.5,23-23c8.3-1,16.4,1.7,22.3,7.6c5.9,5.9,8.6,14,7.6,22.3c-1.5,11.8-11.1,21.5-23,23
			C111.9,381.4,110.7,381.5,109.6,381.5 M112.8,379.5L112.8,379.5L112.8,379.5z M109.5,331.6c-1,0-2,0.1-3,0.2
			c-10.3,1.3-18.7,9.7-20,20c-0.9,7.2,1.5,14.3,6.6,19.4c5.1,5.1,12.2,7.5,19.4,6.6c10.3-1.3,18.7-9.7,20-20
			c0.9-7.2-1.5-14.3-6.6-19.4C121.6,334,115.7,331.6,109.5,331.6"/>
		<path class="st1" d="M183.2,513.5c-0.2,0-0.3,0-0.5-0.1l-17.1-5.3c-0.4-0.1-0.8-0.4-1-0.8c-0.2-0.4-0.3-0.9-0.1-1.3l4.1-13.2
			c-3.7-2.1-7-4.7-10-7.7l-11.7,7.5c-0.4,0.2-0.8,0.3-1.3,0.2c-0.4-0.1-0.8-0.4-1.1-0.8l-9.7-15c-0.2-0.4-0.3-0.9-0.2-1.3
			c0.1-0.4,0.4-0.8,0.7-1.1l11.6-7.5c-1.5-4-2.4-8.1-2.8-12.3l-13.7-1.7c-0.5-0.1-0.9-0.3-1.1-0.7c-0.3-0.4-0.4-0.8-0.3-1.3
			l2.3-17.7c0.1-0.9,1-1.6,1.9-1.5l13.7,1.7c1.4-4,3.4-7.7,5.8-11.2l-9.4-10.2c-0.3-0.3-0.5-0.8-0.5-1.2c0-0.5,0.2-0.9,0.6-1.2
			l13.1-12.1c0.7-0.6,1.8-0.6,2.4,0.1l9.4,10.2c3.7-2.1,7.6-3.8,11.6-4.9l-0.7-13.8c0-0.9,0.7-1.8,1.6-1.8l17.9-0.9
			c0.4,0,0.9,0.1,1.2,0.4c0.3,0.3,0.5,0.7,0.6,1.2l0.7,13.8c4.2,0.7,8.2,2,12.1,3.7l8.4-11c0.6-0.8,1.7-0.9,2.4-0.3l14.2,10.8
			c0.8,0.6,0.9,1.7,0.3,2.4l-8.4,11c2.7,3.2,5,6.8,6.8,10.6l13.5-3.1c0.4-0.1,0.9,0,1.3,0.2c0.4,0.2,0.7,0.6,0.8,1.1l3.9,17.4
			c0.2,0.9-0.4,1.8-1.3,2.1l-13.5,3.1c0,4.2-0.5,8.4-1.6,12.5l12.3,6.3c0.4,0.2,0.7,0.6,0.8,1c0.1,0.4,0.1,0.9-0.1,1.3l-8.2,15.9
			c-0.2,0.4-0.6,0.7-1,0.8c-0.4,0.1-0.9,0.1-1.3-0.1l-12.3-6.3c-2.7,3.3-5.8,6.1-9.3,8.6l5.4,12.8c0.4,0.9,0,1.9-0.9,2.2l-16.5,6.9
			c-0.4,0.2-0.9,0.2-1.3,0c-0.4-0.2-0.8-0.5-0.9-0.9l-5.4-12.8c-2.1,0.4-4.2,0.6-6.3,0.7c-2.1,0.1-4.2,0.1-6.3-0.1l-4.1,13.2
			C184.6,513.1,183.9,513.5,183.2,513.5 M168.3,505.4l13.8,4.3l4-12.9c0.2-0.8,1-1.3,1.8-1.2c2.4,0.3,4.8,0.3,7.2,0.2
			c2.4-0.1,4.8-0.4,7.1-0.9c0.8-0.2,1.6,0.3,1.9,1l5.2,12.5l13.3-5.6l-5.2-12.5c-0.3-0.8-0.1-1.6,0.6-2.1c4-2.7,7.5-5.9,10.5-9.8
			c0.5-0.7,1.4-0.8,2.1-0.5l12,6.2l6.6-12.8l-12-6.2c-0.7-0.4-1.1-1.2-0.9-2c1.3-4.6,2-9.4,1.8-14.2c0-0.8,0.5-1.5,1.3-1.7l13.2-3
			l-3.2-14.1l-13.2,3c-0.8,0.2-1.6-0.2-2-1c-1.9-4.4-4.6-8.5-7.8-12.1c-0.6-0.6-0.6-1.5-0.1-2.2l8.2-10.8l-11.5-8.7l-8.2,10.8
			c-0.5,0.7-1.4,0.9-2.1,0.5c-4.3-2.1-8.9-3.6-13.7-4.3c-0.8-0.1-1.4-0.8-1.5-1.6l-0.7-13.5l-14.4,0.7l0.7,13.5
			c0,0.8-0.5,1.6-1.3,1.8c-4.7,1.1-9.1,3-13.2,5.6c-0.7,0.4-1.6,0.3-2.2-0.3l-9.2-9.9l-10.6,9.8l9.2,9.9c0.6,0.6,0.6,1.5,0.1,2.2
			c-2.9,3.9-5.1,8.2-6.6,12.8c-0.3,0.8-1,1.3-1.8,1.2l-13.4-1.7l-1.8,14.3l13.4,1.7c0.8,0.1,1.4,0.8,1.5,1.6c0.3,4.8,1.4,9.6,3.2,14
			c0.3,0.8,0,1.6-0.7,2.1l-11.4,7.3l7.8,12.1l11.4-7.3c0.7-0.4,1.6-0.3,2.2,0.3c3.4,3.5,7.2,6.4,11.4,8.7c0.7,0.4,1.1,1.2,0.8,2
			L168.3,505.4z M192.9,473.4c-5.7,0-11.2-2.1-15.5-6c-5.3-4.8-8.1-11.7-7.5-19c0.8-10.3,8.8-19,18.9-20.8
			c7.1-1.3,14.3,0.8,19.6,5.6c5.3,4.8,8.1,11.7,7.5,19c-0.8,10.3-8.8,19.1-18.9,20.8C195.6,473.3,194.3,473.4,192.9,473.4
			 M192.9,430.7c-1.2,0-2.3,0.1-3.5,0.3c-8.6,1.5-15.4,9-16.1,17.7c-0.5,6.2,1.8,12,6.4,16.2c4.5,4.1,10.6,5.9,16.7,4.8
			c8.6-1.5,15.4-9,16.1-17.7c0.5-6.2-1.8-12-6.4-16.2C202.5,432.5,197.8,430.7,192.9,430.7"/>
		<path class="st1" d="M233.7,400.2c-0.7,0-1.4-0.5-1.6-1.2l-2.8-9c-1.4,0.1-2.8,0.1-4.1,0.1c-1.4-0.1-2.7-0.2-4.1-0.4l-3.6,8.7
			c-0.2,0.4-0.5,0.8-0.9,0.9c-0.4,0.2-0.9,0.2-1.3,0l-11.7-4.8c-0.9-0.4-1.3-1.4-0.9-2.2l3.6-8.7c-2.2-1.6-4.3-3.5-6.1-5.6l-8.3,4.3
			c-0.4,0.2-0.9,0.3-1.3,0.1c-0.4-0.1-0.8-0.4-1-0.8l-5.9-11.2c-0.2-0.4-0.3-0.9-0.1-1.3c0.1-0.4,0.4-0.8,0.8-1l8.3-4.3
			c-0.7-2.7-1-5.4-1.1-8.2l-9.2-2c-0.9-0.2-1.5-1.1-1.3-2l2.7-12.4c0.1-0.4,0.4-0.8,0.8-1.1c0.4-0.2,0.9-0.3,1.3-0.2l9.2,2
			c1.2-2.5,2.7-4.8,4.4-7l-5.7-7.4c-0.6-0.8-0.4-1.8,0.3-2.4l10-7.7c0.4-0.3,0.8-0.4,1.3-0.3c0.5,0.1,0.9,0.3,1.1,0.7l5.7,7.4
			c2.5-1.1,5.2-2,7.9-2.5l0.4-9.4c0-0.5,0.2-0.9,0.6-1.2c0.3-0.3,0.8-0.5,1.2-0.5l12.6,0.5c0.5,0,0.9,0.2,1.2,0.6
			c0.3,0.3,0.5,0.8,0.4,1.2l-0.4,9.4c2.7,0.7,5.2,1.8,7.6,3.1l6.3-6.9c0.6-0.7,1.7-0.7,2.4-0.1l9.3,8.5c0.3,0.3,0.5,0.7,0.6,1.2
			c0,0.5-0.1,0.9-0.4,1.2l-6.3,6.9c1.6,2.3,2.8,4.7,3.8,7.3l9.3-1.2c0.9-0.1,1.8,0.5,1.9,1.5l1.7,12.5c0.1,0.5-0.1,0.9-0.3,1.3
			c-0.3,0.4-0.7,0.6-1.1,0.7l-9.3,1.2c-0.3,2.8-0.9,5.5-1.8,8.1l7.9,5c0.4,0.2,0.7,0.6,0.8,1.1c0.1,0.4,0,0.9-0.2,1.3l-6.8,10.7
			c-0.5,0.8-1.6,1-2.4,0.5l-7.9-5c-2,1.9-4.2,3.6-6.5,5l2.8,9c0.1,0.4,0.1,0.9-0.1,1.3c-0.2,0.4-0.6,0.7-1,0.8l-12.1,3.8
			C234,400.1,233.9,400.2,233.7,400.2 M230.4,386.5c0.7,0,1.4,0.5,1.6,1.2l2.7,8.6l8.8-2.8l-2.7-8.6c-0.2-0.8,0.1-1.6,0.8-2
			c2.9-1.6,5.6-3.6,7.9-6.1c0.6-0.6,1.5-0.7,2.2-0.3l7.7,4.9l4.9-7.8l-7.6-4.9c-0.7-0.4-1-1.3-0.7-2.1c1.2-3.1,1.9-6.4,2.1-9.8
			c0.1-0.8,0.7-1.5,1.5-1.6l9-1.2l-1.2-9.1l-9,1.2c-0.8,0.1-1.6-0.4-1.9-1.2c-1.1-3.2-2.6-6.2-4.6-8.9c-0.5-0.7-0.4-1.6,0.1-2.2
			l6.1-6.7l-6.8-6.2l-6.1,6.7c-0.6,0.6-1.5,0.7-2.2,0.3c-2.9-1.8-6-3-9.2-3.8c-0.8-0.2-1.4-0.9-1.3-1.7l0.4-9.1l-9.2-0.4l-0.4,9.1
			c0,0.8-0.7,1.5-1.5,1.6c-3.3,0.5-6.5,1.5-9.5,3c-0.7,0.4-1.6,0.2-2.1-0.5l-5.5-7.2l-7.3,5.6l5.5,7.2c0.5,0.7,0.5,1.6-0.1,2.2
			c-2.2,2.5-4,5.4-5.4,8.4c-0.3,0.8-1.2,1.2-1.9,1l-8.8-1.9l-2,9l8.9,2c0.8,0.2,1.4,0.9,1.3,1.7c-0.1,3.4,0.4,6.7,1.3,9.9
			c0.2,0.8-0.1,1.6-0.9,2l-8,4.2l4.3,8.2l8-4.2c0.7-0.4,1.6-0.2,2.1,0.5c2.1,2.6,4.6,4.9,7.4,6.8c0.7,0.5,1,1.3,0.6,2.1l-3.5,8.4
			l8.5,3.5l3.5-8.4c0.3-0.8,1.1-1.2,1.9-1c1.7,0.3,3.3,0.5,5,0.6c1.7,0.1,3.3,0,5-0.2C230.3,386.5,230.4,386.5,230.4,386.5
			 M226.6,371.8c-4.7,0-9.2-1.9-12.4-5.4c-3.5-3.9-5.1-9.1-4.2-14.3c1.3-7.4,7.6-13.3,15.1-13.9c5.3-0.4,10.3,1.5,13.9,5.4
			c3.5,3.9,5.1,9.1,4.2,14.3c-1.3,7.4-7.6,13.3-15.1,13.9C227.6,371.8,227.1,371.8,226.6,371.8 M227.9,370.1L227.9,370.1
			L227.9,370.1z M226.5,341.6c-0.4,0-0.8,0-1.2,0c-6,0.5-11,5.1-12,11c-0.7,4.2,0.5,8.3,3.3,11.4c2.8,3.1,6.8,4.6,11,4.3
			c6-0.5,11-5.1,12-11c0.7-4.2-0.5-8.3-3.3-11.4C233.9,343.2,230.3,341.6,226.5,341.6"/>
		<path class="st1" d="M99.4,498.3c-0.4,0-0.7-0.1-1-0.3c-0.4-0.3-0.6-0.7-0.7-1.1l-1.1-7.2c-1-0.1-2.1-0.2-3.1-0.4
			c-1-0.2-2-0.5-3-0.8l-3.8,6.2c-0.2,0.4-0.6,0.7-1.1,0.8c-0.4,0.1-0.9,0-1.3-0.2l-8.7-5.3c-0.8-0.5-1.1-1.5-0.6-2.4l3.8-6.2
			c-1.5-1.5-2.7-3.1-3.9-4.8l-6.9,2.3c-0.9,0.3-1.9-0.2-2.2-1.1l-3.3-9.6c-0.1-0.4-0.1-0.9,0.1-1.3c0.2-0.4,0.6-0.7,1-0.9l6.9-2.3
			c-0.2-2.1-0.1-4.1,0.1-6.2l-6.8-2.6c-0.4-0.2-0.8-0.5-1-0.9c-0.2-0.4-0.2-0.9,0-1.3l3.7-9.5c0.2-0.4,0.5-0.8,0.9-0.9
			c0.4-0.2,0.9-0.2,1.3,0l6.8,2.6c1.2-1.7,2.6-3.3,4.1-4.6l-3.5-6.4c-0.5-0.8-0.2-1.9,0.7-2.3l8.9-4.9c0.4-0.2,0.9-0.3,1.3-0.1
			c0.4,0.1,0.8,0.4,1,0.8l3.5,6.4c2-0.5,4-0.9,6.1-0.9l1.4-7.1c0.2-0.9,1.1-1.5,2-1.3l10,2c0.4,0.1,0.8,0.4,1.1,0.7
			c0.3,0.4,0.3,0.8,0.3,1.3l-1.4,7.1c1.9,0.9,3.6,1.9,5.3,3.2l5.7-4.6c0.4-0.3,0.8-0.4,1.3-0.4c0.5,0.1,0.9,0.3,1.2,0.6l6.4,7.9
			c0.6,0.7,0.5,1.8-0.3,2.4l-5.7,4.6c0.9,1.9,1.5,3.8,2,5.9l7.3,0.2c0.5,0,0.9,0.2,1.2,0.5c0.3,0.3,0.5,0.8,0.5,1.2l-0.2,10.2
			c0,0.9-0.8,1.7-1.7,1.7h0l-7.3-0.2c-0.5,2-1.3,3.9-2.2,5.8l5.5,4.8c0.7,0.6,0.8,1.7,0.2,2.4l-6.7,7.6c-0.6,0.7-1.7,0.8-2.4,0.2
			l-5.5-4.8c-1.7,1.2-3.5,2.2-5.4,3l1.1,7.2c0.1,0.9-0.5,1.8-1.4,2l-10,1.5C99.6,498.3,99.5,498.3,99.4,498.3 M89.8,484.7
			c0.2,0,0.4,0,0.6,0.1c1.3,0.5,2.5,0.8,3.8,1.1c1.3,0.3,2.6,0.4,4,0.5c0.8,0,1.5,0.6,1.6,1.5l1.1,6.9l6.6-1l-1.1-6.9
			c-0.1-0.8,0.3-1.6,1.1-1.9c2.5-0.9,4.8-2.2,6.9-3.8c0.6-0.5,1.6-0.5,2.2,0.1l5.2,4.6l4.4-5.1l-5.2-4.6c-0.6-0.5-0.8-1.4-0.3-2.2
			c1.3-2.3,2.3-4.8,2.9-7.4c0.2-0.8,0.9-1.4,1.7-1.4h0l6.9,0.2l0.1-6.7l-6.9-0.2c-0.8,0-1.5-0.6-1.7-1.4c-0.4-2.6-1.3-5.1-2.5-7.5
			c-0.4-0.7-0.2-1.6,0.4-2.1l5.4-4.3l-4.2-5.2l-5.4,4.3c-0.6,0.5-1.6,0.5-2.2,0c-2-1.7-4.3-3.1-6.8-4.1c-0.8-0.3-1.2-1.1-1-1.9
			l1.4-6.8l-6.6-1.3l-1.4,6.8c-0.2,0.8-0.9,1.4-1.7,1.4c-0.1,0-0.1,0-0.2,0c-2.6,0-5.2,0.4-7.7,1.2c-0.8,0.3-1.6-0.1-2-0.8l-3.3-6.1
			l-5.9,3.2l3.3,6.1c0.4,0.7,0.2,1.6-0.4,2.2c-2,1.7-3.8,3.7-5.2,6c-0.4,0.7-1.3,1-2.1,0.7l-6.5-2.5l-2.4,6.3l6.5,2.5
			c0.8,0.3,1.2,1.1,1.1,1.9c-0.5,2.6-0.5,5.3-0.2,7.9c0.1,0.8-0.4,1.6-1.2,1.9l-6.6,2.2l2.2,6.4l6.6-2.2c0.8-0.3,1.6,0.1,2,0.8
			c1.3,2.3,3,4.4,5,6.2c0.6,0.6,0.7,1.5,0.3,2.2L79,488l5.7,3.5l3.6-5.9C88.6,485,89.2,484.7,89.8,484.7 M99.1,475.1
			c-0.3,0-0.6,0-0.9,0c-4.3-0.3-8.2-2.5-10.6-6.1c-2.4-3.6-3-8-1.6-12.1c2-5.9,7.9-9.8,14.1-9.4c4.3,0.3,8.2,2.5,10.6,6.1
			c2.4,3.6,3,8,1.6,12.1C110.4,471.3,104.9,475.1,99.1,475.1 M98.4,471.7c4.6,0.3,9.1-2.6,10.5-7c1-3.1,0.6-6.4-1.2-9.1
			c-1.8-2.7-4.7-4.4-8-4.6c-4.7-0.4-9.1,2.6-10.5,7c-1,3.1-0.6,6.4,1.2,9.1C92.2,469.7,95.1,471.4,98.4,471.7"/>
		<path class="st1" d="M153.8,610.4c-27.4,0-51.8-18.4-59.3-44.8l-3.7-13.1c-3.7-13.2-11.9-24.5-22.9-31.9
			C23.7,490.7-1.6,441.2,0.1,388c2.5-79.7,66.8-145,146.4-148.6c42.5-2,82.8,13.1,113.5,42.4c30.7,29.3,47.6,68.8,47.6,111.2
			c0,50.8-25,98.2-67,126.9c-11.6,8-20.1,19.5-23.8,32.4l-3.8,13.3C205.6,592,181.2,610.4,153.8,610.4 M153.8,242.6
			c-2.4,0-4.8,0.1-7.2,0.2C68.8,246.4,6,310.2,3.5,388.1c-1.6,52,23.1,100.5,66.3,129.6c11.7,7.9,20.3,19.9,24.3,33.9l3.7,13.1
			c7.1,24.9,30.1,42.3,56,42.3c25.9,0,48.9-17.4,56-42.2l3.8-13.3c3.9-13.7,12.8-25.9,25.1-34.3c41-28.1,65.5-74.5,65.5-124.1
			c0-41.5-16.5-80.1-46.5-108.7C229.3,257.2,192.7,242.6,153.8,242.6"/>
		<path class="st1" d="M171.2,666.4h-33.9c-22,0-39.8-17.9-39.8-39.8v-53.3c0-0.9,0.8-1.7,1.7-1.7c0.9,0,1.7,0.8,1.7,1.7v53.3
			c0,20.1,16.3,36.4,36.4,36.4h33.9c20.1,0,36.4-16.3,36.4-36.4v-55c0-0.1,0-0.2,0-0.2c0-0.9,0.8-1.7,1.7-1.7h0
			c0.9,0,1.7,0.8,1.7,1.7v55.2C211,648.5,193.1,666.4,171.2,666.4"/>
		<path class="st1" d="M159.3,687.4h-10.2c-7.3,0-13.2-4.6-13.2-10.3v-12c0-0.9,0.8-1.7,1.7-1.7c0.9,0,1.7,0.8,1.7,1.7v12
			c0,3.8,4.4,6.9,9.7,6.9h10.2c5.4,0,9.7-3.1,9.7-6.9v-12.3c0,0,0-0.1,0-0.1c0-0.9,0.8-1.7,1.7-1.7h0c0.9,0,1.7,0.8,1.7,1.7v12.4
			C172.5,682.7,166.6,687.4,159.3,687.4"/>
		<path class="st1" d="M171.2,647.3h-33.9c-22,0-39.8-17.9-39.8-39.8v-34.3c0-0.9,0.8-1.7,1.7-1.7c0.9,0,1.7,0.8,1.7,1.7v34.3
			c0,20.1,16.3,36.4,36.4,36.4h33.9c20.1,0,36.4-16.3,36.4-36.4v-36.2c0-0.9,0.8-1.8,1.7-1.8c0.9,0,1.7,0.7,1.7,1.7v36.3
			C211,629.5,193.1,647.3,171.2,647.3"/>
		<path class="st1" d="M171.2,628.3h-33.9c-22,0-39.8-17.9-39.8-39.8v-15.2c0-0.9,0.8-1.7,1.7-1.7c0.9,0,1.7,0.8,1.7,1.7v15.2
			c0,20.1,16.3,36.4,36.4,36.4h33.9c20.1,0,36.4-16.3,36.4-36.4v-17.1c0-0.9,0.8-1.8,1.7-1.8c0.9,0,1.7,0.7,1.7,1.7v17.2
			C211,610.4,193.1,628.3,171.2,628.3"/>
	</g>
</g>
</svg>
