<?xml version="1.0" encoding="utf-8"?>
<!-- Generator: Adobe Illustrator 25.3.0, SVG Export Plug-In . SVG Version: 6.00 Build 0)  -->
<svg version="1.1" id="Layer_1" xmlns="http://www.w3.org/2000/svg" xmlns:xlink="http://www.w3.org/1999/xlink" x="0px" y="0px"
	 viewBox="0 0 769.9 795" style="enable-background:new 0 0 769.9 795;" xml:space="preserve">
<style type="text/css">
	.st0{fill:#085BBF;}
	.st1{clip-path:url(#SVGID_2_);fill:#085BBF;}
</style>
<g>
	<path class="st0" d="M759.2,268.1h-47.1V64.4h47.1V268.1z M761.6,62h-51.9v208.5h51.9V62z"/>
	<g>
		<defs>
			<rect id="SVGID_1_" width="769.9" height="795"/>
		</defs>
		<clipPath id="SVGID_2_">
			<use xlink:href="#SVGID_1_"  style="overflow:visible;"/>
		</clipPath>
		<path class="st1" d="M649.9,309.2L649.9,309.2c8.3,0,17.1,3.1,26.3,9.2c47.2,31.3,91.3,132.5,91.3,165.2
			c0,42.3-34.4,76.7-76.7,76.7c-40.1,0-72.4-32.1-76.7-76.4c-0.9-9.3-2.2-19-3.6-29.2l-0.5-4c-5.3-38.9-11.3-83,0.7-111.8
			c5.3-12.9,14.1-22,26.3-27C641.2,310.1,645.5,309.2,649.9,309.2 M649.9,306.8c-4.8,0-9.4,0.9-13.8,2.8
			c-13.5,5.7-22.3,15.7-27.5,28.3c-12.2,29.3-6.3,73.1-0.9,113.1c1.6,11.6,3.1,22.7,4.1,33.1c4.4,45.5,37.8,78.5,79.1,78.5
			c43.7,0,79.1-35.4,79.1-79.1c0-33.1-44.7-135.5-92.4-167.2C667.9,310,658.7,306.8,649.9,306.8"/>
		<path class="st1" d="M690.9,427.8c30.8,0,55.8,25,55.8,55.8c0,30.8-25,55.8-55.8,55.8c-30.8,0-55.8-25-55.8-55.8
			C635,452.8,660.1,427.8,690.9,427.8 M690.9,425.4c-32.1,0-58.2,26.1-58.2,58.2c0,32.1,26.1,58.2,58.2,58.2
			c32.1,0,58.2-26.1,58.2-58.2C749.1,451.5,723,425.4,690.9,425.4"/>
		<path class="st1" d="M690.9,434.4c27.2,0,49.2,22.1,49.2,49.2c0,27.2-22.1,49.2-49.2,49.2c-27.2,0-49.2-22.1-49.2-49.2
			C641.6,456.4,663.7,434.4,690.9,434.4 M690.9,431.7c-28.6,0-51.9,23.2-51.9,51.9c0,28.6,23.2,51.9,51.9,51.9
			c28.6,0,51.9-23.2,51.9-51.9C742.7,455,719.5,431.7,690.9,431.7"/>
		<path class="st1" d="M669.8,706l55.3,58.8v27.9H346.7v-28.9L537.4,706H669.8z M670.9,703.6H537.1l-192.8,58.3V795h383.2v-31.2
			L670.9,703.6z"/>
		<path class="st1" d="M690.9,448.2c19.5,0,35.4,15.9,35.4,35.4c0,19.5-15.9,35.4-35.4,35.4c-19.5,0-35.4-15.9-35.4-35.4
			C655.5,464.1,671.3,448.2,690.9,448.2 M690.9,446c-20.8,0-37.6,16.9-37.6,37.6s16.9,37.6,37.6,37.6c20.8,0,37.6-16.8,37.6-37.6
			S711.6,446,690.9,446"/>
		<path class="st1" d="M690.9,456.4c15,0,27.2,12.2,27.2,27.2c0,15-12.2,27.2-27.2,27.2s-27.2-12.2-27.2-27.2
			C663.7,468.6,675.9,456.4,690.9,456.4 M690.9,454.1c-16.3,0-29.5,13.2-29.5,29.5s13.2,29.5,29.5,29.5c16.3,0,29.5-13.2,29.5-29.5
			S707.2,454.1,690.9,454.1"/>
		<path class="st1" d="M700.9,64.4v203.7h-44.7h-3.5l1.3,3.3l13.1,33.2l-6-1.6c-4.1-1-7.9-1.5-11.6-1.5c-5.3,0-10.4,1.1-15.5,3.2
			c-14.1,6-24,16.3-30.1,31.3c-0.2,0.5-0.5,1-0.7,1.7l-2.9,7.4l-31.4-75.5l-0.6-1.5h-1.6h-47.8h-189v-58.8h8.6h2.4v-2.4V107v-2.4
			h-2.4h-8.6V64.4H700.9z M703.3,62H327.5v45h11v100h-11v63.5h191.4h47.8l33.7,81l5-13c0.2-0.6,0.4-1.1,0.7-1.6
			c5.9-14.4,15.3-24.3,28.9-30.1c4.7-2,9.5-3,14.6-3c3.5,0,7.1,0.5,11.1,1.5l10.6,2.8l-14.9-37.5h47.1V62z"/>
		<path class="st1" d="M625.9,535.9l3.6,4.2c15,17,35.6,27,57.9,28l4.3,0.1l-41.1,114.3h-73.5L625.9,535.9z M625,531.1l-51.2,153.7
			h78.5l42.8-119l-7.6-0.2c-21.7-1-41.5-10.6-56.2-27.2L625,531.1z"/>
		<path class="st1" d="M655.5,332.6c14.3,0,25.9,11.6,25.9,25.9c0,14.3-11.6,25.9-25.9,25.9c-14.3,0-25.9-11.6-25.9-25.9
			C629.6,344.2,641.2,332.6,655.5,332.6 M655.5,330.2c-15.7,0-28.3,12.7-28.3,28.3c0,15.5,12.7,28.3,28.3,28.3
			c15.6,0,28.3-12.8,28.3-28.3C683.9,342.9,671.1,330.2,655.5,330.2"/>
		<path class="st1" d="M655.5,343.7c8.2,0,14.8,6.7,14.8,14.8s-6.7,14.8-14.8,14.8s-14.8-6.7-14.8-14.8S647.4,343.7,655.5,343.7
			 M655.5,341.3c-9.6,0-17.2,7.7-17.2,17.2c0,9.4,7.7,17.2,17.2,17.2c9.4,0,17.2-7.8,17.2-17.2C672.8,349,665,341.3,655.5,341.3"/>
		<path class="st1" d="M512.6,306.8v2.4c35.2,0,69.9,55.6,83.2,79.5l0.4,0.7v0.8c0.5,20.3,3.5,42.4,5.9,60.2l0.2,1.5l4.3,33l0.6,4.3
			l0.7,5.6l0,0.1l0,0.1c2,9.9,5.3,19.3,9.8,27.7l0.9,1.7l-1,1.5c-14.3,21.6-38.2,34.5-64.1,34.5c-40,0-72.3-32.1-76.7-76.4
			c-1-10.9-2.6-22.4-4-33.2l-0.1-0.9c-4.9-36.5-10.5-77.9-1-106.4c5.2-15.5,14.4-25.9,28-31.7c4.2-1.8,8.6-2.7,13-2.7L512.6,306.8z
			 M512.6,306.8c-4.6,0-9.3,0.9-13.9,2.9c-15.2,6.4-24.3,18.2-29.3,33.1c-9.8,29.2-4.1,70.4,1,108.3c1.6,11.6,3,22.7,4,33.1
			c4.6,45.5,37.8,78.5,79.1,78.5c26.7,0,51.3-13.2,66.1-35.5l1.8-2.7l-1.6-3c-4.4-8.3-7.7-17.6-9.6-27.1l-0.7-5.6l-0.6-4.3l-4.3-33
			c-2.4-18.1-5.6-40.6-6.1-61.4v-1.3l-0.7-1.2C583.5,361.6,548.9,306.8,512.6,306.8"/>
		<path class="st1" d="M553.5,445.3c21.1,0,38.3,17.2,38.3,38.3c0,21.1-17.2,38.3-38.3,38.3c-21.1,0-38.3-17.2-38.3-38.3
			C515.2,462.5,532.4,445.3,553.5,445.3 M553.5,442.9c-22.3,0-40.7,18.2-40.7,40.7c0,22.4,18.3,40.7,40.7,40.7
			c22.4,0,40.7-18.2,40.7-40.7C594.1,461.2,575.9,442.9,553.5,442.9"/>
		<path class="st1" d="M553.5,456.4c15,0,27.2,12.2,27.2,27.2c0,15-12.2,27.2-27.2,27.2s-27.2-12.2-27.2-27.2
			C526.3,468.6,538.5,456.4,553.5,456.4 M553.5,454.1c-16.2,0-29.5,13.2-29.5,29.5s13.3,29.5,29.5,29.5c16.3,0,29.5-13.2,29.5-29.5
			S569.8,454.1,553.5,454.1"/>
		<path class="st1" d="M488.5,535.8l3.7,4.2c14.9,17,35.4,27,57.9,28l4.3,0.1l-41.2,114.3h-73.5L488.5,535.8z M487.6,531.1
			l-51.2,153.7h78.5l42.9-119l-7.6-0.2c-21.7-1-41.6-10.6-56.2-27.2L487.6,531.1z"/>
		<path class="st1" d="M518.1,332.6c14.3,0,25.9,11.6,25.9,25.9c0,14.3-11.6,25.9-25.9,25.9c-14.3,0-25.9-11.6-25.9-25.9
			C492.2,344.2,503.8,332.6,518.1,332.6 M518.1,330.2c-15.7,0-28.3,12.7-28.3,28.3c0,15.5,12.7,28.3,28.3,28.3
			c15.7,0,28.3-12.8,28.3-28.3C546.5,342.9,533.8,330.2,518.1,330.2"/>
		<path class="st1" d="M518.1,343.7c8.2,0,14.8,6.7,14.8,14.8s-6.7,14.8-14.8,14.8c-8.2,0-14.8-6.7-14.8-14.8S510,343.7,518.1,343.7
			 M518.1,341.3c-9.4,0-17.2,7.7-17.2,17.2c0,9.4,7.8,17.2,17.2,17.2c9.6,0,17.2-7.8,17.2-17.2C535.4,349,527.7,341.3,518.1,341.3"
			/>
		<path class="st1" d="M519.6,275.5l10.4,29.1l-6.3-1.6c-4-1-7.8-1.5-11.5-1.5c-5.3,0-10.4,1-15.7,3.2c-14.6,6.3-24.7,17.1-30.8,33
			l-1.2,3.3l-1.6,4l-27.6-69.5H519.6z M521.3,273.1h-89.5l31.2,78.4l3.8-9.7l1.2-3.3c5.9-15.3,15.6-25.7,29.5-31.7
			c4.7-1.9,9.6-3,14.8-3c3.4,0,7,0.5,10.9,1.4l10.7,2.8L521.3,273.1z"/>
		<path class="st1" d="M510.5,706l-171.4,52.1l-1.7,0.5v1.8v32.3H207v-28.9L397.7,706H510.5z M526.6,703.6H397.3l-192.7,58.3V795
			h135.2v-34.7L526.6,703.6z"/>
		<path class="st1" d="M405.9,122.9c22.9,0,41.6,18.7,41.6,41.6c0,23-18.7,41.7-41.6,41.7c-23,0-41.7-18.7-41.7-41.7
			C364.1,141.6,382.9,122.9,405.9,122.9 M405.9,120.5c-24.3,0-44.1,19.8-44.1,44c0,24.3,19.8,44.1,44.1,44.1c24.3,0,44-19.8,44-44.1
			C449.8,140.3,430.2,120.5,405.9,120.5"/>
		<path class="st1" d="M405.9,136.1c15.6,0,28.4,12.7,28.4,28.4c0,15.7-12.7,28.5-28.4,28.5c-15.6,0-28.4-12.8-28.4-28.5
			C377.5,148.8,390.2,136.1,405.9,136.1 M405.9,133.7c-17,0-30.8,13.8-30.8,30.8c0,17,13.8,30.9,30.8,30.9c17,0,30.8-13.9,30.8-30.9
			C436.6,147.5,422.8,133.7,405.9,133.7"/>
		<path class="st1" d="M333.6,111.7v90.5H215l-1.1-1c-3.3-3-6.6-13.3-6.6-27.3v-34c0-14,3.3-24.3,6.6-27.3l0.7-0.7l48.7-0.3H333.6z
			 M336,109.3h-72.7l-49.6,0.3l-1.4,1.3c-4.4,3.9-7.4,15.8-7.4,29v34c0,13.2,3.1,25.1,7.4,29l1.4,1.3l0.5,0.2
			c0.1,0.1,0.2,0.1,0.5,0.1H336V109.3z"/>
		<path class="st1" d="M229.9,2.4l59,102.2l-28.8,0.2h-46.5h-1l-0.3,0.3h0l-1.4-2.7l-16.7-46.9l-0.5-1.5l-1.6-0.1L81.4,49.7L80,49.7
			l-0.7,1.2L58.6,86.7H4.1L52.7,2.4H229.9z M231.2,0H51.3L0,89.1h60l21.3-37l110.6,4.2l16.8,47.1l2.1,4.1h2.4l0.3-0.3h46.5L293,107
			L231.2,0z"/>
		<path class="st1" d="M209.7,207.4l2.2,1l0,0l0.7,0.7h1h0c0.6,0.2,1.2,0.2,1.5,0.2h72.4l-57.7,100H52.7L4.1,225.1h54.5l20.6,35.7
			l0.7,1.2l1.4,0l106.3-2.7l1.6,0l0.6-1.5L209.7,207.4z M208.4,204.1l-20.8,52.8l-106.3,2.7L60,222.7H0l51.3,89h179.9l60.4-104.7
			h-76.5c-0.3,0-0.7,0-1-0.2h-0.6l-0.3-0.3L208.4,204.1z"/>
	</g>
</g>
</svg>
