<?xml version="1.0" standalone="no"?>
<!DOCTYPE svg PUBLIC "-//W3C//DTD SVG 20010904//EN"
 "http://www.w3.org/TR/2001/REC-SVG-20010904/DTD/svg10.dtd">
<svg version="1.0" xmlns="http://www.w3.org/2000/svg"
 width="200.000000pt" height="200.000000pt" viewBox="0 0 200.000000 200.000000"
 preserveAspectRatio="xMidYMid meet">

<g transform="translate(0.000000,200.000000) scale(0.100000,-0.100000)"
fill="#fff" stroke="none">
<path d="M972 1761 c-22 -38 -22 -39 -2 -44 19 -5 20 -14 20 -136 0 -124 -1
-131 -20 -131 -16 0 -20 -7 -20 -34 0 -32 -5 -37 -62 -70 -35 -19 -69 -40 -77
-45 -13 -8 1 -18 160 -108 24 -14 30 -12 117 37 51 29 94 56 97 60 3 4 -26 25
-63 46 -59 35 -67 43 -70 73 -2 23 -9 35 -23 38 -18 5 -19 15 -19 139 0 112 2
134 15 134 8 0 15 2 15 4 0 6 -41 76 -44 76 -1 0 -12 -17 -24 -39z m56 -363
c3 -25 0 -28 -27 -28 -28 0 -31 3 -31 31 0 27 3 30 28 27 21 -2 28 -9 30 -30z"/>
<path d="M698 1236 c-43 -25 -78 -40 -78 -35 0 5 -22 9 -50 9 l-50 0 0 -50 c0
-47 2 -50 25 -50 25 0 25 0 25 -94 l0 -94 92 -54 c51 -29 96 -54 100 -56 4 -2
8 48 8 111 l0 116 -75 42 c-41 24 -75 49 -75 55 0 7 33 -6 78 -32 42 -24 81
-44 86 -44 12 0 196 103 196 110 0 7 -184 110 -196 110 -5 0 -44 -20 -86 -44z
m-98 -76 c0 -27 -3 -30 -30 -30 -27 0 -30 3 -30 30 0 27 3 30 30 30 27 0 30
-3 30 -30z"/>
<path d="M1101 1226 l-93 -54 38 -24 c72 -45 151 -88 162 -88 6 0 41 18 80 40
72 42 82 46 82 32 0 -5 -34 -28 -75 -51 l-75 -43 0 -114 c0 -63 2 -114 4 -114
3 0 48 25 100 56 l96 56 0 94 c0 94 0 94 25 94 23 0 25 3 25 51 l0 50 -62 -2
c-57 -3 -69 0 -126 34 -35 20 -68 37 -75 37 -7 0 -54 -25 -106 -54z m349 -66
c0 -27 -3 -30 -30 -30 -27 0 -30 3 -30 30 0 27 3 30 30 30 27 0 30 -3 30 -30z"/>
<path d="M892 1104 c-105 -63 -105 -53 1 -113 31 -18 57 -37 57 -42 0 -14 -7
-11 -79 31 -83 49 -96 51 -87 9 3 -17 6 -68 6 -113 l0 -82 91 -52 c50 -29 95
-52 100 -52 5 0 9 43 9 95 0 57 4 95 10 95 6 0 10 -38 10 -95 0 -52 3 -95 6
-95 3 0 48 25 100 56 l94 55 0 116 0 115 -47 -27 c-27 -15 -63 -36 -80 -47
-24 -14 -33 -16 -33 -6 0 7 32 30 70 51 39 21 68 42 65 47 -7 11 -179 110
-191 110 -5 -1 -51 -26 -102 -56z m136 -171 c-2 -22 -9 -29 -30 -31 -25 -3
-28 0 -28 27 0 28 3 31 31 31 27 0 30 -3 27 -27z"/>
<path d="M1318 850 l-98 -55 0 -117 0 -118 75 45 c41 24 75 40 75 35 0 -6 21
-10 48 -10 40 0 64 -10 157 -64 90 -52 110 -68 108 -85 -2 -19 2 -21 42 -21
25 0 45 3 45 8 0 4 -11 24 -24 45 -21 34 -25 37 -34 21 -9 -15 -21 -11 -123
48 l-114 65 -3 42 c-3 36 -6 41 -27 41 -24 0 -24 3 -27 88 l-3 88 -97 -56z
m132 -170 c0 -27 -3 -30 -30 -30 -27 0 -30 3 -30 30 0 27 3 30 30 30 27 0 30
-3 30 -30z"/>
<path d="M570 816 c0 -85 0 -86 -25 -86 -23 0 -25 -4 -25 -44 l0 -44 -111 -63
c-101 -56 -112 -60 -121 -45 -9 16 -13 13 -34 -21 -13 -21 -24 -41 -24 -45 0
-5 20 -8 45 -8 39 0 44 2 42 21 -3 32 201 148 261 149 23 0 42 4 42 10 0 5 34
-10 75 -35 l75 -44 0 117 0 117 -88 50 c-48 28 -93 51 -99 53 -10 3 -13 -19
-13 -82z m30 -136 c0 -27 -3 -30 -30 -30 -27 0 -30 3 -30 30 0 27 3 30 30 30
27 0 30 -3 30 -30z"/>
<path d="M780 696 c0 -138 1 -140 91 -192 77 -45 79 -47 79 -85 l0 -39 50 0
50 0 0 43 0 42 80 45 80 45 0 113 c0 61 -3 112 -7 112 -5 0 -48 -24 -98 -53
l-90 -53 -3 -97 c-4 -125 -22 -128 -22 -3 l0 94 -99 56 c-54 31 -102 56 -105
56 -3 0 -6 -38 -6 -84z m248 -263 c-2 -22 -9 -29 -30 -31 -25 -3 -28 0 -28 27
0 28 3 31 31 31 27 0 30 -3 27 -27z"/>
</g>
</svg>
