<?xml version="1.0" encoding="utf-8"?>
<!-- Generator: Adobe Illustrator 25.3.0, SVG Export Plug-In . SVG Version: 6.00 Build 0)  -->
<svg version="1.1" id="Layer_1" xmlns="http://www.w3.org/2000/svg" xmlns:xlink="http://www.w3.org/1999/xlink" x="0px" y="0px"
	 viewBox="0 0 300 300" style="enable-background:new 0 0 300 300;" xml:space="preserve">
<style type="text/css">
	.st0{fill:#FFFFFF;}
</style>
<g>
	<path class="st0" d="M63,298.5c-1.6-0.7-3.2-1.3-4.7-2.2c-4.6-2.9-7-7.1-7.1-12.5c0-2.1,0-4.3,0.2-6.4c0.2-2,0.3-3.5-2.4-4.2
		c-2.3-0.5-3.1-2.7-2.8-5.1c0.3-2.4,1.9-4,4.1-4.2c2.1-0.1,2.5-1.1,2.7-2.8c0.4-3.2,0.8-6.3,1.2-9.5c0.2-1.4,0.2-2.5-1.6-3.1
		c-2.2-0.8-3.3-2.7-2.9-5.1c0.3-2.5,1.9-4,4.4-4.2c1.7-0.1,2.4-0.8,2.7-2.5c0.6-3.5,1.4-7,2.3-10.4c0.3-1.3,0.3-2-1-2.8
		c-2.1-1.1-2.8-3.1-2.2-5.5c0.6-2.2,2.1-3.5,4.4-3.5c1.6,0,2.2-0.6,2.6-2c8.2-27.7,20.5-53.4,36.6-77.4c0.7-1,1-2,1-3.3
		c0-6.3-0.1-12.6,0-18.9c0-1.8-0.4-2.6-2.4-2.5c-2.1,0.2-4.3,0-6.4,0c-7,0-11-4-11.1-10.9c-0.1-10.9,0-21.9,0-32.8
		c0-0.9,0.1-1.7,0.2-2.6c0.7-4.6,4.4-8,9.1-8.2c2.7-0.1,5.4-0.1,8.1,0c1.6,0,2.3-0.3,2.6-2.1c1.2-8.6,8.8-14,17.4-12.4
		c1.9,0.4,2.5-0.2,2.3-2c0-0.4,0-0.8,0-1.2c0-2,0.5-4.2-0.2-6c-0.8-2.2-3.5-1.2-5.3-1.9c-6.3-2.7-10.5-9.6-9.4-16.1
		c1.3-7.5,7.2-12.7,14.6-12.7c18.3,0,36.5,0,54.8,0c7.9,0,14.1,6,14.6,14c0.5,7.7-5,14.5-12.6,15.5c-1.6,0.2-2.1,0.6-2.1,2.2
		c-0.2,7.8-0.3,7.8,7.5,7.8c13.5,0,27.1,0,40.6,0c7.3,0,11.2,3.9,11.2,11.3c0,14,0,28,0,42.1c0,6.4-2.4,9.5-8.5,10.9
		c-1.6,0.4-1.4,1.3-1.4,2.3c0,5.7-0.1,11.4,0,17.1c0,3.3-1.1,6.1-3.6,8.2c-0.9,0.8-1.2,1.6-1.2,2.7c0,10.6,0.1,21.3,0,31.9
		c0,1.7,0.4,2.4,2.3,2.3c2.9-0.2,5.8,0,8.5,1.2c10.1,4.4,12.1,17.7,3.7,24.9c-1.4,1.2-1.7,2.2-1,3.9c1.5,4.2,2.8,8.4,4.2,12.6
		c0.4,1.3,0.9,2.1,2.6,2.1c2.4-0.1,3.9,1.4,4.6,3.7c0.7,2.4-0.3,4.2-2.3,5.4c-1.1,0.7-1.4,1.2-1.1,2.5c1,3.7,1.8,7.5,2.5,11.3
		c0.2,1.1,0.6,1.7,1.8,1.8c2.7,0.2,4.7,1.3,5.1,4.2c0.4,2.8-0.8,4.7-3.5,5.6c-1.1,0.4-1.2,1.1-1.1,2c0.5,3.7,1.1,7.4,1.5,11.2
		c0.1,1.3,0.6,1.7,1.9,1.8c2.6,0.2,4.4,1.6,4.6,4.3c0.3,2.8-0.9,4.7-3.7,5.4c-1.3,0.3-1.7,0.9-1.6,2.2c0.2,2.2,0.2,4.4,0.3,6.7
		c0.4,7-3.5,13-10,15.3c-0.6,0.2-1.4,0.2-1.8,0.8C179,298.5,121,298.5,63,298.5z M100.4,153c-7.5,9.2-25.3,49.2-27.4,61.4
		c1,0,1.9,0,2.9,0c49.4,0,98.8,0,148.2,0c0.1,0,0.2,0,0.3,0c2.2,0.3,2.9-0.3,2-2.6c-1.2-3-2.3-6.1-3.2-9.3c-0.6-2.4-1.9-3-4.3-3
		c-25.9,0.1-51.8,0.1-77.7,0c-19.6-0.1-35.2-12.1-39.7-30.4C100.3,164,100.7,158.8,100.4,153z M150.2,273.9c-27.4,0-54.7,0-82.1,0
		c-6.6,0-6.6,0-6.9,6.8c-0.2,6.5,1.1,7.9,7.6,7.9c54.1,0,108.3,0,162.4,0c1,0,1.9,0.1,2.9,0c3-0.3,4.7-2.2,4.7-5.2
		c0-2-0.2-4.1-0.1-6.1c0.1-2.8-1.1-3.5-3.8-3.5C206.7,273.9,178.4,273.9,150.2,273.9z M150,263.8c27.8,0,55.7,0,83.5,0
		c0.8,0,1.5,0,2.3,0c1.1,0.1,1.5-0.4,1.3-1.5c-0.5-3.2-1.1-6.5-1.2-9.8c-0.1-2.8-1.3-3.4-3.9-3.4c-54.7,0.1-109.4,0.1-164.2,0.1
		c-0.3,0-0.6,0-0.9,0c-1.8-0.3-2.6,0.6-2.8,2.3c-0.4,3.1-0.7,6.1-1.3,9.2c-0.4,2.5,0.2,3.3,2.9,3.2
		C93.9,263.7,121.9,263.8,150,263.8z M197,95.5c8.3,0,16.6-0.1,24.9,0c1.9,0,2.4-0.5,2.4-2.4c-0.1-13.2-0.1-26.5,0-39.7
		c0-2-0.7-2.4-2.5-2.4c-16.4,0.1-32.8,0.1-49.3,0c-2.1,0-2.8,0.6-2.8,2.8c0.1,13,0.1,26.1,0,39.1c0,2.3,0.8,2.7,2.8,2.7
		C180.7,95.4,188.9,95.5,197,95.5z M150,239c26.4,0,52.8,0,79.2,0c0.7,0,1.4-0.1,2,0c1.7,0.2,2.5-0.2,1.9-2.2
		c-0.9-3-1.7-6.1-2.2-9.3c-0.4-2.8-1.7-3.4-4.4-3.3c-33.4,0.1-66.7,0.1-100.1,0.1c-17.9,0-35.8,0-53.7-0.1c-2.3,0-3.2,0.6-3.6,2.9
		c-0.5,2.8-1.3,5.6-2,8.4c-0.8,3.5-0.8,3.5,2.7,3.5C96.6,239,123.3,239,150,239z M110.5,109.1c0,16.4,0,32.9,0,49.3
		c0,18.5,12.6,31.1,31.1,31.1c27,0,53.9,0,80.9,0c0.7,0,1.4,0,2,0c2.6-0.2,4.3-1.9,4.5-4.4c0.2-2.6-1.1-4.5-3.7-5.1
		c-1.2-0.3-2.5-0.3-3.7-0.3c-26.4,0-52.8,0-79.2,0c-2.2,0-4.4,0.1-6.6-0.4c-9.6-2.3-15.5-9.9-15.5-20.4c0-33.4,0-66.9,0-100.3
		c0-1.3,0.1-2.7-0.3-4c-0.8-2.5-2.6-3.6-5.1-3.4c-2.6,0.2-4,1.8-4.4,4.3c-0.1,0.8,0,1.7,0,2.6C110.5,75.1,110.5,92.1,110.5,109.1z
		 M130.3,138.6c0,7,0,13.9,0,20.9c0.1,6,4.2,10.2,10.2,10.3c2.2,0,4.5-0.1,6.7,0c2.2,0.2,3-0.4,2.9-2.8c-0.2-9.1-0.1-18.2-0.1-27.3
		c0-7.4,0-14.9,0.2-22.3c0.1-1.8-0.3-2.1-1.9-2.1c-5.1,0.1-10.2,0.1-15.4,0c-2.1-0.1-2.8,0.5-2.8,2.7
		C130.4,124.9,130.3,131.7,130.3,138.6z M145.2,80.8c-4.2,0-8.3,0.1-12.5,0c-1.8,0-2.5,0.4-2.5,2.4c0.1,6.7,0.1,13.3,0,20
		c0,1.8,0.5,2.3,2.3,2.3c7-0.1,13.9,0,20.9,0c0.7,0,1.5,0.3,1.9-0.4c2-2.8,6.2-4.1,4.9-9.3c-1.1-4-0.3-8.4-0.2-12.7
		c0.1-1.8-0.6-2.3-2.3-2.3C153.5,80.9,149.3,80.8,145.2,80.8z M197,125.1c5.1,0,10.2,0,15.4,0c1.5,0,2-0.4,2-2
		c-0.1-5.2-0.1-10.4,0-15.7c0-1.7-0.5-2.1-2.2-2.1c-10.1,0.1-20.1,0.1-30.2,0c-1.7,0-2.4,0.5-2.4,2.3c0.1,5,0.1,10.1,0,15.1
		c0,2,0.7,2.4,2.5,2.4C187.2,125.1,192.1,125.1,197,125.1z M145.1,50.9c3.5,0,7-0.1,10.4,0c2.7,0.1,5,0.2,5.1-3.5
		c0-0.9,0.8-2.1,1.6-2.7c2.8-1.9,2.8-4.5,2.6-7.4c-0.1-1.3-0.1-2.5,0-3.8c0.2-1.9-0.5-2.5-2.5-2.5c-10,0.1-19.9,0.1-29.9,0
		c-1.7,0-2.4,0.4-2.4,2.2c0.1,5.1,0.1,10.2,0,15.4c-0.1,2,0.8,2.2,2.4,2.2C136.8,50.8,140.9,50.9,145.1,50.9z M147.4,21.2
		c8.8,0,17.6,0,26.4,0c3.7,0,5.9-1.8,5.9-4.9c0-3-2.2-4.9-5.9-4.9c-17.4,0-34.8,0-52.2,0c-3.9,0-6.1,1.9-6,5.1c0.1,3,2.2,4.7,6,4.7
		C130.2,21.3,138.8,21.2,147.4,21.2z M169.8,138.3c0-9.8,0-19.7,0-29.5c0-2.2-0.6-2.3-2.3-1.3c-5.2,3.1-7.6,7.8-7.6,13.7
		c0,13.7,0,27.4,0,41.1c0,7.6,0,7.5,7.5,7.4c2,0,2.3-0.7,2.3-2.5C169.7,157.6,169.8,148,169.8,138.3z M100.5,83.2
		c0-3.4,0-6.8,0-10.1c0-7.4,0-7.3-7.4-7.3c-1.9,0-2.4,0.6-2.4,2.4c0.1,8.3,0,16.6,0,24.9c0,7.7,0,7.7,7.7,7.3
		c1.6-0.1,2.2-0.6,2.2-2.2C100.5,93.3,100.5,88.2,100.5,83.2z M189.5,152.7c0-3.5,0-7,0-10.4c0-7.1,0-7-7.1-7.1
		c-2.3,0-2.7,0.8-2.7,2.9c0.1,8.1,0,16.2,0,24.3c0,7.6,0,7.5,7.6,7.4c1.9,0,2.2-0.7,2.2-2.4C189.5,162.5,189.5,157.6,189.5,152.7z
		 M209.3,152.4c0-3.4,0-6.8,0-10.2c0-7.2,0-7.1-7.1-7.1c-2,0-2.6,0.6-2.6,2.6c0.1,8.2,0,16.4,0,24.7c0,7.5,0,7.4,7.4,7.3
		c1.8,0,2.3-0.5,2.3-2.3C209.3,162.5,209.3,157.5,209.3,152.4z M145,70.7c2.6,0,5.2,0,7.8,0c7.2,0,7.2,0,7.1-7.3
		c0-1.9-0.6-2.5-2.5-2.4c-6.7,0.1-13.3,0-20,0c-7.6,0-7.6,0-7.3,7.7c0.1,1.5,0.5,2,2,2C136.5,70.6,140.7,70.7,145,70.7z"/>
</g>
</svg>
