<?xml version="1.0" encoding="utf-8"?>
<!-- Generator: Adobe Illustrator 25.3.0, SVG Export Plug-In . SVG Version: 6.00 Build 0)  -->
<svg version="1.1" id="Layer_1" xmlns="http://www.w3.org/2000/svg" xmlns:xlink="http://www.w3.org/1999/xlink" x="0px" y="0px"
	 viewBox="0 0 300 300" style="enable-background:new 0 0 300 300;" xml:space="preserve">
<style type="text/css">
	.st0{fill:#FFFFFF;}
</style>
<g>
	<path class="st0" d="M248.1,48.4c2.3,0,4.6,0,6.9,0c0.2,0.2,0.5,0.4,0.7,0.4c9.3,2,15.5,7.5,18,16.6c2.5,9.2-0.2,17-7.2,23.4
		c-0.9,0.8-1.1,1.7-1.1,2.8c0,28.1,0,56.2,0,84.3c0,1.7,0.4,2.2,2.2,2.5c13.1,2.7,22.3,10.2,27.5,22.5c1.3,3.1,1.7,6.4,2.7,9.6
		c0,12.9-0.1,25.8,0.1,38.7c0,2-0.4,2.4-2.4,2.4c-92.3-0.1-184.5-0.1-276.8-0.1c-4.9,0-9.8-0.1-14.7,0c-1.4,0-1.8-0.3-1.8-1.8
		c0.1-13.3,0-26.6,0-39.8c0.2-0.3,0.4-0.6,0.5-1c2.7-15.6,13.6-27.3,29-30.5c2.3-0.5,2.9-1.1,2.9-3.4c-0.1-27.6-0.1-55.2,0-82.7
		c0-1.8-0.5-2.9-1.8-4.2c-10.7-9.8-9.6-26.8,2-35.4c3.1-2.3,6.6-3.3,10.1-4.5c2.3,0,4.6,0,6.9,0c5.1,1.4,10,3.4,13.5,7.6
		c1.1,1.3,2.1,1.6,3.7,1.6c8.4-0.1,16.7,0,25.1,0c1.4,0,2.5-0.3,3.7-1.1c2.8-2.1,6.1-3.3,9.6-3.5c9.1-0.4,17,5.6,18.9,14.4
		c2,8.8-2.6,17.6-11.1,21c-1.7,0.7-2.3,1.5-2.3,3.3c0.1,5,0.1,10,0,15c0,1.7,0.4,2.6,2.1,3.5c9.1,4.9,9.8,17.6,1.2,23.1
		c-2.7,1.7-3.6,3.5-3.2,6.3c0.1,0.4,0,0.8,0,1.2c-0.2,2.5-2.1,4.4-4.5,4.4c-2.5,0.1-4.5-1.8-4.7-4.5c-0.1-1.1-0.1-2.3,0-3.5
		c0.2-1.6-0.5-2.3-1.9-3.1c-4.8-2.6-7.4-6.7-7.4-12.1c0-5.3,2.5-9.4,7.2-11.9c1.7-0.9,2-1.9,2-3.6c-0.1-4.3-0.2-8.7,0-13
		c0.2-3-0.3-5.1-3.7-5.9c-2-0.4-3.2-2.6-5.6-2.6c-8.7,0.1-17.3,0-26,0.1c-2.5,0-6.4,3.9-6.4,6.5c0,28,0,56,0,84
		c0,1.8,0.6,2.3,2.4,2.7c7.4,1.4,13.8,4.7,19.1,10c7.6,7.7,11.2,17.1,10.9,27.9c-0.1,2.1,0.2,3.1,2.7,3c4.5-0.2,9-0.1,13.6,0
		c1.7,0,2.2-0.4,2.3-2.2c0.2-2.9-1.5-2.5-3.2-2.5c-4.5,0-6.1-1.5-6.1-6c0-5.7,0-11.4,0-17c0.1-7.4,5.5-13.3,12.8-13.8
		c2-0.1,2.4-1,2.7-2.5c1-3.9,1.9-7.8,2.9-11.7c0.9-3.4,2.2-4.4,5.7-4.4c14.7,0,29.4,0,44.2,0c3.5,0,4.7,1,5.6,4.5c1,4,2,8,3,12
		c0.3,1.4,0.9,1.9,2.4,2.1c7.5,0.6,12.9,6.4,12.9,14c0,5.2,0,10.4,0,15.6c0,6.2-0.9,7.2-7.1,7.2c-1.9,0-2.2,0.7-2.2,2.4
		c0,1.6,0.2,2.5,2.1,2.4c4.7-0.1,9.4-0.1,14.1,0c1.7,0,2.6-0.4,2.3-2.2c-0.1-0.8,0-1.5,0-2.3c0.1-17.9,12.5-33,30.1-36.4
		c2-0.4,2.2-1.1,2.2-2.8c0-27.9,0-55.8,0-83.7c0-2.9-3.9-6.6-6.8-6.6c-6.2,0-12.3,0-18.5,0c-4.7,0-9.4-0.6-13.3,2.9
		c-0.3,0.2-0.7,0.4-1,0.5c-1.8,0.2-2,1.4-2,2.9c0.1,6.3,0.5,12.7-0.1,19c-0.7,7,1.1,12.5,6.9,16.6c1.3,0.9,2.4,2.3,2.4,4.1
		c0,3.3,0.1,6.5,0,9.8c-0.1,2.5-2.2,4.3-4.6,4.3c-2.4,0-4.3-1.8-4.5-4.4c-0.1-1.2,0-2.5,0-3.8c0-3.1-2.9-8.1-4.7-8
		c-1.8,0.1-4.6,5-4.6,8.1c0,1.1,0,2.1,0,3.2c-0.1,2.9-2,4.9-4.6,4.9c-2.6,0-4.4-2-4.6-4.9c-0.5-10.4-0.5-10.4,6.9-17.8
		c0.3-0.3,0.5-0.6,0.8-0.8c1.2-0.9,1.5-2,1.5-3.5c-0.1-8.8-0.1-17.7,0-26.5c0-1.8-0.6-2.6-2.3-3.3c-6.9-2.9-10.9-8.1-11.5-15.6
		c-0.6-7.7,2.7-13.7,9.4-17.5c6.6-3.7,13.3-3.2,19.5,1.1c1.1,0.7,2.1,1.2,3.4,1.2c8.6,0,17.1,0,25.7,0c0.8,0,1.8,0.3,2.4-0.5
		C237.4,52.3,242.5,49.9,248.1,48.4z M48.1,242.3c11.6,0,23.3,0,34.9,0c1.6,0,2.4-0.1,2.4-2.1c-0.1-9,0.1-18.1-0.1-27.1
		c-0.3-12.5-10.2-23.7-22.5-25.7c-7.7-1.3-15.5-0.5-23.3-0.5c-15.7,0-27.9,12.2-28,27.9c0,8.3,0.1,16.5-0.1,24.8
		c0,2.1,0.4,2.8,2.7,2.7C25.4,242.3,36.7,242.3,48.1,242.3z M251.5,242.3c11.5,0,23.1,0,34.6,0c1.5,0,2.5,0,2.4-2.1
		c-0.1-9,0.1-18.1-0.1-27.1c-0.3-12.5-10.2-23.7-22.5-25.7c-7.8-1.3-15.7-0.5-23.6-0.5c-15.5,0-27.7,12.3-27.8,27.9
		c-0.1,8.3,0.1,16.5-0.1,24.8c0,2.4,0.8,2.8,2.9,2.8C228.8,242.3,240.2,242.3,251.5,242.3z M150,228.5c-2,0-4,0-6.1,0
		c-15.5,0-31,0.1-46.5-0.1c-2.5,0-3.1,0.7-3,3c0.2,2.6,0.2,5.2,0,7.8c-0.2,2.5,0.5,3.2,3.1,3.2c24.4-0.1,48.9-0.1,73.3-0.1
		c10.6,0,21.2-0.1,31.7,0.1c2.3,0,3-0.7,2.8-2.9c-0.2-2.7-0.2-5.4,0-8.1c0.2-2.4-0.5-3-3-3C185,228.5,167.5,228.5,150,228.5z
		 M149.9,205.4c11.5,0,23.1,0,34.6,0c1.8,0,2.5-0.4,2.4-2.4c-0.2-3.6,0-7.3-0.1-11c-0.1-3.4-1.8-5.2-5.2-5.2c-21.2,0-42.3,0-63.5,0
		c-3.5,0-5.2,1.8-5.3,5.4c0,3.5,0.2,6.9-0.1,10.4c-0.2,2.4,0.8,2.8,2.9,2.8C127.3,205.4,138.6,205.4,149.9,205.4z M53,135.8
		c0-12.2,0-24.4,0-36.6c0-4.7,0-4.7-4.5-4.7c-0.7,0-1.4,0.1-2-0.1c-2.6-0.8-2.8,0.5-2.8,2.7c0.1,24.7,0,49.4,0,74.1
		c0,6.5,0,6.4,6.6,6.5c2.2,0,2.7-0.6,2.7-2.7C53,162,53,148.9,53,135.8z M256.2,136.1c0-12.1,0-24.2,0-36.3c0-1.8,0.7-4.1-0.4-5.3
		c-0.7-0.8-3,0-4.6,0c-0.5,0-1,0.1-1.4,0c-2.5-0.8-2.9,0.3-2.9,2.6c0.1,24.7,0.1,49.4,0.1,74.1c0,6.5,0,6.5,6.6,6.5
		c2.1,0,2.7-0.5,2.7-2.7C256.2,162.1,256.2,149.1,256.2,136.1z M48.3,57.6c-7.5,0.1-13.7,6.3-13.7,13.8c0,7.6,6.3,13.9,14,13.9
		C56,85.3,62.2,79,62.3,71.5C62.3,63.9,55.9,57.5,48.3,57.6z M251.7,57.6c-7.5-0.1-13.9,6.1-14,13.6c-0.1,7.7,6.1,14.1,13.7,14.1
		c7.5,0.1,13.9-6.1,14-13.6C265.6,64.1,259.3,57.7,251.7,57.6z M171.7,177.7c-0.6-2.6-1.3-4.9-1.7-7.3c-0.3-1.6-1.1-2-2.7-2
		c-10,0.1-20,0-29.9,0c-6.9,0-6.9,0-8.6,6.7c-0.1,0.3-0.1,0.6-0.2,0.8c-0.5,1.4,0,1.8,1.5,1.8C143.8,177.7,157.5,177.7,171.7,177.7z
		 M108.4,80.7c5,0,9.2-4.1,9.3-9c0.1-5.1-4.1-9.4-9.2-9.5c-5,0-9.2,4.1-9.3,9C99.1,76.3,103.3,80.7,108.4,80.7z M191.5,62.2
		c-5,0-9.1,4.2-9.2,9.2c0,5.1,4.2,9.4,9.3,9.3c5,0,9.1-4.2,9.2-9.2C200.8,66.4,196.6,62.2,191.5,62.2z M80.7,76.1
		c2.2,0,4.4-0.1,6.6,0c2.2,0.1,3.7,0.1,2.7-2.9c-0.5-1.4-0.3-3.1,0.2-4.6c0.5-1.5,0-1.8-1.4-1.8c-5.4,0.1-10.8,0-16.1,0
		c-1.2,0-1.7,0.2-1.4,1.6c0.4,2,0.4,4,0,6c-0.3,1.4,0.1,1.7,1.4,1.7C75.3,76.1,78,76.1,80.7,76.1z M219.2,76.1c2.7,0,5.4,0,8.1,0
		c1.2,0,1.6-0.2,1.4-1.6c-0.3-1.9-0.4-3.9,0-5.7c0.3-1.7-0.2-1.9-1.7-1.9c-5,0.1-10,0.1-15,0c-2.2-0.1-2.9,0.4-2.2,2.7
		c0.5,1.5,0.4,3.3-0.1,4.8c-0.5,1.5,0.1,1.8,1.5,1.8C213.9,76,216.6,76.1,219.2,76.1z M149.9,219.3c2.6,0,5.2-0.1,7.8,0
		c2,0.1,1.5-1.3,1.5-2.4c0-1.1,0.4-2.4-1.5-2.3c-5.1,0.1-10.2,0.1-15.3,0c-2.2,0-1.6,1.4-1.7,2.5c-0.1,1.2-0.1,2.3,1.7,2.2
		C144.9,219.2,147.4,219.3,149.9,219.3z M108.4,117.6c-2.5,0-4.6,2-4.6,4.5c-0.1,2.5,2,4.6,4.4,4.7c2.6,0.1,4.8-2.1,4.8-4.7
		C113,119.7,110.9,117.7,108.4,117.6z M126.8,219.3c0.9,0,1.7-0.1,2.6,0c1.9,0.3,2.1-0.7,2.2-2.3c0.1-1.9-0.6-2.5-2.4-2.4
		c-1.4,0.1-2.9,0.1-4.3,0c-2-0.2-2.6,0.4-2.6,2.5c0,2.2,1,2.3,2.6,2.2C125.5,219.2,126.1,219.3,126.8,219.3z M173.1,219.3
		c0.5,0,1,0,1.4,0c1.6,0,3.3,0.6,3.3-2.4c0-3-1.9-2.2-3.4-2.2c-1.1-0.1-2.3,0.1-3.5,0c-1.7-0.1-2.6,0.2-2.6,2.3
		c0,2.2,0.8,2.7,2.7,2.4C171.7,219.2,172.4,219.3,173.1,219.3z"/>
	<path class="st0" d="M76.1,220.9c0,2.4,0.1,4.8,0,7.2c-0.1,3-1.9,4.9-4.5,5c-2.7,0.1-4.6-2-4.7-5.1c-0.1-4.3,0-8.7,0-13
		c-0.1-5.3-3.5-9.1-8.8-9.6c-3.4-0.3-5.3-2.3-5.1-5c0.2-2.8,2.5-4.4,5.8-4.2c9.2,0.5,17,8.5,17.2,17.8
		C76.1,216.3,76.1,218.6,76.1,220.9z"/>
	<path class="st0" d="M279.3,220.9c0,2.3,0,4.6,0,6.9c-0.1,3.2-1.8,5.2-4.6,5.2c-2.7,0-4.6-2-4.6-5.1c0-4.2,0-8.5,0-12.7
		c0-5.7-3.4-9.3-9.1-9.9c-3-0.3-4.8-2.1-4.7-4.8c0.1-2.7,2.2-4.5,5.3-4.5c9.1,0.1,17.4,8.2,17.7,17.5
		C279.3,216.1,279.3,218.5,279.3,220.9C279.3,220.9,279.3,220.9,279.3,220.9z"/>
	<path class="st0" d="M129.1,200.8c-0.5,0-1,0-1.4,0c-3.3-0.1-5.4-1.8-5.4-4.6c0-2.8,2.1-4.5,5.4-4.6c1.1,0,2.3,0,3.4,0
		c2.9,0.1,4.9,1.9,4.9,4.5c0.1,2.7-1.9,4.6-5,4.7C130.4,200.8,129.8,200.8,129.1,200.8z"/>
	<path class="st0" d="M166.2,191.5c4.7,0,6.9,1.4,6.9,4.5c0,3.2-2.2,4.7-6.8,4.7c-4.9,0-7.1-1.5-7-4.7
		C159.3,192.9,161.4,191.5,166.2,191.5z"/>
</g>
</svg>
