<?xml version="1.0" standalone="no"?>
<!DOCTYPE svg PUBLIC "-//W3C//DTD SVG 20010904//EN"
 "http://www.w3.org/TR/2001/REC-SVG-20010904/DTD/svg10.dtd">
<svg version="1.0" xmlns="http://www.w3.org/2000/svg"
 width="500.000000pt" height="520.000000pt" viewBox="0 0 500.000000 520.000000"
 preserveAspectRatio="xMidYMid meet">
<metadata>
Created by potrace 1.16, written by Peter Selinger 2001-2019
</metadata>
<g transform="translate(0.000000,520.000000) scale(0.100000,-0.100000)"
fill="#fff" stroke="none">
<path d="M2222 4468 c-8 -8 -12 -68 -12 -204 l0 -191 -91 -22 c-114 -26 -251
-80 -353 -138 l-79 -45 -131 131 c-82 82 -139 131 -152 131 -23 0 -344 -318
-344 -341 0 -7 59 -73 131 -145 l131 -131 -47 -76 c-63 -104 -119 -237 -152
-357 l-26 -100 -182 0 c-127 0 -185 -4 -193 -12 -17 -17 -17 -459 0 -476 8 -8
66 -12 194 -12 165 0 183 -2 188 -17 2 -10 12 -49 22 -88 24 -100 84 -241 144
-341 l52 -87 -131 -131 c-72 -72 -131 -138 -131 -145 0 -23 321 -341 344 -341
13 0 70 49 152 131 l131 130 104 -55 c124 -65 205 -96 328 -126 l91 -22 0
-192 c0 -136 4 -196 12 -204 9 -9 77 -12 245 -12 219 0 233 1 243 19 6 12 10
98 10 210 l0 190 43 11 c87 22 195 63 284 109 l92 47 293 -292 c346 -346 351
-349 508 -349 89 0 99 2 158 34 109 59 176 157 188 278 7 66 -12 152 -48 213
-12 19 -154 168 -315 331 l-295 296 30 59 c37 74 86 211 101 286 l12 58 217 2
217 3 5 228 c3 126 2 237 -2 248 -7 18 -19 19 -221 19 l-214 0 -13 58 c-27
120 -122 349 -174 417 -14 19 -7 28 135 171 118 119 148 155 143 170 -12 33
-317 334 -339 334 -13 0 -74 -53 -164 -144 l-143 -144 -42 28 c-109 74 -270
144 -413 180 l-43 11 0 197 c0 141 -3 201 -12 210 -17 17 -469 17 -486 0z
m418 -262 c0 -143 3 -196 13 -203 6 -6 46 -18 87 -28 137 -33 288 -99 402
-177 32 -21 65 -41 73 -44 11 -5 61 38 163 140 l148 146 124 -125 125 -125
-148 -148 c-81 -81 -147 -151 -147 -156 0 -4 20 -40 45 -80 77 -123 138 -280
168 -426 l13 -65 214 -5 215 -5 0 -175 0 -175 -205 0 c-113 0 -210 -3 -217 -8
-6 -4 -14 -26 -18 -50 -14 -92 -107 -357 -125 -357 -3 0 -69 64 -147 143
l-142 142 20 75 c30 109 36 293 14 401 -69 343 -320 609 -660 700 -114 31
-326 31 -440 1 -397 -106 -675 -466 -675 -872 0 -607 591 -1037 1170 -851 l88
28 142 -142 141 -142 -68 -35 c-80 -42 -192 -83 -283 -104 -36 -9 -70 -20 -77
-26 -10 -8 -13 -61 -13 -204 l0 -194 -175 0 -175 0 0 189 c0 146 -3 191 -13
200 -8 6 -37 15 -66 21 -181 34 -348 102 -504 204 l-28 19 -132 -132 c-73 -72
-137 -131 -143 -131 -5 0 -63 54 -129 120 l-120 120 128 128 c70 70 127 135
127 144 0 10 -20 48 -44 85 -87 136 -144 270 -180 426 l-21 92 -39 6 c-21 3
-88 5 -149 3 -62 -2 -129 -1 -149 2 l-38 6 0 174 0 174 187 2 186 3 27 110
c40 160 99 296 181 417 22 31 39 65 39 75 0 10 -57 75 -127 145 l-128 128 125
125 125 125 130 -130 c72 -71 138 -130 147 -130 10 0 41 15 70 34 124 79 279
141 428 171 47 9 91 22 98 27 9 8 12 60 12 199 l0 189 175 0 175 0 0 -194z
m-60 -670 c318 -58 572 -298 651 -616 18 -72 21 -103 16 -220 -3 -74 -10 -153
-17 -174 l-12 -39 -70 70 -70 70 12 58 c16 79 17 209 1 275 -47 196 -209 359
-402 405 -135 31 -306 11 -436 -52 -47 -23 -58 -33 -58 -52 0 -21 24 -39 174
-126 246 -143 253 -163 141 -360 -112 -195 -131 -215 -201 -215 -30 0 -136 54
-279 141 -88 53 -161 88 -175 83 -22 -9 -29 -42 -28 -139 1 -96 21 -172 70
-269 32 -64 142 -172 210 -209 113 -60 277 -82 409 -54 l62 13 79 -78 80 -77
-36 -14 c-110 -44 -328 -55 -456 -23 -149 36 -346 157 -430 262 -136 172 -195
334 -195 541 0 504 463 889 960 799z m89 -247 c267 -61 419 -347 335 -629
l-16 -53 585 -586 c399 -400 592 -600 608 -631 34 -65 34 -176 -1 -243 -29
-58 -77 -102 -138 -129 -58 -26 -169 -22 -225 7 -21 11 -300 282 -621 603
-321 320 -590 582 -599 582 -9 0 -42 -7 -74 -15 -73 -19 -193 -19 -266 0 -203
53 -328 203 -353 423 -3 34 -4 62 0 62 3 0 65 -34 138 -77 191 -110 207 -117
263 -117 75 0 139 34 179 98 69 106 150 251 164 290 28 81 -10 189 -85 237
-21 14 -84 52 -141 84 -112 64 -112 66 -23 91 56 15 210 17 270 3z"/>
<path d="M3850 1411 c-37 -20 -80 -88 -80 -128 0 -36 24 -85 59 -117 40 -38
118 -47 171 -18 38 20 80 89 80 132 0 43 -42 112 -80 132 -45 23 -106 23 -150
-1z m140 -91 c42 -79 -64 -153 -119 -84 -12 15 -21 34 -21 43 0 24 29 61 54
70 27 10 73 -6 86 -29z"/>
<path d="M1327 132 c-23 -25 -21 -55 3 -77 16 -15 26 -17 48 -9 15 5 28 18 30
29 3 18 2 18 -13 -2 -27 -38 -75 -24 -75 22 0 27 18 45 45 44 19 0 19 -1 -2
-9 -15 -6 -23 -18 -23 -34 0 -29 17 -43 33 -27 9 9 8 11 -5 6 -15 -6 -18 -2
-18 20 0 20 4 26 15 21 8 -3 15 0 15 7 0 7 7 3 15 -7 13 -17 15 -17 15 -3 0
17 -28 37 -53 37 -8 0 -21 -8 -30 -18z"/>
<path d="M1476 135 c-32 -32 -12 -95 29 -95 14 0 29 8 35 20 13 25 2 26 -16 3
-10 -14 -17 -16 -31 -7 -24 14 -27 44 -9 69 13 18 17 18 36 7 19 -11 21 -11
18 0 -7 20 -43 21 -62 3z"/>
<path d="M1727 143 c-17 -16 -5 -42 23 -52 17 -5 30 -15 30 -21 0 -18 -29 -23
-47 -9 -14 12 -16 12 -11 -1 3 -9 17 -15 34 -15 23 0 30 5 32 23 3 18 -3 25
-27 33 -17 6 -31 15 -31 20 0 17 30 22 48 8 15 -13 16 -12 3 4 -14 17 -42 23
-54 10z"/>
<path d="M1991 98 c-1 -36 3 -58 10 -58 6 0 9 7 6 15 -10 23 11 28 23 4 7 -11
14 -18 17 -16 2 3 -1 15 -7 27 -9 16 -9 25 1 36 7 9 8 14 1 14 -6 0 -14 -5
-18 -11 -4 -7 -12 -1 -20 17 -12 28 -12 27 -13 -28z"/>
<path d="M2071 93 c1 -32 4 -46 6 -31 3 20 11 28 31 30 21 2 27 8 27 28 0 21
-5 26 -32 28 l-33 3 1 -58z m54 27 c0 -8 -10 -16 -22 -18 -18 -3 -23 2 -23 18
0 16 5 21 23 18 12 -2 22 -10 22 -18z"/>
<path d="M2163 95 c0 -45 1 -52 6 -26 9 49 29 51 34 4 l4 -38 1 44 c2 38 0 43
-17 38 -15 -3 -21 1 -24 17 -2 11 -4 -6 -4 -39z"/>
<path d="M3081 136 c-7 -8 -11 -32 -9 -53 3 -33 6 -38 28 -38 21 0 25 5 25 30
0 25 -4 30 -22 29 -13 0 -23 5 -23 12 0 20 19 27 37 12 14 -11 15 -11 11 2 -7
21 -32 24 -47 6z m36 -52 c8 -21 -13 -42 -28 -27 -13 13 -5 43 11 43 6 0 13
-7 17 -16z"/>
<path d="M3156 138 c-3 -7 -4 -20 -5 -28 0 -8 -1 -23 -3 -34 -4 -26 26 -44 46
-27 15 13 16 66 2 90 -10 15 -36 14 -40 -1z m34 -13 c0 -8 -7 -15 -15 -15 -16
0 -20 12 -8 23 11 12 23 8 23 -8z m3 -38 c3 -8 1 -20 -4 -28 -11 -19 -34 3
-26 25 8 20 23 21 30 3z"/>
<path d="M3258 145 c-4 -4 -4 -20 -1 -36 4 -24 2 -29 -13 -29 -14 0 -15 3 -6
12 7 7 12 17 12 23 -1 11 -30 -25 -30 -37 0 -4 9 -8 19 -8 11 0 22 -8 24 -17
4 -17 5 -17 6 0 0 9 7 17 14 17 9 0 9 2 0 8 -6 4 -13 22 -15 41 -2 18 -6 30
-10 26z"/>
<path d="M3323 143 c17 -3 27 -9 24 -16 -3 -7 -12 -29 -21 -49 -9 -22 -12 -38
-6 -38 5 0 10 7 10 15 0 9 9 34 20 55 l20 40 -37 -1 c-32 -2 -33 -3 -10 -6z"/>
<path d="M3397 115 l-27 -40 24 -3 c14 -2 26 -11 28 -20 7 -33 14 21 8 63 l-5
40 -28 -40z m23 -15 c0 -11 -7 -20 -15 -20 -13 0 -14 4 -5 20 6 11 13 20 15
20 3 0 5 -9 5 -20z"/>
<path d="M3473 115 c-28 -42 -28 -45 -3 -45 11 0 20 -7 20 -15 0 -21 18 -19
22 2 5 25 -3 93 -11 93 -3 0 -16 -16 -28 -35z m13 -32 c-10 -10 -19 5 -10 18
6 11 8 11 12 0 2 -7 1 -15 -2 -18z"/>
<path d="M3553 115 c-28 -42 -28 -45 -3 -45 12 0 20 -7 20 -17 0 -15 2 -14 14
3 8 10 11 21 6 24 -5 3 -10 20 -12 37 l-3 32 -22 -34z m17 -15 c0 -11 -7 -20
-15 -20 -13 0 -13 3 -3 20 7 11 14 20 15 20 2 0 3 -9 3 -20z"/>
<path d="M3622 138 c-17 -17 -15 -73 3 -88 29 -24 46 -4 43 47 -3 50 -21 66
-46 41z m33 -43 c0 -42 -19 -58 -30 -25 -9 29 3 72 18 67 7 -2 12 -21 12 -42z"/>
<path d="M1809 129 c-2 -29 3 -74 9 -81 4 -4 6 13 5 38 -1 43 -12 74 -14 43z"/>
<path d="M2308 127 c-7 -22 7 -80 20 -83 7 -1 8 0 2 3 -12 6 -13 60 -1 65 5 2
3 8 -4 15 -10 9 -14 9 -17 0z"/>
<path d="M1564 109 c-5 -9 -2 -10 10 -6 23 9 43 -3 25 -14 -10 -6 -10 -9 -2
-9 7 0 10 -7 7 -15 -4 -8 -13 -15 -21 -15 -9 0 -13 6 -9 15 3 8 1 15 -5 15 -6
0 -9 -8 -7 -17 2 -12 13 -19 34 -20 30 -1 30 0 25 35 -5 28 -12 38 -28 40 -11
2 -25 -2 -29 -9z"/>
<path d="M1641 76 l2 -41 6 34 c8 43 28 51 37 14 10 -47 13 -50 11 -8 -2 36
-5 40 -29 41 -26 1 -28 -1 -27 -40z"/>
<path d="M1850 105 c-26 -31 13 -82 44 -56 19 16 21 42 4 59 -16 16 -33 15
-48 -3z m44 -10 c7 -20 -3 -45 -19 -45 -16 0 -26 25 -19 45 4 8 12 15 19 15 7
0 15 -7 19 -15z"/>
<path d="M1932 108 c-16 -16 -15 -43 3 -58 16 -14 45 -7 45 11 0 8 -4 8 -15
-1 -18 -15 -35 -5 -35 20 0 26 18 34 37 18 14 -11 15 -11 11 2 -6 20 -30 24
-46 8z"/>
<path d="M2243 113 c-15 -5 -17 -41 -4 -61 5 -8 17 -12 27 -10 14 2 19 12 19
38 0 35 -14 45 -42 33z m32 -33 c0 -13 -6 -25 -12 -27 -16 -6 -27 21 -19 43 9
23 31 11 31 -16z"/>
<path d="M2350 105 c-26 -31 13 -82 44 -56 19 16 21 42 4 59 -16 16 -33 15
-48 -3z m44 -10 c7 -18 -2 -45 -15 -45 -5 0 -12 7 -15 15 -7 18 2 45 15 45 5
0 11 -7 15 -15z"/>
<path d="M2467 114 c-4 -4 -7 -20 -7 -36 0 -35 25 -47 48 -24 9 9 11 16 5 16
-6 0 -13 -5 -15 -12 -6 -17 -28 0 -28 22 0 25 20 36 32 19 8 -12 9 -11 5 1 -4
16 -29 25 -40 14z"/>
<path d="M2534 106 c-3 -8 -4 -25 -2 -38 2 -17 9 -23 28 -23 22 0 25 4 25 35
0 29 -4 36 -23 38 -13 2 -24 -3 -28 -12z m41 -26 c0 -27 -22 -39 -31 -16 -8
22 3 49 19 43 6 -2 12 -14 12 -27z"/>
<path d="M2611 76 l2 -41 6 34 c9 49 31 52 32 4 l2 -38 6 34 c8 48 31 53 31 7
0 -20 5 -36 11 -36 6 0 9 16 7 38 -3 37 -3 37 -50 38 l-48 1 1 -41z"/>
<path d="M2857 114 c-4 -4 -7 -20 -7 -36 0 -35 25 -47 48 -24 9 9 11 16 5 16
-6 0 -13 -5 -15 -12 -6 -17 -28 0 -28 22 0 25 20 36 32 19 8 -12 9 -11 5 1 -4
16 -29 25 -40 14z"/>
<path d="M2927 113 c-12 -12 -7 -33 7 -33 17 0 31 -18 22 -27 -3 -3 -12 0 -21
7 -11 9 -15 9 -15 1 0 -20 31 -25 47 -8 15 15 14 17 -10 28 -27 12 -27 35 0
25 8 -3 11 -1 8 4 -7 11 -28 13 -38 3z"/>
<path d="M2991 61 c1 -32 4 -48 7 -36 4 11 16 20 27 20 16 0 20 7 20 35 0 31
-3 35 -27 36 -27 1 -28 0 -27 -55z m44 19 c0 -27 -22 -39 -31 -16 -8 22 3 49
19 43 6 -2 12 -14 12 -27z"/>
<path d="M2768 83 c7 -3 16 -2 19 1 4 3 -2 6 -13 5 -11 0 -14 -3 -6 -6z"/>
</g>
</svg>
