<?xml version="1.0" standalone="no"?>
<!DOCTYPE svg PUBLIC "-//W3C//DTD SVG 20010904//EN"
 "http://www.w3.org/TR/2001/REC-SVG-20010904/DTD/svg10.dtd">
<svg version="1.0" xmlns="http://www.w3.org/2000/svg"
 width="1000.000000pt" height="1000.000000pt" viewBox="0 0 1000.000000 1000.000000"
 preserveAspectRatio="xMidYMid meet">

<g transform="translate(0.000000,1000.000000) scale(0.100000,-0.100000)"
fill="#fff" stroke="none">
<path d="M5525 9869 c-200 -27 -377 -114 -532 -263 l-78 -74 -53 49 c-214 196
-518 287 -839 249 -180 -21 -448 -108 -546 -176 -48 -34 -102 -126 -113 -192
-17 -104 76 -233 191 -267 75 -21 106 -16 251 40 124 49 281 85 366 85 79 0
201 -34 268 -75 68 -41 165 -142 203 -210 27 -47 27 -48 27 -259 0 -239 -10
-328 -44 -402 -44 -95 -138 -177 -251 -219 -45 -17 -94 -20 -455 -24 l-405 -6
-48 -29 c-159 -95 -182 -303 -46 -419 74 -64 98 -67 500 -67 227 0 377 -4 411
-11 157 -34 280 -155 322 -319 16 -59 17 -155 14 -1100 l-3 -1035 -25 -64
c-33 -84 -119 -179 -201 -220 -90 -45 -146 -53 -357 -49 -187 3 -189 3 -230
31 -73 48 -79 69 -85 337 -4 206 -7 244 -27 305 -75 235 -234 392 -470 467
-74 23 -81 23 -520 23 l-445 0 -45 -23 c-64 -33 -115 -87 -140 -145 -62 -144
30 -312 190 -346 32 -7 197 -11 438 -11 369 0 389 -1 420 -20 67 -41 72 -62
72 -286 0 -157 4 -218 19 -285 51 -235 198 -417 412 -512 104 -46 181 -57 392
-57 106 0 219 -5 250 -10 167 -31 287 -140 337 -307 21 -69 21 -83 18 -555
l-4 -483 -24 -65 c-35 -92 -137 -194 -235 -235 l-70 -30 -221 0 -220 0 -42 28
c-73 48 -79 69 -85 337 -4 206 -7 244 -27 305 -74 233 -236 395 -468 468 -63
20 -93 21 -499 25 -287 2 -445 0 -471 -8 -69 -18 -132 -69 -169 -135 -31 -55
-34 -66 -31 -131 3 -58 9 -80 33 -120 37 -59 107 -108 175 -123 32 -7 197 -11
438 -11 369 0 389 -1 420 -20 67 -41 72 -61 72 -287 0 -167 4 -217 20 -288 65
-280 251 -473 525 -544 67 -18 109 -21 289 -21 116 0 231 -5 255 -11 107 -24
224 -106 274 -192 14 -23 35 -74 46 -113 21 -68 22 -86 19 -437 l-3 -366 -39
-40 c-104 -106 -293 -104 -625 6 -178 59 -201 61 -287 23 -121 -52 -191 -227
-133 -334 52 -98 88 -125 245 -182 327 -119 650 -144 872 -67 82 28 177 78
224 119 28 23 32 24 52 10 54 -39 184 -108 244 -130 303 -109 666 -71 1077
112 134 60 151 70 184 108 48 54 64 94 69 171 4 64 1 79 -22 127 -44 89 -126
138 -232 138 -49 0 -78 -7 -150 -39 -139 -63 -215 -91 -321 -120 -85 -24 -116
-28 -238 -28 -123 1 -147 3 -195 24 -65 27 -129 74 -170 126 l-30 38 0 251 c0
288 8 336 69 425 47 70 138 144 211 173 51 21 77 23 340 28 227 5 292 9 320
21 114 51 180 185 151 306 -16 66 -57 122 -116 158 l-48 30 -281 6 c-219 5
-292 10 -332 23 -153 48 -271 175 -303 324 -17 79 -15 652 3 717 35 132 137
245 269 298 46 19 81 22 327 28 245 6 282 9 344 28 201 65 336 184 427 377 58
121 69 192 69 426 0 227 5 246 73 301 l41 32 431 5 430 5 48 28 c82 49 133
152 125 252 -8 95 -61 169 -153 211 -50 24 -51 24 -475 24 -393 0 -431 -2
-510 -20 -203 -49 -359 -177 -460 -379 -57 -114 -70 -190 -70 -410 0 -108 -5
-213 -9 -235 -13 -52 -55 -93 -115 -111 -59 -18 -334 -21 -436 -5 -175 28
-322 166 -359 338 -16 75 -16 2519 0 2594 32 150 163 283 319 324 42 11 139
14 445 14 437 0 466 3 533 65 137 123 111 349 -49 429 l-53 26 -400 0 c-437 0
-482 5 -578 57 -106 58 -192 173 -217 291 -6 31 -11 153 -11 290 l0 237 37 64
c78 131 201 239 306 267 138 38 301 9 507 -90 65 -32 84 -36 150 -36 112 0
172 36 226 133 24 43 29 64 29 122 0 59 -5 79 -29 123 -16 28 -45 64 -63 78
-78 60 -326 158 -473 188 -98 20 -267 27 -355 15z m900 -1847 c54 -43 77 -88
77 -153 0 -67 -21 -110 -74 -149 -28 -21 -44 -25 -108 -25 -81 0 -106 12 -152
70 -42 54 -36 172 11 221 60 61 68 64 152 61 50 -2 72 -8 94 -25z m-3988
-2127 c50 -21 72 -42 94 -90 43 -94 6 -205 -86 -253 -39 -20 -131 -20 -171 1
-142 74 -131 287 18 346 36 15 105 13 145 -4z m1456 -5001 c88 -45 128 -133
101 -224 -22 -76 -108 -140 -187 -140 -45 0 -118 43 -149 88 -60 87 -33 214
57 268 48 29 129 32 178 8z"/>
<path d="M6371 7974 c0 -11 3 -14 6 -6 3 7 2 16 -1 19 -3 4 -6 -2 -5 -13z"/>
<path d="M6340 7709 c0 -5 5 -7 10 -4 6 3 10 8 10 11 0 2 -4 4 -10 4 -5 0 -10
-5 -10 -11z"/>
<path d="M6760 9419 c-63 -28 -98 -64 -131 -134 -35 -72 -38 -142 -10 -207 20
-48 68 -95 279 -273 205 -173 210 -201 84 -393 -106 -159 -123 -229 -81 -322
62 -137 216 -197 352 -136 59 26 82 51 181 203 109 166 142 253 152 403 8 112
-14 219 -65 324 -47 96 -100 161 -201 248 -41 35 -127 108 -190 162 -63 55
-137 109 -165 122 -64 30 -143 31 -205 3z"/>
<path d="M2975 9401 c-59 -15 -103 -47 -310 -224 -265 -228 -369 -331 -435
-432 -229 -352 -260 -734 -88 -1105 16 -36 66 -146 110 -245 179 -400 216
-465 332 -581 141 -141 331 -236 526 -264 88 -13 854 -3 911 11 140 35 221
225 155 364 -29 62 -66 97 -131 126 -50 22 -52 22 -445 16 -334 -6 -405 -5
-453 8 -146 38 -227 114 -306 290 -30 66 -73 161 -96 210 -94 202 -154 343
-171 400 -26 90 -23 230 8 326 47 143 84 186 436 488 179 154 205 181 232 234
69 139 18 298 -115 357 -49 22 -120 31 -160 21z m146 -81 c59 -30 99 -99 99
-168 0 -97 -57 -170 -150 -192 -84 -20 -175 24 -217 104 -46 89 5 228 97 265
44 17 127 13 171 -9z"/>
<path d="M5834 9050 c-12 -5 -26 -15 -30 -22 -6 -10 -4 -9 9 1 10 8 46 17 80
21 l62 7 -50 1 c-27 0 -60 -3 -71 -8z"/>
<path d="M5998 9011 c9 -16 18 -28 20 -27 5 6 -21 56 -29 56 -5 0 0 -13 9 -29z"/>
<path d="M5771 8974 c0 -11 3 -14 6 -6 3 7 2 16 -1 19 -3 4 -6 -2 -5 -13z"/>
<path d="M6028 8963 c-2 -5 -1 -26 3 -48 l6 -40 2 48 c1 44 -3 57 -11 40z"/>
<path d="M5762 8930 c0 -14 2 -19 5 -12 2 6 2 18 0 25 -3 6 -5 1 -5 -13z"/>
<path d="M5770 8884 c0 -10 5 -26 10 -34 8 -11 9 -7 4 15 -8 37 -14 45 -14 19z"/>
<path d="M6006 8853 c-6 -14 -5 -15 5 -6 7 7 10 15 7 18 -3 3 -9 -2 -12 -12z"/>
<path d="M5945 8810 c-13 -6 -15 -9 -5 -9 8 0 22 4 30 9 18 12 2 12 -25 0z"/>
<path d="M5848 8803 c7 -3 16 -2 19 1 4 3 -2 6 -13 5 -11 0 -14 -3 -6 -6z"/>
<path d="M5783 8744 c7 -7 168 -6 175 1 3 3 -37 5 -88 5 -51 0 -91 -3 -87 -6z"/>
<path d="M5730 8730 c-24 -8 -23 -8 8 -9 17 -1 32 4 32 9 0 11 -5 11 -40 0z"/>
<path d="M6003 8723 c9 -2 25 -2 35 0 9 3 1 5 -18 5 -19 0 -27 -2 -17 -5z"/>
<path d="M5678 8713 c7 -3 16 -2 19 1 4 3 -2 6 -13 5 -11 0 -14 -3 -6 -6z"/>
<path d="M5895 8710 c-3 -5 -1 -10 4 -10 6 0 11 5 11 10 0 6 -2 10 -4 10 -3 0
-8 -4 -11 -10z"/>
<path d="M6080 8710 c34 -11 60 -11 35 0 -11 5 -29 8 -40 8 -16 0 -15 -2 5 -8z"/>
<path d="M5945 8700 c3 -5 8 -10 11 -10 2 0 4 5 4 10 0 6 -5 10 -11 10 -5 0
-7 -4 -4 -10z"/>
<path d="M5609 8673 c-13 -16 -12 -17 4 -4 9 7 17 15 17 17 0 8 -8 3 -21 -13z"/>
<path d="M6150 8686 c0 -3 9 -10 20 -16 11 -6 20 -8 20 -6 0 3 -9 10 -20 16
-11 6 -20 8 -20 6z"/>
<path d="M5572 8508 l-2 -118 63 2 62 2 -57 3 -57 4 -4 112 -3 112 -2 -117z"/>
<path d="M6210 8510 l0 -110 -44 0 -45 0 -4 53 -3 52 -2 -57 -2 -58 55 0 55 0
0 115 c0 63 -2 115 -5 115 -3 0 -5 -49 -5 -110z"/>
<path d="M5743 8450 c0 -25 2 -35 4 -22 2 12 2 32 0 45 -2 12 -4 2 -4 -23z"/>
<path d="M6050 8445 l0 -45 -162 -3 -163 -3 168 -2 167 -2 0 50 c0 28 -2 50
-5 50 -3 0 -5 -20 -5 -45z"/>
<path d="M5610 8470 c0 -5 5 -10 10 -10 6 0 10 5 10 10 0 6 -4 10 -10 10 -5 0
-10 -4 -10 -10z"/>
<path d="M5671 8454 c0 -11 3 -14 6 -6 3 7 2 16 -1 19 -3 4 -6 -2 -5 -13z"/>
<path d="M7975 8351 c-22 -10 -58 -38 -81 -63 -55 -59 -78 -121 -72 -195 5
-62 5 -63 379 -816 87 -174 168 -343 180 -375 31 -80 31 -230 0 -321 -42 -121
-96 -179 -306 -326 -174 -121 -190 -136 -226 -207 -50 -99 -37 -194 36 -276
62 -69 128 -96 216 -90 78 6 79 7 299 162 97 68 187 141 240 196 224 228 329
562 275 874 -28 158 -28 160 -397 901 -117 237 -224 445 -236 463 -13 18 -47
46 -75 62 -44 25 -63 30 -122 30 -46 0 -84 -7 -110 -19z"/>
<path d="M1485 8019 c-59 -30 -106 -86 -190 -228 -366 -612 -588 -1371 -645
-2201 -26 -378 -4 -544 100 -765 119 -254 343 -458 613 -559 153 -57 241 -66
665 -66 437 0 452 2 523 73 126 127 94 343 -63 421 l-52 26 -370 0 c-418 0
-461 5 -585 66 -103 51 -205 153 -255 254 -55 113 -69 197 -61 365 28 626 127
1107 335 1637 59 151 176 386 250 504 86 136 100 168 100 239 0 103 -64 203
-156 241 -51 22 -162 18 -209 -7z m983 -3403 c125 -79 97 -287 -43 -326 -134
-38 -245 43 -245 177 1 47 6 66 28 98 61 88 169 109 260 51z"/>
<path d="M7730 7750 c-9 -6 -10 -10 -3 -10 6 0 15 5 18 10 8 12 4 12 -15 0z"/>
<path d="M7815 7660 c-3 -5 -1 -10 4 -10 6 0 11 5 11 10 0 6 -2 10 -4 10 -3 0
-8 -4 -11 -10z"/>
<path d="M7840 7586 c0 -2 7 -7 16 -10 8 -3 12 -2 9 4 -6 10 -25 14 -25 6z"/>
<path d="M7810 7500 c0 -5 7 -7 15 -4 8 4 15 8 15 10 0 2 -7 4 -15 4 -8 0 -15
-4 -15 -10z"/>
<path d="M3785 7420 c-3 -5 -1 -10 4 -10 6 0 11 5 11 10 0 6 -2 10 -4 10 -3 0
-8 -4 -11 -10z"/>
<path d="M3090 7350 l0 -70 34 0 c19 0 38 5 41 10 4 6 -7 10 -24 10 l-31 0 0
60 c0 33 -4 60 -10 60 -6 0 -10 -30 -10 -70z"/>
<path d="M7888 7413 c7 -3 16 -2 19 1 4 3 -2 6 -13 5 -11 0 -14 -3 -6 -6z"/>
<path d="M3200 7364 c-20 -53 11 -94 60 -79 25 8 36 49 21 81 -16 35 -68 34
-81 -2z m60 2 c18 -23 8 -61 -17 -64 -26 -4 -39 28 -23 58 13 24 23 25 40 6z"/>
<path d="M3325 7381 c-10 -9 -5 -91 5 -91 6 0 10 16 10 35 0 22 6 38 15 41 8
4 15 9 15 13 0 7 -38 9 -45 2z"/>
<path d="M3409 7366 c-24 -53 19 -103 68 -80 14 6 11 9 -16 13 -48 8 -53 31
-7 31 28 0 36 4 36 18 0 45 -63 59 -81 18z m59 -9 c2 -11 -3 -17 -16 -17 -26
0 -34 11 -20 27 14 17 32 12 36 -10z"/>
<path d="M3530 7338 c0 -27 5 -48 10 -48 6 0 10 18 10 41 0 33 3 40 18 37 12
-2 18 -15 20 -46 4 -52 22 -46 22 9 0 32 3 39 20 39 17 0 20 -7 20 -40 0 -22
5 -40 10 -40 15 0 13 90 -2 91 -7 1 -39 2 -70 3 l-58 1 0 -47z"/>
<path d="M3787 7383 c-11 -10 -8 -91 3 -98 6 -4 10 15 10 49 0 57 -1 61 -13
49z"/>
<path d="M3841 7311 c1 -47 4 -67 8 -51 5 18 14 25 34 25 34 1 39 7 39 49 0
47 -7 56 -47 54 l-35 -1 1 -76z m59 54 c18 -21 4 -65 -20 -65 -16 0 -20 7 -20
33 0 48 16 61 40 32z"/>
<path d="M3963 7373 c-4 -10 2 -23 15 -34 27 -22 28 -39 2 -39 -11 0 -20 -4
-20 -10 0 -15 46 -12 59 4 15 17 5 44 -20 51 -26 8 -24 24 4 35 21 8 21 9 -6
9 -17 1 -30 -5 -34 -16z"/>
<path d="M4068 7384 c-13 -12 -9 -81 5 -92 6 -6 24 -10 39 -9 27 2 28 4 27 57
-1 30 -3 44 -6 30 -9 -61 -14 -71 -31 -68 -12 2 -18 16 -22 47 -3 23 -8 39
-12 35z"/>
<path d="M4184 7381 c-9 -9 -4 -91 6 -91 6 0 10 16 10 35 0 23 6 38 16 42 21
8 33 -13 35 -57 2 -32 2 -31 8 10 4 32 11 46 24 48 14 3 17 -4 17 -37 0 -23 5
-41 11 -41 6 0 9 19 7 48 l-3 47 -63 0 c-35 0 -65 -2 -68 -4z"/>
<path d="M7946 7373 c-6 -14 -5 -15 5 -6 7 7 10 15 7 18 -3 3 -9 -2 -12 -12z"/>
<path d="M5694 7210 c0 -74 1 -105 3 -67 2 37 2 97 0 135 -2 37 -3 6 -3 -68z"/>
<path d="M5714 7210 c0 -74 1 -105 3 -67 2 37 2 97 0 135 -2 37 -3 6 -3 -68z"/>
<path d="M5812 7208 l-2 -128 68 0 c53 1 63 3 48 11 -10 6 -38 9 -62 6 l-43
-4 -4 121 -3 121 -2 -127z"/>
<path d="M6062 7208 l-2 -128 75 0 c48 0 75 4 75 11 0 8 -23 10 -70 7 l-69 -4
-4 121 -3 120 -2 -127z"/>
<path d="M6351 7293 c-6 -21 -11 -49 -11 -63 0 -18 -3 -21 -9 -12 -6 10 -10 3
-15 -23 -4 -20 -5 -40 -2 -43 3 -3 6 6 6 19 0 16 3 20 9 11 5 -8 13 16 23 65
17 84 16 108 -1 46z"/>
<path d="M6390 7321 c0 -5 5 -13 10 -16 6 -3 10 -2 10 4 0 5 -4 13 -10 16 -5
3 -10 2 -10 -4z"/>
<path d="M5863 7313 c15 -2 39 -2 55 0 15 2 2 4 -28 4 -30 0 -43 -2 -27 -4z"/>
<path d="M6082 7273 l1 -48 4 42 4 42 57 4 57 3 -62 2 -63 2 2 -47z"/>
<path d="M7419 7306 c-29 -10 -446 -261 -774 -466 -33 -21 -249 -153 -480
-295 -231 -142 -435 -272 -453 -289 -104 -97 -110 -264 -13 -365 55 -58 99
-75 191 -76 94 0 81 -6 315 140 39 24 97 60 130 80 33 20 80 49 105 65 25 16
72 45 105 65 33 20 92 56 130 80 39 24 84 52 100 61 17 9 53 31 80 49 55 35
403 250 628 387 176 107 208 134 241 200 28 57 35 141 16 209 -33 119 -198
199 -321 155z"/>
<path d="M5956 7297 c3 -10 9 -15 12 -12 3 3 0 11 -7 18 -10 9 -11 8 -5 -6z"/>
<path d="M5834 7205 c0 -55 1 -76 3 -47 2 29 2 74 0 100 -2 26 -3 2 -3 -53z"/>
<path d="M6405 7260 c-4 -17 -5 -34 -2 -36 2 -3 7 10 11 27 3 18 4 34 2 36 -2
3 -7 -10 -11 -27z"/>
<path d="M5952 7188 c1 -47 6 -84 9 -82 8 4 0 156 -8 164 -3 3 -3 -34 -1 -82z"/>
<path d="M6421 7234 c0 -11 3 -14 6 -6 3 7 2 16 -1 19 -3 4 -6 -2 -5 -13z"/>
<path d="M6100 7210 c0 -5 18 -10 40 -10 22 0 40 5 40 10 0 6 -18 10 -40 10
-22 0 -40 -4 -40 -10z"/>
<path d="M7970 7210 c-8 -5 -10 -10 -5 -10 6 0 17 5 25 10 8 5 11 10 5 10 -5
0 -17 -5 -25 -10z"/>
<path d="M6427 7203 c-11 -11 -8 -20 7 -20 8 0 12 6 9 14 -6 15 -7 15 -16 6z"/>
<path d="M6083 7155 c0 -27 2 -38 4 -22 2 15 2 37 0 50 -2 12 -4 0 -4 -28z"/>
<path d="M6455 7130 c4 -33 2 -39 -4 -25 -8 18 -10 18 -10 2 -1 -15 25 -36 33
-26 1 2 -3 24 -10 49 l-13 45 4 -45z"/>
<path d="M6353 7143 c15 -2 39 -2 55 0 15 2 2 4 -28 4 -30 0 -43 -2 -27 -4z"/>
<path d="M6300 7114 c0 -14 -4 -23 -10 -19 -5 3 -10 1 -10 -4 0 -6 7 -11 15
-11 10 0 15 10 15 30 0 17 -2 30 -5 30 -3 0 -5 -12 -5 -26z"/>
<path d="M7981 7114 c0 -11 3 -14 6 -6 3 7 2 16 -1 19 -3 4 -6 -2 -5 -13z"/>
<path d="M8100 6960 c-9 -6 -10 -10 -3 -10 6 0 15 5 18 10 8 12 4 12 -15 0z"/>
<path d="M8186 6873 c-6 -14 -5 -15 5 -6 7 7 10 15 7 18 -3 3 -9 -2 -12 -12z"/>
<path d="M4313 6303 c20 -2 54 -2 75 0 20 2 3 4 -38 4 -41 0 -58 -2 -37 -4z"/>
<path d="M4303 6043 c15 -2 37 -2 50 0 12 2 0 4 -28 4 -27 0 -38 -2 -22 -4z"/>
<path d="M4366 5885 c-3 -8 -1 -15 4 -15 6 0 10 7 10 15 0 8 -2 15 -4 15 -2 0
-6 -7 -10 -15z"/>
<path d="M6447 5859 c-5 -9 -7 -43 -5 -75 l3 -59 38 -3 c42 -4 52 15 10 20
-27 3 -28 6 -33 68 -4 41 -9 59 -13 49z"/>
<path d="M6562 5818 c-7 -7 -12 -26 -12 -43 0 -17 5 -36 12 -43 29 -29 78 0
78 47 0 32 -16 51 -45 51 -12 0 -26 -5 -33 -12z m53 -38 c0 -28 -4 -35 -20
-35 -13 0 -21 8 -23 23 -5 34 5 54 25 50 13 -2 18 -13 18 -38z"/>
<path d="M6675 5821 c-10 -9 -5 -91 5 -91 6 0 10 16 10 35 0 22 6 38 15 41 8
4 15 9 15 13 0 7 -38 9 -45 2z"/>
<path d="M6767 5824 c-12 -12 -8 -79 5 -92 15 -15 54 -16 63 -2 4 6 -7 10 -24
10 -21 0 -31 5 -31 15 0 10 10 15 31 15 27 0 30 3 27 28 -2 22 -9 28 -33 30
-17 2 -34 0 -38 -4z m53 -19 c0 -8 -9 -15 -20 -15 -20 0 -26 11 -13 23 12 13
33 7 33 -8z"/>
<path d="M6885 5822 c-9 -9 -5 -92 4 -92 6 0 11 17 13 37 2 27 8 39 21 41 14
3 17 -4 17 -37 0 -51 18 -54 22 -4 2 27 8 39 21 41 14 3 17 -4 17 -37 0 -23 5
-41 11 -41 6 0 9 19 7 48 l-3 47 -62 1 c-35 0 -65 -2 -68 -4z"/>
<path d="M7143 5775 c0 -33 2 -45 4 -27 2 18 2 45 0 60 -2 15 -4 0 -4 -33z"/>
<path d="M7190 5754 c0 -47 4 -73 10 -69 6 3 10 15 10 26 0 15 5 19 19 14 25
-8 51 19 51 54 0 36 -17 51 -57 51 l-33 0 0 -76z m65 26 c0 -28 -4 -35 -20
-35 -13 0 -21 8 -23 23 -5 34 5 54 25 50 13 -2 18 -13 18 -38z"/>
<path d="M7316 5813 c-5 -12 1 -23 18 -36 33 -24 33 -37 -1 -37 -20 0 -24 -3
-16 -11 15 -15 44 -8 57 14 9 15 6 22 -19 42 l-29 24 24 10 25 10 -26 0 c-17
1 -29 -6 -33 -16z"/>
<path d="M7418 5824 c-12 -12 -9 -69 5 -87 9 -13 20 -16 45 -11 30 6 32 9 32
50 0 57 -18 67 -22 12 -2 -35 -7 -43 -23 -43 -16 0 -21 8 -25 43 -3 24 -8 40
-12 36z"/>
<path d="M7540 5778 c0 -26 5 -48 10 -48 6 0 10 18 10 41 0 33 3 40 18 37 12
-2 18 -15 20 -46 4 -53 22 -45 22 9 0 33 3 40 18 37 12 -2 18 -14 20 -41 2
-20 7 -37 13 -37 11 0 12 70 1 86 -4 6 -35 11 -69 11 l-63 0 0 -49z"/>
<path d="M8970 5791 c-75 -24 -132 -75 -170 -151 -22 -44 -23 -55 -26 -385 -3
-474 -32 -853 -90 -1195 -31 -183 -56 -277 -99 -365 -72 -147 -128 -194 -192
-163 -18 8 -93 108 -219 288 -294 421 -297 425 -350 456 -56 33 -158 44 -217
25 -89 -30 -177 -155 -177 -252 0 -57 18 -102 74 -182 24 -34 70 -100 102
-147 70 -102 116 -167 207 -298 63 -89 68 -100 64 -137 -4 -25 -14 -47 -29
-59 -22 -18 -42 -19 -574 -12 -539 7 -551 7 -605 -13 -101 -38 -173 -140 -173
-246 0 -102 57 -184 163 -233 l53 -24 592 -6 c427 -3 616 -1 680 7 261 35 500
141 718 318 160 130 313 349 402 576 116 294 205 1103 194 1758 -4 265 -10
292 -70 364 -53 63 -183 101 -258 76z m-2117 -2652 c150 -77 149 -278 -2 -354
-50 -25 -137 -17 -189 17 -96 64 -109 224 -26 300 51 46 163 65 217 37z"/>
<path d="M4308 5713 c12 -2 30 -2 40 0 9 3 -1 5 -23 4 -22 0 -30 -2 -17 -4z"/>
<path d="M4298 5633 c7 -3 16 -2 19 1 4 3 -2 6 -13 5 -11 0 -14 -3 -6 -6z"/>
<path d="M4340 5636 c0 -2 9 -6 20 -9 11 -3 18 -1 14 4 -5 9 -34 13 -34 5z"/>
<path d="M5581 5596 c8 -8 88 -10 95 -3 4 4 -17 7 -46 7 -29 0 -51 -2 -49 -4z"/>
<path d="M4303 5513 c15 -2 39 -2 55 0 15 2 2 4 -28 4 -30 0 -43 -2 -27 -4z"/>
<path d="M5598 5473 c12 -2 32 -2 45 0 12 2 2 4 -23 4 -25 0 -35 -2 -22 -4z"/>
<path d="M4348 5423 c7 -3 16 -2 19 1 4 3 -2 6 -13 5 -11 0 -14 -3 -6 -6z"/>
<path d="M5618 5423 c12 -2 30 -2 40 0 9 3 -1 5 -23 4 -22 0 -30 -2 -17 -4z"/>
<path d="M4371 5334 c0 -11 3 -14 6 -6 3 7 2 16 -1 19 -3 4 -6 -2 -5 -13z"/>
<path d="M4298 5303 c12 -2 30 -2 40 0 9 3 -1 5 -23 4 -22 0 -30 -2 -17 -4z"/>
<path d="M5618 5303 c12 -2 30 -2 40 0 9 3 -1 5 -23 4 -22 0 -30 -2 -17 -4z"/>
<path d="M5618 5013 c6 -2 18 -2 25 0 6 3 1 5 -13 5 -14 0 -19 -2 -12 -5z"/>
<path d="M5608 4883 c12 -2 30 -2 40 0 9 3 -1 5 -23 4 -22 0 -30 -2 -17 -4z"/>
<path d="M5603 4803 c15 -2 39 -2 55 0 15 2 2 4 -28 4 -30 0 -43 -2 -27 -4z"/>
<path d="M5613 4753 c9 -2 25 -2 35 0 9 3 1 5 -18 5 -19 0 -27 -2 -17 -5z"/>
<path d="M7483 4680 c0 -36 2 -50 4 -32 2 17 2 47 0 65 -2 17 -4 3 -4 -33z"/>
<path d="M7773 4660 c0 -25 2 -35 4 -22 2 12 2 32 0 45 -2 12 -4 2 -4 -23z"/>
<path d="M8153 4660 c0 -25 2 -35 4 -22 2 12 2 32 0 45 -2 12 -4 2 -4 -23z"/>
<path d="M5618 4683 c12 -2 30 -2 40 0 9 3 -1 5 -23 4 -22 0 -30 -2 -17 -4z"/>
<path d="M7361 4674 c0 -11 3 -14 6 -6 3 7 2 16 -1 19 -3 4 -6 -2 -5 -13z"/>
<path d="M8022 4660 c0 -19 2 -27 5 -17 2 9 2 25 0 35 -3 9 -5 1 -5 -18z"/>
<path d="M1025 4072 c-74 -26 -120 -66 -155 -135 -43 -87 -41 -133 15 -347 39
-147 71 -256 110 -375 39 -114 66 -189 155 -415 54 -139 182 -377 240 -447
111 -134 263 -236 431 -290 l84 -27 433 -4 c433 -3 433 -3 480 19 57 28 86 58
120 124 51 100 25 239 -60 310 -71 60 -69 60 -498 65 l-396 5 -65 32 c-95 47
-140 101 -214 257 -136 285 -247 604 -335 960 -34 138 -58 187 -112 228 -35
26 -124 58 -162 58 -12 -1 -44 -8 -71 -18z"/>
<path d="M2220 3986 l0 -76 34 0 c19 0 38 5 41 10 4 6 -7 10 -24 10 l-31 0 0
59 c0 33 -4 63 -10 66 -6 4 -10 -22 -10 -69z"/>
<path d="M2330 3994 c-20 -53 11 -94 60 -79 25 8 36 49 21 81 -16 35 -68 34
-81 -2z m60 2 c18 -23 8 -61 -17 -64 -26 -4 -39 28 -23 58 13 24 23 25 40 6z"/>
<path d="M2450 3969 c0 -27 5 -49 10 -49 6 0 10 16 10 35 0 22 6 38 15 41 23
9 18 19 -10 20 -23 2 -25 -1 -25 -47z"/>
<path d="M2539 3996 c-24 -53 19 -103 68 -80 14 6 11 9 -15 13 -43 8 -46 25
-4 29 22 2 32 8 32 21 0 44 -63 57 -81 17z m59 -9 c2 -11 -3 -17 -16 -17 -24
0 -32 8 -25 26 7 20 37 13 41 -9z"/>
<path d="M2660 3963 c0 -34 4 -52 10 -48 6 3 10 24 10 46 0 33 3 40 18 37 12
-2 19 -16 23 -48 5 -47 16 -39 21 15 4 45 32 39 36 -7 2 -21 7 -38 13 -38 11
0 12 70 1 86 -4 6 -35 11 -69 11 l-63 0 0 -54z"/>
<path d="M2917 4013 c-11 -10 -8 -91 3 -98 6 -4 10 15 10 49 0 57 -1 61 -13
49z"/>
<path d="M2970 3944 c0 -43 3 -74 7 -70 4 4 8 15 8 24 0 10 8 17 20 18 46 2
46 3 43 52 -3 47 -3 47 -40 50 l-38 3 0 -77z m60 51 c18 -21 4 -65 -20 -65
-16 0 -20 7 -20 33 0 48 16 61 40 32z"/>
<path d="M3093 4004 c-4 -10 4 -25 22 -41 20 -19 24 -28 14 -33 -7 -5 -18 -6
-26 -3 -7 3 -13 0 -13 -6 0 -17 46 -13 61 5 11 14 10 20 -14 40 -33 28 -33 32
-4 44 21 8 21 9 -6 9 -16 1 -30 -5 -34 -15z"/>
<path d="M3190 3976 c0 -49 13 -65 52 -63 27 2 28 4 27 57 l-2 55 -6 -42 c-8
-49 -14 -58 -36 -50 -10 4 -15 20 -15 47 0 22 -4 40 -10 40 -5 0 -10 -20 -10
-44z"/>
<path d="M3315 4012 c-9 -10 -5 -92 5 -92 6 0 10 16 10 35 0 23 6 38 16 42 20
7 35 -14 33 -47 -2 -46 4 -46 10 0 4 32 11 46 24 48 14 3 17 -4 17 -37 0 -23
5 -41 11 -41 6 0 9 19 7 48 l-3 47 -62 1 c-35 0 -65 -1 -68 -4z"/>
<path d="M4168 3833 c5 -21 7 -23 10 -9 2 10 0 22 -6 28 -6 6 -7 0 -4 -19z"/>
<path d="M4138 3603 c6 -2 18 -2 25 0 6 3 1 5 -13 5 -14 0 -19 -2 -12 -5z"/>
<path d="M4113 3553 c9 -2 25 -2 35 0 9 3 1 5 -18 5 -19 0 -27 -2 -17 -5z"/>
<path d="M4113 3483 c9 -2 23 -2 30 0 6 3 -1 5 -18 5 -16 0 -22 -2 -12 -5z"/>
<path d="M4158 3353 c7 -3 16 -2 19 1 4 3 -2 6 -13 5 -11 0 -14 -3 -6 -6z"/>
<path d="M4080 3105 c0 -8 2 -15 4 -15 2 0 6 7 10 15 3 8 1 15 -4 15 -6 0 -10
-7 -10 -15z"/>
<path d="M4085 3020 c-3 -5 -2 -10 4 -10 5 0 13 5 16 10 3 6 2 10 -4 10 -5 0
-13 -4 -16 -10z"/>
<path d="M5582 2975 c0 -16 2 -22 5 -12 2 9 2 23 0 30 -3 6 -5 -1 -5 -18z"/>
<path d="M5703 2955 c0 -27 2 -38 4 -22 2 15 2 37 0 50 -2 12 -4 0 -4 -28z"/>
<path d="M6041 2984 c0 -11 3 -14 6 -6 3 7 2 16 -1 19 -3 4 -6 -2 -5 -13z"/>
<path d="M1882 2923 l-2 -73 43 2 c36 1 38 2 10 5 -36 5 -40 13 -46 93 -2 30
-4 21 -5 -27z"/>
<path d="M5453 2955 c0 -22 2 -30 4 -17 2 12 2 30 0 40 -3 9 -5 -1 -4 -23z"/>
<path d="M1991 2936 c-7 -8 -11 -30 -9 -48 3 -31 5 -33 43 -33 l40 0 0 45 c0
43 -1 45 -31 48 -18 2 -36 -3 -43 -12z m57 -33 c-2 -30 -7 -38 -23 -38 -13 0
-21 8 -23 23 -5 34 5 52 28 52 18 0 21 -5 18 -37z"/>
<path d="M2100 2900 c0 -27 5 -50 10 -50 6 0 10 13 10 30 0 17 9 38 22 50 l22
20 -32 0 c-32 0 -32 0 -32 -50z"/>
<path d="M2194 2936 c-3 -8 -4 -29 -2 -48 3 -31 5 -33 43 -35 34 -1 36 0 11 5
-41 10 -46 32 -8 32 33 0 44 15 30 43 -11 21 -66 23 -74 3z m64 -13 c2 -8 -6
-13 -22 -13 -25 0 -33 10 -19 24 10 10 36 3 41 -11z"/>
<path d="M2310 2900 c0 -28 5 -50 10 -50 6 0 10 15 10 34 0 33 20 62 33 49 4
-3 7 -24 7 -45 0 -21 5 -38 10 -38 6 0 10 15 10 34 0 33 20 62 33 49 4 -3 7
-24 7 -45 0 -21 5 -38 11 -38 6 0 9 19 7 48 l-3 47 -67 2 -68 3 0 -50z"/>
<path d="M2571 2903 c0 -29 3 -53 7 -53 4 0 6 17 4 38 -6 64 -10 69 -11 15z"/>
<path d="M2620 2880 c0 -40 4 -70 10 -70 6 0 10 9 10 20 0 16 7 20 30 20 23 0
31 5 36 25 3 14 3 36 0 50 -5 21 -12 25 -46 25 l-40 0 0 -70z m65 20 c0 -28
-4 -35 -20 -35 -13 0 -21 8 -23 23 -5 34 5 54 25 50 13 -2 18 -13 18 -38z"/>
<path d="M2750 2930 c0 -11 9 -25 20 -32 28 -18 25 -36 -7 -41 -23 -3 -21 -4
10 -6 33 -1 37 2 37 23 0 16 -7 27 -20 31 -27 9 -25 33 3 38 16 3 13 5 -10 6
-27 1 -33 -3 -33 -19z"/>
<path d="M2851 2903 l-1 -53 40 0 40 0 0 50 c0 28 -4 50 -10 50 -5 0 -10 -18
-10 -40 0 -27 -5 -43 -15 -47 -22 -8 -28 1 -36 50 l-6 42 -2 -52z"/>
<path d="M2970 2900 c0 -61 18 -67 22 -7 2 29 8 42 18 42 10 0 16 -13 18 -42
4 -54 22 -57 22 -4 0 24 5 41 14 44 20 8 26 -2 26 -45 0 -21 5 -38 11 -38 6 0
9 19 7 48 l-3 47 -67 2 -68 3 0 -50z"/>
<path d="M7243 2479 c-119 -23 -212 -136 -213 -260 0 -115 76 -209 203 -250
42 -13 83 -34 100 -51 26 -25 27 -31 21 -80 -21 -167 -133 -323 -248 -348 -45
-10 -57 -9 -99 9 -169 73 -353 -46 -365 -234 -9 -137 91 -240 283 -290 162
-42 378 2 545 109 184 118 367 431 401 684 28 207 -30 384 -172 522 -79 77
-153 124 -257 160 -93 33 -143 40 -199 29z"/>
<path d="M2848 1863 c7 -3 16 -2 19 1 4 3 -2 6 -13 5 -11 0 -14 -3 -6 -6z"/>
<path d="M2912 1864 c12 -4 18 -19 21 -52 l4 -47 -1 50 c-1 42 -4 50 -21 52
-15 1 -15 0 -3 -3z"/>
<path d="M3078 1863 c6 -2 18 -2 25 0 6 3 1 5 -13 5 -14 0 -19 -2 -12 -5z"/>
<path d="M3213 1820 c0 -25 2 -35 4 -22 2 12 2 32 0 45 -2 12 -4 2 -4 -23z"/>
<path d="M3553 1830 c-51 -25 -74 -47 -127 -113 -189 -241 -370 -326 -537
-251 -73 33 -166 104 -223 170 -133 155 -360 123 -443 -64 -31 -71 -31 -147 1
-210 29 -56 175 -203 266 -268 380 -268 771 -238 1154 90 80 68 209 226 246
300 85 169 -25 359 -215 373 -53 4 -68 1 -122 -27z"/>
<path d="M3168 1773 c7 -3 16 -2 19 1 4 3 -2 6 -13 5 -11 0 -14 -3 -6 -6z"/>
<path d="M4256 1652 c-2 -4 11 -6 30 -4 19 2 34 6 34 8 0 8 -59 4 -64 -4z"/>
<path d="M4256 1481 c-4 -5 3 -7 14 -4 23 6 26 13 6 13 -8 0 -17 -4 -20 -9z"/>
<path d="M4263 1363 c15 -2 39 -2 55 0 15 2 2 4 -28 4 -30 0 -43 -2 -27 -4z"/>
<path d="M4332 1320 c0 -14 2 -19 5 -12 2 6 2 18 0 25 -3 6 -5 1 -5 -13z"/>
<path d="M4268 1243 c12 -2 30 -2 40 0 9 3 -1 5 -23 4 -22 0 -30 -2 -17 -4z"/>
<path d="M4290 1077 c0 -10 8 -17 18 -17 9 0 13 4 7 8 -5 4 -13 11 -17 16 -5
5 -8 2 -8 -7z"/>
</g>
</svg>
