<?xml version="1.0" standalone="no"?>
<!DOCTYPE svg PUBLIC "-//W3C//DTD SVG 20010904//EN"
 "http://www.w3.org/TR/2001/REC-SVG-20010904/DTD/svg10.dtd">
<svg version="1.0" xmlns="http://www.w3.org/2000/svg"
 width="512.000000pt" height="512.000000pt" viewBox="0 0 512.000000 512.000000"
 preserveAspectRatio="xMidYMid meet">

<g transform="translate(0.000000,512.000000) scale(0.100000,-0.100000)"
fill="#fff" stroke="none">
<path d="M2108 4934 l-3 -186 -95 -34 c-192 -68 -385 -183 -536 -318 l-61 -54
-154 89 c-85 49 -157 88 -161 86 -7 -2 -434 -736 -445 -763 -2 -6 66 -51 152
-100 145 -83 156 -91 151 -114 -35 -166 -40 -217 -40 -380 -1 -145 3 -194 23
-288 13 -62 22 -115 20 -116 -2 -2 -69 -41 -149 -86 -80 -46 -149 -87 -154
-91 -8 -7 431 -779 443 -779 3 0 75 40 160 89 l155 89 85 -73 c157 -133 330
-234 516 -301 l90 -32 3 -109 3 -109 -83 -85 c-133 -134 -204 -294 -215 -479
-21 -367 236 -699 599 -774 246 -51 499 26 677 207 98 100 162 209 198 341 27
97 24 291 -6 386 -40 129 -97 226 -189 320 l-82 85 2 109 3 108 91 33 c185 66
349 161 510 296 l91 77 157 -90 c87 -50 161 -87 165 -82 10 12 441 761 441
767 0 2 -70 44 -156 93 -142 82 -155 91 -151 114 3 14 13 68 23 120 13 69 18
141 18 260 0 119 -5 191 -18 260 -10 52 -20 106 -23 120 -4 23 9 32 151 114
86 49 156 91 156 93 0 6 -431 755 -441 767 -4 5 -78 -32 -165 -82 l-157 -90
-86 73 c-162 137 -326 233 -516 301 l-90 32 -3 186 -2 186 -450 0 -450 0 -2
-186z m604 -270 l3 -156 110 -28 c340 -88 549 -212 760 -453 l60 -68 124 72
c68 39 129 73 136 75 7 3 40 -45 83 -120 40 -68 72 -126 72 -129 0 -2 -57 -37
-127 -77 -71 -41 -130 -75 -132 -77 -3 -2 12 -56 32 -121 61 -193 70 -250 70
-422 0 -172 -9 -229 -70 -422 -20 -65 -35 -119 -32 -121 2 -2 61 -36 132 -77
70 -40 127 -75 127 -77 0 -3 -32 -61 -72 -129 -49 -87 -76 -123 -85 -120 -8 3
-68 37 -134 76 l-121 69 -113 -118 c-134 -138 -248 -223 -400 -297 -60 -30
-113 -54 -117 -54 -5 0 -8 150 -8 333 l0 334 83 84 c249 254 287 632 92 929
-294 448 -944 451 -1248 5 -197 -289 -159 -680 90 -934 l83 -84 0 -334 c0
-183 -4 -333 -8 -333 -5 0 -62 27 -128 60 -151 76 -263 160 -396 299 l-105
110 -129 -75 c-71 -40 -132 -74 -135 -74 -6 0 -149 243 -149 253 0 2 57 37
128 77 70 40 129 75 131 77 3 2 -12 56 -33 121 -59 190 -70 250 -70 422 -1
174 12 251 71 433 19 60 33 110 31 111 -2 2 -60 36 -130 76 -71 40 -128 75
-128 77 0 10 143 253 149 253 3 0 64 -34 136 -75 l129 -75 45 53 c72 85 184
191 254 241 128 91 317 173 522 226 l110 28 3 156 3 156 149 0 149 0 3 -156z
m-302 -1294 l0 -210 150 0 150 0 0 211 0 210 23 -7 c76 -24 182 -122 226 -208
111 -222 34 -465 -188 -601 l-61 -36 0 -774 0 -775 28 -16 c184 -112 256 -214
269 -380 9 -120 -31 -241 -111 -332 -41 -45 -121 -103 -163 -116 l-23 -7 0
210 0 211 -150 0 -150 0 0 -210 c0 -116 -3 -210 -6 -210 -25 0 -134 73 -172
115 -146 159 -161 398 -37 568 34 45 116 112 184 149 l31 17 -2 778 -3 777
-60 35 c-268 159 -315 492 -101 706 52 52 132 105 159 105 4 0 7 -94 7 -210z"/>
</g>
</svg>
