<?xml version="1.0" standalone="no"?>
<!DOCTYPE svg PUBLIC "-//W3C//DTD SVG 20010904//EN"
 "http://www.w3.org/TR/2001/REC-SVG-20010904/DTD/svg10.dtd">
<svg version="1.0" xmlns="http://www.w3.org/2000/svg"
 width="360.000000pt" height="360.000000pt" viewBox="0 0 360.000000 360.000000"
 preserveAspectRatio="xMidYMid meet">

<g transform="translate(0.000000,360.000000) scale(0.100000,-0.100000)"
fill="#fff" stroke="none">
<path d="M1560 3469 c-19 -4 -91 -20 -160 -35 -99 -20 -161 -42 -295 -101
-148 -65 -189 -88 -316 -181 -122 -89 -167 -129 -263 -237 -151 -168 -276
-375 -332 -548 -20 -62 -44 -137 -54 -167 -11 -30 -28 -136 -39 -235 -20 -179
-20 -181 -1 -362 16 -147 26 -204 56 -295 20 -62 43 -135 51 -163 9 -27 57
-121 107 -209 77 -134 109 -178 211 -291 66 -73 147 -153 180 -177 33 -25 96
-71 140 -103 82 -60 326 -180 427 -209 29 -9 115 -29 192 -46 126 -27 155 -30
324 -30 173 0 195 2 346 35 191 41 199 44 381 127 109 50 172 88 285 170 80
59 154 117 164 130 11 12 63 71 115 129 144 160 252 351 326 577 50 153 57
186 75 351 l20 182 -20 181 c-18 160 -27 199 -75 349 -48 150 -65 186 -144
322 -129 218 -268 371 -470 519 -125 92 -169 118 -306 179 -136 60 -186 76
-335 110 -171 38 -179 39 -365 38 -104 -1 -206 -5 -225 -10z m393 -61 c-3 -29
-8 -76 -12 -105 l-6 -52 -138 98 c-76 55 -141 102 -144 105 -4 3 64 6 150 6
l156 0 -6 -52z m255 0 c34 -6 62 -14 62 -17 0 -5 -205 -99 -303 -140 -9 -3 -1
155 9 190 4 15 11 15 87 -2 45 -10 110 -24 145 -31z m-618 35 c-1 -5 -22 -65
-48 -135 l-48 -128 -103 104 c-97 97 -103 105 -80 110 250 58 279 63 279 49z
m93 -183 c36 -91 63 -167 62 -169 -3 -2 -224 67 -232 74 -3 2 86 245 94 258 3
5 7 7 9 5 1 -2 32 -78 67 -168z m103 73 c74 -53 134 -100 134 -103 0 -12 -140
-144 -146 -137 -6 5 -133 325 -134 335 0 9 27 -9 146 -95z m824 -84 c0 -8
-229 -153 -234 -148 -2 2 -11 54 -20 114 -10 61 -20 122 -23 137 l-5 27 141
-62 c77 -34 141 -65 141 -68z m-1398 69 c-17 -29 -53 -96 -82 -148 -29 -52
-54 -97 -56 -99 -1 -2 -28 36 -59 84 -31 48 -54 89 -52 91 7 7 261 123 270
123 5 1 -5 -23 -21 -51z m962 -109 c-58 -85 -110 -158 -114 -163 -5 -5 -30 33
-55 85 -26 51 -43 95 -39 97 5 1 77 34 159 71 83 38 151 67 153 66 2 -1 -45
-72 -104 -156z m-774 -138 c-46 -50 -87 -91 -90 -91 -4 0 -10 48 -13 108 -4
59 -10 145 -13 192 l-6 85 102 -102 103 -101 -83 -91z m934 149 c16 -91 19
-133 12 -135 -24 -8 -261 -53 -264 -50 -1 1 48 75 109 164 62 89 114 159 116
157 3 -2 15 -64 27 -136z m-1056 -125 c5 -66 8 -122 6 -124 -4 -5 -174 67
-186 78 -4 3 30 74 75 156 l82 150 7 -70 c4 -38 11 -124 16 -190z m-404 -31
c-25 -82 -48 -151 -49 -153 -4 -4 -153 121 -154 129 0 6 242 180 246 177 1 -2
-18 -70 -43 -153z m135 64 l51 -78 -100 -66 c-55 -37 -102 -65 -105 -63 -2 3
12 54 31 114 19 61 39 127 45 149 12 44 10 46 78 -56z m1611 87 c0 -12 -81
-342 -88 -359 -7 -16 -21 1 -79 99 l-71 118 111 73 c107 69 127 80 127 69z
m175 -89 c61 -44 112 -81 113 -82 5 -3 -121 -162 -130 -163 -3 -1 -29 68 -56
152 -28 83 -54 161 -58 171 -9 24 -10 25 131 -78z m-807 -2 c24 -48 41 -88 38
-91 -4 -4 -217 36 -224 42 -4 4 130 134 138 135 3 0 25 -39 48 -86z m714 -94
c55 -167 56 -170 35 -175 -12 -3 -55 -12 -96 -20 -40 -8 -77 -18 -82 -21 -15
-9 -11 12 31 186 22 91 40 173 40 183 0 45 20 3 72 -153z m-1091 81 c46 -16
97 -34 112 -40 l28 -11 -82 -92 c-46 -51 -86 -94 -91 -96 -8 -4 -8 -5 -42 156
-13 61 -20 112 -16 112 4 0 45 -13 91 -29z m-89 -113 c15 -72 26 -133 24 -135
-7 -7 -213 82 -214 92 -2 11 145 175 156 175 4 0 19 -59 34 -132z m780 -44
c-26 -58 -51 -106 -56 -106 -11 0 -168 154 -162 159 5 5 222 51 248 52 14 1 8
-18 -30 -105z m-388 76 c60 -11 111 -21 112 -23 1 -1 -34 -44 -78 -95 -45 -51
-84 -89 -88 -85 -7 8 -70 204 -70 217 0 8 1 8 124 -14z m526 -92 c36 -62 66
-115 68 -119 3 -7 -228 0 -236 7 -5 4 92 224 98 224 3 0 34 -50 70 -112z
m-637 -10 c20 -62 34 -114 32 -117 -5 -4 -237 28 -244 34 -2 2 15 23 37 47 21
24 59 66 83 95 24 28 47 52 50 52 3 1 22 -49 42 -111z m-598 49 c28 -11 54
-23 58 -27 4 -4 -25 -26 -65 -50 -40 -23 -88 -52 -107 -63 l-33 -20 6 39 c3
21 8 69 12 106 l6 67 37 -15 c20 -9 59 -25 86 -37z m-473 -19 c49 -43 66 -64
56 -69 -12 -7 -320 -89 -333 -89 -10 0 189 219 199 220 4 0 40 -28 78 -62z
m328 49 c0 -22 -21 -181 -24 -185 -5 -4 -176 61 -176 68 1 6 182 128 193 129
4 1 7 -5 7 -12z m1973 -97 c52 -58 91 -107 86 -108 -7 -3 -222 34 -307 53 -21
5 -18 11 45 85 36 44 70 79 74 78 3 -2 50 -50 102 -108z m-813 -84 c-8 -7
-330 -21 -328 -14 2 4 39 48 82 98 l79 92 86 -86 c47 -47 83 -87 81 -90z
m-920 -40 c5 -71 8 -131 6 -133 -2 -2 -56 30 -121 71 l-117 75 38 23 c148 88
179 105 181 99 1 -3 7 -64 13 -135z m139 94 c56 -24 100 -46 99 -50 -2 -4 -49
-46 -105 -94 l-102 -86 -5 42 c-3 24 -8 87 -11 142 -5 82 -4 98 8 93 7 -3 60
-24 116 -47z m-623 -27 c-2 -10 -8 -55 -11 -100 -4 -46 -10 -83 -14 -83 -14
-1 -331 104 -327 108 5 5 326 90 344 91 8 1 11 -6 8 -16z m124 -20 c36 -13 68
-28 72 -32 6 -5 -148 -105 -185 -120 -6 -2 -7 26 -3 75 9 103 14 117 34 109
10 -4 46 -18 82 -32z m1815 -65 c-4 -40 -8 -88 -11 -106 l-5 -32 -89 77 c-48
43 -89 81 -89 84 -1 5 154 45 187 48 9 1 11 -17 7 -71z m218 36 c81 -15 144
-31 140 -34 -15 -12 -344 -143 -348 -138 -3 2 0 42 5 89 5 46 10 92 10 103 0
14 5 17 23 13 12 -3 88 -18 170 -33z m-1250 0 c59 -9 107 -20 107 -24 0 -17
-143 -191 -150 -183 -9 10 -90 202 -90 215 0 11 9 11 133 -8z m-109 -110 c26
-64 46 -117 44 -119 -3 -2 -274 49 -297 56 -9 3 23 37 88 92 56 48 105 87 110
87 4 0 29 -52 55 -116z m613 94 c-24 -57 -89 -204 -92 -206 -2 -2 -58 42 -125
97 -74 61 -117 103 -108 106 14 5 105 10 242 13 67 2 87 -1 83 -10z m288 1 c3
-4 -61 -258 -67 -265 -4 -4 -168 261 -168 272 0 7 227 0 235 -7z m-165 -152
c39 -65 70 -121 67 -124 -5 -4 -244 45 -259 53 -4 2 12 44 34 92 22 48 44 98
50 111 11 29 4 38 108 -132z m-1314 116 c-3 -16 -8 -61 -11 -100 -4 -40 -11
-73 -15 -73 -15 0 -181 72 -176 77 10 10 191 121 199 122 5 1 6 -11 3 -26z
m153 -54 c78 -51 99 -68 85 -72 -11 -3 -59 -15 -109 -27 -49 -11 -98 -23 -108
-26 -17 -5 -17 1 -12 88 8 110 11 122 27 112 7 -5 60 -38 117 -75z m1529 -74
c11 -10 -14 -23 -114 -63 -70 -29 -129 -50 -131 -48 -4 4 55 244 64 259 3 4
41 -25 86 -65 45 -39 88 -77 95 -83z m-2101 79 c84 -27 153 -52 153 -55 0 -8
-190 -152 -195 -147 -5 5 -135 251 -135 256 0 2 6 2 13 -1 6 -2 81 -26 164
-53z m1292 -125 c29 -100 50 -183 48 -186 -6 -5 -257 160 -257 169 0 9 144
198 151 198 3 0 29 -82 58 -181z m205 -27 c-5 -17 -117 -162 -124 -162 -5 0
-70 215 -108 354 -3 11 44 -21 116 -80 70 -57 119 -105 116 -112z m-1629 72
c37 -69 65 -127 63 -128 -6 -6 -288 -15 -288 -10 0 10 149 264 155 264 2 0 34
-57 70 -126z m2593 9 c-33 -65 -64 -121 -68 -126 -3 -4 -58 17 -121 47 -92 44
-110 56 -94 62 11 5 88 36 170 70 83 35 155 63 162 63 7 1 -15 -52 -49 -116z
m171 -20 c39 -67 71 -124 71 -126 0 -5 -282 3 -288 8 -2 2 6 19 18 40 12 21
41 78 66 127 25 50 49 87 54 82 5 -5 40 -64 79 -131z m-2431 -100 c12 -64 20
-119 18 -120 -5 -6 -236 88 -235 96 0 6 180 139 190 140 3 1 15 -52 27 -116z
m107 78 c38 -16 71 -34 72 -38 2 -5 -28 -43 -66 -84 -49 -52 -71 -70 -74 -59
-6 18 -37 193 -37 210 0 13 11 10 105 -29z m361 2 c-6 -15 -96 -168 -121 -206
-11 -16 -18 -9 -61 65 -27 46 -49 87 -49 92 0 6 50 22 110 37 136 33 128 32
121 12z m237 -14 c70 -13 127 -26 127 -29 0 -8 -180 -170 -189 -170 -4 0 -32
52 -64 116 l-58 117 28 -6 c15 -3 85 -16 156 -28z m-140 -94 c31 -63 54 -116
50 -118 -13 -8 -253 -9 -253 -1 0 10 134 234 140 233 3 0 31 -51 63 -114z
m1353 68 c-3 -21 -8 -77 -11 -125 -4 -49 -8 -88 -10 -88 -12 0 -226 140 -225
146 2 8 224 102 243 104 5 0 6 -17 3 -37z m138 -13 c58 -28 106 -54 106 -58 0
-4 -26 -21 -58 -39 -31 -18 -86 -49 -121 -69 l-64 -37 7 84 c7 93 17 169 21
169 1 0 50 -23 109 -50z m-1791 -93 c26 -43 47 -80 47 -83 0 -5 -78 0 -198 12
l-52 5 72 80 c39 44 74 76 78 72 4 -4 28 -43 53 -86z m1215 67 c67 -15 122
-30 121 -33 0 -9 -168 -136 -176 -134 -7 1 -65 132 -79 176 -7 22 -11 22 134
-9z m-594 -105 c14 -67 25 -123 24 -124 -2 -2 -59 15 -127 37 -68 22 -119 43
-115 48 40 38 180 160 185 160 3 0 18 -55 33 -121z m149 23 c53 -36 97 -68 97
-71 0 -6 -191 -84 -195 -79 -4 5 -55 227 -55 239 0 12 0 12 153 -89z m321 11
c20 -48 35 -92 34 -98 -2 -7 -32 -6 -101 4 -54 8 -96 19 -94 24 5 16 111 156
118 157 4 0 23 -39 43 -87z m1119 18 c12 -1 -41 -48 -134 -121 -84 -65 -154
-118 -155 -117 -3 3 15 230 20 242 2 6 48 8 127 3 68 -3 132 -7 142 -7z
m-2753 3 c0 -9 -155 -204 -162 -204 -5 0 -8 4 -8 8 0 4 -25 47 -55 96 -30 48
-55 89 -55 91 0 5 87 11 198 13 45 1 82 -1 82 -4z m2078 -89 c45 -27 82 -52
82 -55 0 -3 -52 -28 -115 -57 l-115 -51 0 37 c0 21 -3 80 -7 131 l-6 93 39
-24 c22 -13 76 -46 122 -74z m-1902 39 l115 -47 -33 -35 c-84 -88 -150 -153
-152 -150 -3 4 -56 260 -56 271 0 11 1 10 126 -39z m1729 -70 c4 -63 5 -118 2
-120 -7 -8 -187 89 -184 99 3 9 159 135 168 136 4 1 10 -51 14 -115z m551 44
c-4 -40 -9 -96 -12 -124 l-6 -52 -109 51 c-60 28 -109 53 -109 57 0 7 221 139
234 140 5 0 6 -32 2 -72z m-2426 57 c0 -3 12 -59 26 -125 14 -66 24 -126 22
-133 -2 -11 -26 -7 -108 20 -58 19 -106 36 -108 38 -2 2 26 40 63 85 36 45 71
90 78 101 11 17 27 26 27 14z m-266 -101 c32 -52 56 -97 53 -100 -12 -13 -202
-90 -205 -84 -2 4 15 63 38 131 22 68 40 129 40 136 0 28 18 8 74 -83z m2960
-71 c-30 -87 -57 -160 -60 -162 -7 -7 -179 78 -179 89 0 10 273 229 287 230 4
0 -18 -71 -48 -157z m171 -131 c-5 -6 -196 -34 -200 -30 -4 4 77 248 102 308
3 9 26 -46 53 -130 26 -80 46 -146 45 -148z m-2358 202 l43 -5 -43 -32 c-100
-77 -187 -137 -196 -137 -9 0 -21 177 -12 185 4 5 142 -3 208 -11z m343 -2 c0
-4 -42 -49 -94 -101 l-94 -93 -27 83 c-15 46 -30 89 -32 96 -4 9 23 13 99 16
56 1 113 4 126 5 12 1 22 -1 22 -6z m-570 -59 c0 -32 3 -75 6 -95 l6 -37 -93
6 c-52 3 -96 8 -98 10 -6 5 161 173 171 173 5 0 8 -26 8 -57z m1116 40 c-2
-10 -17 -71 -32 -135 -15 -65 -30 -118 -33 -118 -8 1 -131 176 -131 187 0 7
170 79 193 82 5 1 6 -7 3 -16z m187 1 c52 -5 67 -10 67 -23 0 -20 -30 -195
-35 -199 -1 -2 -31 36 -66 85 -35 48 -74 103 -88 122 l-26 34 40 -6 c22 -3 70
-9 108 -13z m-969 -92 c15 -46 25 -86 23 -89 -3 -3 -71 -1 -152 3 -120 5 -144
9 -133 20 34 34 223 163 229 156 3 -4 18 -45 33 -90z m439 62 c66 -22 107 -41
104 -48 -2 -6 -17 -50 -33 -98 -16 -48 -31 -88 -34 -88 -3 0 -36 51 -75 113
-38 61 -75 122 -83 135 -20 31 -9 29 121 -14z m-188 -41 c-4 -38 -11 -104 -16
-148 -5 -44 -9 -84 -9 -88 0 -7 -43 22 -135 90 l-30 22 95 95 c52 53 96 96 98
96 2 0 1 -30 -3 -67z m124 -77 c45 -71 79 -131 76 -134 -6 -7 -198 -41 -203
-37 -2 2 3 66 12 143 9 76 16 147 16 157 0 26 7 18 99 -129z m526 23 c48 -66
86 -122 84 -123 -7 -7 -232 -27 -237 -22 -7 8 50 266 59 266 4 0 46 -54 94
-121z m257 50 c49 -28 87 -53 85 -55 -6 -6 -208 -104 -214 -104 -3 0 -3 19 1
43 17 111 29 167 33 167 3 0 46 -23 95 -51z m369 -75 c-1 -65 -6 -124 -10
-131 -6 -11 -33 5 -110 63 -56 42 -100 81 -99 86 4 10 211 107 217 102 2 -2 3
-56 2 -120z m143 75 c58 -29 106 -55 106 -58 -1 -7 -203 -149 -225 -157 -11
-5 -13 13 -9 108 5 111 11 158 18 158 3 0 52 -23 110 -51z m-1032 -104 c36
-51 64 -96 60 -99 -3 -3 -50 -6 -105 -6 -90 0 -99 2 -94 18 19 63 63 182 67
181 3 0 35 -42 72 -94z m-1456 28 c-3 -27 -8 -84 -12 -128 -3 -44 -7 -82 -10
-84 -4 -4 -184 154 -187 165 -2 6 186 91 206 93 5 1 6 -20 3 -46z m140 15 c57
-18 104 -35 104 -38 0 -10 -231 -192 -237 -186 -3 2 0 56 6 118 6 63 11 119
11 126 0 16 -2 16 116 -20z m1939 -50 c-3 -18 -7 -72 -11 -120 -3 -49 -9 -88
-14 -88 -13 0 -202 132 -196 137 9 10 201 101 213 102 8 1 10 -11 8 -31z m167
-73 c37 -27 66 -54 65 -59 -2 -7 -123 -54 -206 -81 l-24 -7 7 103 c4 57 10
114 13 127 l5 22 37 -27 c20 -16 67 -50 103 -78z m396 -12 c12 -64 20 -118 18
-121 -3 -2 -68 13 -145 34 -78 21 -137 42 -133 46 19 19 218 156 227 157 6 1
21 -52 33 -116z m97 77 l87 -40 -50 -57 c-52 -61 -92 -100 -92 -91 0 3 -9 50
-20 103 -20 97 -24 125 -16 125 2 0 43 -18 91 -40z m-2267 -1 c-6 -15 -190
-220 -195 -216 -2 3 -1 55 3 116 l7 112 94 -2 c52 -1 93 -5 91 -10z m-212
-116 c-4 -64 -8 -119 -10 -121 -7 -6 -227 41 -224 48 3 8 230 190 237 190 2 0
1 -53 -3 -117z m494 108 l75 -6 -69 -49 c-37 -27 -74 -49 -82 -50 -14 -1 -132
93 -133 107 -1 8 98 7 209 -2z m-179 -57 c35 -30 65 -59 67 -63 3 -8 -326
-106 -333 -99 -5 4 185 218 194 218 4 0 36 -25 72 -56z m2519 -97 c9 -81 12
-146 9 -145 -10 4 -229 252 -229 259 0 7 157 37 185 35 18 -1 21 -14 35 -149z
m-2147 87 l67 -49 -75 -3 c-41 -2 -110 -2 -152 0 l-78 3 70 52 c39 29 77 51
85 49 8 -1 45 -25 83 -52z m-1072 -35 c49 -45 89 -84 89 -88 0 -5 -194 -118
-224 -130 -5 -2 -7 3 -3 11 3 8 11 77 18 152 6 75 16 136 22 136 5 0 49 -36
98 -81z m3009 14 c45 -51 172 -193 189 -210 17 -18 8 -27 -16 -16 -10 6 -93
32 -186 59 -92 27 -166 51 -165 55 6 13 132 149 139 149 4 0 22 -17 39 -37z
m-1074 -65 c-4 -51 -9 -110 -12 -132 l-6 -38 -109 108 c-60 60 -109 112 -109
116 0 3 30 9 68 13 57 6 159 20 171 24 2 0 0 -41 -3 -91z m133 8 c51 -36 95
-67 98 -70 5 -4 -209 -116 -222 -116 -3 0 -3 21 -1 48 3 26 8 82 12 125 3 42
9 77 13 77 4 0 49 -29 100 -64z m-419 46 c0 -11 -95 -212 -100 -212 -3 0 -29
47 -57 105 l-52 104 84 3 c46 2 93 4 104 5 12 1 21 -1 21 -5z m-296 -111 c-26
-55 -50 -101 -54 -101 -8 0 -100 154 -100 168 0 7 190 42 198 36 2 -1 -18 -47
-44 -103z m366 62 c18 -21 67 -73 109 -116 l76 -78 -165 7 c-91 3 -166 8 -168
9 -5 4 99 215 107 215 4 0 23 -17 41 -37z m-241 -77 c28 -54 50 -100 48 -103
-3 -2 -49 -2 -104 -1 l-101 3 49 104 c27 57 51 102 53 100 1 -2 26 -48 55
-103z m-339 80 c0 -12 -254 -235 -260 -229 -4 4 -21 59 -37 121 l-30 112 163
0 c90 0 164 -2 164 -4z m1293 -98 c-13 -57 -27 -115 -30 -130 -3 -16 -9 -28
-13 -28 -11 0 -171 172 -166 178 7 6 209 80 222 81 8 1 3 -33 -13 -101z m187
73 c58 -16 120 -32 138 -36 17 -4 32 -8 32 -11 0 -11 -105 -214 -111 -214 -4
0 -33 44 -64 98 -32 53 -71 116 -87 139 -43 64 -48 63 92 24z m-1856 7 c-10
-17 -166 -252 -171 -257 -5 -6 -173 161 -173 171 0 5 8 8 18 8 9 1 82 20 162
45 161 48 175 51 164 33z m465 -78 c30 -50 52 -92 50 -94 -2 -3 -74 -14 -159
-26 -85 -12 -166 -24 -179 -27 -14 -3 -22 -2 -20 4 4 11 241 232 249 233 3 0
30 -41 59 -90z m1341 -59 c44 -73 79 -137 78 -140 -3 -6 -227 15 -234 21 -1 2
11 55 27 118 15 63 29 124 29 135 0 28 9 16 100 -134z m-1740 19 c16 -63 28
-115 27 -116 -2 -2 -38 -7 -170 -22 -54 -7 -67 -6 -63 4 9 24 168 256 172 252
2 -3 17 -56 34 -118z m-463 27 c1 -2 -32 -47 -73 -101 -42 -54 -79 -95 -82
-91 -9 8 -80 229 -76 236 3 5 224 -37 231 -44z m-277 29 c0 -9 -92 -242 -99
-248 -8 -9 -114 113 -110 127 1 6 46 35 98 67 92 54 111 63 111 54z m70 -139
c18 -59 31 -109 29 -111 -2 -2 -43 -6 -92 -10 l-87 -7 21 53 c11 29 34 89 51
132 20 52 33 74 38 65 4 -8 22 -62 40 -122z m2859 81 c97 -28 180 -55 184 -58
8 -7 -212 -130 -230 -130 -5 0 -28 35 -52 78 -24 42 -55 96 -69 120 -13 23
-20 42 -16 42 4 0 87 -23 183 -52z m-839 35 c0 -12 -33 -198 -36 -202 -4 -4
-184 92 -184 99 0 6 200 108 213 109 4 1 7 -2 7 -6z m698 -109 c35 -64 62
-117 60 -118 -6 -5 -227 20 -233 26 -7 7 92 208 103 208 4 0 35 -53 70 -116z
m-588 24 c41 -44 76 -84 78 -87 2 -6 -200 -42 -205 -37 -1 0 2 21 7 46 5 25
14 71 20 103 6 31 15 57 19 57 4 0 40 -37 81 -82z m-1730 -100 c0 -5 -17 -8
-37 -8 -21 0 -92 -7 -158 -15 -66 -7 -121 -12 -124 -10 -2 3 1 10 6 17 5 7 40
53 78 101 l68 89 83 -83 c46 -46 84 -87 84 -91z m964 70 c-4 -7 -34 -53 -67
-102 l-60 -89 -33 83 c-54 134 -61 120 61 120 82 0 105 -3 99 -12z m320 2 l61
0 -105 -105 c-58 -58 -107 -105 -110 -105 -5 0 -106 182 -119 214 -2 6 39 7
104 3 60 -4 135 -7 169 -7z m-634 -74 c-99 -120 -81 -116 -199 -44 -57 34 -98
64 -91 66 16 6 299 49 328 51 21 1 16 -8 -38 -73z m2027 57 c-3 -10 -11 -79
-18 -153 -6 -74 -13 -137 -15 -138 -3 -5 -214 169 -214 177 0 6 228 128 243
130 5 0 6 -7 4 -16z m-1894 -93 l35 -85 -27 -3 c-14 -1 -67 1 -118 5 l-92 8
76 88 c42 49 79 85 83 80 5 -4 24 -46 43 -93z m265 1 c28 -54 52 -101 52 -105
0 -6 -231 4 -239 10 -5 5 120 194 128 194 3 0 30 -45 59 -99z m433 47 l93 -52
-80 -73 -79 -73 -12 87 c-6 49 -14 105 -17 126 -4 20 -5 37 -2 37 2 0 45 -23
97 -52z m-2136 3 c20 -22 44 -50 55 -64 l19 -24 -35 -66 c-19 -37 -39 -69 -43
-71 -4 -3 -14 55 -22 129 -8 74 -13 135 -12 135 2 0 19 -18 38 -39z m2025 8
c0 -18 5 -72 12 -120 6 -49 9 -91 7 -93 -3 -3 -58 5 -122 17 l-117 21 102 103
c57 57 106 103 110 103 5 0 8 -14 8 -31z m-1074 -26 c-3 -10 -19 -76 -37 -146
-17 -71 -35 -125 -39 -120 -4 4 -44 63 -89 130 l-81 122 33 6 c45 8 157 22
190 24 23 1 27 -3 23 -16z m226 -119 c-3 -11 -263 -156 -269 -150 -3 3 21 108
58 248 l10 37 102 -63 c56 -35 101 -67 99 -72z m1257 -46 c-23 -78 -45 -147
-49 -151 -4 -4 -33 54 -64 129 -31 75 -54 139 -51 143 10 10 200 38 203 30 2
-4 -16 -72 -39 -151z m212 146 c42 -3 82 -9 88 -14 9 -5 -7 -30 -50 -79 -34
-39 -65 -71 -68 -71 -5 0 -86 141 -100 173 -2 5 10 7 25 3 16 -3 63 -8 105
-12z m-2054 -107 l-63 -96 -97 81 c-53 45 -95 83 -92 86 8 8 310 38 313 31 2
-4 -26 -50 -61 -102z m1974 -18 c17 -34 27 -65 22 -69 -26 -22 -175 -121 -178
-118 -2 2 7 40 20 83 13 44 33 113 45 154 l22 74 19 -32 c10 -17 33 -59 50
-92z m-1791 -12 c45 -66 80 -121 78 -123 -5 -4 -291 46 -297 52 -6 6 121 195
130 192 4 -2 45 -56 89 -121z m2150 108 c47 -4 91 -8 98 -11 12 -3 -154 -204
-169 -204 -7 0 -59 188 -59 214 0 14 6 17 23 13 12 -3 60 -9 107 -12z m-2638
-20 c1 -29 -15 -231 -19 -237 -4 -8 -153 209 -153 223 0 6 143 28 163 25 5 -1
9 -6 9 -11z m2016 -130 c33 -77 59 -141 58 -142 -2 -2 -269 127 -276 134 -3 3
31 38 75 78 44 40 81 72 82 71 1 -1 29 -64 61 -141z m496 39 c15 -59 25 -108
23 -110 -6 -6 -187 60 -184 68 4 12 122 148 128 148 4 0 19 -48 33 -106z
m-2389 11 c50 -42 91 -79 92 -83 3 -6 -208 -105 -212 -99 -5 6 19 257 24 257
4 0 47 -34 96 -75z m2652 -67 c6 -73 9 -134 8 -136 -2 -2 -49 11 -104 28
l-102 31 33 39 c18 21 58 68 88 104 30 35 58 65 61 65 3 1 10 -59 16 -131z
m142 32 c44 -36 80 -67 80 -70 1 -3 -41 -27 -93 -52 l-95 -47 -5 27 c-3 15 -8
76 -11 136 l-7 109 25 -19 c14 -10 61 -48 106 -84z m-3030 -32 c39 -59 71
-109 71 -112 0 -2 -54 14 -121 36 -136 45 -130 34 -72 136 19 35 39 60 43 55
4 -4 39 -56 79 -115z m1300 67 c3 -3 -70 -273 -85 -315 -3 -9 -28 36 -58 105
-29 66 -63 141 -74 167 -12 26 -22 50 -22 54 0 6 231 -5 239 -11z m-319 -97
c-18 -46 -34 -85 -35 -87 -6 -5 -195 32 -195 38 1 11 255 147 258 139 2 -4
-11 -45 -28 -90z m599 76 c4 -4 -132 -194 -139 -193 -5 0 -101 200 -100 209 0
6 232 -10 239 -16z m-464 -147 c37 -82 65 -151 62 -153 -3 -3 -36 15 -74 39
-39 25 -84 52 -101 61 -18 9 -32 22 -32 29 0 23 65 186 72 179 4 -4 37 -74 73
-155z m258 42 c26 -55 45 -105 42 -109 -6 -10 -177 -102 -181 -97 -5 4 80 307
86 307 3 0 26 -46 53 -101z m385 82 c51 -10 95 -21 98 -24 6 -5 -126 -185
-136 -186 -5 -1 -90 209 -90 222 0 10 24 8 128 -12z m-106 -103 c25 -62 45
-114 44 -116 -5 -5 -236 32 -234 38 8 17 134 189 139 190 3 0 26 -51 51 -112z
m961 10 c15 -6 27 -13 27 -16 -1 -4 -39 -35 -85 -70 -97 -71 -89 -76 -100 65
l-6 83 68 -26 c37 -15 80 -31 96 -36z m-698 -10 c15 -35 42 -95 60 -133 44
-96 51 -120 34 -112 -8 3 -71 30 -141 59 -76 31 -127 58 -125 65 2 15 129 182
138 182 4 1 19 -27 34 -61z m138 -4 c72 -37 134 -68 135 -69 4 -4 -127 -169
-137 -172 -5 -2 -32 56 -129 278 -6 16 -10 29 -7 29 3 0 65 -30 138 -66z m382
-1 c3 -38 8 -83 11 -100 3 -18 1 -33 -3 -33 -18 -1 -203 65 -201 72 3 8 170
126 180 127 3 1 9 -29 13 -66z m-2081 30 c19 -69 48 -205 43 -209 -3 -3 -64
25 -137 61 -73 36 -131 68 -129 70 6 5 203 93 211 94 4 1 9 -7 12 -16z m179
-9 c78 -14 143 -26 144 -27 3 -4 -236 -177 -245 -177 -4 0 -18 46 -31 101 -12
56 -25 108 -28 115 -7 18 -4 18 160 -12z m-465 -73 c9 -5 -11 -38 -64 -110
-42 -56 -80 -98 -84 -94 -8 9 -90 255 -90 271 0 9 205 -49 238 -67z m3042 62
c0 -18 -85 -263 -91 -263 -10 0 -91 159 -87 171 3 9 155 97 171 98 4 1 7 -2 7
-6z m-317 -55 l96 -33 -86 -103 c-47 -56 -87 -101 -89 -99 -2 1 -8 45 -14 97
-5 52 -12 112 -15 133 -3 20 -2 37 3 37 4 0 51 -15 105 -32z m-2109 -132 c-8
-82 -16 -151 -18 -153 -5 -6 -209 112 -213 123 -2 7 238 186 244 181 1 -1 -5
-69 -13 -151z m170 138 c45 -9 83 -18 85 -20 6 -6 17 -194 11 -194 -6 0 -164
179 -188 212 -16 23 -13 23 92 2z m1810 -11 c8 -38 27 -236 23 -239 -4 -4
-207 130 -206 136 0 6 162 128 171 129 3 1 9 -11 12 -26z m-1792 -151 c39 -45
69 -85 66 -87 -2 -3 -51 -14 -109 -25 -57 -12 -112 -23 -123 -26 -17 -6 -18
-2 -13 42 3 27 9 87 12 134 3 47 9 96 12 110 6 28 -2 35 155 -148z m-738 -1
c20 -69 35 -126 33 -127 -3 -3 -221 38 -226 42 -2 2 32 50 75 108 43 58 79
104 80 103 1 -1 18 -58 38 -126z m124 64 c72 -36 132 -68 132 -72 -1 -10 -190
-116 -196 -110 -6 5 -74 227 -74 240 0 10 -8 13 138 -58z m922 -65 c0 -3 -45
-21 -99 -41 l-99 -36 -6 31 c-4 26 -9 145 -7 168 1 8 210 -114 211 -122z
m1259 44 c2 -2 -16 -49 -39 -104 -24 -55 -47 -97 -51 -93 -6 6 -78 167 -116
261 -3 7 36 -2 98 -24 57 -21 106 -39 108 -40z m-166 -79 c31 -71 54 -131 53
-133 -4 -4 -239 97 -249 107 -4 4 22 45 59 90 36 46 70 79 74 74 4 -4 33 -66
63 -138z m682 55 c25 -49 45 -92 45 -94 0 -8 -56 -15 -169 -21 l-104 -7 19 24
c45 56 157 188 160 188 2 0 24 -40 49 -90z m-1474 -10 c25 -49 43 -90 40 -90
-15 -1 -271 74 -271 79 0 6 169 100 181 101 3 0 25 -40 50 -90z m108 75 c51
-7 95 -15 96 -17 2 -2 -28 -36 -65 -77 l-68 -75 -46 92 c-53 105 -60 99 83 77z
m168 -141 l41 -105 -27 6 c-14 3 -66 18 -114 33 l-89 28 67 72 c37 40 70 72
74 72 4 0 25 -48 48 -106z m131 49 c72 -31 131 -57 130 -58 -2 -1 -46 -25 -99
-53 l-97 -51 -35 92 c-20 51 -39 100 -42 110 -4 9 -3 17 1 17 5 0 69 -25 142
-57z m682 -30 c55 -36 99 -68 97 -69 -6 -7 -292 -72 -296 -69 -2 3 0 10 6 17
5 7 26 52 47 101 21 48 40 87 42 87 2 0 49 -30 104 -67z m-1370 -94 l0 -110
-100 68 c-54 37 -99 71 -100 74 0 5 172 75 193 78 4 1 7 -49 7 -110z m158 75
c70 -19 134 -38 142 -41 15 -5 -241 -141 -267 -142 -10 -1 -13 27 -13 109 0
61 2 110 5 110 3 0 63 -16 133 -36z m-948 -11 c0 -21 -3 -88 -7 -150 l-6 -112
-91 86 c-50 47 -92 90 -94 94 -3 7 176 119 191 119 4 0 7 -17 7 -37z m142 -24
l108 -61 -116 -89 c-65 -49 -119 -88 -121 -85 -6 5 9 296 15 296 3 0 54 -27
114 -61z m1502 -99 c9 -57 16 -105 16 -107 0 -3 -49 21 -110 53 -60 31 -110
60 -110 63 0 6 183 101 187 97 1 -1 9 -48 17 -106z m161 45 c50 -21 94 -41 98
-45 4 -4 -43 -30 -104 -59 -61 -28 -114 -50 -116 -47 -3 3 -32 183 -33 209 0
4 15 1 33 -6 17 -8 73 -31 122 -52z m785 40 c0 -7 -125 -224 -143 -250 -14
-18 -19 -11 -76 105 -33 69 -57 126 -53 128 5 1 64 6 133 11 68 4 127 9 132
10 4 0 7 -1 7 -4z m-2937 -24 c54 -11 101 -21 103 -24 2 -2 -13 -53 -34 -112
l-39 -109 -73 125 c-40 68 -75 127 -77 132 -6 11 12 9 120 -12z m902 -83 c4
-57 5 -120 3 -140 l-3 -37 -125 110 c-69 60 -126 113 -128 117 -2 8 178 48
225 51 20 1 21 -5 28 -101z m713 63 c56 -18 102 -34 102 -37 0 -2 -58 -33
-130 -68 -147 -73 -140 -75 -114 45 20 94 22 101 31 96 5 -3 54 -19 111 -36z
m-586 -42 c55 -39 96 -75 91 -79 -21 -19 -185 -132 -187 -128 -7 7 -17 278
-10 278 4 0 51 -32 106 -71z m423 -26 c-9 -48 -21 -92 -25 -97 -8 -8 -240 44
-240 54 0 6 274 138 279 134 2 -2 -4 -43 -14 -91z m1108 -28 c-32 -63 -61
-115 -65 -115 -11 0 -167 143 -168 155 -1 8 236 72 278 74 7 1 -12 -47 -45
-114z m196 -131 c1 -9 -30 -11 -106 -7 -60 2 -114 6 -121 9 -10 3 1 30 36 96
27 51 55 104 62 117 12 24 15 21 71 -90 32 -62 58 -119 58 -125z m-2528 119
c49 -47 87 -88 86 -90 -6 -5 -257 -40 -261 -36 -6 7 69 213 78 213 5 0 48 -39
97 -87z m383 45 c12 -76 27 -211 23 -214 -6 -6 -257 70 -254 78 3 9 210 167
219 168 4 0 9 -15 12 -32z m169 -97 c59 -52 107 -98 107 -102 0 -7 -219 -23
-226 -16 -2 2 -9 42 -14 88 -5 46 -12 101 -15 122 l-6 39 24 -19 c12 -10 71
-60 130 -112z m971 72 c3 -21 8 -68 12 -104 l6 -67 -143 34 c-78 19 -145 36
-147 39 -4 4 246 133 260 134 3 1 9 -16 12 -36z m236 -83 c0 -5 -179 -80 -191
-80 -4 0 -9 28 -13 63 -4 34 -10 80 -13 101 l-6 39 111 -59 c62 -32 112 -61
112 -64z m261 -40 c-14 -77 -27 -140 -31 -140 -3 0 -46 40 -95 90 -86 87 -88
89 -64 99 13 5 62 27 109 50 47 22 90 41 96 41 6 0 1 -51 -15 -140z m139 63
c25 -22 56 -50 70 -61 14 -11 23 -22 20 -25 -3 -2 -56 -31 -117 -65 -84 -44
-113 -56 -113 -45 0 18 39 240 46 262 5 15 9 12 94 -66z m-1102 -12 c63 -16
116 -31 119 -34 5 -6 -217 -187 -229 -187 -5 0 -8 35 -8 79 0 43 -3 99 -6 125
-4 25 -3 46 2 46 5 0 60 -13 122 -29z m-140 -110 l4 -122 -54 31 c-29 17 -74
43 -100 58 -27 15 -48 29 -47 32 0 10 174 128 184 126 6 -2 11 -55 13 -125z
m837 -8 c-12 -49 -25 -101 -29 -117 l-7 -29 -70 69 c-38 38 -68 72 -66 77 2 7
169 84 188 86 3 1 -4 -38 -16 -86z m214 -97 c-7 -7 -222 -57 -226 -52 -3 3 39
186 52 223 2 6 43 -29 91 -78 48 -49 86 -91 83 -93z m-571 131 c73 -18 133
-36 133 -40 0 -11 -85 -177 -91 -177 -3 0 -24 24 -46 53 -23 28 -67 85 -98
125 -32 39 -51 72 -44 72 7 -1 73 -15 146 -33z m-1298 14 c0 -13 -59 -253 -63
-257 -4 -4 -207 222 -207 230 0 3 15 6 33 6 17 1 70 7 117 14 107 18 120 18
120 7z m1095 -3 c-2 -7 -6 -33 -9 -58 -3 -25 -9 -65 -12 -89 l-7 -43 -36 6
c-20 3 -64 6 -99 6 -35 0 -62 4 -60 9 4 11 210 180 220 181 4 0 6 -6 3 -12z
m42 -6 c6 -10 48 -64 93 -121 45 -57 80 -104 78 -106 -2 -2 -50 7 -108 19 -90
19 -105 25 -105 41 0 48 18 185 24 185 3 0 11 -8 18 -18z m-969 -22 c58 -17
111 -34 119 -38 10 -6 1 -25 -39 -82 -29 -40 -57 -75 -63 -76 -9 -3 -135 203
-135 220 0 9 5 8 118 -24z m-69 -104 c34 -60 60 -110 58 -112 -6 -6 -189 -25
-194 -20 -3 3 9 60 26 126 17 67 31 125 31 128 0 13 19 -17 79 -122z m2315
105 c14 -1 0 -21 -55 -82 -41 -45 -86 -96 -101 -113 -14 -17 -28 -29 -31 -26
-6 6 -45 228 -41 232 1 2 49 0 106 -3 56 -4 111 -7 122 -8z m-229 -114 c9 -60
15 -111 12 -113 -4 -4 -208 76 -251 98 -16 9 -1 20 95 73 63 34 117 60 121 56
3 -3 14 -55 23 -114z m-1607 81 c-3 -7 -22 -64 -43 -126 -20 -63 -41 -110 -45
-105 -4 4 -40 55 -80 113 l-71 105 113 11 c62 6 117 12 122 13 4 0 6 -5 4 -11z
m130 -56 c51 -30 92 -57 92 -61 0 -9 -270 -125 -276 -119 -2 3 12 52 32 109
20 57 38 110 40 117 5 16 -1 19 112 -46z m827 -22 c38 -38 66 -70 61 -70 -5 0
-56 -7 -113 -16 -58 -8 -108 -14 -112 -12 -9 4 77 168 88 168 3 0 38 -31 76
-70z m-1135 -59 c39 -57 69 -105 67 -107 -2 -3 -228 43 -255 51 -8 3 8 32 45
85 32 43 61 78 65 77 4 -1 39 -49 78 -106z m1496 -17 c13 -134 21 -239 18
-243 -2 -2 -45 34 -96 81 -51 46 -110 99 -131 118 -20 18 -35 35 -33 38 6 5
230 59 234 56 2 -1 5 -24 8 -50z m160 -11 c110 -46 133 -59 122 -69 -7 -7 -62
-49 -123 -92 -90 -65 -111 -77 -116 -64 -3 10 -9 67 -13 127 -4 61 -10 120
-13 133 -3 12 -2 22 1 22 4 0 67 -25 142 -57z m-1053 21 l67 -6 0 -101 -1
-102 -99 105 c-55 58 -100 108 -100 112 0 4 15 5 33 3 17 -3 62 -7 100 -11z
m-183 2 c0 -8 -52 -231 -54 -233 -2 -2 -57 22 -122 53 -111 53 -117 57 -95 68
241 108 271 121 271 112z m230 -227 c0 -6 -251 -19 -258 -13 -4 2 31 171 45
219 5 17 23 2 109 -90 57 -61 104 -113 104 -116z m163 192 c49 -10 90 -21 93
-23 3 -4 -159 -124 -203 -151 -10 -6 -13 13 -13 98 0 97 2 106 18 101 9 -3 57
-14 105 -25z m387 4 c0 -3 -21 -42 -46 -86 l-46 -80 -68 63 c-37 35 -68 66
-69 69 0 4 41 13 92 22 105 17 137 19 137 12z m187 -143 c57 -51 97 -92 90
-92 -16 0 -341 52 -345 56 -2 1 18 43 45 93 l48 90 30 -28 c17 -15 76 -69 132
-119z m-1595 19 c10 -46 17 -88 16 -93 -2 -5 -54 28 -116 73 -62 45 -111 84
-108 86 3 3 33 8 68 10 35 3 65 7 68 10 2 2 15 3 29 1 22 -3 27 -11 43 -87z
m263 28 c5 -6 -199 -139 -214 -139 -6 0 -41 158 -41 187 0 10 242 -36 255 -48z
m1020 -88 c-12 -11 -154 -56 -159 -50 -4 4 21 152 30 178 3 11 25 -5 72 -52
41 -42 63 -70 57 -76z m-155 110 c0 -20 -28 -163 -33 -167 -3 -4 -167 33 -172
38 -5 4 186 146 198 147 4 1 7 -8 7 -18z m-803 -167 c12 -65 21 -124 20 -130
-2 -10 -277 105 -277 116 0 9 215 139 225 136 6 -1 20 -56 32 -122z m120 74
c62 -29 112 -55 113 -59 0 -6 -175 -149 -183 -149 -3 0 -10 24 -16 53 -27 135
-38 207 -32 207 3 0 56 -24 118 -52z m906 -120 c21 -45 35 -83 34 -85 -2 -2
-60 23 -128 55 l-124 59 75 26 c41 14 82 26 91 26 10 1 28 -27 52 -81z m175
55 c89 -14 162 -29 162 -32 -1 -12 -263 -122 -271 -114 -19 19 -78 173 -66
173 7 0 85 -12 175 -27z m-738 -108 c-39 -58 -75 -103 -80 -100 -5 3 -31 50
-58 105 l-49 99 71 5 c117 10 181 11 184 4 2 -4 -29 -54 -68 -113z m225 94
c33 -7 64 -16 69 -20 9 -8 -13 -169 -24 -169 -7 0 -140 195 -140 206 0 3 8 3
18 0 9 -2 44 -10 77 -17z m-46 -98 c39 -60 71 -112 71 -115 0 -3 -70 -6 -155
-6 l-154 0 76 115 c42 63 80 115 84 115 4 0 39 -49 78 -109z m-331 -7 c29 -59
52 -107 50 -108 -7 -5 -288 60 -288 66 0 8 171 148 180 148 3 0 29 -48 58
-106z m579 32 c37 -18 87 -41 111 -51 23 -11 42 -22 42 -25 0 -5 -282 -71
-286 -67 -1 1 5 44 14 95 18 105 9 101 119 48z"/>
</g>
</svg>
