<?xml version="1.0" encoding="utf-8"?>
<!-- Generator: Adobe Illustrator 25.3.0, SVG Export Plug-In . SVG Version: 6.00 Build 0)  -->
<svg version="1.1" id="Layer_1" xmlns="http://www.w3.org/2000/svg" xmlns:xlink="http://www.w3.org/1999/xlink" x="0px" y="0px"
	 viewBox="0 0 300 300" style="enable-background:new 0 0 300 300;" xml:space="preserve">
<g>
	<path d="M265.1,281.4c0,3.3,0,6.6,0,9.9c-1.4,3.7-3.8,6.3-7.6,7.6c-16.5,0-32.9,0-49.4,0c-1.9-1.2-3.4-2.6-3-5.1
		c0.4-2.4,2.1-3.7,5.4-3.6c2.2,0.1,3-0.5,2.9-2.8c-0.2-4.9,0-9.9-0.1-14.8c-0.2-15.3,1.8-11.5-9.1-23.2c-4.5-4.8-7.2-10.5-7.3-17.2
		c-0.1-6.1-0.1-12.2-0.1-18.3c0-5.9,0-5.9-5.5-7.9c-1.6-0.6-2.2-0.4-2.2,1.5c0.1,5.2,0.1,10.5,0,15.7c-0.1,11.5-7.2,18.6-18.7,18.7
		c-5.6,0-11.2,0-16.9,0c-1.6,0-2.3,0.4-2.2,2.1c0.1,2.8,0.1,5.6,0,8.4c0,1.4,0.4,1.9,1.8,1.8c2.5-0.1,5-0.1,7.6,0c4,0.2,6.9,3,7.1,7
		c0.1,2.1-0.1,4.3,0,6.4c0.5,8.9-1.7,12.2-11.8,11.7c-5.4-0.3-4.7-0.9-4.7,4.7c0,6.2,0,6.2,6.3,6.2c11.1,0,22.3,0,33.4,0
		c3.4,0,5.2,2,4.9,5c-0.2,1.8-1.7,2.5-2.5,3.7c-50.4,0-100.8,0-151.2,0c-3.8-1.3-6.2-3.9-7.6-7.6c0-3.3,0-6.6,0-9.9
		c0.2-0.9,0.5-1.9,0.5-2.8c1-15.4,4.7-30.1,10.3-44.4c4.1-10.5,11.3-17.5,21.8-21.5c15.7-6,31.2-12.3,46.9-18.4
		c2.6-1,3.7-2.5,3.6-5.2c-0.1-3.9-0.1-7.7,0-11.6c0-1.6-0.4-2.6-1.7-3.7c-13.6-10.8-21.6-25-24.9-42c-0.3-1.7-0.9-2.6-2.9-2.9
		c-11.1-1.9-18.7-13-16.5-24.1c0.4-1.8,0.1-3-1.4-4.5c-7.1-6.8-4.5-18.9,4.6-22.1c2-0.7,4.2-0.9,6.3-0.8c1.8,0.1,2.3-0.6,2.2-2.3
		c-0.1-2.2-0.1-4.5,0-6.7c0.4-22.8,10-40.5,29-53.2c1.3-0.9,2-1.8,2.4-3.4c2.3-9.8,13.3-13.5,21.2-7c0.7,0.6,1.3,1.2,2.5,1.1
		c7.1-0.7,14.3-0.3,21.5-0.3c0.9,0,1.9,0.4,2.7-0.6c1.8-2.2,4.4-3,6.9-4.1c1.7,0,3.5,0,5.2,0c4.7,1.8,8.6,4.4,9.8,9.7
		c0.4,1.9,1.3,3,3,3.9c10.5,6.3,18.3,15.1,23.7,26c5.2,10.5,6.6,21.8,6.1,33.3c-0.1,2.5,0.4,3.5,3.2,3.5c5.6,0.1,9.9,2.8,11.9,8.2
		c2.1,5.6,1.1,10.7-3.2,14.9c-1.1,1.1-1.2,2-1,3.3c2.5,12.3-4.8,23.1-17.1,25.1c-1.7,0.3-2.4,1.1-2.7,2.7
		c-3.3,17-11.4,31.3-25.1,42.2c-1.2,1-1.6,2-1.6,3.4c0.1,3.8,0.2,7.6,0,11.3c-0.1,2.9,0.9,4.5,3.8,5.6c16.1,6.2,32.2,12.6,48.2,19
		c8.6,3.4,15,9.2,18.8,17.6c5.3,11.7,8.7,23.9,10.5,36.6C264,272.2,264.6,276.8,265.1,281.4z M150,104.1c-16.2,0-32.4,0.1-48.5-0.1
		c-2.7,0-3.4,0.8-3.4,3.4c0.1,5.4,0,10.8,0.7,16.2c2,16.4,8.3,30.7,20.9,41.8c12.3,10.7,26.3,15.2,42.2,10.5
		c13.5-4,23.3-13.1,30.5-25c8.1-13.5,10-28.4,9.5-43.9c-0.1-2.4-0.7-3.1-3.1-3C182.5,104.1,166.3,104.1,150,104.1z M60.9,290.1
		c4.7,0,9.5-0.1,14.2,0c2.1,0.1,2.8-0.5,2.8-2.7c-0.1-8.1,0-16.3-0.1-24.4c0-4.8,1.6-8.9,4.7-12.4c1.9-2.2,4-4.3,6-6.3
		c3.8-3.9,5.9-8.5,5.8-14c-0.1-5.3-0.1-10.7,0-16c0.1-2.5-0.7-2.4-2.6-1.6c-7.6,3.1-15.3,6-22.9,9c-6.2,2.5-10.9,6.6-13.6,12.7
		c-7.6,16.9-11.1,34.7-11.6,53.1c-0.1,2.1,0.8,2.6,2.7,2.6C51.2,290,56,290.1,60.9,290.1z M205.7,212c0,3.5,0,6.8,0,10.2
		c0,14.7-1.2,15.2,10.7,27.2c4,4,5.9,8.9,5.8,14.6c-0.2,7.8,0,15.7-0.1,23.5c0,2,0.6,2.6,2.6,2.6c9.4-0.1,18.8-0.2,28.2,0
		c2.9,0.1,3.6-0.9,3.5-3.6c-0.6-17.3-4-34.1-10.6-50.2c-3-7.2-7.9-12.2-15.2-15c-6.2-2.4-12.4-5-18.6-7.3
		C210,213.3,208.1,212.3,205.7,212z M114.7,290.1c6.6,0,13.2,0,19.8,0c8.5,0,8.4,0,8.3-8.6c0-2-0.7-2.5-2.5-2.4
		c-5.3,0.1-10.7,0.1-16,0c-4.6-0.1-7.3-2.8-7.4-7.4c-0.1-3.5-0.1-7,0-10.5c0.1-4.2,3-7,7.2-7.1c3-0.1,6,0.1,9,0
		c3.2-0.1,7.5,1.4,9.1-0.6c1.6-2,0.3-6.1,0.5-9.3c0.1-2-0.7-2.4-2.5-2.4c-3.8,0.1-7.6,0.1-11.3,0c-10.7-0.1-17.8-7.2-18-17.8
		c-0.1-4.7,0-9.5,0-14.2c0-4.5,0.1-4.3-4.3-2.9c-2.9,0.9-3.6,2.4-3.5,5.2c0.2,5.8,0,11.6,0.1,17.4c0.2,8.3-2.7,15.3-8.6,21.1
		c-1.8,1.8-3.4,3.7-5.2,5.5c-1.9,2-2.8,4.3-2.8,7.1c0,8.1,0.1,16.3,0,24.4c0,2,0.5,2.6,2.6,2.6C97.6,290,106.2,290.1,114.7,290.1z
		 M114.6,24.8c-4.6,3.2-8,6.7-11,10.6c-9.3,12-11.9,25.7-11.1,40.5c0.1,1.9,1.2,1.6,2.3,1.6c5.8,0,11.6-0.1,17.4,0
		c1.9,0,2.5-0.5,2.4-2.4c-0.1-4.6-0.1-9.3,0-13.9c0.1-2.9,1.9-4.8,4.4-4.7c2.5,0,4.2,1.9,4.3,4.8c0.1,3.5,0,7,0,10.5
		c0,5.9,0,5.8,5.7,5.9c2.2,0,2.9-0.5,2.9-2.9c-0.1-13.7-0.1-27.3-0.1-41c0-6.1,0-12.2,0-18.3c0-2.9-1.8-4.9-4.2-4.9
		c-2.4,0-4.1,1.8-4.3,4.5c-0.1,1.3,0,2.5,0,3.8c0,8,0,16.1,0,24.1c0,1.9-0.8,3.3-2.5,4.2c-1.6,0.8-3,0.5-4.4-0.4
		c-1.6-1.1-1.9-2.8-1.9-4.6C114.6,36.5,114.6,30.9,114.6,24.8z M149.9,233c7.1,0,14.1,0,21.2,0c5.8-0.1,9.2-3.2,9.3-8.8
		c0.1-6.9-0.1-13.7,0.1-20.6c0-1.9-1.1-2.5-2.4-3.2c-1.5-0.8-1.8,0.8-2.4,1.4c-13.8,14.7-37.5,14.7-51.3,0.2
		c-0.6-0.7-0.9-2.4-2.6-1.5c-1.5,0.8-2.3,1.7-2.2,3.6c0.1,6.5,0,13,0.1,19.4c0,6.4,3.2,9.6,9.7,9.6C136.2,233,143.1,233,149.9,233z
		 M150,95.4c23.3,0,46.7,0,70,0c3.2,0,4.9-1.6,5-4.4c0.1-2.9-1.5-4.5-4.7-4.6c-0.7,0-1.4,0-2,0c-45.4,0-90.8,0-136.3,0
		c-1,0-1.9,0-2.9,0.1c-2.2,0.3-3.4,1.6-3.5,3.9c-0.2,3.5,1.3,5,5,5C103.7,95.4,126.8,95.4,150,95.4z M159.3,46.1
		c0-9.8,0-19.5,0-29.3c0-1.7-0.4-2.4-2.2-2.3c-4.7,0.1-9.5,0.1-14.2,0c-1.5,0-2.2,0.4-2.2,2.1c0.1,19.6,0,39.3,0,58.9
		c0,1.5,0.5,2,2,2c4.6-0.1,9.3-0.1,13.9,0c2.1,0.1,2.8-0.5,2.8-2.7C159.2,65.3,159.3,55.7,159.3,46.1z M185.4,23.6
		c0,17.8,0,34.9,0,52c0,1.3,0.4,1.9,1.8,1.9c6.6,0,13.2,0,19.7,0c1.3,0,1.9-0.3,1.9-1.8c0-8.1,0.2-16.2-2.5-24.1
		C202.6,40.2,195.9,30.9,185.4,23.6z M173.3,186.6c0-1,0-1.5,0-1.9c0-3.7,0-3.6-3.3-2.3c-7.8,3.2-15.9,4.6-24.4,3.8
		c-5.9-0.6-11.6-2-17-4.4c-0.6-0.3-1.8-1.1-1.8-0.1c-0.1,3.2-1.2,6.8,0.5,9.7c7.9,13.4,26.8,16.8,38.9,7
		C170,195.3,174.5,192.3,173.3,186.6z M168,45.2c0,8.7,0,17.4,0,26.1c0,6.5,0,6.5,6.6,6.1c1.4-0.1,2.1-0.4,2.1-2c0-20,0-40.1,0-60.1
		c0-1.6-0.5-3.1-1.8-4.1c-1.4-0.9-2.8-1.2-4.4-0.3c-1.9,1-2.4,2.6-2.4,4.6C168,25.5,168,35.4,168,45.2z M142.7,262.8
		c-4.1,0-8.1,0-12.2,0c-5.1,0-5,0-5.1,5c-0.1,2.3,0.7,2.7,2.8,2.7c8.6-0.1,17.2,0,25.8,0c5.4,0,5.3,0,5.2-5.4c0-1.9-0.7-2.3-2.4-2.2
		C152.2,262.9,147.5,262.8,142.7,262.8z M215.4,104.1c-0.7,0-1.4,0.1-2,0c-2.4-0.4-3,0.7-2.7,2.9c0.5,3.8,0.1,7.7-0.1,11.5
		c-0.1,1.6,0.2,2.1,1.9,1.5c4.3-1.5,7.7-5.8,8-10.4C220.6,104.8,220,104.1,215.4,104.1z M89.3,120.1c0-3.4,0-6.7,0-10
		c0.1-6.3,0.1-6.2-6.1-6c-1.5,0-2.1,0.5-2.5,2C79.1,112.1,82.8,118.2,89.3,120.1z"/>
</g>
</svg>
