<?xml version="1.0" encoding="utf-8"?>
<!-- Generator: Adobe Illustrator 25.3.0, SVG Export Plug-In . SVG Version: 6.00 Build 0)  -->
<svg version="1.1" id="Layer_1" xmlns="http://www.w3.org/2000/svg" xmlns:xlink="http://www.w3.org/1999/xlink" x="0px" y="0px"
	 viewBox="0 0 300 300" style="enable-background:new 0 0 300 300;" xml:space="preserve">
<g>
	<path d="M216.5,298.1c-44.4,0-88.7,0-133.1,0c0-11.8-0.1-23.5-0.2-35.3c0-1.7,0.8-1.8,2.1-1.8c6.3,0,12.5,0,18.8,0.1
		c1.8,0,2.5-0.4,2.5-2.4c-0.1-4.6,0.1-9.3-0.1-13.9c-0.1-2.7,0.8-3.2,3.3-3.2c6.1,0.2,12.1,0,18.2,0.1c1.6,0,2.4-0.3,2.4-2.2
		c-0.1-4.8-0.1-9.6,0-14.5c0-1.3-0.4-2-1.7-2.5c-5.6-2.5-8.7-7-8.8-13.1c-0.1-6,2.9-10.5,8.3-13.1c1.4-0.7,1.8-1.4,1.2-2.9
		c-1.6-4.5-4.7-7.7-8.7-10c-5.1-3-9.7-6.6-13.8-10.8c-1.3-1.4-2.6-1.9-4.5-1.8c-19.8,1.1-37.9-3.8-54.1-15.4
		c-25.4-18.2-39.8-43-44.7-73.6C2.9,77.5,2.5,73.3,1.9,69c0-5.2,0-10.4,0-15.6c0.4-2.2,0.8-4.3,1.2-6.5c2.6-14.3,11.8-23.8,26-26.6
		c10-1.9,19.7-0.4,29.4,2.2c2.1,0.6,3,0.6,2.8-2.1C60.7,14.2,60.7,8,60.9,1.9c59.4,0,118.8,0,178.2,0c0.2,6.2,0.2,12.3-0.3,18.5
		c-0.2,2.7,0.6,2.7,2.8,2.1c8.5-2.4,17.1-3.5,25.9-2.7c13.8,1.2,24.3,9.6,28.4,22.9c1.1,3.5,1.3,7.2,2.3,10.7c0,5.2,0,10.4,0,15.6
		c-0.6,0.6-0.5,1.4-0.5,2.2c-1.2,18.4-6.2,35.7-15.7,51.6c-10.3,17.2-24.2,30.6-42.1,39.7c-13.2,6.7-27.5,9.1-42.3,8.3
		c-1.5-0.1-2.7-0.1-3.9,1.2c-4.4,4.6-9.4,8.5-14.9,11.7c-3.6,2.2-6.4,5.1-8,9.2c-0.6,1.7-0.6,2.6,1.3,3.5c5.2,2.6,8.1,7.1,8,13
		c-0.1,6-3,10.5-8.5,13c-1.7,0.8-2,1.7-1.9,3.3c0.1,4.4,0.1,8.9,0,13.3c-0.1,2.1,0.5,2.9,2.7,2.8c6.1-0.1,12.1,0,18.2-0.1
		c2.2,0,3.1,0.5,3,2.9c-0.2,4.5,0.1,9.1-0.1,13.6c-0.1,2.5,0.8,3,3.1,3c6.1-0.2,12.1,0,18.2-0.1c1.3,0,2.2,0.1,2.1,1.8
		C216.6,274.6,216.6,286.4,216.5,298.1z M150.3,25.6c-3.4,0-6.7,0-10.1,0c-22.4,0-44.7,0-67.1,0c-1.5,0-3-0.5-2.7,2.2
		c1.3,15.6,2.9,31.2,5.6,46.7c3.5,20.4,8.2,40.5,16.6,59.5c7.8,17.7,17.9,33.6,35.4,43.5c5.6,3.1,8.8,8.5,10.4,14.7
		c0.5,2,1.3,2.6,3.3,2.5c5.7-0.1,11.4-0.1,17.1,0c1.8,0,2.5-0.5,2.9-2.3c1.7-6.7,5.4-12.2,11.5-15.6c14.1-8.1,23.4-20.4,30.6-34.5
		c11.2-22.1,16.9-45.9,21-70.1c2.4-14.3,3.8-28.8,5-43.3c0.2-2.6-0.2-3.4-3-3.4C201.2,25.6,175.7,25.6,150.3,25.6z M86.3,142.3
		c-0.2-0.6-0.3-1.1-0.5-1.5c-4.1-9.3-7.6-18.9-10.5-28.7c-5.6-19.3-9.1-39.1-11.5-59.1c-0.2-1.3-0.4-2.1-1.8-2.5
		c-6.2-1.9-12.5-3.4-18.9-3.5c-11.4-0.2-16.8,6.1-15.5,17.4C28.9,76,31.6,87.2,36,97.9c5.3,12.7,12.6,24,23.3,32.9
		C67.1,137.2,75.9,141.3,86.3,142.3z M213.6,142.4c4.1-0.4,7.8-1.2,11.3-2.5c13-4.7,22.3-13.8,29.9-24.9
		c10.6-15.6,16-33.2,17.6-51.9c0.8-9-2.3-14.9-12.5-15.9c-7.7-0.7-15.1,1.2-22.4,3.4c-1,0.3-1.2,1-1.3,1.9
		c-0.5,4.2-1.1,8.4-1.7,12.6c-3,21.3-7.5,42.2-15,62.4C217.7,132.5,215.7,137.3,213.6,142.4z M150.1,289.4c18.3,0,36.6,0,54.9,0
		c1.3,0,3,0.6,2.9-1.9c-0.1-5.3-0.1-10.6,0-15.9c0-1.4-0.4-1.9-1.8-1.8c-2.7,0.1-5.4,0-8.1,0c-34.3,0-68.6,0-102.9,0
		c-1.9,0-3.2,0-3.1,2.6c0.2,4.7,0.2,9.4,0,14.2c-0.1,2.2,0.5,2.9,2.9,2.9C113.3,289.3,131.7,289.4,150.1,289.4z M202.1,162.1
		c8.6,0.2,16.7-1,24.4-3.7c21.8-7.7,37.6-22.5,49-42.3c7.9-13.6,12-28.5,13.3-44.1c0.7-8.4,1.1-16.9-0.9-25.3
		c-2.6-11-10.9-17.8-22.2-18.3c-7.3-0.3-14.4,0.5-21.4,2.4c-5.8,1.5-5.8,1.5-6.5,7.2c-0.1,0.4-0.1,0.8-0.2,1.1
		c-0.4,1.9,0.2,2.4,2.1,1.9c4-1.2,8-2,12.2-2.4c6.6-0.7,13.2-0.4,19.1,2.9c8.7,4.8,11,13.1,10.3,22.2c-1.2,15.4-4.8,30.3-11.9,44
		c-12.4,24-29.6,42-58.8,43.7c-0.8,0-1.7,0-2.3,0.9C206.3,155.5,204.3,158.7,202.1,162.1z M98,162.1c-1.9-3-3.7-5.4-5.1-8
		c-1.1-2.1-2.6-2.8-4.8-2.9c-14.6-0.6-26.9-6.5-37.5-16.4c-13.7-12.8-22.2-28.6-27.2-46.4c-2.2-7.8-3.8-15.7-4.5-23.8
		c-1.1-12.3,3.7-24.5,20.4-26.1c6.5-0.6,12.9,0.4,19.1,1.9c4.4,1.1,4.4,1.1,3.8-3.3c-0.1-0.7-0.2-1.4-0.1-2c0.3-2.1-0.9-2.8-2.6-3.3
		c-3.6-1.1-7.2-2-10.9-2.7c-5.9-1-11.9-1.3-17.8-0.3c-13.6,2.4-18.3,11.8-19.5,23.1c-1.5,13.3,0,26.5,3.4,39.5
		c7.4,27.6,23.2,48.8,48.4,62.5C73.7,159.9,85.3,162.3,98,162.1z M150.3,10.6c-2,0-4.1,0-6.1,0c-23.9,0-47.8,0-71.7,0
		c-0.9,0-2.4-0.5-2.6,0.5c-0.4,1.5-0.3,3.3,0,4.8c0.3,1.3,1.8,0.8,2.8,0.8c51.6,0,103.2,0,154.8,0.1c3.2,0,2.8-1.7,3.1-3.8
		c0.3-2.6-1.2-2.5-2.9-2.5C201.8,10.6,176,10.6,150.3,10.6z M149.7,261.1c9.2,0,18.3,0,27.5,0c7.4,0,7.3,0,7.4-7.3
		c0.1-2.6-0.7-3.2-3.2-3.2c-19.5,0.1-39,0.1-58.4,0.1c-7.6,0-7.5,0-7.5,7.8c0,2.2,0.6,2.8,2.8,2.8
		C128.7,261,139.2,261.1,149.7,261.1z M150,214.9c5,0,10,0.1,15,0c3.8-0.1,6.4-2.5,6.3-5.7c-0.1-3.2-2.5-5.5-6.2-5.5
		c-10-0.1-20-0.1-30.1,0c-3.8,0-6.4,2.5-6.3,5.7c0.1,3.3,2.6,5.5,6.5,5.5C140.1,214.9,145,214.9,150,214.9z M150,241.7
		c2.8,0,5.6-0.1,8.4,0c1.5,0,2.3-0.3,2.3-2.1c-0.1-4.6-0.1-9.2,0-13.9c0-1.5-0.5-2-2-2c-5.8,0.1-11.6,0.1-17.3,0c-1.5,0-2,0.6-2,2.1
		c0.1,4.6,0.1,9.2,0,13.9c0,1.5,0.5,2.1,2,2C144.2,241.7,147.1,241.7,150,241.7z"/>
	<path d="M246.8,202.2c-0.5,0-1-0.1-1.4,0c-2.5,0.4-3.1-0.7-3-3c0.1-4.8,0.7-4.4-4.3-4.2c-2.6,0.1-3.5-0.8-3.1-3.3
		c0-0.2,0-0.4,0-0.6c0-5,0-5.1,4.9-5.1c2.1,0,2.6-0.7,2.6-2.7c-0.1-4.8,0-4.8,4.7-4.8c4.8,0,4.2-0.3,4,3.9c-0.1,2.8,0.6,3.6,3.4,3.5
		c4.4-0.2,4-0.6,4.1,3.9c0,0.3,0,0.6,0,0.9c-0.1,4.3,0.6,4.1-4.1,4c-2.4,0-3.7,0.3-3.5,3.2C251.4,202.2,251.2,202.2,246.8,202.2z"/>
	<path d="M221.6,221.2c4.1,0,4.1,0,4,4.7c-0.1,4.7,0.7,3.9-4.8,4c-3.6,0-3.6,0-3.6-5.2C217.2,220.6,216.6,221.2,221.6,221.2z"/>
	<path d="M56.5,246.7c-0.6,0-1.2-0.1-1.7,0c-2.2,0.4-3-0.7-2.6-2.7c0.5-2.8-0.6-3.9-3.4-3.4c-2.5,0.4-3.3-0.7-2.9-3
		c0.1-0.5,0-1,0-1.4c0-4.2,0-4.3,4.2-4.3c1.6,0,2.2-0.5,2.2-2.1c0-4,0.1-4,4.2-4c0.2,0,0.4,0,0.6,0c3.8,0,3.9,0,3.9,3.8
		c0,1.9,0.6,2.4,2.4,2.4c4.3-0.1,3.9-0.7,3.9,4c0,0.4-0.1,0.8,0,1.2c0.5,2.9-0.6,4-3.6,3.6c-1.4-0.2-2.8-0.4-2.8,2
		C60.9,246.7,60.7,246.7,56.5,246.7z"/>
	<path d="M38.4,172.9c0,4.4,0,4.4-4.3,4.4c-3.8,0-3.8,0-3.8-4.4c0-4.4,0-4.4,4-4.4C38.4,168.6,38.4,168.6,38.4,172.9z"/>
	<path d="M91.7,199.4c-0.3,1.1,0.8,3.3-0.6,3.7c-2.2,0.6-4.7,0.2-7.1,0.1c-0.5,0-0.5-0.8-0.5-1.2c0-0.7,0-1.3,0-2
		c0-5.4,0-5.3,5.4-5.4c2.3-0.1,3.1,0.7,2.8,2.9C91.6,198,91.7,198.6,91.7,199.4z"/>
	<path d="M93.6,95.7c1.4,0.1,1.1,1.5,1.3,2.3c1.5,6.3,3.3,12.6,5.4,18.8c2.4,7,5.2,13.8,8.7,20.3c0.8,1.5,1,2.3-0.8,3.3
		c-5.8,3.2-5.7,3.3-8.7-2.5c-6.2-12.3-10.2-25.4-13.4-38.8c-0.3-1.3-0.2-1.7,1.1-1.9C89.3,96.8,91.3,96.3,93.6,95.7z"/>
	<path d="M113.5,159.2c-0.2-0.3-0.5-0.7-0.8-1c-2-2.6-4-5.2-6-7.7c-0.2-0.3-0.6-0.8-0.6-0.9c1.5-2.1,4-3.1,6.1-4.5
		c1.4-0.9,1.7,0.7,2.3,1.4c1,1.2,2,2.6,3,3.9c0.8,1.1,2.9,2.2,2.1,3.4c-1.4,2.1-3.7,3.6-5.6,5.4C114,159.1,113.9,159.1,113.5,159.2z
		"/>
</g>
</svg>
