<?xml version="1.0" encoding="utf-8"?>
<!-- Generator: Adobe Illustrator 25.3.0, SVG Export Plug-In . SVG Version: 6.00 Build 0)  -->
<svg version="1.1" id="Layer_1" xmlns="http://www.w3.org/2000/svg" xmlns:xlink="http://www.w3.org/1999/xlink" x="0px" y="0px"
	 viewBox="0 0 300 300" style="enable-background:new 0 0 300 300;" xml:space="preserve">
<g>
	<path d="M212.3,297.8c-7.1,0-14.2,0-21.4,0c-1.2-0.8-2.6-0.5-3.9-0.6c-11.3-0.2-22.7-0.2-34-0.7c-10.9-0.4-21.9-1.1-32.8-2
		c-11.2-1-22.3-2.2-33.5-3.6c-1.3-0.2-2.6-0.1-3.8,0.7c-4.1,2.7-8.8,3.7-13.7,3.8c-12.1,0.1-24.2,0.2-36.3,0
		c-10.9-0.2-19.1-5-24.1-14.8c-1.4-2.8-1.6-5.8-2.6-8.7c0-34.8,0-69.6,0-104.5c1-1.2,0.5-2.8,0.9-4.2c3.5-12.1,12.8-19.4,25.3-19.5
		c12.5-0.1,25,0,37.5,0c3.3,0,6.6,0.4,9.5,1.9c2.3,1.2,3,0.4,3.9-1.6c2.9-6,6.5-11.6,11.5-16.1c6.5-5.8,11.8-12.4,16.3-19.6
		c12.7-20.1,22.5-41.6,31.4-63.6c1.9-4.6,3.6-9.1,2.3-14.1c-0.3-1.3-0.1-2.7,0-4c0.8-10.6,2.7-20.6,14.9-24.2c2.3,0,4.6,0,6.9,0
		c0.6,0.6,1.4,0.4,2.2,0.6c14,2.4,24.2,9.7,29.6,23.1c4.2,10.6,3.7,21.4,2,32.3c-1.7,10.9-5.7,21.3-8.6,31.9
		c-1.9,6.8-3.7,13.7-3.8,20.9c0,1.6,0.3,2.3,2.1,1.9c12.1-2.7,24.3-4.7,36.7-5.4c12.5-0.7,24.8-0.2,36.7,3.7
		c18.6,6.2,28,21.8,23.7,40.2c-1,4.1-1,7.3,1.5,10.8c3,4.2,3.8,9.3,5.1,14.2c0,2.3,0,4.6,0,6.9c-1.3,6.8-3.7,13.2-8.1,18.8
		c-0.7,0.9-0.3,1.8-0.1,2.7c4.6,15.8,1.2,29.5-10.5,41.1c-1.2,1.2-1.6,2.4-1.5,4.1c1.1,12.4-3.1,22.8-12.4,31.1
		c-9.9,8.9-22.2,12.6-35,14.8C221.6,296.8,217,297.2,212.3,297.8z M95.5,224.7c-0.3,14,0.5,31.3-0.4,48.6c-0.1,1.6,0.5,1.8,1.9,2
		c13.5,1.7,27.1,3.2,40.7,3.8c25.7,1.1,51.5,2.3,77.2,1.3c9-0.4,17.7-2.2,26-5.8c12.5-5.5,18-14.3,15.7-26.1
		c-1.1-5.7,0.6-9.3,4.9-12.6c9.2-7.3,11.9-18,7-28.6c-2.3-5.1-1.5-9,2.1-13.1c8.3-9.4,8.3-18.9,0.2-28.4c-4.4-5.2-4.6-6.8-1.6-12.9
		c5.5-11.1,1.7-20.9-9.9-25.3c-6.5-2.5-13.2-3.1-20.1-3.4c-17.1-0.8-33.8,2.4-50.4,6.1c-8.1,1.8-15.3-3-16.9-11.2
		c-1.2-6.2-0.7-12.4,0.3-18.6c1.6-9.7,4.5-19,7.4-28.3c3.3-10.6,5.9-21.2,5-32.5c-1-11.2-7.5-18.6-18.4-20.5c-3-0.5-3.8,0-4.2,3
		c-0.5,3.9-0.7,7.8-0.2,11.8c0.3,2.4,0.7,5-0.3,7.4c-9.7,25.7-20.7,50.8-35.3,74.2c-4.9,7.8-10.2,15.5-17.1,21.7
		c-4.8,4.3-8.6,9.3-11.4,15.1c-1.6,3.4-3.9,6.8-3.3,10.8c0.6,3.4,0.8,6.9,0.8,10.3C95.5,189.3,95.5,205.3,95.5,224.7z M23,219.2
		c0,16.4,0,32.9,0,49.3c0,6.4,3.7,10.1,10,10.1c11.7,0,23.5,0,35.2,0c7.1,0,10.6-3.6,10.7-10.7c0-32.4,0-64.8,0-97.2
		c0-7.2-3.4-10.6-10.6-10.6c-11.5,0-23.1,0-34.6,0c-7.2,0-10.6,3.4-10.6,10.6C23,186.9,23,203.1,23,219.2z"/>
</g>
</svg>
