<?xml version="1.0" encoding="utf-8"?>
<!-- Generator: Adobe Illustrator 25.3.0, SVG Export Plug-In . SVG Version: 6.00 Build 0)  -->
<svg version="1.1" id="Layer_1" xmlns="http://www.w3.org/2000/svg" xmlns:xlink="http://www.w3.org/1999/xlink" x="0px" y="0px"
	 viewBox="0 0 300 300" style="enable-background:new 0 0 300 300;" xml:space="preserve">
<g>
	<path d="M298.9,115.1c0,23.3,0,46.5,0,69.8c-9.2,0-18.4,0-27.6-0.1c-1.9,0-2.5,0.7-3,2.3c-2.1,7-4.9,13.8-8.5,20.3
		c-1,1.8-0.7,2.8,0.7,4.1c6,5.8,11.8,11.8,17.7,17.6c1.3,1.3,1.3,1.9,0,3.2c-15.4,15.3-30.7,30.6-46,46c-1.2,1.2-1.9,1.4-3.2,0
		c-5.9-6.1-12-12.1-18-18.1c-1-1-1.8-1.4-3.2-0.6c-6.7,3.7-13.8,6.6-21.1,8.8c-1.4,0.4-2.1,1-2.1,2.6c0.1,9.3,0.1,18.6,0.1,27.9
		c-23.3,0-46.5,0-69.8,0c0-9.2,0-18.4,0.1-27.6c0-1.9-0.7-2.5-2.3-3c-7.1-2.1-14-5-20.5-8.6c-1.6-0.9-2.5-0.6-3.6,0.6
		c-5.9,6-11.9,11.9-17.8,17.9c-1.3,1.3-1.9,1.3-3.2,0c-15.3-15.4-30.6-30.7-46-46c-1.2-1.2-1.4-1.9,0-3.2c6.1-5.9,12.1-12,18.1-18
		c1-1,1.4-1.8,0.6-3.2c-3.7-6.7-6.6-13.8-8.8-21.1c-0.4-1.4-1-2.1-2.6-2.1c-9.3,0.1-18.6,0.1-27.9,0.1c0-23.3,0-46.5,0-69.8
		c9.2,0,18.4,0,27.6,0.1c1.9,0,2.5-0.7,3-2.3c2.1-7.1,5-14,8.6-20.5c0.9-1.6,0.6-2.5-0.6-3.6c-6-5.9-11.9-11.9-17.9-17.8
		c-1.3-1.2-1.3-1.9,0-3.2c15.4-15.3,30.7-30.6,46-46c1.5-1.5,2.2-1,3.4,0.2c5.9,6,11.9,11.9,17.8,17.9c1,1,1.8,1.4,3.2,0.6
		c6.7-3.7,13.8-6.6,21.1-8.8c1.4-0.4,2.1-1,2.1-2.6c-0.1-9.3-0.1-18.6-0.1-27.9c23.3,0,46.5,0,69.8,0c0,9.2,0,18.4-0.1,27.6
		c0,1.9,0.7,2.5,2.3,3c7.1,2.1,14,5,20.5,8.6c1.6,0.9,2.5,0.6,3.6-0.6c5.9-6,11.9-11.9,17.8-17.9c1.2-1.3,1.9-1.3,3.2,0
		c15.3,15.4,30.6,30.7,46,46c1.5,1.5,1,2.2-0.2,3.4c-6,5.9-11.9,11.9-17.9,17.8c-1,1-1.4,1.8-0.6,3.2c3.7,6.7,6.6,13.8,8.8,21.1
		c0.4,1.4,1,2.1,2.6,2.1C280.3,115.1,289.6,115.1,298.9,115.1z M11,150.1c0,7.4,0.1,14.7-0.1,22.1c0,2.3,0.7,2.7,2.8,2.7
		c7.4-0.1,14.7,0,22.1-0.1c2,0,2.8,0.5,3.3,2.5c2.8,11.3,7.2,22,13.4,31.9c1,1.7,0.6,2.5-0.6,3.6c-5.4,5.3-10.7,10.7-16.1,16
		c-1.2,1.2-1.6,1.9-0.2,3.4c10.8,10.6,21.4,21.3,32.1,32.1c1.3,1.3,2,1.1,3.1-0.1c5.4-5.5,11-11,16.4-16.5c1.1-1.1,1.9-1.2,3.2-0.4
		c10,6.2,20.8,10.6,32.2,13.5c1.9,0.5,2.4,1.3,2.4,3.1c-0.1,7.5,0,14.9-0.1,22.4c0,1.9,0.3,2.7,2.5,2.7c14.9-0.1,29.8-0.1,44.8,0
		c2.1,0,2.6-0.7,2.6-2.7c-0.1-7.5,0-14.9-0.1-22.4c0-1.8,0.4-2.7,2.4-3.2c11.4-2.8,22.2-7.3,32.2-13.5c1.5-0.9,2.3-0.5,3.4,0.6
		c5.4,5.5,10.8,10.8,16.2,16.3c1.1,1.1,1.8,1.6,3.1,0.2c10.7-10.8,21.5-21.6,32.3-32.3c1.2-1.2,1-1.8-0.1-2.9
		c-5.5-5.4-11-11-16.5-16.4c-1.2-1.2-1.3-2-0.4-3.4c6.2-10,10.6-20.8,13.5-32.2c0.5-1.8,1.2-2.3,2.9-2.3c7.6,0.1,15.1,0,22.7,0.1
		c1.8,0,2.6-0.3,2.6-2.4c-0.1-15-0.1-30,0-45.1c0-2-0.7-2.4-2.5-2.4c-7.5,0.1-14.9,0-22.4,0.1c-2,0-2.8-0.5-3.3-2.5
		c-2.8-11.3-7.2-22-13.4-31.9c-1-1.7-0.6-2.5,0.6-3.6c5.4-5.3,10.7-10.7,16.1-16c1.2-1.2,1.6-1.9,0.2-3.4
		c-10.8-10.6-21.4-21.3-32.1-32.1c-1.3-1.3-2-1.1-3.1,0.1c-5.4,5.5-11,11-16.4,16.5c-1.1,1.1-1.9,1.2-3.2,0.4
		c-10-6.2-20.8-10.6-32.2-13.5c-1.9-0.5-2.4-1.3-2.4-3.1c0.1-7.5,0-14.9,0.1-22.4c0-1.9-0.4-2.7-2.5-2.7c-14.9,0.1-29.8,0.1-44.8,0
		c-2.1,0-2.6,0.7-2.6,2.7c0.1,7.5,0,14.9,0.1,22.4c0,1.8-0.4,2.7-2.4,3.2c-11.4,2.8-22.2,7.3-32.2,13.5c-1.5,0.9-2.3,0.5-3.4-0.6
		C81.8,46.6,76.3,41.3,71,35.8c-1.1-1.1-1.8-1.6-3.1-0.2C57.2,46.5,46.4,57.2,35.6,67.9c-1.2,1.2-1,1.8,0.1,2.9
		c5.5,5.4,11,11,16.5,16.4c1.2,1.2,1.3,2,0.4,3.4c-6.2,10-10.6,20.8-13.5,32.2c-0.5,1.8-1.2,2.3-2.9,2.3c-7.4-0.1-14.7,0.1-22.1-0.1
		c-2.7-0.1-3.2,0.8-3.1,3.3C11.1,135.6,11,142.9,11,150.1z"/>
	<path d="M150.3,234.3c-46.6,0.2-84.5-37.8-84.6-84.1c-0.1-46.8,37.7-84.6,84.4-84.5c46.3,0,85,37.7,84.1,85.9
		C233.5,196.9,196.6,233.9,150.3,234.3z M194.6,117.1c1.2,3.6,2.5,7.1,3.5,10.7c0.7,2.4,1.1,4.9,1.3,7.4c1.8,23-10.8,43-32.3,51.4
		c-1.4,0.6-2.2,1.1-2.1,2.8c0.1,10.4,0.1,20.7,0,31.1c0,1.8,0.3,2.3,2.3,1.8c11.1-2.7,21-7.6,29.8-14.8c23.4-19.2,32.9-50.4,24-79.3
		c-11.6-37.8-50.8-59.9-89.1-50.3c-38.9,9.8-63.2,48.6-54.7,87.7c3.6,16.7,12.1,30.6,25.2,41.7c3.8,3.2,7.8,6.2,12.7,8.2
		c0-12.6,0-24.9,0-37.2c0-2-0.6-3.4-1.9-4.9c-11.1-12.5-15.2-27.1-11.8-43.4c4.9-23.3,24-38.7,47.8-39.4c8.3-0.3,16.1,2,24.5,5.4
		c-1.3,1-2.3,1.6-3,2.3c-9.1,9.1-18.2,18.2-27.4,27.3c-1,1-1.6,1.9-1.4,3.5c0.8,4.8,1.5,9.5,2.1,14.3c0.2,1.6,0.7,2.3,2.4,2.5
		c4.5,0.5,9.1,1,13.5,1.9c2.3,0.5,3.6-0.2,5-1.7c8.9-9,17.9-18,26.9-27C192.7,118.5,193.3,117.6,194.6,117.1z M189.4,135.9
		c-7.5,7.4-14.5,14.4-21.4,21.4c-1,1-2,1.6-3.6,1.3c-8.9-1.4-17.8-2.7-26.7-3.9c-1.7-0.2-2.2-0.9-2.4-2.5
		c-1.2-8.8-2.5-17.6-3.9-26.4c-0.3-1.6,0.3-2.7,1.4-3.8c6.5-6.4,12.9-12.9,19.3-19.3c0.6-0.6,1.5-0.9,1.4-2
		c-4.3-0.4-8.5-0.3-12.7,0.8c-15,3.9-25.1,13.3-29.1,28.2c-4.1,15-0.1,28.3,11.1,39.3c1.7,1.6,2.3,3.2,2.3,5.5
		c-0.1,14.3,0,28.7-0.1,43c0,1.9,0.5,2.9,2.5,3.5c7.9,2.3,16,3.5,24.3,3.5c2.6,0,3.3-0.7,3.2-3.3c-0.1-13,0-26-0.1-38.9
		c0-1.8,0.4-2.8,2.4-3.2c9.2-1.8,17-6.4,23-13.6C187.2,157.1,190.4,147.4,189.4,135.9z"/>
</g>
</svg>
