<?xml version="1.0" encoding="utf-8"?>
<!-- Generator: Adobe Illustrator 25.3.0, SVG Export Plug-In . SVG Version: 6.00 Build 0)  -->
<svg version="1.1" id="Layer_1" xmlns="http://www.w3.org/2000/svg" xmlns:xlink="http://www.w3.org/1999/xlink" x="0px" y="0px"
	 viewBox="0 0 300 300" style="enable-background:new 0 0 300 300;" xml:space="preserve">
<style type="text/css">
	.st0{fill:#FFFFFF;}
</style>
<g>
	<path class="st0" d="M299.2,293.3c0,1.9,0.8,4.6-0.2,5.6c-1,1-3.7,0.2-5.6,0.2c-96.4,0-192.8,0-289.1,0.1c-3,0-4.1-0.6-3.5-3.6
		c0.1-0.7,0-1.5,0-2.3c1.4-2.3,3.4-3.2,6.1-2.9c1.2,0.1,2.3-0.1,3.5,0c1.7,0.2,2.1-0.6,2.1-2.2c-0.1-5.2-0.1-10.5,0-15.7
		c0-3.3,1.8-5.4,4.5-5.3c2.6,0.1,4.2,2.1,4.2,5.2c0,5.2,0.1,10.5,0,15.7c0,1.8,0.5,2.3,2.3,2.3c11.1-0.1,22.1-0.1,33.2,0
		c2.1,0,2.5-0.7,2.5-2.7c-0.1-6.9-0.1-13.8,0-20.7c0-5.3,3.1-8.6,8.5-8.7c8.7-0.1,17.5-0.1,26.2,0c5.4,0.1,8.5,3.2,8.5,8.5
		c0.1,6.9,0.1,13.8,0,20.7c0,2.1,0.5,2.8,2.7,2.8c10.9-0.1,21.8-0.1,32.6,0c2,0,2.7-0.4,2.7-2.5c-0.1-18.3-0.1-36.5,0-54.8
		c0-2.3-0.7-2.7-2.8-2.7c-37.9,0.1-75.8,0.1-113.6,0c-2.3,0-2.7,0.8-2.7,2.9c0.1,6.6,0.1,13.2,0,19.8c0,3.4-1.6,5.3-4.4,5.3
		c-2.8,0-4.3-1.9-4.3-5.4c0-6.4-0.1-12.8,0-19.2c0-2.2-0.1-3.7-3-3.4c-2.3,0.2-3.8-1.2-4.1-3.6c-0.3-2.5,0.9-4.7,3.3-4.6
		c4.1,0.1,4.1-2.2,3.8-5.1c-0.1-1.5,0-3.1,0-4.7c-0.4-14.5,3.3-27.8,11.2-39.9c0.8-1.3,0.9-2.5,0.9-3.9c0-34.5,0-69,0-103.4
		c0-1.4-0.1-2.6-1.2-3.7c-1.4-1.4-1.7-3.4-0.4-4.8c1.8-1.9,1.6-4,1.6-6.2c0-2.7,0-5.4,0-8.2c0.1-6.3,3.9-10,10.2-10.2
		c2.6-0.1,5.2,0,7.9,0c5.4,0,5.5,0,5.4-5.6c-0.2-6.9,1.1-13.3,5.9-18.6c3.4-3.8,8-5.6,12.7-7.2c56.9,0,113.9,0,170.8,0
		c3.5,1.1,7,2.1,10,4.4c6.4,5.1,8.8,11.8,8.8,19.9c-0.1,51.5-0.1,103-0.1,154.5c0,2,0.3,3,2.5,3.5c4.5,1.1,6.9,4.6,7.1,9.5
		c0.1,1.5,0.1,2.9,0,4.4c-0.1,1.5,0.3,2.2,1.9,2.6c3.3,0.8,5.6,3,7,6.1c2,4.2,3.8,8.5,5.2,12.9c0.4,1.2,0.9,1.9,2.1,2.4
		c3.2,1.4,4,4.1,1.8,6.8c-0.8,1-1,1.8-0.7,3.1c1.2,5.4,1.6,10.9,1.9,16.5c0.1,3.2-1.5,5.2-4.1,5.3c-2.9,0.2-4.4-1.5-4.6-5
		c-0.3-5.4-0.8-10.8-1.9-16.2c-0.3-1.5-0.8-2.3-2.6-2.3c-19.1,0.1-38.3,0.1-57.4,0c-1.7,0-2.4,0.5-2.7,2.2
		c-4.2,20.1-1,39.1,7.6,57.5c0.5,1.1,1.1,1.6,2.4,1.6c5-0.1,9.9-0.1,14.9,0c1.7,0,2.2-0.6,2.1-2.2c-0.1-1.6-0.1-3.3,0.1-4.9
		c0.3-2.5,2.2-4.1,4.6-4c2.3,0.1,3.9,1.9,4,4.5c0.1,1.5,0.1,2.9,0,4.4c-0.2,1.8,0.6,2.3,2.3,2.3c4.7-0.1,9.3-0.1,14,0
		c1.8,0.1,2.8-0.6,3.5-2.2c3.3-7.4,5.9-14.9,7.6-22.8c0.6-2.9,2.7-4.2,5.3-3.6c2.5,0.5,3.8,2.8,3.2,5.6c-0.4,2-1,3.9-1.4,5.9
		c-1.4,5.8-3.7,11.3-5.9,17.1c5.9,0,11.6,0.1,17.2-0.1C295.7,290.2,297.8,290.9,299.2,293.3z M152.3,9.4c-27.2,0-54.4,0-81.6,0
		c-8,0-13.7,5.6-14,13.7c-0.1,2.1,0.1,4.3,0,6.4c-0.1,1.9,0.5,2.6,2.4,2.5c3.5-0.1,7-0.1,10.5,0c5.3,0.2,9.1,4,9.3,9.3
		c0.2,3.6,0.1,7.2,0.1,10.8c0,1.5,0.2,2.7,1.3,4c1.5,1.6,1.3,3.7-0.1,5.3c-0.8,1-1.2,1.9-1.2,3.1c0.1,11.8,0.2,23.5,0.3,35.3
		c0,1.5,0.4,2.3,2.1,2.2c15.6-0.1,31.3,0,46.9,0c1.5,0,2.1-0.5,2-2c-0.1-3.5,0-7,0-10.5c0-1.9,0.2-3.8-1.4-5.4
		c-1.1-1.1-1.1-3-0.1-4.1c1.9-2,1.5-4.3,1.5-6.5c0-2.7-0.1-5.4,0-8.2c0.3-6.1,4.2-9.8,10.2-10c3.5-0.1,7-0.1,10.5,0
		c1.7,0,2.4-0.5,2.4-2.3c-0.1-2.6,0.1-5.3-0.1-7.9c-0.7-9.8,6.8-18.3,18.2-18.2c16.7,0.2,33.4,0,50.1,0.1c11.2,0,18.1,7,18.1,18.2
		c0,44.4,0,88.8,0,133.2c0,0.8,0.1,1.6,0,2.3c-0.1,1.4,0.4,1.9,1.8,1.8c0.9-0.1,1.8-0.1,2.6,0c2.7,0.4,3.3-0.6,3.3-3.3
		c-0.1-51.6-0.2-103.1,0.1-154.7c0-9.8-7.1-15.4-15.4-15.3C205.5,9.6,178.9,9.4,152.3,9.4z M184.9,161.5c0,24.3,0.1,48.6-0.1,72.8
		c0,2.9,0.8,3.7,3.6,3.5c3.7-0.2,7.4,0,11.1-0.1c0.7,0,1.6,0.3,2.2-0.4c0.9-1.1,1.1-8.5,0.2-9.9c-1.3-2.1-1-5.1,1-5.8
		c2.8-1,3.2-3.2,4.1-5.4c1.4-3.5,2.8-7,4.3-10.5c1-2.4,2.6-4.8,5.1-5.3c4.2-0.9,4.4-3.5,4-6.7c-0.1-0.5,0-1,0-1.5
		c0.1-4.8,3.2-8.8,7.9-9.4c2.4-0.3,2.7-1.1,2.7-3.2c0-44.9,0-89.8,0-134.6c0-6-3.1-9.2-9.1-9.2c-6.8-0.1-13.6,0-20.4,0
		c-10.1,0-20.2,0-30.3,0c-6,0-9,3.1-9,8.9c0,2.8,0.1,5.6,0,8.4c-0.1,1.7,0.5,2.2,2.2,2.2c3.8-0.1,7.6-0.1,11.4,0.1
		c5.4,0.2,9.2,4.2,9.3,9.6c0.1,3.4,0,6.8,0,10.2c0,1.6,0.1,2.9,1.3,4.2c1.4,1.5,1.4,3.6,0,5c-1.3,1.4-1.3,2.9-1.3,4.5
		C185,113.1,184.9,137.3,184.9,161.5z M80.7,221.7c8.9,0,17.9,0,26.8,0c10.1,0,20.2,0,30.3,0c1.3,0,2.5,0.1,2.4-1.9
		c-0.2-5.4,0.3-10.9-0.3-16.3c-3.2-29.5-26.9-51.7-56.5-53.2c-24.3-1.3-47,12.9-57.1,35.2c-4.9,10.8-5.4,22.1-5.2,33.6
		c0,2.3,0.8,2.7,2.8,2.7C42.8,221.6,61.7,221.7,80.7,221.7z M51.9,63c-5.5,0-11.1,0-16.6,0c-1.4,0-2.2,0.2-2.1,1.9
		c0.1,3.6,0.1,7.2,0,10.8c0,1.4,0.5,1.9,1.9,1.9c2.4-0.1,4.9,0,7.3,0c3,0.1,4.9,1.6,5,4.1c0.1,2.6-1.8,4.4-4.9,4.6
		c-2.2,0.1-4.5,0.1-6.7,0c-1.8-0.1-2.6,0.4-2.5,2.4c0.1,8.8,0.1,17.7,0,26.5c0,1.7,0.4,2.4,2.2,2.4c10.9-0.1,21.7-0.1,32.6,0
		c1.8,0,2.3-0.7,2.3-2.4c-0.1-8.8-0.1-17.7,0-26.5c0-2-0.7-2.5-2.5-2.4c-2.4,0.1-4.9,0.1-7.3,0c-2.7-0.2-4.5-2.1-4.4-4.5
		c0.1-2.4,1.9-4.1,4.7-4.1c2.4-0.1,4.9-0.1,7.3,0c1.6,0.1,2.3-0.5,2.2-2.1c-0.1-3.4-0.1-6.8,0-10.2c0.1-1.9-0.7-2.2-2.4-2.2
		C62.6,63,57.2,63,51.9,63z M176.2,186.5c0-6,0-12,0-18c0-1.2,0.2-2.3-1.7-2.3c-11.3,0.1-22.5,0-33.8,0c-0.8,0-1.7,0-1.7,1.1
		c0.2,2.9-0.7,5.9,0.9,8.8c5.1,8.9,8,18.4,8.7,28.6c0.1,1.5,0.7,2,2.1,2c7.8,0,15.5-0.1,23.3,0c1.7,0,2.2-0.6,2.1-2.2
		C176.2,198.5,176.2,192.5,176.2,186.5z M157.5,157.5c5.5,0,11.1-0.1,16.6,0c1.6,0,2.2-0.4,2.2-2.1c-0.1-9-0.1-18.1,0-27.1
		c0-1.6-0.4-2.2-2.1-2.2c-11,0.1-21.9,0.1-32.9,0c-1.6,0-2.2,0.5-2.2,2.2c0.1,9,0.1,18.1,0,27.1c0,1.7,0.6,2.1,2.2,2.1
		C146.6,157.4,152.1,157.5,157.5,157.5z M157.8,86.3c-5.4,0-10.9,0.1-16.3,0c-1.8,0-2.6,0.3-2.6,2.4c0.1,8.8,0.1,17.7,0,26.5
		c0,1.8,0.6,2.3,2.4,2.3c10.9-0.1,21.7-0.1,32.6,0c1.7,0,2.3-0.4,2.3-2.3c-0.1-8.9-0.1-17.8,0-26.8c0-1.7-0.5-2.2-2.1-2.1
		C168.7,86.4,163.2,86.3,157.8,86.3z M129.8,162c0.2-0.3,0.4-0.4,0.4-0.6c0-11.5,0-22.9,0.1-34.4c0-1.5-0.6-1.7-1.9-1.7
		c-15.7,0-31.5,0-47.2,0c-1.7,0-2.2,0.6-2.1,2.2c0.1,3.5,0.2,7,0,10.5c-0.2,2.9,0.9,3.5,3.6,3.6c15,0.2,28.5,5.2,40.3,14.5
		C125.2,157.9,127.4,160,129.8,162z M33.2,160.4c2.3-1.9,4.2-3.6,6.3-5.1c8.4-6.3,17.7-10.6,28.1-12.6c1.2-0.2,2.8,0,2.7-2.2
		c-0.1-4.2-0.1-8.3,0-12.5c0-1.3-0.5-1.9-1.9-1.9c-11.2,0-22.3,0-33.5,0c-1.2,0-1.7,0.5-1.7,1.7C33.2,138.5,33.2,149.2,33.2,160.4z
		 M176.2,275.8c0-4.2,0-8.3,0-12.5c0-1.3-0.1-2.2-1.8-2.1c-7.9,0.1-15.7,0.1-23.6,0c-1.6,0-2,0.6-2,2.1c0,8.3,0.1,16.7,0,25
		c0,1.7,0.6,2.1,2.2,2.1c7.7-0.1,15.3-0.1,23,0c1.9,0,2.3-0.6,2.2-2.3C176.1,284,176.2,279.9,176.2,275.8z M242.9,220.5
		c8.5,0,17.1-0.1,25.6,0.1c2.7,0,2.9-0.8,1.9-2.9c-1.1-2.4-2.2-4.8-3-7.2c-0.8-2.2-2.2-2.9-4.4-2.8c-10.9,0.1-21.8,0-32.6,0
		c-11.1,0-11,0-14.7,10.5c-0.7,2-0.4,2.5,1.7,2.4C225.8,220.4,234.3,220.5,242.9,220.5z M80.6,290.3c3.6,0,7.2-0.1,10.8,0
		c1.6,0,2.2-0.3,2.2-2.1c-0.1-6.4-0.1-12.8,0-19.2c0-1.7-0.7-2.1-2.2-2.1c-7.1,0.1-14.1,0.1-21.2,0c-1.7,0-2.4,0.4-2.3,2.3
		c0.1,6.3,0.1,12.6,0,18.9c0,2,0.8,2.2,2.4,2.2C73.6,290.3,77.1,290.3,80.6,290.3z M209.9,290.3c0-0.4,0.1-0.7,0-0.8
		c-3.6-8.6-6.5-17.4-7.8-26.7c-0.1-1-0.6-1.7-1.9-1.7c-4.6,0.1-9.1,0.1-13.7,0c-1.2,0-1.7,0.4-1.7,1.7c0,8.6,0,17.3,0,25.9
		c0,1.1,0.4,1.6,1.5,1.6C194.3,290.3,202.1,290.3,209.9,290.3z M162.4,237.8c3.8,0,7.6-0.1,11.4,0c1.9,0.1,2.5-0.5,2.5-2.5
		c-0.1-5.8-0.1-11.6,0-17.5c0.1-2.1-0.7-2.6-2.7-2.5c-7.3,0.1-14.6,0.1-21.8,0c-1.7,0-3.2-0.1-2.9,2.4c0.2,1.8-1,4.2,2.7,4.1
		c2.8-0.1,4.8,2.1,4.7,4.5c-0.1,2.4-1.9,4.1-4.7,4.1c-2,0-2.9,0.6-2.6,2.7c0.1,0.8,0.1,1.6,0,2.3c-0.2,2,0.6,2.5,2.5,2.5
		C155.1,237.7,158.7,237.8,162.4,237.8z M157.5,77.6c5.5,0,11.1-0.1,16.6,0c1.7,0,2.2-0.5,2.1-2.2c-0.1-3-0.1-6,0-9
		c0.1-2-0.8-2.5-2.6-2.5c-10.7,0-21.4,0.1-32,0c-2.1,0-2.7,0.9-2.6,2.8c0.1,2.8,0.1,5.6,0,8.4c-0.1,2,0.7,2.4,2.5,2.4
		C146.8,77.5,152.2,77.6,157.5,77.6z M51.4,54.3c5.5,0,11.1,0,16.6,0c1.5,0,2.3-0.3,2.3-2.1c-0.1-3.1-0.1-6.2,0-9.3
		c0-1.6-0.6-2.2-2.2-2.2c-10.9,0-21.8,0-32.6,0c-1.6,0-2.3,0.6-2.2,2.2c0.1,3,0.1,6,0,9c-0.1,2,0.7,2.4,2.5,2.4
		C40.9,54.2,46.2,54.3,51.4,54.3z M175.3,252.5c7.8,0,15.5-0.1,23.3,0c1.9,0,2.9-0.3,2.6-2.5c-0.2-1.7,0.7-3.6-2.5-3.6
		c-15.7,0.2-31.5,0.1-47.2,0c-2.7,0-2.7,1.2-2.7,3.2c0,1.9,0.1,3,2.6,2.9C159.4,252.4,167.3,252.5,175.3,252.5z M105,110.7
		c-7.8,0-15.5,0.1-23.3-0.1c-2.3,0-2.5,1.1-2.4,2.8c0.1,1.5-0.7,3.3,2.2,3.3c15.5-0.1,31.1-0.1,46.6,0c2.5,0,2.2-1.4,2.2-2.9
		c0-1.6,0.4-3.2-2.3-3.2C120.3,110.8,112.6,110.7,105,110.7z M242.9,198.9c3.4,0,6.8,0,10.2,0c4.5-0.1,3.9,0.7,4-4.1
		c0-0.2,0-0.4,0-0.6c0.3-2.2-0.5-3.1-2.9-3c-6.6,0.2-13.2,0-19.8,0.1c-5.9,0.1-5.1-1.3-5.2,5.5c0,1.6,0.5,2.2,2.1,2.1
		C235.2,198.8,239,198.9,242.9,198.9z"/>
	<path class="st0" d="M66.5,190.7c0.4-5.1,2.4-10.8,6.8-15.4c4.4-4.7,10.5-4.8,14.8-0.1c4.9,5.5,7.7,11.9,6.6,19.4
		c-1.1,7.8-7.7,12.6-15.7,11.8C71.7,205.8,66.4,199.6,66.5,190.7z M86.3,192.2c-0.4-3.8-1.7-7.4-4.1-10.6c-1-1.4-2.1-1.2-3,0.1
		c-2.3,3.2-3.9,6.6-3.9,10.7c0,3.3,2.3,5.5,5.5,5.4C83.8,197.8,86.2,195.4,86.3,192.2z"/>
</g>
</svg>
