<?xml version="1.0" encoding="utf-8"?>
<!-- Generator: Adobe Illustrator 25.3.0, SVG Export Plug-In . SVG Version: 6.00 Build 0)  -->
<svg version="1.1" id="Layer_1" xmlns="http://www.w3.org/2000/svg" xmlns:xlink="http://www.w3.org/1999/xlink" x="0px" y="0px"
	 viewBox="0 0 50 50" style="enable-background:new 0 0 50 50;" xml:space="preserve">
<style type="text/css">
	.st0{fill:#FFFFFF;}
	.st1{fill:none;stroke:#FFFFFF;stroke-width:0.75;stroke-miterlimit:10;}
</style>
<g>
	<rect x="13.3" y="20.9" class="st0" width="5" height="16.3"/>
	<path class="st0" d="M15.8,18.8c1.6,0,3-1.3,3-3c0-1.7-1.3-3-3-3c-1.6,0-3,1.3-3,3C12.8,17.5,14.1,18.8,15.8,18.8"/>
	<path class="st0" d="M26.4,28.7c0-2.3,1.1-3.6,3.1-3.6c1.9,0,2.7,1.3,2.7,3.6v8.5h5V26.9c0-4.4-2.5-6.5-5.9-6.5
		c-3.4,0-4.9,2.7-4.9,2.7v-2.2h-4.8v16.3h4.8V28.7z"/>
</g>
<rect x="0.7" y="0.6" class="st1" width="48.7" height="48.9"/>
</svg>
