<?xml version="1.0" encoding="utf-8"?>
<!-- Generator: Adobe Illustrator 25.3.0, SVG Export Plug-In . SVG Version: 6.00 Build 0)  -->
<svg version="1.1" id="Layer_1" xmlns="http://www.w3.org/2000/svg" xmlns:xlink="http://www.w3.org/1999/xlink" x="0px" y="0px"
	 viewBox="0 0 300 300" style="enable-background:new 0 0 300 300;" xml:space="preserve">
<style type="text/css">
	.st0{fill:#FFFFFF;}
</style>
<g>
	<path class="st0" d="M192,1.7c14,0,28,0,42,0c2.5,1.7,3.3,4,3,6.9c-0.1,1,0.1,2,0,3c-0.5,2.8,1,3.6,3.3,4.9c5.5,3.2,9.2,2.2,13-2.7
		c2.8-3.7,5.5-3.3,8.8,0c8.3,8.3,16.6,16.5,24.8,24.8c4,4,4.2,6.1,0,9.7c-4.2,3.5-5.3,6.6-2.7,11.8c1.6,3.2,3,4.5,6.5,4.1
		c3.3-0.4,6.6-0.4,8.7,2.9c0,14,0,28,0,42c-2,3-4.9,3.1-8.1,3c-5.2-0.1-5.2,0-7.1,4.7c-0.6,1.4-1.1,2.8-1.8,4.1
		c-0.6,1.2-0.4,2,0.5,2.9c1.9,1.8,3.7,3.6,5.5,5.6c2,2.2,2,4.6,0,6.7c-9.1,9.2-18.2,18.3-27.4,27.4c-2.1,2.1-4.5,2.1-6.7,0.1
		c-1.5-1.3-3-2.7-4.2-4.2c-1.7-2.1-3.2-2-5.8-1.3c-5.9,1.7-8.3,4.7-7.3,11c0.6,3.6-1.7,5.5-5.4,5.5c-5.3,0-10.6,0.1-15.9,0
		c-2.2-0.1-2.6,0.7-2.6,2.7c0.1,30.2,0.1,60.4,0,90.6c0,2.1,0.4,3,2.7,2.9c3.6-0.2,7.2-0.1,10.8-0.1c3.9,0,5.7,1.8,5.7,5.7
		c0,5.4-0.1,10.8,0.1,16.2c0.1,2.9-0.6,5.3-3,6.9c-74.9,0-149.9,0-224.8,0.1c-2.3,0-2.8-0.6-2.7-2.8c0.2-7.7,0.1-15.4,0.1-23.1
		c1.7-2.5,4-3.2,6.9-3c3,0.2,6-0.2,9,0.1c2.9,0.3,3.3-0.9,3.3-3.5c-0.1-65-0.1-130,0-195c0-2.8-0.8-3.5-3.5-3.4
		c-4.6,0.2-6.2-1.6-6.2-6.3c0-5.2,0-10.4,0-15.6c0-5.5,1.4-6.8,6.9-6.8c38.8,0,77.6,0,116.4,0.1c2.2,0,3.7-0.7,5.2-2.2
		c7.8-7.9,15.7-15.7,23.5-23.6c4.2-4.2,6.2-4.4,10.1,0.1c3.3,3.8,6.3,5.4,11.2,2.5c4-2.4,4.4-1.9,4.3-6.8
		C188.9,6.9,188.8,3.8,192,1.7z M147.5,145.8c-3.5-3.4-6.4-6.1-9.2-8.9c-3-3-2.9-5.2,0-8.2c1.4-1.4,2.7-2.9,4.3-4.2
		c1.5-1.3,1.6-2.4,0.7-4.2c-1.2-2.5-1.5-6-3.4-7.5c-2.1-1.7-5.6-0.4-8.4-0.6c-3-0.2-4.9-1.9-4.9-4.9c-0.1-12.7-0.1-25.4,0-38.1
		c0-3,1.9-4.8,4.9-4.9c2.9-0.2,6.4,1.2,8.4-0.5c1.9-1.7,2.3-5.1,3.4-7.8c0.1-0.4,0.4-0.7,0.5-1.1c0.2-0.6,0.2-1.2-0.3-1.7
		c-1.7-1.8-3.2-3.4-6.2-3.4c-36.7,0.1-73.4,0.1-110.1,0.1c-6.4,0-6.2,0-6.5,6.3c-0.1,2.9,0.9,3.4,3.5,3.4
		c30.3-0.1,60.6-0.1,90.9-0.1c6.5,0,6.4,0,6.6,6.5c0.1,2.5-0.6,3.1-3.1,3.1c-28.2-0.1-56.4,0-84.6-0.1c-2.8,0-3.6,0.6-3.6,3.5
		c0.1,63.7,0.1,127.4,0.1,191.1c0,7.2,0,7.1,7.1,7.1c1.9,0,2.6-0.5,2.5-2.5c-0.1-5.7-0.1-11.4,0-17.1c0.1-9.6,7.6-17.8,17.2-18.8
		c9.6-1,18.6,5.4,20.6,14.9c1.2,5.3,0.4,10.8,0.5,16.1c0.1,7.6,0,7.5,7.6,7.3c1.8,0,2.2-0.6,2.1-2.3c-0.1-5.3,0-10.6,0-15.9
		c0-11,6.5-18.6,17.3-20.2c1.6-0.2,2-0.7,1.9-2.2c-0.1-5-0.1-10,0-15c0-1.7-0.5-2.3-2.2-2.2c-3.9,0.1-7.8,0.1-11.7,0
		c-3.4,0-5.3-1.8-5.3-5.1c-0.1-9.4-0.1-18.8,0-28.2c0-3.2,1.9-4.9,5.1-5c2.3-0.1,4.6,0,6.9,0c7.6,0,7.5,0,7.2-7.6
		c-0.1-1.6-0.5-2.1-2.1-2c-3.9,0.1-7.8,0.1-11.7,0c-3.7,0-5.5-1.9-5.5-5.6c0-9.1,0-18.2,0-27.3c0-3.7,1.8-5.5,5.6-5.5
		c9.1,0,18.2,0,27.3,0c3.7,0,5.5,1.8,5.5,5.6c0,3.9,0,7.8,0,11.7c0,1.1-0.1,2,1.5,1.9C134.2,145.8,140.4,145.8,147.5,145.8z
		 M257.9,153.1c0.5-0.5,1.1-1,1.7-1.6c4.5-4.5,9.1-9,13.6-13.6c1.6-1.7,4.6-3.1,4.5-5.2c-0.2-1.8-2.8-3.4-4.4-5
		c-2.5-2.6-2.8-4.3-1.1-7.5c1.6-3.1,3.2-6.2,4.2-9.6c2.5-8.3,2.7-8.2,11.1-7.9c1.9,0.1,2.6-0.4,2.5-2.5c-0.1-6.9,0-13.8,0-20.7
		c0-5.7,0-5.7-5.8-5.7c-4.3,0-5.5-0.9-6.7-4.9c-1.3-4.3-3-8.4-5.1-12.4c-1.9-3.6-1.7-5.1,1.1-8c1.1-1.1,2.2-2.3,3.4-3.4
		c1.4-1.1,1.1-2-0.1-3.1c-4.7-4.5-9.2-9.2-13.8-13.8c-1.7-1.7-3.3-4.4-5.2-4.6c-2-0.2-3.5,2.8-5.2,4.5c-2.2,2.3-4.6,2.6-7.3,1.1
		c-3-1.6-6.1-3-9.3-4.2c-8.1-2.9-8.2-2.9-8.4-11.6c0-1.8-0.6-2.2-2.2-2.1c-6.8,0.1-13.6,0-20.4,0c-6.2,0-6.2,0-6.2,6.2
		c0,3.8-1,5.2-4.7,6.3c-3.1,0.9-6.1,1.9-8.9,3.4c-9.9,5.3-9,3.1-14.9-2.6c-1.3-1.3-2-1.4-3.3,0c-4.6,4.7-9.3,9.3-14,14.1
		c-1.6,1.6-4.4,3-4.4,5c0,2,2.8,3.4,4.4,5c2.5,2.6,2.8,4.4,1.2,7.5c-1.6,3.1-3.1,6.3-4.2,9.6c-2.4,6.9-1.1,8.5-11.3,8.1
		c-1.9-0.1-2.4,0.5-2.4,2.3c0.1,6.8,0,13.6,0,20.4c0,6.1,0,6.1,6,6.1c4.1,0,5.4,0.9,6.5,4.8c0.9,3.2,2,6.3,3.5,9.2
		c4.6,8.9,3.6,8.3-2.7,14.4c-1.6,1.6-1.3,2.4,0.1,3.8c4.6,4.4,9,9.1,13.6,13.5c1.7,1.6,3.1,4.6,5.2,4.5c2,0,3.4-2.8,5-4.4
		c2.6-2.5,4.3-2.8,7.5-1.1c3.2,1.7,6.5,3.1,9.8,4.3c7.7,2.7,7.8,2.7,7.7,10.6c0,2.5,0.8,2.9,3,2.9c6.6-0.1,13.2,0,19.8,0
		c6,0,6,0,6-6.1c0-4,1-5.2,4.8-6.5c2.9-1,5.9-2,8.7-3.2c8.4-3.7,8.4-3.7,15.2,2.6C256.6,152.4,257,153,257.9,153.1z M117,213
		c0,18.3,0,36.6,0,54.9c0,1.5-0.4,2.9,2.1,2.8c8.2-0.2,16.4-0.1,24.6,0c1.8,0,2.2-0.6,2.1-2.2c-0.1-4.1-0.1-8.2,0-12.3
		c0.1-7.9,6.5-14.3,14.3-14.3c7.9,0,14.3,6.3,14.4,14.2c0.1,4.1,0.1,8.2,0,12.3c-0.1,1.8,0.5,2.4,2.3,2.4c7.9-0.1,15.8-0.2,23.7,0
		c2.5,0.1,2.9-0.8,2.9-3c-0.1-19.6,0-39.2,0-58.8c0-10.6,0-21.2,0-31.8c0-1.9-0.4-2.7-2.5-2.5c-2.3,0.2-4.6,0.1-6.9,0
		c-3.2-0.1-5-1.9-5.1-5.1c-0.1-2-0.1-4,0-6c0.1-1.7-0.6-2.4-2.1-3.3c-5.9-3.4-10.6-3.1-14.8,2.8c-2.1,3-5,2.5-7.7-0.1
		c-2-2-4-3.9-5.9-6c-1.1-1.2-2.3-1.6-3.9-1.6c-11.4,0.1-22.8,0.1-34.2,0c-2.6,0-3.5,0.5-3.5,3.4C117,176.8,117,194.9,117,213z
		 M116.8,289.9c33.3,0,66.6,0,99.9,0c5.9,0,5.7,0,5.9-5.9c0.1-3-0.6-3.8-3.7-3.8c-67.1,0.1-134.2,0.1-201.3,0.1
		c-6.3,0-6.2,0-6.4,6.4c-0.1,2.6,0.5,3.3,3.2,3.3C48.6,289.8,82.7,289.9,116.8,289.9z M69,260c0-3,0.1-6,0-9
		c-0.2-5.1-4.5-9.2-9.6-9.2c-5,0-9.4,3.9-9.6,8.8c-0.2,6.1,0,12.2-0.1,18.2c0,1.3,0.3,1.8,1.7,1.8c5.3-0.1,10.6-0.1,15.9,0
		c1.3,0,1.8-0.4,1.7-1.7C68.9,266,69,263,69,260z M97.8,145.7c0,1.4,0,2.8,0,4.2c0,5.5,0,5.5,5.7,5.5c3.9,0,3.9,0,4-3.9
		c0.1-3.5,1.6-5.4,4.8-5.7c4.8-0.4,4.8-0.4,4.8-5.2c0-0.9-0.1-1.8,0-2.7c0.1-1.2-0.3-1.8-1.7-1.8c-5.3,0.1-10.6,0.1-15.9,0
		c-1.3,0-1.8,0.4-1.7,1.7C97.8,140.5,97.8,143.1,97.8,145.7z M107.4,256.3c0-4.2-0.1-8.4,0-12.6c0-1.7-0.6-2-2.1-1.7
		c-4.3,1-7.4,4.8-7.5,9.3c-0.1,4.1,0,8.2,0,12.3c0,7.2,0,7.1,7.1,7.1c1.9,0,2.6-0.4,2.5-2.5C107.3,264.2,107.4,260.2,107.4,256.3z
		 M97.8,193.6c0,0.9,0,1.8,0,2.7c0,7.3,0,7.3,7.4,7.1c0.2,0,0.4,0,0.6,0c1.4,0.2,1.7-0.6,1.6-1.8c0-5.2,0-10.4,0-15.6
		c0-0.7,0.3-1.8-0.9-1.8c-2.8,0-5.9-0.9-8.2,0.4c-1.4,0.8-0.3,3.7-0.5,5.7C97.7,191.4,97.8,192.5,97.8,193.6z M165,262.6
		C165,262.6,165,262.6,165,262.6c0-2.2,0.1-4.4,0-6.6c-0.2-2.6-2.2-4.5-4.7-4.6c-2.6-0.1-4.8,1.9-4.9,4.6c-0.1,4.3,0,8.6-0.1,12.9
		c0,1,0.1,1.6,1.4,1.7c7.7,1,8.2,0.6,8.2-6.9C165,263.4,165,263,165,262.6z"/>
	<path class="st0" d="M78.6,97.7c0,4.6,0,9.2,0,13.8c0,3.7-1.9,5.5-5.5,5.5c-9.1,0-18.2,0-27.3,0c-3.7,0-5.6-1.8-5.6-5.5
		c0-9.2,0-18.4,0-27.6c0-3.5,1.9-5.3,5.4-5.3c9.2,0,18.4,0,27.6,0c3.6,0,5.4,1.9,5.4,5.6C78.6,88.7,78.6,93.2,78.6,97.7z M49.9,97.5
		c-0.1,0-0.1,0-0.2,0c0,2.6,0.1,5.2,0,7.8c0,1.5,0.3,2.2,1.9,2.1c5.1-0.1,10.2-0.1,15.3,0c1.6,0,2.1-0.4,2-2
		c-0.1-5.1-0.1-10.2,0-15.3c0-1.7-0.6-2-2.1-2c-2.6,0.1-5.2-0.1-7.8,0c-3.1,0.1-7.1-1.3-8.9,0.6C48.8,90.5,49.9,94.5,49.9,97.5z"/>
	<path class="st0" d="M40.2,145.5c0-4.5,0-9,0-13.5c0-3.5,1.8-5.4,5.3-5.4c9.3,0,18.6,0,27.9,0c3.3,0,5.2,1.9,5.2,5.2
		c0,9.3,0,18.6,0,27.9c0,3.3-1.9,5.2-5.2,5.3c-9.4,0.1-18.8,0.1-28.2,0c-3.1,0-5-1.9-5-5.1C40.1,155.1,40.2,150.3,40.2,145.5z
		 M69,145.9c0-2.5-0.1-5,0-7.5c0.1-1.9-0.6-2.3-2.4-2.3c-4.9,0.1-9.8,0.1-14.7,0c-1.7,0-2.2,0.4-2.2,2.2c0.1,5,0.1,10,0,15
		c0,1.8,0.6,2.2,2.3,2.1c5-0.1,10-0.1,15,0c1.5,0,2.1-0.4,2.1-2C68.9,150.9,69,148.4,69,145.9z"/>
	<path class="st0" d="M40.2,193.8c0-4.6,0-9.2,0-13.8c0-3.5,1.8-5.4,5.3-5.4c9.3,0,18.6,0,27.9,0c3.3,0,5.2,1.9,5.2,5.2
		c0,9.3,0,18.6,0,27.9c0,3.3-1.9,5.2-5.2,5.3c-9.4,0.1-18.8,0.1-28.2,0c-3.1,0-5-1.9-5-5.1C40.1,203.2,40.2,198.5,40.2,193.8z
		 M59.7,184.2c-2.6,0-5.2,0.1-7.8,0c-1.8-0.1-2.2,0.6-2.1,2.2c0.1,5,0.1,10,0,15c0,1.5,0.4,2.1,2,2.1c5.1-0.1,10.2-0.1,15.3,0
		c1.6,0,2-0.6,2-2.1c-0.1-5-0.1-10,0-15c0-1.7-0.4-2.3-2.2-2.2C64.5,184.3,62.1,184.2,59.7,184.2z"/>
	<path class="st0" d="M88.2,97.5c0-4.4,0-8.8,0-13.2c0-3.9,1.7-5.7,5.6-5.7c8.5,0,17,0,25.5-0.1c1.9,0,2.5,0.5,2.5,2.5
		c0,7.2,0.1,7.2-7.1,7.2c-4.8,0-9.6,0.1-14.4-0.1c-2.2-0.1-2.7,0.7-2.6,2.7c0.1,4.7,0.1,9.4,0,14.1c-0.1,1.9,0.5,2.6,2.5,2.5
		c6.4-0.1,12.8,0,19.2-0.1c1.7,0,2.4,0.3,2.4,2.3c0.1,7.3,0.2,7.3-7.2,7.3c-6.9,0-13.8,0-20.7,0c-3.9,0-5.7-1.8-5.7-5.6
		C88.2,106.7,88.2,102.1,88.2,97.5z"/>
	<path class="st0" d="M213.1,30.6c31.3-0.1,57.4,25.8,57.5,57c0.1,32.1-25.6,58.2-57.2,58.2c-32.1,0-57.9-25.7-58-57.8
		C155.4,56.4,181.3,30.6,213.1,30.6z M227.4,133.6c1.4,0.1,2.4-0.5,3.4-0.9c20.6-8.2,32.6-28.9,29.7-51.1
		c-3.5-27.4-30.3-46.3-57.3-40.4C178.1,46.7,162,69.3,165.6,95c2.6,18.6,13.4,31.1,30.7,38.2c1.8,0.7,2.4,0.5,2.3-1.6
		c-0.1-4.9-0.1-9.8,0-14.7c0.1-2.2-0.5-3.4-2.6-4.7c-11.8-7.2-17.6-17.9-16.5-31.7c1.1-13.4,8.4-23,20.9-28.3c4.7-2,7.7,0.1,7.7,5.2
		c0,7,0.3,14-0.1,21c-0.2,3.6,2.4,5,4.2,7c0.3,0.3,0.6,0.4,1.1,0.2c1.4-0.5,4.4-4.7,4.4-6.3c0-7.5,0-15,0-22.5c0-4.3,3-6.3,7.1-4.8
		c5.1,1.8,9.4,4.8,13,8.8c14.5,16.6,10.5,40.8-8.7,51.9c-0.8,0.5-1.9,0.7-1.9,2C227.4,121,227.4,127.3,227.4,133.6z M227.4,64.4
		c0,6.2,0,12,0,17.8c0,2-0.5,3.7-2,5.1c-2.9,2.8-5.6,5.7-8.5,8.5c-2.7,2.6-5.1,2.7-7.8,0c-2.5-2.4-4.9-5-7.5-7.4
		c-2.3-2-3.2-4.3-3.1-7.4c0.2-5.4,0.1-10.9,0.1-16.8c-0.9,0.7-1.3,0.9-1.6,1.2c-13.1,11.9-9.6,33,6.7,39.9c3.2,1.4,4.7,3.3,4.6,6.8
		c-0.2,5.8,0,11.6,0,17.4c0,6.8,0,6.8,6.9,6.6c2.3,0,2.8-0.8,2.8-3c-0.1-6.6,0.2-13.2-0.1-19.8c-0.2-4.3,1.2-6.7,5.3-8.5
		C239.4,97.7,242,75.1,227.4,64.4z"/>
	<path class="st0" d="M155.4,179.4c0,3,0,6,0,9c-0.1,3.5-1.8,5.4-5.3,5.4c-6.1,0.1-12.2,0.1-18.3,0c-3.3,0-5.2-1.9-5.2-5.2
		c-0.1-6.1-0.1-12.2,0-18.3c0-3.5,1.9-5.3,5.4-5.3c6,0,12,0,18,0c3.5,0,5.3,1.9,5.4,5.4C155.4,173.4,155.4,176.4,155.4,179.4z
		 M141.1,184.2c4.7,0,4.7,0,4.7-3.5c0-6.2,0-6.2-3.8-6.2c-5.8,0-5.8,0-5.8,3.9C136.2,184.2,136.2,184.2,141.1,184.2z"/>
	<path class="st0" d="M126.6,217.8c0-3.1-0.1-6.2,0-9.3c0.1-3.2,1.9-5.1,5-5.1c6.3-0.1,12.6-0.1,18.9,0c3,0,4.8,1.9,4.9,4.9
		c0.1,6.3,0.1,12.6,0,18.9c0,3-1.9,4.9-4.9,4.9c-6.3,0.1-12.6,0.1-18.9,0c-3.1,0-4.9-1.9-5-5.1C126.5,224,126.6,220.9,126.6,217.8z
		 M136.2,217.6c0,5.1,0,5.1,4.9,5.1c0.7,0,1.4-0.1,2.1,0c2.1,0.3,2.9-0.6,2.6-2.6c-0.1-0.6,0-1.2,0-1.8c0-5.2,0-5.2-5.1-5.2
		C136.2,213,136.2,213,136.2,217.6z"/>
	<path class="st0" d="M165,217.8c0-3.1-0.1-6.2,0-9.3c0.1-3.2,1.9-5.1,5-5.1c6.3-0.1,12.6-0.1,18.9,0c3,0,4.8,1.9,4.9,4.9
		c0.1,6.3,0.1,12.6,0,18.9c0,3-1.9,4.9-4.9,4.9c-6.3,0.1-12.6,0.1-18.9,0c-3.1,0-5-1.9-5-5.1C165,224,165,220.9,165,217.8z
		 M184.2,217.8c0-4.7,0-4.7-3.5-4.7c-6.2,0-6.2,0-6.2,3.8c0,5.8,0,5.8,3.9,5.8C184.2,222.6,184.2,222.6,184.2,217.8z"/>
	<path class="st0" d="M178.3,193.8c-2.7,0-5.4,0-8.1,0c-3.3-0.1-5.2-1.9-5.2-5.2c-0.1-5.5,0.1-11-0.1-16.5c0-2,0.7-2.3,2.4-2.3
		c7.2-0.1,7.2-0.1,7.2,7c0,7.4,0,7.4,7.4,7.4c7.2,0,7.1,0,7,7.2c0,1.8-0.4,2.5-2.3,2.4C184,193.7,181.1,193.8,178.3,193.8z"/>
</g>
</svg>
