<?xml version="1.0" encoding="utf-8"?>
<!-- Generator: Adobe Illustrator 25.3.0, SVG Export Plug-In . SVG Version: 6.00 Build 0)  -->
<svg version="1.1" id="Layer_1" xmlns="http://www.w3.org/2000/svg" xmlns:xlink="http://www.w3.org/1999/xlink" x="0px" y="0px"
	 viewBox="0 0 300 300" style="enable-background:new 0 0 300 300;" xml:space="preserve">
<style type="text/css">
	.st0{fill:#FFFFFF;}
</style>
<g>
	<path class="st0" d="M146.3,1.3c2.5,0,5,0,7.4,0c0.5,0.6,1.3,0.5,2,0.7c10.4,2.5,18.3,11.6,19,22.2c0.8,11.3-6.1,21.9-16.9,25.3
		c-2.5,0.8-3.1,1.9-3,4.3c0.2,3.1,0,6.2,0.1,9.3c0.1,2.5-1,5.6,0.5,7.2c1.3,1.3,4.4,0.9,6.7,1.3c0.2,0,0.4,0.1,0.6,0.1
		c14.2,2.4,26.9,8.2,38,17.5c1.2,1,1.9,1.2,3.2-0.1c3.8-3.9,7.7-7.8,11.7-11.5c1.2-1.1,1.2-2,0.4-3.4c-2.4-4.1-3.3-8.7-2.9-13.4
		c0.8-9.9,5.8-17.2,14.9-21.1c9.2-3.9,18.1-2.6,25.8,3.9c7.6,6.4,10.3,14.9,8,24.5c-3.8,15.9-21,23.6-35.6,16.2
		c-1.2-0.6-2-1.4-3.4,0c-3.9,4.1-8,8.1-12,12.1c-1.1,1.1-0.9,1.7,0,2.7c10.8,12.7,16.8,27.5,18.5,44c0.2,1.6,0.7,2,2.3,2
		c5.1-0.1,10.1-0.1,15.2,0c2.2,0.1,3.1-0.5,3.8-2.7c5.7-17.8,28.2-23,41.3-9.6c3.7,3.8,5.5,8.6,7,13.5c0,2.5,0,5,0,7.4
		c-0.2,0.3-0.4,0.5-0.5,0.8c-2.9,11.9-11.6,19.7-22.7,20.3c-11.8,0.6-21.2-6-25.4-18c-0.5-1.5-1.2-1.8-2.6-1.8
		c-5.3,0.1-10.5,0.1-15.8,0c-1.8,0-2.4,0.4-2.6,2.3c-1.7,16.4-7.7,31.1-18.4,43.7c-1.1,1.3-0.8,1.9,0.3,2.9
		c3.6,3.6,7.2,7.1,10.6,10.8c1.6,1.7,2.7,2.1,5.1,1c9.4-4.5,18.5-3.6,26.6,3c7.8,6.4,10.5,14.9,8.3,24.7c-2.3,10.1-9,16.5-19,18.6
		c-9.9,2-18.5-1.1-24.7-9.2c-6.2-8.2-6.8-17.3-2.2-26.5c0.8-1.6,0.9-2.5-0.5-3.9c-3.9-3.7-7.7-7.5-11.4-11.4c-1-1-1.6-1.4-2.9-0.3
		c-12.7,10.8-27.5,16.8-44,18.5c-1.6,0.2-2,0.7-2,2.2c0.1,5,0.2,9.9,0,14.9c-0.1,2.4,0.5,3.4,3,4.3c9.6,3.3,15.4,10.3,16.7,20.4
		c1.2,9.5-2.4,17.3-10.2,23.2c-3.2,2.4-7,3.4-10.6,4.6c-2.5,0-5,0-7.4,0c-0.3-0.2-0.5-0.4-0.8-0.5c-11.9-2.9-19.7-11.6-20.3-22.7
		c-0.6-11.8,6-21.2,18-25.4c1.5-0.5,1.8-1.2,1.8-2.6c-0.1-5.3-0.1-10.5,0-15.8c0-1.8-0.4-2.4-2.3-2.6c-16.4-1.7-31.1-7.7-43.7-18.4
		c-1.3-1.1-1.9-0.7-2.9,0.3c-3.5,3.6-7,7.3-10.7,10.7c-1.7,1.6-1.9,2.7-0.8,4.9c5.8,11.2,2,24.9-8.6,31.8
		c-10.5,6.9-24.7,4.6-32.6-5.1c-7.5-9.2-7.5-22,0.1-31.4c7.2-9,20.1-11.7,30.5-6.2c2,1.1,3,0.7,4.4-0.7c3.6-3.7,7.2-7.4,10.9-11
		c1.1-1.1,1.5-1.8,0.3-3.3c-10.6-12.6-16.8-27-18.2-43.4c-0.2-1.8-0.8-2.5-2.7-2.4c-5,0.1-9.9,0.2-14.9,0c-2.4-0.1-3.5,0.5-4.3,3
		c-3.2,10.3-12.9,17-23.8,16.9c-10.6-0.1-19.9-7.1-23.2-17.3c-0.4-1.3-0.3-2.7-1.2-3.8c0-2.5,0-5,0-7.4c0.2-0.3,0.4-0.5,0.5-0.8
		c2.9-11.9,11.6-19.7,22.7-20.3c11.7-0.6,21.5,6.2,25.3,17.7c0.6,1.7,1.4,2.1,3,2.1c5.2-0.1,10.3-0.1,15.5,0c1.8,0,2.4-0.4,2.6-2.3
		c1.7-16.3,7.6-30.9,18.3-43.5c1.3-1.5,0.9-2.2-0.3-3.4c-3.6-3.4-7.1-6.9-10.5-10.5c-1.6-1.7-2.7-1.9-4.9-0.8
		c-9.1,4.5-18.1,3.7-26.2-2.5c-8.1-6.2-11.2-14.8-9-24.7c2.2-10.3,8.9-16.9,19.3-19c9.9-2,18.2,1.1,24.4,9.1
		c6.4,8.3,6.9,17.4,2.3,26.7c-0.7,1.5-0.9,2.4,0.4,3.6c3.9,3.7,7.7,7.5,11.4,11.4c1.1,1.1,1.8,1.5,3.3,0.3
		c12.6-10.6,27-16.8,43.4-18.2c1.8-0.2,2.5-0.8,2.4-2.7c-0.1-5-0.2-9.9,0-14.9c0.1-2.4-0.5-3.4-3-4.3c-17.5-5.7-22.6-28-9.6-41
		C136.4,4.6,141.2,2.8,146.3,1.3z M150,80.6c-38.2,0-69.4,31.1-69.5,69.1c-0.1,38.4,31,69.7,69.2,69.7c38.6,0,69.6-31,69.6-69.6
		C219.4,111.7,188.2,80.6,150,80.6z M252.4,237.6c0-8.4-6.8-15.1-15.1-15.2c-8.4,0-14.9,6.5-14.9,14.9c0,8.4,6.8,15,15.3,14.9
		C246.1,252.2,252.4,245.9,252.4,237.6z M237.7,77c8.4,0,15.2-6.8,15.1-15.1c0-8.2-6.8-14.8-15.1-14.8c-8.2,0.1-15.1,7.3-15,15.4
		C222.9,70.8,229.4,77,237.7,77z M150.1,11.2c-8.2-0.1-15,6.7-15,14.9c0,8,6.7,14.8,14.7,14.9c8.2,0,15-6.7,15-14.9
		C164.9,18,158.2,11.3,150.1,11.2z M26.1,164.9c8,0,14.8-6.8,14.8-14.8c0-8.2-6.8-15-14.9-15c-8,0-14.8,6.7-14.8,14.8
		C11.2,158.1,17.9,164.9,26.1,164.9z M274,135.1c-8.1,0-14.8,6.6-14.9,14.6c-0.1,8.2,6.6,15,14.8,15.1c8,0.1,14.9-6.6,14.9-14.6
		C288.9,142,282.2,135.2,274,135.1z M164.9,273.8c0-8-6.8-14.7-14.9-14.7c-8.2,0-15,6.8-14.9,15c0.1,8,6.8,14.7,14.9,14.7
		C158.2,288.8,164.9,282,164.9,273.8z M62.5,77c8.3,0,14.7-6.5,14.7-14.6c0-8.2-6.7-14.9-15-14.8c-8.3,0.1-14.8,6.7-14.7,15
		C47.7,70.8,54.1,77,62.5,77z M62.3,252.3c8.5,0,15-6.5,14.9-14.7c-0.1-8.1-6.6-14.7-14.7-14.8c-8.2-0.1-14.9,6.6-14.9,14.9
		C47.6,245.9,54,252.3,62.3,252.3z"/>
	<path class="st0" d="M150.3,194.6c-14.3,0-28.7,0-43,0c-4.8,0-6.4-1.6-6.4-6.2c0-19,0-38,0-57c0-4.5,1.7-6.2,6.1-6.2
		c5.3,0,10.5-0.1,15.8,0.1c2.4,0.1,3-0.8,2.9-3c-0.2-3.7-0.1-7.4,0-11.1c0.1-4.1,1.8-5.7,6-5.7c12.5,0,25,0,37.5,0
		c4.2,0,6,1.7,6.1,6c0.1,3.6,0.2,7.2,0,10.8c-0.2,2.6,0.8,3.1,3.2,3c5.3-0.2,10.5-0.1,15.8,0c3.9,0,5.8,1.7,5.8,5.6
		c0.1,19.4,0.1,38.8,0,58.2c0,3.9-2,5.5-5.9,5.5C179.4,194.6,164.9,194.6,150.3,194.6z M150.3,184.7c12.4,0,24.8,0,37.2,0
		c2.1,0,2.6-0.6,2.6-2.6c-0.1-8.2-0.1-16.3,0-24.5c0-2.2-0.6-2.8-2.8-2.8c-7.5,0-7.5-0.1-7.5,7.4c0,2-0.6,2.6-2.6,2.6
		c-7.3,0-7.4,0.1-7.3-7.1c0-2.2-0.5-3-2.9-3c-11.3,0.1-22.5,0.2-33.8,0c-2.7,0-3.2,0.8-3.2,3.3c0.2,6.7,0,6.6-6.7,6.8
		c-2.6,0.1-3.3-0.6-3.2-3.2c0.2-6.9,0-6.8-6.9-6.8c-2,0-2.6,0.6-2.6,2.6c0.1,8.2,0.1,16.3,0,24.5c0,2.2,0.6,2.8,2.8,2.8
		C125.7,184.7,138,184.7,150.3,184.7z M150.3,145.1c11,0,22.1,0,33.1,0c6.6,0,6.5,0,6.7-6.6c0.1-2.7-0.7-3.4-3.4-3.4
		c-22.9,0.1-45.9,0.1-68.8,0.1c-7.3,0-7.3,0-7.3,7.2c0,2.2,0.6,2.8,2.8,2.8C125.7,145,138,145.1,150.3,145.1z M150.4,125.2
		c2.6,0,5.2,0,7.7,0c7.3,0,7.2,0,7.2-7.3c0-2.3-0.8-2.7-2.9-2.7c-6.5,0.1-13,0-19.5,0c-8,0-7.9,0-7.5,7.9c0.1,1.7,0.7,2.1,2.2,2
		C141.9,125.2,146.2,125.2,150.4,125.2z"/>
</g>
</svg>
