<?xml version="1.0" standalone="no"?>
<!DOCTYPE svg PUBLIC "-//W3C//DTD SVG 20010904//EN"
 "http://www.w3.org/TR/2001/REC-SVG-20010904/DTD/svg10.dtd">
<svg version="1.0" xmlns="http://www.w3.org/2000/svg"
 width="512.000000pt" height="512.000000pt" viewBox="0 0 512.000000 512.000000"
 preserveAspectRatio="xMidYMid meet">

<g transform="translate(0.000000,512.000000) scale(0.100000,-0.100000)"
fill="#fff" stroke="none">
<path d="M4320 4947 c-49 -16 -133 -103 -148 -153 -17 -60 -17 -2968 0 -3028
16 -55 99 -138 154 -154 25 -7 103 -12 193 -12 169 0 200 -8 244 -59 72 -86
29 -224 -79 -253 l-44 -12 0 -79 0 -79 48 7 c59 8 155 59 188 98 14 16 37 53
52 81 l27 51 0 1685 0 1685 -27 51 c-40 76 -70 107 -140 145 l-63 34 -185 2
c-118 1 -198 -2 -220 -10z m384 -161 c18 -8 46 -31 62 -52 l29 -37 3 -1490 c2
-1418 1 -1489 -15 -1482 -69 29 -116 35 -260 35 -150 0 -155 1 -178 25 l-25
24 0 1471 0 1471 25 24 c23 24 28 25 175 25 106 0 160 -4 184 -14z"/>
<path d="M404 4471 c-47 -12 -133 -62 -160 -94 -14 -17 -37 -53 -52 -81 l-27
-51 0 -1685 0 -1685 27 -51 c40 -76 70 -107 140 -145 l63 -34 174 -3 c215 -5
247 2 316 72 57 57 75 103 75 190 l0 56 -80 0 -80 0 0 -55 c0 -46 -4 -60 -25
-81 -25 -25 -26 -25 -190 -22 -147 3 -166 5 -191 24 -53 39 -69 71 -69 134 0
63 16 95 69 134 27 21 34 21 1137 24 l1109 2 0 80 0 80 -1122 -2 c-1048 -3
-1125 -4 -1155 -20 -18 -10 -35 -18 -38 -18 -3 0 -4 670 -3 1489 3 1487 3
1490 24 1517 11 15 33 37 48 48 l27 21 1790 3 1789 2 0 80 0 80 -1782 -1
c-981 -1 -1797 -4 -1814 -8z"/>
<path d="M2320 4080 l0 -80 160 0 160 0 0 80 0 80 -160 0 -160 0 0 -80z"/>
<path d="M2800 4080 l0 -80 240 0 240 0 0 80 0 80 -240 0 -240 0 0 -80z"/>
<path d="M2320 3840 l0 -80 240 0 240 0 0 80 0 80 -240 0 -240 0 0 -80z"/>
<path d="M2960 3840 l0 -80 80 0 80 0 0 80 0 80 -80 0 -80 0 0 -80z"/>
<path d="M2116 3510 l-171 -170 57 -57 58 -58 148 148 147 147 463 0 462 0 0
80 0 80 -497 0 -497 0 -170 -170z"/>
<path d="M985 3575 c-20 -19 -25 -34 -25 -72 l0 -47 -35 34 c-62 60 -77 53
-232 -103 -156 -155 -163 -170 -103 -232 l34 -35 -47 0 c-38 0 -53 -5 -72 -25
-25 -24 -25 -26 -25 -215 0 -189 0 -191 25 -215 19 -20 34 -25 72 -25 l47 0
-34 -35 c-60 -62 -53 -77 103 -232 155 -156 170 -163 232 -103 l35 34 0 -47
c0 -38 5 -53 25 -72 24 -25 26 -25 215 -25 189 0 191 0 215 25 20 19 25 34 25
72 l0 47 35 -34 c62 -60 77 -53 232 103 156 155 163 170 103 232 l-34 35 47 0
c38 0 53 5 72 25 25 24 25 26 25 215 0 189 0 191 -25 215 -19 20 -34 25 -72
25 l-47 0 34 35 c60 62 53 77 -103 232 -155 156 -170 163 -232 103 l-35 -34 0
47 c0 38 -5 53 -25 72 -24 25 -26 25 -215 25 -189 0 -191 0 -215 -25z m295
-234 c0 -84 3 -102 21 -125 15 -20 29 -26 57 -26 32 0 46 9 109 72 l73 73 57
-58 58 -57 -73 -73 c-63 -63 -72 -77 -72 -109 0 -28 6 -42 26 -57 23 -18 41
-21 125 -21 l99 0 0 -80 0 -80 -99 0 c-84 0 -102 -3 -125 -21 -20 -15 -26 -29
-26 -57 0 -32 9 -46 72 -109 l73 -73 -58 -57 -57 -58 -73 73 c-63 63 -77 72
-109 72 -28 0 -42 -6 -57 -26 -18 -23 -21 -41 -21 -125 l0 -99 -80 0 -80 0 0
99 c0 84 -3 102 -21 125 -15 20 -29 26 -57 26 -32 0 -46 -9 -109 -72 l-73 -73
-57 58 -58 57 73 73 c63 63 72 77 72 109 0 28 -6 42 -26 57 -23 18 -41 21
-125 21 l-99 0 0 80 0 80 99 0 c84 0 102 3 125 21 20 15 26 29 26 57 0 32 -9
46 -72 109 l-73 73 58 57 57 58 73 -73 c63 -63 77 -72 109 -72 28 0 42 6 57
26 18 23 21 41 21 125 l0 99 80 0 80 0 0 -99z"/>
<path d="M1120 3107 c-19 -6 -58 -34 -85 -62 -71 -70 -91 -145 -63 -239 16
-55 99 -138 154 -154 94 -28 169 -8 239 63 98 97 101 222 8 325 -65 72 -158
97 -253 67z m135 -172 c50 -49 15 -135 -55 -135 -41 0 -80 39 -80 80 0 41 39
80 80 80 19 0 40 -9 55 -25z"/>
<path d="M2345 2776 c-40 -40 -45 -177 -10 -263 13 -31 13 -33 -8 -33 -12 0
-101 -20 -197 -45 -189 -48 -210 -59 -210 -118 0 -27 20 -51 143 -173 l142
-141 109 -19 109 -19 42 -55 c24 -30 73 -84 109 -120 l66 -64 0 -61 c1 -288
214 -552 491 -609 l64 -13 -3 -67 c-6 -114 5 -129 358 -481 l310 -310 57 58
58 57 -313 313 c-290 291 -312 315 -312 347 0 33 18 53 245 280 l245 245 490
-490 490 -490 57 58 58 57 -517 517 c-426 428 -517 524 -523 553 -5 21 -4 35
3 38 37 12 93 67 116 113 62 125 6 283 -119 334 -16 7 -62 18 -102 25 l-72 13
-67 199 c-49 147 -71 202 -87 212 -18 12 -1122 176 -1180 176 -10 0 -29 -11
-42 -24z m645 -221 c256 -37 466 -68 468 -69 3 -4 81 -236 79 -236 -1 0 -199
37 -439 83 -424 81 -437 84 -473 115 -21 19 -47 32 -63 32 -30 0 -66 43 -82
101 -14 48 -13 51 18 45 15 -3 236 -35 492 -71z m-597 -255 c4 -4 3 -27 -2
-51 -6 -24 -11 -59 -11 -78 l0 -33 -47 7 c-41 5 -57 15 -112 69 l-63 63 78 21
c74 19 138 20 157 2z m414 -262 l233 -233 0 -142 0 -143 80 0 80 0 0 145 c0
127 2 145 16 145 9 0 122 -20 251 -45 129 -25 237 -45 242 -45 4 0 14 -22 23
-49 l15 -49 -211 -211 -211 -211 -55 0 c-122 0 -242 51 -331 139 -96 97 -139
208 -139 364 l0 89 -113 117 c-119 123 -147 170 -147 250 0 41 18 111 28 111
4 0 112 -105 239 -232z m302 131 c119 -22 221 -42 228 -44 8 -3 6 -26 -9 -82
-11 -43 -21 -79 -23 -81 -1 -2 -54 7 -118 19 l-115 22 -103 103 c-57 57 -97
104 -90 104 8 0 111 -18 230 -41z m480 -94 c2 -3 -4 -41 -14 -85 l-18 -80 -36
6 c-20 4 -40 10 -45 14 -4 5 0 43 10 85 l18 77 40 -7 c22 -3 42 -8 45 -10z
m267 -66 c54 -51 14 -139 -63 -139 -21 0 -48 3 -59 6 l-21 6 20 80 20 80 39
-5 c22 -3 51 -16 64 -28z"/>
<path d="M1680 2000 l0 -80 80 0 80 0 0 80 0 80 -80 0 -80 0 0 -80z"/>
<path d="M1117 2002 c-26 -26 -47 -52 -47 -58 0 -5 112 -121 248 -257 l248
-247 377 0 377 0 0 80 0 80 -343 0 -342 0 -225 225 c-124 124 -230 225 -235
225 -6 0 -32 -22 -58 -48z"/>
<path d="M1680 1760 l0 -80 160 0 160 0 0 80 0 80 -160 0 -160 0 0 -80z"/>
<path d="M2160 1760 l0 -80 80 0 80 0 0 80 0 80 -80 0 -80 0 0 -80z"/>
<path d="M3545 1015 c-50 -49 -15 -135 55 -135 41 0 80 39 80 80 0 41 -39 80
-80 80 -19 0 -40 -9 -55 -25z"/>
</g>
</svg>
