<?xml version="1.0" encoding="utf-8"?>
<!-- Generator: Adobe Illustrator 25.3.0, SVG Export Plug-In . SVG Version: 6.00 Build 0)  -->
<svg version="1.1" id="Layer_1" xmlns="http://www.w3.org/2000/svg" xmlns:xlink="http://www.w3.org/1999/xlink" x="0px" y="0px"
	 viewBox="0 0 300 300" style="enable-background:new 0 0 300 300;" xml:space="preserve">
<style type="text/css">
	.st0{fill:#FFFFFF;}
</style>
<g>
	<path class="st0" d="M153.1,1.5c5.1,1.9,9.3,4.8,11,10.3c2.5,7.6-1.6,15.9-9.1,18.5c-7.5,2.7-15.8-1.1-18.8-8.6
		c-2.9-7.5,0.6-15.8,7.9-19c0.9-0.4,2.1-0.3,2.7-1.2C149,1.5,151,1.5,153.1,1.5z M154.9,16.5c0.1-2.6-2.1-5-4.7-5.1
		c-2.6-0.1-5,2-5.2,4.7c-0.2,2.8,2.1,5.2,4.9,5.2C152.6,21.3,154.9,19.1,154.9,16.5z"/>
	<path class="st0" d="M1.5,146.9c2.1-5.3,5-9.6,10.9-11.2c7.6-2.1,15.6,2.1,18,9.6c2.5,7.5-1.3,15.6-8.7,18.5
		c-7.3,2.9-15.6-0.5-18.9-7.6c-0.5-1-0.4-2.2-1.3-3C1.5,151,1.5,149,1.5,146.9z M16.5,145.1c-2.6-0.1-4.9,2.1-5.1,4.8
		c-0.1,2.6,2,5,4.7,5.1c2.7,0.2,5.2-2.1,5.2-4.9C21.3,147.4,19.1,145.1,16.5,145.1z"/>
	<path class="st0" d="M298.5,153.1c-2.1,5.3-5,9.6-10.9,11.2c-7.6,2.1-15.6-2.1-18-9.6c-2.5-7.5,1.3-15.6,8.7-18.5
		c7.4-2.9,15.6,0.5,18.9,7.7c0.5,1,0.4,2.2,1.3,3C298.5,149,298.5,151,298.5,153.1z M288.6,150c0-2.6-2.2-4.9-4.9-5
		c-2.6,0-4.9,2.1-5,4.8c-0.1,2.8,2.2,5.2,5,5.1C286.4,154.9,288.6,152.7,288.6,150z"/>
	<path class="st0" d="M146.9,298.5c-5.3-2.1-9.6-5-11.2-10.9c-2.1-7.6,2.1-15.6,9.6-18.1c7.5-2.5,15.6,1.3,18.5,8.7
		c2.9,7.3-0.5,15.6-7.7,18.9c-1,0.5-2.2,0.4-3,1.3C151,298.5,149,298.5,146.9,298.5z M154.9,283.7c0.1-2.6-2.1-4.9-4.8-5
		c-2.6-0.1-5,2-5.1,4.7c-0.2,2.8,2.1,5.2,4.9,5.2C152.6,288.6,154.9,286.4,154.9,283.7z"/>
	<path class="st0" d="M150,60.9c4.6,0,9.3,0,13.9,0c4,0,5.8,1.9,5.8,5.9c0,3.1,0.1,6.2,0,9.3c-0.1,1.7,0.3,2.5,2.1,3
		c4.5,1.2,8.8,3,12.8,5.3c1.4,0.8,2.4,0.6,3.4-0.6c2.2-2.3,4.5-4.6,6.8-6.8c2.9-2.8,5.3-2.8,8.1-0.1c6.7,6.7,13.4,13.4,20.1,20.1
		c2.6,2.6,2.6,5.1,0,7.8c-2.2,2.3-4.4,4.6-6.8,6.8c-1.3,1.2-1.6,2.1-0.7,3.7c2.3,4,4,8.3,5.3,12.8c0.5,1.7,1.3,2.1,2.8,2
		c3.2-0.1,6.4-0.1,9.6,0c3.9,0,5.8,1.8,5.8,5.6c0,9.5,0,19,0,28.5c0,3.6-1.9,5.4-5.6,5.5c-3.2,0-6.4,0.1-9.6,0
		c-1.7-0.1-2.6,0.4-3.1,2.1c-1.2,4.5-3,8.7-5.3,12.8c-0.8,1.5-0.6,2.4,0.6,3.4c2.3,2.1,4.4,4.3,6.6,6.5c3,3.1,3.1,5.5,0.1,8.5
		c-6.5,6.6-13.1,13.1-19.7,19.7c-2.9,2.9-5.3,2.8-8.3-0.1c-2.2-2.1-4.5-4.3-6.5-6.6c-1.2-1.3-2.1-1.6-3.7-0.7
		c-4,2.3-8.3,4.1-12.8,5.3c-1.7,0.5-2.1,1.2-2,2.8c0.1,3.2,0.1,6.4,0,9.6c0,3.9-1.9,5.8-5.6,5.8c-9.5,0-19,0-28.5,0
		c-3.6,0-5.4-1.9-5.5-5.6c0-3.2-0.1-6.4,0-9.6c0.1-1.7-0.4-2.6-2.1-3.1c-4.5-1.2-8.7-3-12.8-5.3c-1.5-0.8-2.4-0.6-3.4,0.6
		c-2.2,2.3-4.5,4.6-6.8,6.8c-2.9,2.8-5.3,2.8-8.1,0.1c-6.7-6.6-13.3-13.2-19.9-19.9c-2.9-2.9-2.8-5.3,0.1-8.3
		c2.2-2.2,4.3-4.5,6.6-6.5c1.3-1.2,1.5-2.2,0.6-3.7c-2.3-4-4-8.3-5.3-12.8c-0.5-1.7-1.3-2-2.8-2c-3.2,0.1-6.4,0.1-9.6,0
		c-3.9,0-5.8-1.9-5.8-5.6c0-9.5,0-19,0-28.5c0-3.6,1.9-5.4,5.6-5.5c3.2,0,6.4-0.1,9.6,0c1.7,0.1,2.6-0.4,3.1-2.1
		c1.2-4.5,3-8.7,5.3-12.8c0.8-1.5,0.6-2.4-0.6-3.4c-2.3-2.2-4.6-4.5-6.8-6.8c-2.8-2.9-2.8-5.3-0.1-8.1c6.7-6.7,13.4-13.4,20.1-20.1
		c2.6-2.6,5.1-2.6,7.8,0c2.3,2.2,4.6,4.4,6.8,6.8c1.2,1.3,2.1,1.6,3.7,0.7c4-2.3,8.3-4.1,12.8-5.3c1.6-0.5,2.1-1.3,2-2.8
		c-0.1-3.2-0.1-6.4,0-9.6c0-4,1.9-5.8,5.9-5.8C140.8,60.9,145.4,60.9,150,60.9z M150,70.8c-2.7,0-5.4,0.1-8,0
		c-1.5-0.1-2,0.5-1.9,1.9c0.1,3,0,6,0,9c0.1,3-1.5,4.9-4.3,5.6c-7.2,1.6-13.9,4.5-20.1,8.4c-2.6,1.6-4.9,1.2-7-0.9
		c-2.1-2-4.2-4-6.1-6.1c-1.2-1.3-1.9-1.4-3.2-0.1c-3.5,3.7-7.1,7.2-10.7,10.7c-1.3,1.3-1.5,2.1-0.1,3.4c2.2,1.9,4.1,4,6.1,6.1
		c2.1,2.1,2.4,4.4,0.8,7c-3.9,6.2-6.7,12.9-8.4,20.1c-0.7,2.9-2.6,4.3-5.6,4.2c-3-0.1-6,0-9,0c-1.2,0-1.9,0.3-1.9,1.7
		c0.1,5.5,0.1,10.9,0,16.4c0,1.3,0.5,1.8,1.8,1.8c3-0.1,6,0,9,0c3.2-0.1,5.1,1.5,5.8,4.4c1.6,7.1,4.4,13.7,8.2,19.8
		c1.7,2.7,1.3,5.1-0.9,7.2c-2,2-4,4.1-6.1,6.1c-1.2,1.1-1.2,1.8,0,3c3.7,3.6,7.4,7.2,10.9,10.9c1.2,1.2,2,1.4,3.2,0
		c1.9-2.1,4.1-4.1,6.1-6.1c2.1-2.1,4.3-2.6,7-1c6.3,3.9,12.9,6.7,20.1,8.4c3,0.7,4.5,2.7,4.4,5.8c-0.1,2.9,0,5.8,0,8.7
		c0,1.4,0.3,2,1.9,2c5.4-0.1,10.7-0.1,16.1,0c1.5,0,2-0.5,1.9-2c-0.1-2.9,0-5.8,0-8.7c0-3.5,1.2-5.2,4.6-6c7-1.6,13.5-4.3,19.6-8.1
		c2.8-1.8,5.2-1.3,7.5,1c1.9,2,4,3.9,5.9,5.9c1.2,1.3,1.9,1.4,3.2,0.1c3.6-3.7,7.2-7.4,10.9-10.9c1.4-1.3,1-2.1-0.2-3.2
		c-2.1-2-4.1-4.1-6.1-6.1c-2.1-2.1-2.5-4.4-0.8-7c3.9-6.2,6.7-12.9,8.3-20.1c0.7-2.9,2.6-4.3,5.6-4.2c2.8,0.1,5.6-0.1,8.3,0
		c1.7,0.1,2.6-0.2,2.5-2.3c-0.2-5.2-0.1-10.3,0-15.5c0-1.6-0.4-2.2-2.1-2.1c-2.9,0.1-5.8,0-8.7,0c-3.2,0.1-5.1-1.5-5.8-4.4
		c-1.6-7.1-4.4-13.7-8.2-19.8c-1.7-2.7-1.3-5,0.9-7.2c2-2,4-4.1,6.1-6.1c1.1-1.1,1.3-1.8,0.1-3c-3.8-3.7-7.5-7.4-11.2-11.1
		c-1.2-1.3-1.9-0.9-3,0.1c-2.1,2.2-4.2,4.3-6.3,6.3c-2,2-4.3,2.3-6.7,0.8c-6.3-3.9-12.9-6.7-20.1-8.4c-3-0.7-4.5-2.7-4.4-5.8
		c0.1-2.7-0.1-5.4,0.1-8c0.2-2.3-0.7-2.8-2.8-2.7C154.8,70.9,152.4,70.8,150,70.8z"/>
	<path class="st0" d="M213.8,288.6c-7.7-1.1-15.5-2.2-23.2-3.3c-3.7-0.5-7.3-1.1-11-1.6c-2.1-0.3-3.7-1.3-4.5-3.3
		c-0.8-2.1-0.2-3.9,1.3-5.4c8.1-8.1,16.1-16.2,24.3-24.3c3.1-3.1,7-2.1,8.6,2c0.7,1.9,1.3,3.9,2,5.8c1.3,3.9,1.3,3.9,4.9,1.7
		c17.9-10.8,32.3-25.1,43.3-42.8c7.9-12.7,13.4-26.4,16.4-41c0.5-2.2,1.3-2.6,3.3-2.2c7.3,1.4,7.4,1.4,5.4,8.7
		c-10,38.2-32.1,67.4-66.2,87.4c-2.2,1.3-2.8,2.3-1.8,4.7c1,2.2,1.7,4.6,2.3,7C220,285.7,217.6,288.7,213.8,288.6z M190.8,275.3
		c5.5,0.8,10.7,1.5,16.3,2.3c-1.7-5-3.2-9.5-4.6-13.9C198.6,267.6,194.8,271.3,190.8,275.3z"/>
	<path class="st0" d="M86.3,11.5c9.3,1.3,18.5,2.7,27.8,4c2.1,0.3,4.3,0.6,6.4,0.9c4.6,0.8,6.4,5.2,3.2,8.4
		c-8.1,8.4-16.4,16.6-24.7,24.7c-2.9,2.8-6.7,1.7-8.2-2.1c-0.9-2.4-1.8-4.8-2.4-7.3c-0.6-2.5-1.6-2.2-3.4-1.2
		c-24.6,14.7-42.5,35.2-53.8,61.5C28,108,25.6,115.9,24,124c-0.4,1.8-1.1,2.1-2.7,1.8c-7.8-1.2-7.9-1.2-5.9-8.8
		c10.1-38.4,32.3-67.5,66.5-87.5c1.9-1.1,2.5-2,1.6-4c-1-2.4-1.7-4.8-2.4-7.3C80,14.3,82.4,11.3,86.3,11.5z M92.9,22.4
		c1.7,5.1,3.2,9.6,4.9,14.5c3.8-3.8,7.2-7.3,10.6-10.7c0.8-0.8,1.2-1.6-0.4-1.8C103.1,23.8,98.2,23.2,92.9,22.4z"/>
	<path class="st0" d="M288.6,86.2c-1.1,7.8-2.2,15.7-3.3,23.5c-0.5,3.6-1.1,7.1-1.5,10.7c-0.3,2.3-1.4,3.9-3.5,4.6
		c-2.1,0.7-3.8-0.1-5.3-1.5c-8-8-16.1-16-24-24.1c-3.2-3.2-2.1-7.2,2.2-8.7c2.3-0.8,4.6-1.7,7-2.3c2.2-0.5,2.3-1.3,1.2-3.1
		c-8.3-14-18.7-26.1-31.5-36.1c-15.7-12.4-33.2-20.8-52.8-24.9c-2.4-0.5-3.2-1.3-2.6-3.8c1.6-6.8,1.5-6.9,8.7-5
		c38.2,10,67.4,32.1,87.3,66.2c1.3,2.2,2.3,2.8,4.7,1.8c2.2-1,4.6-1.7,7-2.3C285.7,80,288.6,82.4,288.6,86.2z M275.3,109
		c0.7-5.2,1.5-10.5,2.3-16.2c-5,1.7-9.5,3.2-13.8,4.6C267.6,101.4,271.4,105.1,275.3,109z"/>
	<path class="st0" d="M11.4,213.9c1.3-9.4,2.7-18.7,4-27.9c0.3-2.2,0.6-4.5,1-6.7c0.7-4.3,5.2-6.1,8.4-3
		c8.4,8.1,16.6,16.3,24.7,24.7c2.8,2.9,1.8,6.7-1.9,8.2c-2.2,0.9-4.4,1.6-6.7,2.2c-2.5,0.7-3.3,1.4-1.6,4.1
		C50,233.3,64.1,247.8,81.7,259c12.9,8.2,26.8,13.8,41.8,16.9c2.4,0.5,2.7,1.5,2.2,3.5c-1.5,7-1.5,7.1-8.5,5.3
		c-38.3-10-67.6-32.1-87.6-66.3c-1.2-2-2.1-2.9-4.4-1.8c-2.2,1-4.6,1.6-7,2.3C14.4,220,11.3,217.6,11.4,213.9z M35.7,202.7
		c-3.7-3.7-7.4-7.5-11.1-11.1c-0.7,4.8-1.4,10-2.2,15.6C27.4,205.4,31.9,203.9,35.7,202.7z"/>
	<path class="st0" d="M199.5,150c0,27.3-22.3,49.5-49.6,49.4c-27.2,0-49.4-22.3-49.3-49.7c0-27.2,22.3-49.3,49.8-49.3
		C177.3,100.6,199.5,122.9,199.5,150z M149.9,110.4c-21.7,0-39.5,17.8-39.5,39.5c0,21.9,17.8,39.7,39.7,39.7
		c21.8,0,39.6-17.9,39.5-39.9C189.6,128.1,171.7,110.4,149.9,110.4z"/>
</g>
</svg>
