<?xml version="1.0" encoding="utf-8"?>
<!-- Generator: Adobe Illustrator 25.3.0, SVG Export Plug-In . SVG Version: 6.00 Build 0)  -->
<svg version="1.1" id="Layer_1" xmlns="http://www.w3.org/2000/svg" xmlns:xlink="http://www.w3.org/1999/xlink" x="0px" y="0px"
	 viewBox="0 0 300 300" style="enable-background:new 0 0 300 300;" xml:space="preserve">
<style type="text/css">
	.st0{fill:#FFFFFF;}
</style>
<g>
	<path class="st0" d="M161.5,127.5c-1.4,5.6-6,6.8-10.4,8.6c-20.2,8.2-40.4,16.6-60.7,24.8c-6.1,2.5-11.2-0.9-10.6-6.8
		c0.2-2.2,1.6-3.7,3.2-5c18.5-14.9,37-29.7,55.5-44.7c1.6-1.3,3.3-1.9,5.3-1.9c3.3,0.1,6.6,0,9.8,0.1c1.6,0.1,2.7-0.3,3.3-2
		c0.6-1.7,1.6-3.4,3.1-4.5c2.5-1.8,2.1-3.6,0.4-5.5c-5-5.8-4.8-12.3-3.6-19.5c2.9-17.4,5.2-35,7.7-52.5c0.5-3.5,0.9-7.1,1.6-10.6
		c0.8-4,3.3-6.2,6.8-6.2c3.5,0.1,6.2,2.5,6.8,6.4c1.1,7.3,2.1,14.6,3.2,21.8c2.3,16.2,4.6,32.4,7.1,48.5c0.3,2.3,0.2,4.2-1.1,6.1
		c-1.6,2.5-3,5.1-4.6,7.6c-0.6,1-0.7,1.8,0.4,2.6c1.6,1.2,3,2.7,3.6,4.5c1,2.9,2.9,3.5,5.6,3.1c7.8-1.2,13.9,1.7,19.9,6.8
		c15.8,13.4,32.3,26.2,48.5,39.2c1.5,1.2,3.1,2.4,3.6,4.4c0.7,2.7,0.1,5.1-1.9,7c-2.3,2.1-5,2.1-7.7,1c-9.3-3.8-18.5-7.5-27.8-11.3
		c-11.4-4.7-22.9-9.4-34.3-14.1c-6.1-2.5-6.1-2.5-9.8-7.6c-0.6,0.7-0.3,1.6-0.3,2.3c0.4,8.9,0.9,17.8,1.3,26.7
		c0.1,2.4-0.4,4.4-3.2,4.7c-3,0.2-3.8-1.8-4-4.3c-0.5-9.5-1-19-1.5-28.5c-0.1-2-0.3-3.2-2.7-2.5c-1.5,0.5-3.6-0.9-4.6,0.3
		c-1.2,1.3-0.6,3.5-0.7,5.4c-1,17.7-2,35.4-2.9,53.1c-0.9,17.1-1.8,34.2-2.7,51.2c-0.9,17.2-1.9,34.4-2.9,51.5c-0.2,4-0.3,4,3.7,4
		c6,0,12.1-0.1,18.1,0.1c2.5,0.1,3.4-0.5,3.2-3.2c-0.8-12.7-1.4-25.4-2.1-38c-0.7-13.2-1.5-26.4-2.2-39.6c-0.7-12-1.3-23.9-1.9-35.9
		c-0.1-1-0.1-2.1,0.3-3c0.6-1.4,1.8-2.2,3.4-2.1c2.1,0.2,3.1,1.5,3.3,3.5c0.4,5,0.6,10,0.9,15c1.2,22.3,2.4,44.6,3.6,66.9
		c0.6,11,1.3,22.1,1.7,33.1c0.1,2.9,1.2,3.4,3.7,3.2c2.2-0.2,4.5,0,6.8-0.1c2.5-0.1,4.4,0.8,4.5,3.4c0,2.6-1.9,3.6-4.4,3.6
		c-12,0-24,0-36,0c-8,0-16,0-24,0c-2.6,0-4.6-0.6-4.8-3.5c-0.2-2.2,1.6-3.5,4.7-3.5c2.5,0,4.9-0.1,7.4,0c2.1,0.2,2.8-0.7,2.9-2.7
		c0.4-8.8,0.9-17.6,1.3-26.4c0.9-17.5,1.9-35,2.9-52.4c0.7-12.6,1.3-25.2,2-37.7c0.8-14.3,1.6-28.6,2.3-42.9c0-0.6,0-1.2,0-1.8
		C161.9,127.8,161.7,127.7,161.5,127.5z M173.3,13c-0.2,0-0.3,0.1-0.5,0.1c-3.1,21-6.2,42-9.2,63c-0.3,1.9-1.3,3.9,0,5.9
		c1.6,2.4,2.9,4.9,4.4,7.4c0.4,0.7,0.7,1.6,1.7,1.5c4.2-0.4,9.1,0.7,10.6-5.3c0.3-1,1-2,1.7-2.9c1.1-1.4,1.1-2.9,0.8-4.6
		c-2.2-14.7-4.3-29.5-6.4-44.2C175.4,26.9,174.4,19.9,173.3,13z M90.4,152.5c0.1,0.2,0.1,0.4,0.2,0.6c1-0.4,2.1-0.8,3.1-1.2
		c18.7-7.7,37.4-15.5,56.2-22.9c4.8-1.9,5.8-6.2,8.1-9.8c0.2-0.3,0.1-0.8,0-1.2c-2.1-8.1-2.1-8-10.6-8.1c-2.8,0-5,0.6-7.2,2.5
		c-8.6,7.1-17.4,14-26,21C106.1,139.8,98.3,146.1,90.4,152.5z M256.3,153.4c-0.6-0.8-0.6-1-0.8-1.2c-17.1-13.8-34.3-27.5-51.4-41.3
		c-0.8-0.6-1.5-0.9-2.5-0.9c-2.9,0-5.7,0.1-8.6,0c-1.5,0-2.3,0.4-2.4,2c-0.1,2-1,3.7-1.9,5.5c-0.3,0.5-0.9,1.1-0.5,1.7
		c2.3,3.3,2.7,7.8,7.4,9.6c10.4,4,20.6,8.4,30.9,12.6C236.1,145.2,245.8,149.1,256.3,153.4z M183.9,108.6c0-6.1-4.9-10.9-10.9-10.9
		c-5.9,0-10.7,4.9-10.7,10.8c-0.1,6,4.8,10.8,10.9,10.8C179.2,119.3,183.9,114.6,183.9,108.6z"/>
	<path class="st0" d="M249.6,200.9c10.5,0,21.1,0,31.6,0c5.3,0,8.2,2.5,8.9,7.7c3,20.6,6,41.2,9.1,61.9c1.3,9-3.8,12.5-12.2,11.6
		c-1.8-0.2-3-1.3-3.2-3.2c-0.2-2.1,0.9-3.3,2.8-3.8c0.2-0.1,0.4-0.1,0.6-0.1c1.6-0.4,4.1,0.9,4.8-0.8c0.7-1.6-0.1-3.8-0.4-5.7
		c-0.7-4.3-0.7-4.2-5.3-4.2c-3.2,0-6.4,0.1-9.5,0c-2.1-0.1-2.7,0.7-2.6,2.7c0.1,1.2,0.1,2.5,0,3.7c-0.1,2.4-0.5,4.6,3.1,4.9
		c1.9,0.1,2.5,2,2.1,3.8c-0.3,1.8-1.7,2.8-3.5,2.9c-3.7,0.1-7.4,0.1-11.1,0c-1.8-0.1-2.5,0.4-2.5,2.4c-0.2,7.5-0.2,7.5,7.3,7.5
		c1.4,0,2.9,0,4.3,0c2.1,0.1,3.2,1.4,3.3,3.4c0,2-1,3.3-3.1,3.5c-0.8,0.1-1.6,0.1-2.5,0.1c-15.2,0-30.3,0-45.5,0c-0.6,0-1.2,0-1.8,0
		c-2.4-0.1-3.7-1.4-3.6-3.6c0.1-2.1,1.4-3.3,3.7-3.3c2.9,0,5.7-0.1,8.6,0c1.8,0.1,2.5-0.4,2.6-2.3c0.3-7.5,0.3-7.5-7.2-7.5
		c-6.9,0-13.7,0-20.6,0c-6.1,0-9.6-3.7-8.9-9.8c1.6-12.4,3.5-24.7,5.2-37c1.3-8.9,2.6-17.8,3.9-26.7c0.8-5.2,3.7-7.6,9-7.7
		C228,200.9,238.8,200.9,249.6,200.9z M215.1,274.8c0.3,0,0.6,0,0.9,0c8.4,0,8.4,0,8.1-8.4c-0.1-1.7-0.5-2.3-2.3-2.3
		c-3.6,0.1-7.2,0.2-10.7,0c-2.6-0.2-4.3,0.2-4.2,3.4c0,1.7-0.4,3.4-0.8,5.1c-0.3,1.7,0.4,2.2,1.9,2.2
		C210.4,274.8,212.7,274.8,215.1,274.8z M289.9,256.9c-0.4-3.1-0.8-5.8-1.1-8.5c-0.2-2.6-1.2-3.7-4-3.4c-2.7,0.3-5.5,0.1-8.3,0.1
		c-1.3,0-2.2,0.1-2.2,1.8c0.1,2.9,0,5.7,0,8.6c0,1.2,0.6,1.6,1.7,1.5C280.6,256.9,285.1,256.9,289.9,256.9z M260,256.9
		c1.8,0,3.7-0.1,5.5,0c1.5,0.1,1.9-0.6,1.9-2c-0.1-2.6-0.1-5.3,0-7.9c0-1.4-0.4-2-1.9-2c-3.6,0.1-7.1,0.1-10.7,0
		c-1.6,0-2.2,0.6-2.1,2.2c0.1,0.8,0,1.6,0,2.4C252.7,256.9,252.7,256.9,260,256.9z M259.8,237.9c1.8,0,3.7-0.1,5.5,0
		c1.7,0.1,2.1-0.6,2-2.1c-0.1-2.5-0.1-5.1,0-7.6c0.1-1.6-0.5-2.2-2.1-2.1c-3.4,0.1-6.7,0.1-10.1,0c-2.1-0.1-2.7,0.8-2.5,2.7
		c0.1,0.7,0,1.4,0,2.1C252.7,237.9,252.7,237.9,259.8,237.9z M238.7,226.1c-1.7,0-3.5,0.1-5.2,0c-1.9-0.1-2.5,0.5-2.4,2.4
		c0.1,2.4,0.1,4.9,0,7.3c-0.1,1.6,0.4,2.2,2,2.1c2.5-0.1,5.1,0,7.7,0c4.9,0,4.9,0,4.9-4.8C245.7,226,245.7,226,238.7,226.1z
		 M238.4,256.9c1.7,0,3.5-0.1,5.2,0c1.6,0.1,2.2-0.4,2.2-2.1c-0.1-2.7-0.1-5.3,0-8c0-1.3-0.4-1.9-1.8-1.9c-3.7,0-7.4,0-11,0
		c-1.3,0-1.9,0.5-1.8,1.8c0.1,0.9,0,1.8,0,2.8C231.1,256.9,231.1,256.9,238.4,256.9z M216.2,256.9c1.5,0,3.1-0.2,4.6,0
		c2.5,0.3,3.6-0.6,3.2-3.2c-0.4-2.8,1.2-6.4-0.7-8.2c-1.7-1.7-5.3-0.5-8-0.5c-5.1-0.1-5.1,0-5.9,4.9c-0.3,1.7-0.4,3.5-0.8,5.1
		c-0.3,1.4,0.1,1.8,1.4,1.8C212.1,256.9,214.2,256.9,216.2,256.9z M260,218.8c1.7,0,3.5-0.1,5.2,0c1.8,0.1,2.3-0.6,2.2-2.3
		c-0.1-2.1-0.1-4.3,0-6.4c0.1-1.7-0.5-2.4-2.3-2.3c-2.8,0.1-5.7,0.2-8.6,0c-3-0.3-4.1,0.5-4,3.8C252.9,218.8,252.7,218.8,260,218.8z
		 M238.2,218.8c7.5,0,7.5,0,7.5-7.4c0-0.3,0-0.6,0-0.9c0.2-2-0.5-2.8-2.6-2.7c-2.7,0.1-5.5,0.3-8.3,0c-3.2-0.4-3.9,0.8-3.8,3.9
		C231.3,218.8,231.1,218.8,238.2,218.8z M238.2,274.9c7.5,0,7.5,0,7.5-7.5c0-0.3,0-0.6,0-0.9c0.2-1.7-0.4-2.4-2.2-2.3
		c-3,0.1-5.9,0.2-8.9,0c-2.8-0.2-3.6,0.7-3.5,3.5C231.2,274.9,231.1,274.9,238.2,274.9z M259.8,274.9c7.6,0,7.6,0,7.5-7.6
		c0-0.2,0-0.4,0-0.6c0.3-1.8-0.4-2.6-2.3-2.5c-2.9,0.1-5.9,0.2-8.9,0c-2.9-0.2-3.6,0.8-3.5,3.5C252.8,274.9,252.7,274.9,259.8,274.9
		z M280.7,237.9c6.4,0,6.4,0,5.7-6.2c-0.7-5.6-0.7-5.6-6.5-5.6c-5.5,0-5.5,0-5.5,5.5C274.4,237.9,274.4,237.9,280.7,237.9z
		 M217.5,237.9c6.4,0,6.4,0,6.4-6.3c0-5.6,0-5.6-5.6-5.6c-5.7,0-5.7,0-6.3,5.8C211.4,237.9,211.4,237.9,217.5,237.9z M249.1,291.9
		c1.6,0,3.3,0,4.9,0c1.7,0.1,1.8-1.2,1.6-2.3c-0.6-2.5,1.5-5.4-1.2-7.5c-0.3-0.2-1-0.1-1.5-0.1c-2.2,0-4.3,0.2-6.4-0.1
		c-3-0.4-3.8,0.7-3.7,3.7C243,291.9,242.8,291.9,249.1,291.9z M284.4,218.8c-0.4-2.9-0.8-5.4-1-7.9c-0.2-2.3-1.1-3.2-3.5-3.1
		c-6.5,0.2-5.4-0.8-5.5,5.5c0,1.2,0,2.4,0,3.7c0,1.2,0.3,1.9,1.7,1.8C278.7,218.8,281.4,218.8,284.4,218.8z M224,213.4
		c0-0.7-0.1-1.4,0-2.1c0.4-2.6-0.5-3.6-3.3-3.5c-5,0.2-5,0-5.9,4.9c-0.1,0.6-0.2,1.2-0.3,1.8c-0.5,4.4-0.5,4.4,4,4.4
		C224,218.8,224,218.8,224,213.4z"/>
	<path class="st0" d="M71.3,205.6c0.5,8.7,1,17,1.5,25.2c0.7,11.8,1.5,23.5,2.2,35.2c0.5,7.8,0.9,15.5,1.3,23.3
		c0.1,2,0.9,2.7,2.8,2.5c1.2-0.1,2.5-0.1,3.7,0c2,0.2,3.2,1.4,3.2,3.4c0,1.9-1.1,3.3-2.9,3.3c-13.7,0.1-27.4,0.1-41.2,0
		c-1.9,0-3-1.5-3-3.3c-0.1-1.9,1-3.3,3.1-3.6c0.1,0,0.2,0,0.3,0c2.1-0.3,4.8,1,6-0.8c1-1.5,0.6-4,0.7-6c0.9-14.8,1.8-29.6,2.7-44.5
		c0.1-1.3,0.1-2.7,0.3-4c0.3-2.2,1.6-3.6,4-3.2c2.2,0.3,3.2,1.8,3.1,3.9c-0.2,4.8-0.6,9.6-0.9,14.4c-0.7,12.6-1.5,25.1-2.3,37.7
		c-0.1,1.9,0.4,2.6,2.3,2.5c3-0.1,5.9-0.1,8.9,0c1.5,0,2.2-0.2,2.1-2c-1.3-20.4-2.6-40.9-3.8-61.3c-0.5-8.2-0.9-16.4-1.4-24.5
		c-0.1-1,0.5-2.5-1.4-2.5c-1.8,0-1.4,1.5-1.5,2.5c-0.5,7.1-1,14.3-1.3,21.5c-0.1,2.5-1.1,4.4-3.7,4.2c-2.7-0.1-3.4-2.1-3.3-4.6
		c0.4-5.6,0.5-11.3,1-16.9c0.2-2.4-0.3-2.5-2.4-1.7c-13.9,5.7-27.7,11.4-41.6,17.1c-5,2-9.1-0.8-8.6-5.8c0.2-1.5,0.9-2.7,2.1-3.6
		c12.2-9.8,24.4-19.6,36.6-29.5c2.3-1.9,4.9-0.9,7.4-1c2.5-0.2,5.7-2.2,6.4-4.5c0.4-1.2-0.5-2-1.1-2.7c-2.6-3.2-2.5-6.8-1.9-10.7
		c2.1-13.3,3.9-26.7,5.9-40c0.1-0.9,0.3-1.8,0.5-2.7c0.8-3,2.9-4.6,5.7-4.5c2.8,0.1,5,2,5.4,4.9c1.5,10,2.9,20,4.4,30
		c0.6,4.3,1,8.8,2,13c0.9,3.8,0.1,7-2.1,10.1c-1.7,2.5,1,7.3,4,6.9c5.7-0.7,9.8,1.7,14,5.2c9.6,8,19.4,15.7,29.2,23.5
		c0.6,0.5,1.3,1,1.9,1.6c2.8,2.5,3.4,5.3,1.8,7.8c-1.7,2.6-4.4,3.3-7.9,1.9c-13.6-5.5-27.2-11.1-40.8-16.7
		C73.7,206.6,72.7,206.2,71.3,205.6z M62.7,136.6c-0.2,0-0.4,0-0.5,0c-1.6,10.9-3.1,21.8-4.7,32.6c-0.4,3,2.7,6.7,5.4,6.6
		c2.4-0.1,4.9-4.4,4.5-7.5c-0.8-5.4-1.6-10.7-2.3-16.1C64.3,147,63.5,141.8,62.7,136.6z M107.7,212.7c0.1-0.2,0.1-0.4,0.2-0.6
		c-8.4-6.8-16.8-13.6-25.3-20.3c-3.1-2.4-7.2-1.2-8.4,2.2c-0.7,2,1,5.3,3.3,6.3c3.3,1.4,6.6,2.8,9.9,4.1
		C94.2,207.3,100.9,210,107.7,212.7z M17.2,212.2c0.1,0.2,0.2,0.4,0.3,0.6c10.3-4.2,20.7-8.3,30.9-12.9c1.7-0.8,3.1-3,2.6-5.6
		c-0.6-3.1-2.5-3.7-5.3-3.5c-1.7,0.1-2.9,0.7-4.1,1.7c-2.3,1.9-4.6,3.7-6.9,5.6C28.9,202.8,23.1,207.5,17.2,212.2z M62.4,183.1
		c-3.2,0-5.6,2.4-5.6,5.6c0,3.2,2.7,5.7,5.9,5.6c3-0.1,5.6-2.7,5.5-5.8C68.1,185.5,65.6,183,62.4,183.1z"/>
	<path class="st0" d="M56.7,83.1C40.5,83,28.5,70.6,28.9,55.5c0.5-15,13.5-26.8,28.5-26c18.4,1,30.4,20.7,23,37.6
		c-1,2.2-2.2,4.1-5.1,3.1c-2.4-0.8-2.8-2.7-1.6-5.9c4.7-11.9-1.4-24.1-13.6-27.1c-10.5-2.6-21.3,4.3-23.7,15.1
		c-2.3,10.4,4.8,21.3,15.3,23.3c5.4,1.1,10.3,0,14.9-2.9c1.9-1.2,3.9-1.6,5.5,0.4c1.4,1.8,0.9,3.9-1.4,5.5
		C66.2,81.6,61.2,83.2,56.7,83.1z"/>
	<path class="st0" d="M254.1,33.2c-8.9,0-17.8,0-26.7,0c-8.5,0-15.4-6.1-15.9-14c-0.6-9,5.1-16,13.9-17.1c2.8-0.4,5,0.9,5,3.2
		c0.1,2.6-1.6,3.7-4.1,4c-4.8,0.5-8,4.2-7.9,8.6c0.2,4.6,3.6,8.1,8.7,8.1C244.7,26,262.3,26,280,26c1,0,2.1-0.1,3.1,0.1
		c2.1,0.3,3.5,1.6,3.3,3.7c-0.2,2.1-1.5,3.3-3.7,3.3c-4.1,0-8.2,0-12.3,0C264.9,33.2,259.5,33.2,254.1,33.2z"/>
	<path class="st0" d="M267.1,51c-7.3,0-14.5,0-21.8,0c-5.1,0-8.6,3.2-8.8,7.9c-0.3,4.6,2.7,8.1,7.5,8.8c3,0.5,4.6,2,4.3,4.2
		c-0.3,2.3-2.5,3.5-5.5,3c-8.3-1.2-13.9-8.1-13.5-16.7c0.3-7.7,7-14.3,15.2-14.4c15.3-0.2,30.5-0.1,45.8-0.1c2.4,0,4.3,0.9,4.3,3.7
		c-0.1,2.8-2,3.6-4.4,3.6C282.4,51,274.7,51,267.1,51z"/>
	<path class="st0" d="M52.3,12.1c0-2.4,0-4.7,0-7.1c0-2.2,1-3.8,3.4-3.9C58.3,1,59.3,2.7,59.4,5c0.1,4.8,0.1,9.6,0,14.4
		c0,2.2-1.2,3.9-3.5,3.8c-2.5,0-3.6-1.7-3.6-4.1C52.3,16.8,52.3,14.4,52.3,12.1z"/>
	<path class="st0" d="M100.2,52.9c2.3,0,4.7,0,7,0c2.3,0,3.8,1.2,3.9,3.4c0.1,2.3-1.5,3.5-3.7,3.6c-4.9,0.1-9.8,0.1-14.7,0
		c-2.2,0-3.8-1.1-3.7-3.6c0.1-2.4,1.6-3.4,3.8-3.5C95.3,52.8,97.8,52.9,100.2,52.9z"/>
	<path class="st0" d="M33.3,30c0,1.8-0.5,2.9-1.7,3.5c-1.3,0.6-2.7,0.7-3.7-0.3c-3.9-3.8-7.8-7.5-11.5-11.5c-1.3-1.3-1-3.1,0.3-4.4
		c1.3-1.4,3-1.7,4.4-0.5c4,3.8,7.9,7.7,11.7,11.6C33.2,28.9,33.2,29.7,33.3,30z"/>
	<path class="st0" d="M33.2,82.4c0.1,1.2-0.6,2.1-1.4,2.9c-3.3,3.3-6.5,6.5-9.8,9.8c-1.7,1.7-3.6,2.2-5.4,0.4
		c-1.8-1.7-1.4-3.6,0.3-5.4c3.4-3.4,6.8-6.8,10.2-10.2c1.2-1.2,2.5-1.7,4.2-0.8C32.6,79.8,33.4,80.8,33.2,82.4z"/>
	<path class="st0" d="M95.9,92.7c0,3.1-3,5-5.2,3.2c-4.4-3.5-8.3-7.6-12-11.8c-1.3-1.4-0.8-3.1,0.6-4.4c1.2-1.2,2.9-1.5,4.2-0.3
		c4.2,3.8,8.2,7.7,11.9,11.9C95.7,91.8,95.8,92.5,95.9,92.7z"/>
	<path class="st0" d="M95.9,19.9c0.1,1.2-0.7,2-1.5,2.8c-3.3,3.3-6.5,6.5-9.8,9.8c-1.7,1.7-3.6,2.1-5.4,0.4
		c-1.9-1.8-1.3-3.7,0.4-5.3c3.4-3.4,6.8-6.8,10.2-10.2c1.2-1.2,2.6-1.5,4.2-0.8C95.4,17.3,96,18.4,95.9,19.9z"/>
	<path class="st0" d="M11.9,52.8c2.3,0,4.7,0,7,0c2.3,0,3.7,1.3,3.7,3.6c0,2.1-1.4,3.3-3.6,3.3c-5,0-10,0-15,0
		c-2.2,0-3.5-1.1-3.5-3.4c0-2.4,1.4-3.5,3.7-3.5C6.8,52.8,9.3,52.8,11.9,52.8z"/>
	<path class="st0" d="M59.2,100.8c0,2.4,0,4.9,0,7.3c-0.1,2.2-1.3,3.6-3.4,3.6c-2.3,0-3.5-1.4-3.5-3.8c0-4.9,0-9.8,0-14.7
		c0-2.3,1.2-3.7,3.6-3.6c2.3,0,3.3,1.4,3.3,3.5C59.2,95.7,59.2,98.3,59.2,100.8z"/>
	<path class="st0" d="M90.1,46c-1.9-0.2-3.1-0.9-3.7-2.5c-0.6-1.6-0.1-3,1.2-3.8c3.1-1.7,6.4-3.2,9.9-4c1.7-0.4,2.9,0.6,3.6,2.2
		c0.7,1.6,0.2,3-1,3.8C96.9,43.7,93.3,44.6,90.1,46z"/>
	<path class="st0" d="M69.7,25.9c-2.3-0.1-4-2.1-3.2-4.5c1-3,2.3-5.9,3.6-8.7c0.9-1.8,2.7-2.2,4.5-1.4c1.7,0.8,2.6,2.3,1.8,4.3
		c-1.1,2.7-2.2,5.5-3.4,8.2C72.5,25.3,71.3,26,69.7,25.9z"/>
	<path class="st0" d="M35,97.7c1.1-3.1,2.2-6.7,4.3-9.8c0.9-1.3,2.5-1.6,4.1-0.7c1.5,0.9,2.3,2.2,1.7,3.8c-1.1,3.1-2.3,6.1-3.7,9
		c-0.7,1.6-2.2,2-3.9,1.6C35.7,101.1,34.9,100,35,97.7z"/>
	<path class="st0" d="M90.3,67c3,1.1,6.6,2.2,9.7,4.3c1.4,1,1.5,2.7,0.7,4.1c-0.8,1.4-2.2,2.3-3.8,1.7c-3-1.1-6.1-2.4-9-3.8
		c-1.5-0.7-2.2-2.2-1.6-3.9C86.7,67.9,87.9,66.9,90.3,67z"/>
	<path class="st0" d="M21.4,66.9c2.1,0,3.3,0.7,3.7,2.3c0.4,1.5,0.3,3-1.1,3.8c-3.1,1.8-6.4,3.1-9.8,4.1c-1.4,0.4-2.8-0.4-3.5-1.8
		c-0.7-1.5-0.7-3.2,0.8-4.1C14.7,69.1,18.3,68,21.4,66.9z"/>
	<path class="st0" d="M76.7,97.9c-0.2,2-0.9,3.2-2.6,3.8c-1.7,0.6-3.2-0.1-3.9-1.5c-1.4-2.9-2.7-5.9-3.7-9c-0.6-1.7,0.2-3.2,1.9-4
		c1.5-0.8,3-0.4,3.9,0.8C74.4,90.9,75.2,94.7,76.7,97.9z"/>
	<path class="st0" d="M25.4,42.2c0.1,2.3-2,4.1-4.3,3.4c-3.1-1-6.1-2.3-9-3.7c-1.7-0.8-2.2-2.4-1.5-4.2c0.6-1.6,1.9-2.5,3.6-2.1
		c3.5,0.8,6.7,2.3,9.8,4C25,40.1,25.4,41.2,25.4,42.2z"/>
	<path class="st0" d="M41.8,25.9c-1.7,0.1-2.7-0.8-3.3-2.2c-1.1-2.5-2.2-5.1-3.2-7.6c-0.8-2.1-0.2-4,2-4.8c2-0.8,3.6,0.1,4.5,2.1
		c1.1,2.6,2.3,5.2,3.2,7.9C45.9,23.7,44.3,25.9,41.8,25.9z"/>
</g>
</svg>
