<?xml version="1.0" encoding="utf-8"?>
<!-- Generator: Adobe Illustrator 25.3.0, SVG Export Plug-In . SVG Version: 6.00 Build 0)  -->
<svg version="1.1" id="Layer_1" xmlns="http://www.w3.org/2000/svg" xmlns:xlink="http://www.w3.org/1999/xlink" x="0px" y="0px"
	 viewBox="0 0 300 300" style="enable-background:new 0 0 300 300;" xml:space="preserve">
<style type="text/css">
	.st0{fill:#FFFFFF;}
</style>
<g>
	<path class="st0" d="M146.5,298.8c-5.2-1.4-10-3.4-13.8-7.5c-5.8-6.4-7.8-13.9-5.8-22.3c0.4-1.7,0-2.4-1.4-3.2
		c-21.3-12.2-42.5-24.5-63.8-36.8c-1.4-0.8-2.2-0.7-3.4,0.4c-6.8,6.4-14.9,8.4-23.9,5.6c-9-2.8-14.3-9.2-16.2-18.4
		c-2.4-11.4,4.9-23.4,16.5-26.9c1.9-0.6,2.6-1.3,2.6-3.3c-0.1-24.3-0.1-48.6,0-72.9c0-1.8-0.3-2.6-2.3-3.2
		c-9.4-2.7-16.3-11.2-17-20.3c-0.8-10.5,4.4-19.6,13.5-24c8.8-4.2,19.3-2.6,26.6,4.3c1.4,1.3,2.3,1.5,3.9,0.5
		c21-12.2,42-24.3,63-36.4c1.8-1,2.2-1.9,1.7-4c-3-13.5,5.1-25.7,18.6-28.7c0.4-0.1,0.7-0.3,1-0.5c2.3,0,4.6,0,7,0
		c4,1.2,7.9,2.3,11.2,5.1c7.6,6.5,10.5,14.6,8.4,24.4c-0.4,1.7-0.3,2.5,1.3,3.4c21.3,12.2,42.5,24.5,63.8,36.8
		c1.4,0.8,2.2,0.7,3.4-0.5c6.9-6.4,14.9-8.4,23.9-5.6c9,2.8,14.3,9.3,16.2,18.4c2.4,11.4-4.9,23.4-16.5,26.9
		c-2.2,0.7-2.6,1.7-2.6,3.6c0,24.1,0.1,48.2,0,72.4c0,2,0.5,2.9,2.6,3.6c9.4,3,15.2,9.7,16.5,19.4c1.3,9.4-2.1,17.1-9.9,22.7
		c-2.9,2.1-5.5,1.9-7.1-0.5c-1.5-2.3-0.9-4.4,2-6.6c5.9-4.4,8-11.4,5.4-18c-2.7-6.7-9.2-10.3-16.6-9.2c-6.4,0.9-11.8,6.6-12.5,13.5
		c-0.5,5,1.4,9.3,5.1,12.7c0.7,0.6,1.6,1.1,2.3,1.8c2,1.6,2.4,4,1.1,5.9c-1.3,1.9-3.7,2.5-5.9,1.2c-1.6-0.9-3-2.1-4.3-3.4
		c-1-1-1.7-1.1-3-0.4c-21.4,12.4-42.8,24.8-64.3,37.1c-1.2,0.7-1.6,1.2-1.2,2.7c3.2,14.4-4.3,26.2-18.7,29.6
		c-0.3,0.1-0.5,0.3-0.7,0.4C151.2,298.8,148.8,298.8,146.5,298.8z M168.4,259.3c0.5-0.3,1.1-0.6,1.6-0.9
		c21.2-12.2,42.3-24.5,63.5-36.7c1.7-0.9,1.9-1.8,1.4-3.6c-3-12.6,4.3-24.9,16.8-28.4c1.9-0.5,2.2-1.4,2.2-3c0-24.4,0-48.8,0-73.2
		c0-1.7-0.4-2.5-2.2-3c-12.5-3.6-19.7-15.9-16.6-28.5c0.5-2,0-2.7-1.6-3.6c-21.2-12.2-42.4-24.4-63.5-36.7c-1.4-0.8-2.2-0.8-3.4,0.4
		c-9.7,9.2-23.4,9.3-33.1,0.1c-1.2-1.1-1.9-1.3-3.4-0.5c-21.2,12.3-42.5,24.6-63.8,36.8c-1.6,0.9-1.9,1.7-1.4,3.4
		c3.1,12.6-4.1,25-16.5,28.5c-2,0.6-2.3,1.5-2.3,3.2c0,24.3,0,48.6,0,72.9c0,1.8,0.5,2.6,2.4,3.2c12.5,3.6,19.5,15.9,16.4,28.6
		c-0.4,1.5-0.2,2.4,1.2,3.3c21.4,12.3,42.7,24.6,64,37c1.3,0.7,2,0.8,3.2-0.3c10-9.4,23.4-9.4,33.4-0.1
		C167.2,258.5,167.5,259.1,168.4,259.3z M149.8,40.2c8.3,0.1,15.2-6.7,15.3-14.9c0.1-8.3-6.7-15.2-15-15.3
		c-8.3-0.1-15.2,6.7-15.3,14.9C134.8,33.2,141.6,40.1,149.8,40.2z M134.9,274.8c0,8.3,6.7,15.2,15,15.2c8.3,0.1,15.2-6.8,15.2-15
		c0.1-8.3-6.7-15.2-15-15.2C141.8,259.8,134.9,266.6,134.9,274.8z M273.3,87.6c0-8.5-6.5-15.1-15-15.2c-8.2-0.1-15.2,6.7-15.3,15
		c-0.1,8.3,6.8,15.1,15.1,15.2C266.6,102.6,273.2,96,273.3,87.6z M26.7,87.4c0,8.5,6.5,15.1,14.9,15.2c8.3,0.1,15.2-6.6,15.3-14.9
		c0.1-8.3-6.7-15.1-15-15.2C33.5,72.3,26.8,79,26.7,87.4z M26.7,212.4c0,8.5,6.5,15.1,15,15.1c8.3,0,15.2-6.7,15.2-15
		c0-8.2-6.8-15.1-15.1-15.1C33.4,197.4,26.8,204,26.7,212.4z"/>
	<path class="st0" d="M214,118.1c-5.1,2.9-9.5,5.5-14.1,8.1c-1.2,0.7-1,1.8-1,2.8c0,8.2-0.1,16.5,0,24.7c0.1,4.1-1.6,7-5.2,8.9
		c-4.1,2.2-8,4.7-12.1,6.9c-5.4,3-10.2,0.3-10.3-6c0-6.7,0-13.5,0-20.9c-4.8,2.8-8.9,5.5-13.4,7.6c-3.1,1.4-3.7,3.4-3.7,6.5
		c0.1,20.4,0.1,40.9,0.1,61.3c0,3.4,0,3.4,3,1.7c17.8-10.3,35.6-20.6,53.5-30.8c2.3-1.3,3.3-2.9,3.2-5.6c-0.2-5.6-0.1-11.2,0-16.8
		c0-2.2,0.9-4,3.1-4.7c1.9-0.6,3.6,0,4.9,1.7c0.8,1,0.7,2.2,0.7,3.3c0,5.6-0.1,11.2,0,16.8c0.2,5.9-2.4,9.9-7.4,12.8
		c-17.3,9.9-34.5,19.9-51.7,29.8c-2.4,1.4-4.8,2.8-7.3,4.2c-4.2,2.3-8.5,2.4-12.7,0c-20-11.5-40-23.1-60-34.6
		c-4.2-2.4-6.3-6.1-6.3-11c0-23.1,0-46.3,0-69.4c0-4.9,2.1-8.6,6.3-11c20.1-11.6,40.2-23.2,60.3-34.8c4-2.3,8.2-2.4,12.2-0.1
		c20.3,11.6,40.5,23.3,60.8,35.1c4,2.3,6,5.9,6,10.6c0,9.9,0,19.8,0,29.6c0,3.1-1.7,5.1-4.2,5.2c-2.5,0-4.4-2-4.4-5.1
		c-0.1-7.8,0-15.7,0-23.5C214,120.4,214,119.6,214,118.1z M86.3,118.2c-0.2,0.7-0.3,0.9-0.3,1.1c0,21.7,0,43.4,0,65
		c0,2,0.9,3.2,2.6,4.2c18.2,10.5,36.5,21.1,54.7,31.6c1.7,1,2.5,1.1,2.5-1.3c-0.1-21.5,0-43,0-64.5c0-1.4-0.5-2.2-1.8-2.9
		c-12.9-7.4-25.8-14.8-38.7-22.3C99,125.6,92.7,122,86.3,118.2z M90.5,110.3c0.5,0.4,0.7,0.6,0.9,0.8c18.7,10.8,37.5,21.7,56.2,32.5
		c1.3,0.7,2.7,1.1,3.9,0.4c5.1-2.8,10.1-5.8,15.5-8.8c-19.8-11.5-39.2-22.7-58.5-33.9c-0.9-0.5-1.6-0.4-2.4,0.1
		C101,104.3,95.9,107.2,90.5,110.3z M135.3,84.5c0.5,0.4,0.6,0.7,0.9,0.8c19.1,11,38.1,22.1,57.2,33.1c0.5,0.3,1,0.9,1.8,0.4
		c4.7-2.7,9.4-5.4,14.6-8.4c-19.6-11.3-38.7-22.3-57.8-33.3c-1.4-0.8-2.8-0.7-4.1,0.1C143.8,79.6,139.7,82,135.3,84.5z M116.1,95.6
		c19.6,11.4,39,22.6,58.4,33.8c0.7,0.4,1.3,0.7,2.1,0.2c3-1.8,6-3.5,9-5.3c-0.4-0.4-0.6-0.6-0.9-0.8c-19-11-38.1-22.1-57.1-33.1
		c-0.8-0.5-1.5-0.8-2.4-0.2C122.3,92,119.3,93.7,116.1,95.6z M190.2,131.8c-3.3,1.9-6.1,3.5-8.9,5.1c-0.7,0.4-1.3,0.8-1.3,1.7
		c0,6.7,0,13.3,0,20c0,1,0.3,1.5,1.4,0.9c2.6-1.5,5.2-3,7.8-4.5c0.6-0.4,1-0.9,1-1.7C190.2,146.4,190.2,139.4,190.2,131.8z"/>
</g>
</svg>
