<?xml version="1.0" encoding="utf-8"?>
<!-- Generator: Adobe Illustrator 25.3.0, SVG Export Plug-In . SVG Version: 6.00 Build 0)  -->
<svg version="1.1" id="Layer_1" xmlns="http://www.w3.org/2000/svg" xmlns:xlink="http://www.w3.org/1999/xlink" x="0px" y="0px"
	 viewBox="0 0 50 50" style="enable-background:new 0 0 50 50;" xml:space="preserve">
<style type="text/css">
	.st0{fill:none;stroke:#FFFFFF;stroke-width:0.75;stroke-miterlimit:10;}
	.st1{fill:#FFFFFF;}
</style>
<rect x="0.6" y="0.5" class="st0" width="48.8" height="49"/>
<path class="st1" d="M12,33.2c2.4,1.5,5.2,2.4,8.2,2.4c9.9,0,15.5-8.4,15.2-15.9c1-0.8,1.9-1.7,2.7-2.8c-1,0.4-2,0.7-3.1,0.8
	c1.1-0.7,1.9-1.7,2.3-2.9c-1,0.6-2.2,1.1-3.4,1.3c-1-1-2.4-1.7-3.9-1.7c-3.4,0-6,3.2-5.2,6.5c-4.4-0.2-8.4-2.3-11-5.6
	c-1.4,2.4-0.7,5.5,1.7,7.1c-0.9,0-1.7-0.3-2.4-0.7c-0.1,2.5,1.7,4.8,4.3,5.3c-0.8,0.2-1.6,0.2-2.4,0.1c0.7,2.1,2.6,3.7,5,3.7
	C17.7,32.7,14.8,33.5,12,33.2"/>
</svg>
