<?xml version="1.0" standalone="no"?>
<!DOCTYPE svg PUBLIC "-//W3C//DTD SVG 20010904//EN"
 "http://www.w3.org/TR/2001/REC-SVG-20010904/DTD/svg10.dtd">
<svg version="1.0" xmlns="http://www.w3.org/2000/svg"
 width="1000.000000pt" height="1000.000000pt" viewBox="0 0 1000.000000 1000.000000"
 preserveAspectRatio="xMidYMid meet">
<metadata>
Created by potrace 1.16, written by Peter Selinger 2001-2019
</metadata>
<g transform="translate(0.000000,1000.000000) scale(0.100000,-0.100000)"
fill="#fff" stroke="none">
<path d="M4665 8193 c-104 -9 -267 -37 -371 -63 -147 -37 -242 -84 -323 -160
-84 -79 -64 -78 25 1 82 73 154 109 295 144 178 45 344 65 551 65 285 0 498
-45 677 -142 42 -22 95 -51 117 -63 23 -12 52 -25 65 -28 42 -11 14 -17 -42
-8 -29 5 -58 6 -64 3 -5 -4 24 -12 64 -19 41 -7 77 -10 79 -8 10 10 -76 175
-90 175 -12 0 -10 -16 11 -70 11 -27 16 -50 13 -50 -4 0 -38 20 -75 45 -214
138 -582 209 -932 178z"/>
<path d="M6077 7843 l-247 -3 5 -38 c4 -20 7 -90 8 -154 1 -64 5 -119 9 -123
3 -3 100 -9 215 -11 114 -3 236 -7 271 -10 60 -5 63 -7 47 -24 -11 -12 -36
-19 -83 -23 -138 -12 -143 -14 -182 -89 -47 -89 -60 -102 -60 -59 0 58 -21
122 -39 119 -17 -4 -17 -8 -2 -78 6 -25 10 -81 11 -125 0 -93 7 -125 26 -125
11 0 14 16 14 65 0 36 4 65 9 65 5 0 13 9 16 20 9 29 18 20 59 -65 31 -63 40
-75 61 -75 27 0 33 14 12 27 -7 4 -28 39 -47 76 -19 38 -40 73 -46 78 -8 7 -4
23 15 59 19 37 35 53 59 61 18 6 35 9 36 7 9 -11 26 -188 26 -273 0 -55 5
-120 11 -145 7 -30 7 -51 0 -65 -6 -11 -20 -46 -32 -78 -12 -33 -25 -55 -29
-50 -4 4 -15 34 -24 65 -17 59 -31 77 -47 61 -12 -12 39 -163 59 -170 26 -11
46 12 73 83 l27 68 11 -39 c6 -22 11 -54 11 -70 0 -38 16 -55 52 -55 16 0 46
-14 73 -34 81 -62 144 -81 276 -81 113 0 116 1 191 38 210 103 320 340 263
562 -46 175 -207 338 -369 375 -45 10 -154 0 -285 -26 l-31 -6 0 121 c0 95 -3
121 -14 121 -17 0 -28 -110 -19 -203 l6 -67 -31 0 c-17 0 -33 -4 -36 -9 -4 -5
-77 -7 -169 -5 -89 3 -205 6 -257 7 l-95 3 -3 84 -2 85 20 -32 c12 -20 28 -33
40 -33 17 0 20 -7 20 -39 0 -38 20 -68 38 -57 5 3 7 30 4 61 -5 59 12 115 34
115 16 0 19 -46 4 -55 -10 -6 2 -34 29 -67 15 -19 49 -22 114 -12 59 10 45 28
-17 20 -43 -5 -58 -3 -70 10 -9 8 -16 19 -16 24 0 8 85 30 115 30 8 0 15 7 15
16 0 14 -7 15 -46 9 -26 -3 -52 -9 -59 -11 -13 -5 -28 30 -17 40 3 3 34 6 69
6 47 0 63 4 63 14 0 19 -68 28 -130 16 -29 -6 -54 -10 -56 -10 -2 0 -4 11 -4
25 l0 25 118 1 c172 1 285 12 290 27 3 9 -12 11 -55 10 -32 -2 -169 -4 -306
-5z m818 -278 c122 -61 237 -197 270 -319 24 -87 17 -228 -14 -309 -48 -124
-162 -235 -281 -274 -80 -26 -226 -24 -301 6 -76 29 -145 79 -130 94 18 18 12
29 -14 25 -20 -2 -30 4 -46 30 l-21 32 56 0 c31 0 56 5 56 10 0 6 -22 10 -50
10 -46 0 -50 2 -50 24 0 22 5 25 43 28 68 5 48 23 -30 26 l-72 3 -10 50 c-13
61 -14 112 -2 105 5 -3 15 1 22 10 10 12 10 22 0 50 -16 45 -18 133 -3 159 10
17 11 13 12 -30 1 -60 30 -131 59 -140 12 -3 21 -15 21 -25 0 -25 17 -35 35
-20 36 30 3 315 -40 346 -13 10 -13 13 3 26 9 9 30 18 45 22 22 5 27 11 22 24
-6 16 -5 16 11 1 15 -16 19 -16 51 3 130 77 246 88 358 33z"/>
<path d="M6488 7468 c-14 -11 -15 -26 -7 -123 15 -195 19 -217 37 -213 11 3
16 12 14 29 -2 22 4 26 42 36 90 25 132 114 86 188 -38 62 -137 110 -172 83z
m101 -55 c39 -30 64 -83 55 -118 -9 -34 -49 -72 -84 -77 -32 -5 -31 -9 -44
165 -5 67 -5 68 17 61 12 -3 37 -18 56 -31z"/>
<path d="M6830 6988 c-14 -6 -62 -10 -107 -9 -102 3 -133 -12 -133 -68 0 -20
4 -52 10 -70 5 -19 7 -37 4 -40 -7 -7 -21 16 -41 69 -19 52 -40 80 -60 80 -10
0 -13 -24 -13 -105 0 -87 3 -105 15 -105 12 0 15 14 15 63 l1 62 19 -37 c21
-38 64 -78 86 -78 21 0 24 31 10 99 -16 75 -5 115 29 105 30 -10 30 -9 33
-110 4 -83 6 -94 22 -94 17 0 18 7 14 78 -3 42 -6 87 -8 100 -2 16 2 22 15 22
11 0 19 -4 19 -10 0 -5 6 -10 14 -10 19 0 56 -52 56 -78 0 -11 -9 -42 -20 -68
-11 -26 -18 -49 -16 -52 3 -3 27 1 53 8 53 14 83 41 83 74 0 12 7 31 15 42 25
33 18 73 -19 110 -36 36 -55 40 -96 22z"/>
<path d="M8205 7840 c-3 -5 -44 -10 -91 -10 -77 0 -85 -2 -80 -17 3 -11 -18
-63 -49 -122 -30 -58 -52 -108 -49 -113 3 -4 17 -8 31 -8 18 0 24 -4 19 -15
-7 -19 34 -21 52 -3 8 8 83 13 251 16 234 3 238 3 244 -17 7 -27 27 -27 34 0
6 21 7 21 272 16 146 -3 321 -8 389 -11 103 -5 122 -3 122 9 0 8 -9 15 -20 15
-11 0 -20 3 -20 7 0 14 94 208 104 215 38 25 -29 29 -515 29 -379 0 -505 3
-511 12 -6 9 -12 9 -28 0 -24 -15 -110 -17 -110 -3 0 6 -9 10 -19 10 -11 0
-23 -4 -26 -10z m99 -52 c-63 -105 -118 -180 -140 -188 -14 -6 -43 -10 -66
-10 -50 0 -49 2 39 119 l68 91 53 0 c40 0 51 -3 46 -12z m236 3 c0 -6 -26 -43
-58 -83 -32 -40 -61 -81 -65 -90 -5 -13 -17 -18 -47 -18 -39 0 -40 1 -29 23 7
12 39 57 73 99 54 69 65 78 94 78 17 0 32 -4 32 -9z m121 -8 c-6 -10 -34 -54
-63 -98 -52 -78 -54 -79 -95 -80 -24 0 -44 3 -45 7 -2 4 26 47 62 97 64 91 64
91 107 91 39 0 43 -2 34 -17z m151 5 c-50 -64 -111 -151 -117 -167 -5 -17 -14
-20 -50 -18 -25 1 -45 7 -45 13 0 13 75 131 103 162 16 17 31 22 70 22 38 0
47 -3 39 -12z m83 -70 c-30 -46 -55 -91 -55 -100 0 -15 -9 -18 -55 -18 -68 0
-70 11 -18 84 78 110 84 114 136 115 l47 1 -55 -82z m265 78 c0 -3 -25 -42
-56 -88 -34 -51 -53 -90 -50 -101 3 -13 0 -17 -11 -13 -8 3 -26 6 -39 6 -14 0
-22 4 -19 10 3 6 1 10 -4 10 -20 0 -11 16 49 88 33 39 56 74 50 77 -12 7 -76
-60 -127 -132 -21 -31 -44 -53 -55 -53 -30 0 -21 34 29 107 25 37 46 74 46 81
0 9 26 12 94 12 51 0 93 -2 93 -4z m208 -4 c-1 -5 -23 -52 -48 -105 l-45 -97
-48 0 c-48 0 -49 0 -42 27 7 30 31 66 89 136 30 36 46 47 68 47 16 0 28 -4 26
-8z"/>
<path d="M3898 7834 c-4 -3 -2 -18 3 -32 5 -14 11 -56 14 -94 4 -80 17 -103
47 -87 24 13 468 27 527 17 51 -9 72 -1 46 18 -14 10 -18 28 -19 81 0 37 -6
73 -11 79 -7 7 -87 11 -245 10 -129 -1 -262 2 -296 7 -33 4 -63 5 -66 1z m569
-38 c1 0 5 -28 8 -62 l7 -61 -182 -6 c-101 -4 -218 -7 -261 -7 -89 0 -82 -7
-94 99 l-6 54 263 -8 c145 -4 264 -8 265 -9z"/>
<path d="M5595 7828 c-55 -4 -165 -12 -245 -16 -137 -7 -145 -8 -142 -27 2
-11 7 -74 12 -140 8 -115 8 -121 -12 -136 -20 -16 -20 -16 17 -22 21 -3 47 -1
57 4 31 16 408 25 408 10 0 -7 7 -11 16 -9 13 2 16 26 18 148 2 80 7 157 11
173 8 31 21 30 -140 15z m95 -157 l0 -140 -112 2 c-62 1 -156 -2 -209 -6 l-96
-9 -8 39 c-4 21 -10 82 -14 136 l-6 97 105 1 c58 1 143 4 190 8 47 5 100 9
118 9 l32 2 0 -139z"/>
<path d="M5348 7746 c-2 -20 0 -43 5 -51 4 -9 7 -26 5 -38 -3 -18 -9 -13 -31
30 -49 95 -60 82 -49 -57 6 -76 10 -95 23 -98 22 -4 30 20 19 57 -10 38 -4 39
22 6 23 -29 45 -32 52 -7 2 9 2 55 -2 102 -6 67 -10 85 -23 88 -12 2 -18 -6
-21 -32z"/>
<path d="M5438 7729 c-31 -18 -18 -86 21 -116 21 -16 93 -17 109 -1 39 39 -17
128 -80 128 -18 0 -41 -5 -50 -11z"/>
<path d="M3315 7823 c-165 -4 -165 -4 -165 -56 1 -45 24 -164 34 -174 3 -4 18
0 33 8 21 11 86 14 335 13 169 0 308 1 308 3 0 3 -7 11 -15 19 -10 10 -15 35
-15 74 0 32 -3 66 -6 74 -5 12 -1 16 17 14 16 -2 24 3 27 15 4 18 -62 20 -553
10z m470 -35 c2 -7 5 -46 7 -86 l4 -73 -28 6 c-38 9 -510 9 -536 1 -18 -6 -22
-1 -31 31 -6 21 -11 57 -11 80 l0 42 113 4 c317 9 478 7 482 -5z"/>
<path d="M475 7799 c-8 -13 11 -37 93 -114 l63 -60 -70 -85 c-45 -55 -66 -88
-60 -95 6 -6 24 8 52 40 23 27 55 63 70 80 l28 30 32 -39 c73 -90 84 -99 101
-93 15 6 7 19 -45 83 l-62 76 18 32 c10 17 39 57 63 89 25 31 43 60 40 62 -12
13 -42 -12 -78 -64 -72 -102 -57 -101 -148 -11 -45 44 -83 80 -86 80 -3 0 -8
-5 -11 -11z"/>
<path d="M900 7800 c-3 -39 0 -353 3 -356 23 -23 406 -2 415 24 2 6 -3 12 -12
12 -9 0 -17 1 -18 3 0 1 -4 74 -7 162 l-6 160 -187 0 c-104 0 -188 -2 -188 -5z
m337 -22 c4 -7 10 -77 13 -155 5 -136 4 -142 -15 -147 -40 -10 -233 -19 -269
-12 l-36 7 0 145 c0 107 3 146 13 148 6 3 66 8 132 14 66 5 128 9 137 10 9 1
20 -4 25 -10z"/>
<path d="M6272 7774 c-31 -22 -25 -53 16 -80 18 -13 38 -24 45 -27 22 -7 -11
-34 -58 -47 -25 -7 -45 -19 -45 -26 0 -18 26 -18 82 2 91 30 100 77 23 113
-67 31 -57 46 34 53 19 2 36 9 39 16 6 19 -108 16 -136 -4z"/>
<path d="M1367 7679 c-14 -8 -17 -18 -12 -37 4 -15 12 -30 18 -34 15 -9 262
-10 346 -2 61 7 62 8 56 33 -13 50 -16 51 -209 51 -109 0 -188 -5 -199 -11z"/>
<path d="M3200 7562 c-17 -6 -11 -19 10 -25 18 -5 20 -14 20 -80 0 -67 -2 -75
-21 -80 -12 -3 -18 -10 -14 -16 3 -6 11 -9 16 -5 6 3 13 -3 16 -15 7 -26 19
-27 33 -1 10 19 23 20 438 21 235 0 514 4 620 8 l193 6 4 87 4 87 -252 0
c-139 1 -331 4 -427 7 -201 7 -625 11 -640 6z m444 -63 c3 -17 6 -48 6 -69 l0
-37 -52 -7 c-29 -3 -74 -6 -99 -6 -54 0 -59 8 -59 98 l0 52 99 0 99 0 6 -31z
m838 -41 l-4 -68 -370 0 -370 0 56 62 c31 34 56 66 56 71 0 5 125 8 318 6
l317 -4 -3 -67z"/>
<path d="M8053 7470 l-191 -5 -49 -41 c-118 -100 -154 -225 -85 -294 33 -33
127 -59 145 -41 15 15 -4 28 -57 37 -53 9 -86 43 -86 89 0 70 57 164 113 185
18 6 40 16 49 20 25 13 529 31 803 29 201 -2 240 0 240 12 0 12 -54 14 -345
14 -190 1 -431 -1 -537 -5z"/>
<path d="M5445 7460 c-8 -13 3 -30 19 -30 9 0 16 -46 26 -162 7 -90 12 -173
11 -185 -3 -57 96 6 130 82 21 46 24 120 6 152 -7 12 -40 51 -75 87 -62 64
-101 83 -117 56z m165 -179 c6 -23 6 -48 -1 -76 -11 -43 -53 -105 -63 -94 -9
9 -26 163 -26 234 l1 60 39 -45 c22 -25 44 -60 50 -79z"/>
<path d="M5668 7423 c-3 -13 16 -342 21 -360 1 -2 13 -3 29 -3 36 1 115 37
107 50 -9 14 -31 12 -66 -6 -17 -8 -32 -14 -34 -12 -1 2 -6 40 -9 85 l-7 82
38 3 c44 3 47 23 4 23 -39 0 -43 6 -49 66 l-5 52 57 -6 c45 -4 56 -3 56 9 0
10 -14 14 -55 14 -30 0 -55 5 -55 10 0 17 -27 11 -32 -7z"/>
<path d="M8907 7424 c-13 -13 -7 -22 17 -28 37 -9 93 -78 101 -125 8 -49 -9
-108 -35 -116 -10 -3 -20 -14 -23 -25 -4 -17 -20 -18 -313 -19 -365 -1 -804
-30 -804 -53 0 -12 135 -6 390 18 92 8 277 14 458 14 227 0 302 3 302 12 0 7
12 25 27 40 37 39 44 127 15 185 -20 38 -74 93 -92 93 -5 0 -15 2 -22 5 -8 3
-17 2 -21 -1z"/>
<path d="M7894 7371 c-39 -24 -64 -58 -64 -87 0 -52 78 -100 133 -81 23 8 33
5 62 -17 46 -35 60 -33 75 15 13 39 13 42 -11 60 -13 10 -34 22 -46 25 -15 4
-23 14 -23 29 0 57 -72 89 -126 56z"/>
<path d="M1119 7316 c-2 -2 -159 -7 -349 -10 l-345 -7 0 -72 0 -72 85 2 c47 1
333 5 635 7 303 3 561 7 575 8 41 5 49 15 43 58 -4 26 -2 40 6 40 18 0 12 28
-8 40 -19 9 -632 15 -642 6z m601 -65 c0 -35 -3 -39 -31 -45 -65 -13 -229 -17
-384 -9 -155 8 -526 2 -747 -12 l-108 -6 0 44 0 44 378 10 c207 5 493 10 635
11 l257 2 0 -39z"/>
<path d="M3567 7254 c-6 -4 -164 -13 -234 -14 -70 0 -85 -3 -102 -21 -36 -39
-33 -106 7 -135 9 -7 17 -18 17 -26 0 -14 102 -15 583 -2 190 6 248 4 267 -6
18 -10 28 -10 38 -2 8 7 79 14 172 18 154 7 160 8 202 36 63 43 71 94 20 132
-28 21 -36 21 -499 21 -258 0 -470 -1 -471 -1z m342 -103 c-63 -69 -64 -69
-117 -70 l-54 -1 27 33 c86 102 91 106 147 109 29 2 55 2 57 1 2 -2 -25 -34
-60 -72z m303 32 c-69 -83 -87 -95 -142 -101 -27 -2 -50 -1 -50 4 0 5 30 39
67 75 64 63 71 67 116 68 l49 1 -40 -47z m136 -23 c-71 -70 -72 -71 -120 -68
l-49 3 58 67 58 67 62 0 63 1 -72 -70z m127 60 c4 -6 10 -8 15 -5 14 9 54 -31
47 -48 -12 -31 -85 -67 -147 -74 -40 -4 -60 -2 -60 5 0 6 25 32 55 58 30 26
55 54 55 61 0 15 26 18 35 3z m-939 -16 c-3 -9 -28 -42 -54 -75 -45 -56 -49
-58 -94 -58 -65 -1 -63 18 9 91 53 53 61 58 101 58 36 0 43 -3 38 -16z"/>
<path d="M1733 7045 c-8 -13 -79 -16 -493 -22 -267 -4 -558 -6 -648 -5 -119 3
-170 0 -192 -10 -35 -15 -36 -19 -10 -43 19 -17 20 -31 20 -280 0 -221 2 -265
15 -275 12 -10 108 -10 472 0 252 7 558 11 681 9 163 -3 222 -1 222 7 0 8 -31
15 -82 19 -82 7 -926 -1 -1093 -11 -84 -5 -89 -4 -70 11 45 36 537 265 570
265 35 0 503 -206 536 -236 19 -17 39 -11 39 10 0 14 -172 98 -393 192 l-139
58 44 20 c24 11 144 69 267 128 123 59 230 108 237 108 11 0 14 -53 16 -267 3
-230 5 -268 18 -268 13 0 16 39 20 275 3 151 4 287 2 303 -4 29 -26 36 -39 12z
m-123 -43 l44 -7 -227 -108 c-333 -157 -280 -147 -435 -88 -172 65 -392 136
-470 151 -34 7 -67 19 -73 26 -6 8 -10 14 -8 14 2 0 193 3 424 6 231 3 422 7
424 10 7 6 271 3 321 -4z m-1098 -83 c89 -18 412 -124 533 -175 l39 -16 -104
-44 c-58 -25 -187 -85 -288 -135 -134 -66 -182 -94 -178 -105 4 -10 -3 -14
-30 -14 l-34 0 2 250 c2 138 4 250 5 250 1 0 26 -5 55 -11z"/>
<path d="M7639 6979 c-21 -29 -21 -32 -5 -41 16 -9 17 -27 10 -241 -6 -214 -8
-233 -26 -246 -32 -22 -7 -37 39 -23 47 15 525 31 759 26 132 -3 182 -7 214
-20 33 -14 47 -15 61 -6 10 7 35 12 54 12 19 0 35 5 35 10 0 6 -11 10 -25 10
-36 0 -43 26 -56 196 -12 155 -6 266 16 284 10 9 14 -3 17 -62 3 -40 10 -86
17 -102 10 -25 13 -27 30 -15 11 8 53 56 95 107 42 50 80 92 84 92 4 0 13 4
21 9 12 8 12 12 -3 26 -15 15 -21 16 -41 5 -16 -8 -53 -11 -114 -8 -58 3 -92
0 -94 -6 -3 -8 -9 -7 -18 1 -18 14 -579 1 -967 -22 -48 -3 -54 -1 -62 21 -12
31 -14 30 -41 -7z m1031 -18 c0 -25 -33 -45 -138 -86 -48 -18 -157 -63 -242
-100 l-155 -66 -227 103 c-125 57 -228 108 -228 114 0 7 67 13 203 18 164 6
641 28 760 34 20 2 27 -3 27 -17z m-6 -248 c3 -98 9 -193 12 -210 6 -31 5 -33
-22 -33 -35 0 -208 75 -364 158 l-114 61 49 21 c28 12 120 51 205 86 85 36
169 71 185 79 17 7 33 14 36 14 3 1 9 -79 13 -176z m-584 -23 c0 -5 -403 -212
-404 -207 -1 1 0 90 2 198 l3 197 200 -92 c109 -50 199 -93 199 -96z m239
-114 l184 -93 -334 -7 c-184 -3 -359 -9 -389 -13 -42 -4 -52 -3 -44 6 10 11
384 201 394 200 3 0 88 -42 189 -93z"/>
<path d="M3485 6878 c-38 -46 -91 -93 -145 -130 -47 -32 -86 -62 -88 -68 -2
-5 36 -29 85 -54 49 -24 122 -69 163 -100 96 -73 105 -73 97 2 l-6 57 62 3
c100 5 96 -1 91 109 -2 53 -8 101 -13 106 -5 5 -45 7 -89 5 l-80 -3 5 73 c8
94 -4 94 -82 0z m41 -53 c-5 -28 -3 -45 3 -45 5 0 12 3 14 8 3 4 41 6 85 4
l79 -3 1 -85 1 -84 -27 -2 c-15 -1 -47 -2 -72 -2 l-45 -1 -3 -47 -3 -48 -77
54 c-42 30 -98 64 -124 77 -27 13 -48 25 -48 28 0 4 24 23 54 44 29 21 77 63
107 93 29 30 55 54 57 54 2 0 1 -20 -2 -45z"/>
<path d="M4207 6913 c-4 -20 -2 -42 3 -48 6 -7 7 -27 4 -45 l-7 -32 -63 5
c-34 2 -67 0 -72 -5 -5 -5 -5 -33 1 -71 11 -71 12 -86 6 -107 -3 -12 8 -16 56
-18 l60 -3 2 -96 c1 -52 4 -98 7 -100 10 -11 57 26 174 138 68 66 130 119 138
119 24 0 15 24 -19 47 -43 31 -174 158 -215 211 -42 53 -67 55 -75 5z m119
-108 c28 -27 75 -71 104 -96 l52 -47 -48 -43 c-27 -24 -84 -77 -126 -118 l-78
-76 0 98 0 97 -42 1 c-24 1 -48 1 -54 0 -11 -1 -24 63 -24 115 0 22 4 24 44
24 26 0 48 -6 56 -15 15 -18 20 -18 44 0 10 7 15 19 11 25 -4 6 -9 37 -10 68
-3 48 -2 54 8 37 7 -11 35 -42 63 -70z"/>
<path d="M5773 6940 c-12 -5 -27 -18 -32 -29 -6 -11 -29 -41 -52 -67 -55 -64
-51 -79 39 -115 83 -33 114 -36 166 -14 61 26 39 54 -57 71 -49 8 -54 20 -25
52 36 39 71 92 65 98 -10 11 -82 14 -104 4z"/>
<path d="M6015 6935 c-22 -8 -41 -15 -43 -15 -2 0 -1 -13 3 -30 4 -16 8 -48 9
-71 2 -24 11 -49 23 -61 18 -17 27 -19 73 -11 31 4 55 14 58 22 4 11 -5 13
-43 8 -52 -8 -75 3 -75 34 0 16 8 19 48 19 27 0 52 3 55 7 15 15 -18 33 -60
33 -37 0 -44 3 -41 18 3 12 13 17 40 17 43 0 55 9 38 30 -15 18 -33 18 -85 0z"/>
<path d="M3941 6789 c-17 -22 -32 -46 -34 -52 -3 -8 -10 -5 -20 8 -43 58 -55
68 -71 62 -14 -6 -10 -15 28 -63 50 -64 50 -53 -3 -156 -14 -26 -22 -50 -19
-53 9 -9 38 6 38 21 0 8 12 34 28 59 l28 44 62 -55 c34 -30 66 -53 72 -49 12
7 14 35 3 35 -5 0 -35 24 -68 54 l-59 53 18 41 c10 23 27 49 37 58 23 21 24
34 4 34 -8 0 -28 -18 -44 -41z"/>
<path d="M2023 6754 c-66 -7 -129 -17 -140 -24 -15 -9 -13 -10 12 -5 26 6 194
24 233 25 8 0 11 -8 8 -22 -35 -172 -39 -206 -30 -323 5 -66 9 -213 9 -327 0
-113 3 -210 7 -214 12 -11 139 -5 307 17 86 11 273 24 417 29 143 5 269 13
280 17 10 4 -16 -30 -58 -76 -43 -45 -78 -87 -78 -92 0 -4 45 37 100 92 55 56
100 103 100 105 0 2 -19 8 -42 15 -24 6 -71 20 -106 31 -35 11 -66 17 -70 13
-12 -12 43 -44 98 -57 l55 -13 -50 -7 c-27 -5 -153 -12 -280 -17 -126 -5 -303
-19 -393 -31 -89 -11 -186 -20 -215 -18 l-52 3 -1 205 c0 113 -4 262 -8 333
-7 103 -5 144 9 215 9 48 15 99 13 113 l-3 24 -122 -11z"/>
<path d="M7435 6619 c-39 -11 -55 -34 -55 -80 0 -43 23 -65 77 -75 53 -10 79
14 82 73 1 32 -3 53 -11 59 -29 22 -64 31 -93 23z"/>
<path d="M6197 6604 c-3 -3 -101 -9 -218 -12 l-212 -7 2 -85 c1 -47 3 -86 4
-87 1 -1 49 2 106 7 56 5 179 10 272 10 93 1 171 6 175 11 3 5 -2 19 -10 31
-10 13 -16 44 -16 74 0 38 -4 53 -16 58 -20 8 -79 8 -87 0z m64 -36 c1 -7 3
-29 4 -48 0 -19 3 -42 6 -50 3 -13 -16 -15 -131 -17 -74 -1 -181 -4 -237 -7
l-103 -5 0 60 0 59 63 1 c67 2 351 14 380 17 9 1 18 -4 18 -10z"/>
<path d="M6365 6593 c-5 -5 -10 -42 -10 -83 l0 -75 325 3 c179 2 329 8 334 13
6 6 6 13 -2 21 -18 18 -15 75 4 82 9 3 14 12 11 19 -3 9 -73 12 -303 12 -164
0 -310 3 -324 8 -14 4 -29 4 -35 0z m595 -74 l0 -37 -57 -6 c-32 -3 -160 -8
-285 -12 l-228 -6 0 48 0 49 285 1 285 1 0 -38z"/>
<path d="M3411 6377 c-8 -10 -9 -17 -1 -22 5 -3 10 -13 10 -22 0 -14 -10 -15
-70 -9 l-69 6 4 -72 c3 -40 10 -111 15 -158 5 -47 14 -152 20 -234 10 -154 20
-187 46 -152 13 18 14 17 14 -21 0 -36 -3 -42 -22 -45 -13 -2 -23 -10 -23 -18
0 -13 70 -16 541 -22 297 -4 559 -11 582 -16 31 -7 44 -7 52 3 14 17 4 23 -51
31 -24 4 -52 15 -61 24 -21 22 -42 138 -35 191 l5 38 -69 32 c-38 18 -69 34
-69 37 0 3 10 16 21 28 33 35 37 103 8 154 -29 51 -69 76 -136 85 -66 9 -83
-1 -132 -75 -36 -53 -38 -62 -31 -97 5 -21 21 -48 36 -61 14 -13 24 -25 21
-28 -3 -3 -33 -15 -68 -27 -35 -13 -69 -26 -75 -29 -12 -8 -13 -204 0 -230 6
-14 4 -18 -14 -18 -40 0 -49 27 -50 141 0 148 -4 160 -51 183 l-40 19 30 31
c62 67 67 112 17 162 -24 24 -43 34 -65 34 -37 0 -41 -15 -6 -24 30 -8 65 -44
65 -68 0 -16 -11 -18 -135 -18 -74 0 -135 2 -135 5 0 4 7 19 15 35 19 37 62
60 98 53 31 -6 37 12 7 22 -32 10 -86 -13 -120 -51 -41 -47 -41 -94 -1 -135
l29 -29 -41 -24 c-23 -14 -54 -30 -69 -37 -28 -12 -28 -14 -28 -103 0 -66 -3
-87 -11 -79 -7 7 -15 78 -20 170 -4 87 -13 190 -18 228 -6 39 -11 82 -11 97
l0 27 348 -5 c191 -2 453 -8 582 -13 129 -5 238 -7 243 -4 20 12 2 22 -48 28
-55 7 -56 8 -53 39 l3 31 -215 6 c-712 21 -756 21 -769 6z m437 -27 c139 -6
309 -10 377 -10 121 0 125 -1 125 -22 0 -21 -1 -21 -167 -15 -93 4 -295 10
-450 14 -255 6 -283 8 -283 23 0 27 10 30 79 25 36 -3 180 -10 319 -15z m-236
-292 c4 -28 20 -28 33 1 8 17 18 21 57 21 27 0 48 -4 48 -8 0 -22 -58 -62 -89
-62 -42 0 -37 -22 7 -31 18 -4 48 -17 67 -30 l35 -24 0 -100 c0 -55 3 -117 6
-137 l7 -38 -186 0 c-171 0 -185 1 -182 18 2 9 4 72 4 139 l1 121 65 36 c35
20 67 41 70 46 3 5 -9 23 -27 39 l-33 30 57 1 c51 0 57 -2 60 -22z m468 -17
c0 -34 10 -44 29 -31 8 5 12 18 9 34 -5 26 -5 26 58 26 63 0 64 0 64 -28 0
-47 -19 -63 -80 -66 -86 -4 -160 31 -160 76 0 14 8 18 40 18 38 0 40 -2 40
-29z m-20 -166 c0 -22 -9 -59 -20 -83 l-20 -43 43 -39 c23 -22 48 -40 55 -40
12 0 72 85 72 103 0 6 -18 29 -40 53 -22 24 -40 47 -40 51 1 14 48 63 61 63
21 0 159 -81 154 -90 -6 -10 12 -170 21 -195 6 -14 -18 -16 -204 -15 -148 1
-214 5 -220 13 -21 26 -32 97 -26 166 6 64 9 71 29 71 12 0 25 3 29 8 4 4 26
14 49 23 49 20 57 13 57 -46z"/>
<path d="M3600 5940 c-20 -5 -25 -13 -28 -45 -3 -47 -19 -101 -39 -131 -13
-20 -11 -23 23 -43 42 -25 66 -24 70 2 1 10 10 27 18 36 20 22 20 32 -1 76
-14 29 -15 40 -5 55 25 41 9 62 -38 50z"/>
<path d="M657 6354 c-4 -4 -4 -17 -1 -29 5 -20 1 -23 -48 -28 -29 -4 -86 -7
-126 -7 -60 0 -74 -3 -78 -17 -3 -10 -11 -29 -17 -42 -9 -19 -9 -25 1 -28 6
-3 12 -15 12 -28 0 -54 1 -55 140 -48 l128 6 4 -24 c3 -21 9 -24 50 -27 25 -2
61 1 80 6 27 7 32 13 30 31 l-4 23 159 -6 c87 -4 295 -7 463 -9 300 -2 305 -2
302 18 -1 11 -5 49 -8 85 l-6 65 -454 -3 -454 -4 0 30 c0 28 -2 30 -52 36 -68
8 -113 8 -121 0z m123 -34 c12 -8 12 -10 -3 -16 -21 -8 -23 -34 -2 -34 17 0
20 -26 5 -35 -7 -5 -8 -11 -1 -18 5 -7 9 -33 9 -60 l0 -47 -39 0 c-35 0 -39 2
-41 28 -1 15 -3 41 -6 57 -2 17 -5 54 -7 83 l-3 52 36 0 c21 0 44 -4 52 -10z
m909 -59 c7 -5 16 -31 18 -57 l5 -49 -428 3 c-236 1 -435 4 -441 7 -7 2 -13
13 -13 23 0 28 27 30 458 38 210 4 382 11 382 16 0 4 -24 9 -52 10 l-53 1 45
7 c25 4 50 8 55 8 6 1 16 -2 24 -7z"/>
<path d="M6735 6305 c-366 -17 -608 -18 -622 -4 -8 8 -13 8 -17 0 -4 -6 -18
-11 -31 -11 -27 0 -45 -19 -21 -21 46 -4 41 21 50 -281 l5 -177 -26 -13 c-33
-16 -31 -34 3 -31 13 1 24 -2 24 -8 0 -5 7 -9 15 -9 8 0 15 6 15 14 0 12 70
14 478 14 492 -1 571 4 613 40 30 26 23 38 -35 62 l-54 23 -7 127 c-3 69 -6
151 -5 181 2 75 2 79 -14 79 -24 0 -27 -30 -20 -204 l7 -169 -32 6 c-28 6
-153 51 -370 135 l-75 29 86 46 c135 74 279 139 312 140 24 2 32 7 34 25 3 16
-1 22 -15 21 -10 -1 -144 -8 -298 -14z m125 -52 c-30 -14 -107 -54 -171 -89
l-116 -64 -144 49 c-79 26 -167 60 -196 75 -29 14 -60 26 -69 26 -10 0 -15 2
-13 5 3 2 133 8 290 11 156 4 286 8 288 10 2 2 45 4 95 3 l91 -1 -55 -25z
m-615 -67 c61 -24 149 -56 198 -72 48 -15 87 -31 87 -35 0 -3 -75 -52 -167
-107 -93 -56 -180 -109 -195 -119 -15 -9 -29 -15 -31 -13 -7 8 -15 390 -8 390
4 0 56 -20 116 -44z m593 -216 c132 -49 244 -90 250 -90 5 0 12 -13 16 -30 6
-35 36 -42 36 -9 0 15 4 19 16 15 9 -3 22 -6 30 -6 25 0 15 -18 -18 -31 -25
-9 -160 -13 -523 -14 -455 -2 -488 -1 -467 14 82 56 390 240 404 240 9 1 125
-39 256 -89z"/>
<path d="M4527 6123 c6 -340 14 -493 28 -493 23 0 26 33 15 189 -5 83 -7 198
-3 254 8 132 -2 217 -25 217 -15 0 -17 -16 -15 -167z"/>
<path d="M7330 6283 c-4 -64 -9 -205 -11 -313 l-2 -135 49 -3 c27 -2 118 -1
202 3 125 6 152 10 152 22 0 13 -22 14 -165 8 -102 -5 -165 -4 -165 2 0 5 12
20 26 34 14 13 47 51 72 84 51 67 221 245 234 245 4 0 8 -81 8 -181 0 -166 1
-180 18 -177 14 3 17 14 16 73 0 39 -2 130 -2 203 -2 110 -5 132 -17 132 -8 0
-15 -7 -15 -16 0 -12 -3 -14 -12 -6 -7 5 -85 13 -173 17 -88 3 -172 8 -187 11
-16 3 -28 2 -28 -3z m244 -40 l107 -6 -69 -71 c-38 -39 -106 -117 -151 -173
-45 -57 -87 -103 -94 -103 -9 0 -11 45 -9 180 l3 180 53 0 c29 0 101 -3 160
-7z"/>
<path d="M7823 6283 c-15 -5 -18 -33 -4 -33 5 0 12 -75 15 -167 4 -93 8 -193
9 -223 l3 -55 197 -3 c171 -2 197 0 197 13 0 12 -13 15 -57 15 -90 0 -253 12
-253 19 0 3 25 35 56 71 81 94 173 215 210 277 l32 54 7 -63 c4 -35 12 -132
18 -217 12 -159 24 -191 49 -136 9 21 9 31 0 46 -7 10 -12 33 -12 51 0 18 -5
98 -12 177 -10 124 -14 145 -30 149 -10 2 -18 11 -18 18 0 17 -26 18 -33 2 -3
-10 -42 -12 -168 -7 -90 3 -171 8 -179 11 -8 4 -21 4 -27 1z m325 -49 c12 -4
22 -10 22 -15 0 -14 -213 -287 -287 -369 -12 -13 -13 -11 -5 11 6 15 7 58 2
110 -5 46 -11 126 -13 177 l-4 92 131 0 c72 0 141 -3 154 -6z"/>
<path d="M5843 6273 c-7 -2 -13 -13 -13 -23 0 -21 148 -190 166 -190 25 0 34
27 27 92 l-6 65 -62 31 c-59 31 -85 36 -112 25z"/>
<path d="M8329 6248 c-8 -14 -10 -57 -7 -127 5 -106 12 -141 29 -141 4 0 30
33 56 73 26 39 55 72 63 72 8 0 16 10 18 23 2 12 -2 22 -9 22 -7 0 -38 23 -70
50 -32 28 -60 50 -63 50 -3 0 -11 -10 -17 -22z"/>
<path d="M1276 6082 c-3 -5 -6 -83 -6 -173 -1 -164 -1 -164 21 -161 27 3 144
80 182 120 l28 29 -43 26 c-44 26 -110 91 -143 140 -18 28 -30 33 -39 19z
m153 -183 l24 -15 -69 -57 c-37 -31 -72 -57 -76 -57 -9 0 -10 113 -2 185 l6
50 47 -45 c25 -25 57 -53 70 -61z"/>
<path d="M8587 6083 c-4 -3 -7 -18 -7 -33 0 -14 -9 -54 -21 -89 -22 -63 -18
-91 6 -57 19 26 35 11 35 -32 0 -20 9 -116 20 -212 23 -214 36 -372 50 -640 6
-112 16 -227 21 -254 5 -27 7 -51 6 -53 -2 -2 -26 2 -54 8 -50 12 -231 4 -218
-9 4 -4 57 -7 118 -7 62 0 127 -4 146 -9 l34 -9 -6 34 c-14 83 -27 229 -37
424 -6 116 -22 320 -35 455 -13 135 -26 265 -29 288 -4 42 -2 45 28 57 38 16
58 37 48 51 -17 25 -100 93 -105 87z"/>
<path d="M899 6054 c-5 -6 -7 -13 -4 -16 5 -5 18 -209 18 -276 l-1 -44 47 7
c25 4 50 11 56 16 5 5 10 31 11 57 1 26 5 97 9 157 l8 110 -68 0 c-36 0 -71
-5 -76 -11z"/>
<path d="M1050 6055 c0 -8 5 -17 10 -20 6 -3 10 -34 10 -68 0 -34 5 -99 11
-144 l12 -81 69 2 c37 1 73 7 78 12 7 7 4 32 -9 75 -10 35 -22 98 -25 139 -4
41 -11 79 -16 84 -6 6 -39 11 -75 12 -49 2 -65 -1 -65 -11z m126 -125 c6 -52
16 -107 22 -122 l11 -28 -44 2 -44 2 -5 61 c-3 33 -7 88 -9 123 l-3 63 30 -3
31 -3 11 -95z"/>
<path d="M1568 6053 c-10 -2 -18 -10 -19 -16 -3 -70 4 -274 9 -279 8 -8 179 6
189 15 3 4 1 12 -5 19 -6 8 -12 69 -14 138 l-3 125 -70 2 c-38 0 -78 -1 -87
-4z m121 -37 c14 -17 11 -217 -4 -228 -5 -4 -32 -8 -59 -8 -40 0 -47 3 -42 16
3 9 6 65 6 125 l0 109 44 0 c25 0 48 -6 55 -14z"/>
<path d="M480 6009 c-50 -20 -93 -79 -57 -79 7 0 18 -22 24 -50 18 -74 50
-140 67 -140 10 0 16 9 16 24 0 13 7 26 15 30 8 3 22 21 31 40 10 19 24 37 33
39 9 3 23 8 32 11 12 5 18 0 23 -19 11 -43 37 -27 55 35 l17 55 15 -45 c16
-52 30 -56 42 -14 18 59 32 79 60 82 16 2 27 9 24 15 -7 22 -44 18 -73 -6
l-29 -25 -18 30 c-23 39 -39 32 -53 -23 -10 -40 -12 -42 -22 -23 -30 55 -113
52 -135 -5 -7 -18 -20 -31 -34 -34 -27 -5 -30 5 -7 24 22 18 46 68 39 79 -8
12 -32 12 -65 -1z"/>
<path d="M5830 5860 c-77 -14 -140 -68 -140 -119 1 -14 30 -141 66 -281 89
-351 88 -311 18 -377 -94 -89 -414 -236 -626 -287 -88 -22 -492 -96 -521 -96
-4 0 -3 9 3 19 20 38 9 35 -30 -8 -22 -24 -40 -45 -40 -46 0 -6 101 -35 122
-34 14 0 1 9 -36 23 l-58 22 193 33 c241 40 439 84 538 118 114 39 368 165
439 217 36 27 69 61 79 81 16 33 15 38 -9 122 -51 175 -121 489 -115 515 4 14
25 38 48 54 38 26 50 29 117 28 41 -1 68 2 61 6 -24 13 -73 17 -109 10z"/>
<path d="M8199 5655 c-37 -25 -117 -70 -178 -101 -62 -31 -115 -63 -118 -71
-8 -20 19 -37 32 -20 6 7 51 33 100 59 50 25 117 62 150 82 33 20 65 36 72 36
15 0 44 40 37 52 -9 15 -28 7 -95 -37z"/>
<path d="M7116 5680 c-27 -5 -77 -23 -112 -40 -73 -36 -113 -88 -144 -188 -64
-208 32 -349 262 -383 175 -26 342 38 406 155 27 49 23 168 -8 231 -32 66 -99
131 -168 163 -51 24 -68 27 -167 26 -63 0 -97 3 -80 7 17 3 65 7 108 8 58 1
78 4 75 14 -5 15 -102 19 -172 7z m188 -84 c103 -31 174 -107 202 -216 13 -51
14 -70 4 -111 -23 -95 -80 -137 -225 -165 -162 -32 -318 12 -372 103 -38 65
-44 184 -14 263 33 86 69 122 127 131 89 12 229 9 278 -5z"/>
<path d="M7036 5527 c-13 -10 -14 -25 -5 -112 13 -130 41 -257 57 -263 13 -4
33 16 146 142 38 43 80 83 93 89 51 23 22 43 -127 87 -41 12 -91 32 -111 45
-30 19 -40 22 -53 12z m149 -77 c55 -18 104 -35 109 -37 4 -3 -16 -29 -45 -57
-30 -28 -74 -75 -98 -104 -24 -29 -45 -51 -47 -49 -7 7 -31 146 -39 221 -5 55
-4 67 7 63 7 -3 58 -20 113 -37z"/>
<path d="M6115 5670 c-3 -5 8 -30 24 -54 44 -63 141 -267 141 -294 0 -83 -108
-386 -140 -395 -11 -3 -20 -12 -20 -20 0 -19 38 -29 62 -16 10 6 46 9 78 7 33
-1 63 2 68 7 11 12 27 55 117 297 69 187 77 223 48 214 -13 -4 -27 7 -48 36
-40 57 -113 183 -117 205 -3 15 -17 18 -105 21 -61 1 -104 -2 -108 -8z m123
-20 l47 0 54 -96 c30 -53 64 -108 75 -123 54 -67 55 -61 -24 -272 -39 -107
-76 -199 -82 -206 -10 -13 -95 -29 -104 -20 -3 3 11 49 31 104 21 54 47 137
59 185 12 47 28 93 34 101 10 11 7 20 -14 43 -14 16 -45 72 -68 125 -24 53
-53 110 -64 127 -26 36 -28 46 -6 38 9 -3 37 -6 62 -6z"/>
<path d="M7799 5630 c-30 -21 -61 -38 -69 -37 -8 1 -48 -2 -88 -6 -70 -8 -74
-10 -67 -30 4 -12 9 -106 12 -209 4 -154 8 -188 20 -188 26 0 108 23 114 32 3
5 17 -9 31 -30 30 -44 75 -67 114 -58 21 6 25 11 20 29 -12 42 -26 263 -25
395 1 73 -1 135 -3 137 -2 2 -29 -13 -59 -35z m34 -372 c3 -71 2 -128 -3 -128
-4 0 -20 15 -34 33 -14 17 -32 40 -40 49 -11 13 -15 54 -17 182 -1 91 -1 168
2 170 2 2 20 13 39 25 l35 21 7 -113 c3 -61 8 -169 11 -239z m-145 290 c5 -7
13 -82 17 -166 8 -153 8 -153 -16 -170 -58 -42 -56 -46 -64 141 -3 95 -9 180
-11 190 -4 14 1 17 29 17 19 0 39 -6 45 -12z"/>
<path d="M680 5635 l0 -25 -104 0 c-71 0 -106 4 -108 12 -3 7 -12 9 -22 5 -15
-6 -17 -13 -11 -40 12 -53 11 -935 -1 -1000 -9 -49 -9 -60 3 -64 8 -3 18 -1
22 5 9 15 125 34 165 27 23 -5 36 -14 39 -27 3 -11 11 -18 17 -16 8 2 13 57
15 168 2 91 9 284 14 430 6 146 8 311 4 367 l-6 103 34 -3 c44 -3 50 16 7 23
-27 4 -34 10 -36 33 -4 35 -32 37 -32 2z m0 -274 c0 -121 -7 -322 -16 -448 -9
-125 -14 -251 -12 -279 l4 -52 -55 -5 c-31 -3 -73 -9 -95 -13 l-38 -7 8 94 c5
52 7 282 5 512 l-3 417 101 0 101 0 0 -219z"/>
<path d="M1365 5629 c-115 -4 -265 -13 -332 -19 -67 -6 -133 -8 -147 -4 -14 3
-37 3 -51 0 -23 -6 -25 -11 -25 -57 l0 -52 108 7 c59 3 233 8 387 12 l280 5
-64 -36 c-64 -36 -66 -37 -159 -33 -63 2 -97 -1 -99 -8 -2 -6 5 -32 16 -57 19
-44 22 -46 51 -41 16 4 30 3 30 0 0 -6 -28 -66 -35 -74 -1 -1 -116 -7 -256
-12 -178 -7 -257 -14 -266 -23 -9 -9 -10 -22 -4 -47 5 -19 12 -48 15 -63 l7
-28 122 6 c67 3 170 8 230 11 l107 5 0 -35 0 -36 -219 0 c-121 0 -231 -4 -244
-9 -23 -9 -24 -12 -14 -60 l10 -51 244 0 c244 0 244 0 252 -22 l8 -23 -241 -8
c-132 -5 -244 -12 -248 -16 -5 -4 -2 -31 5 -60 l12 -54 290 6 c275 6 291 5
313 -13 l23 -19 -26 -7 c-15 -4 -53 -4 -85 -1 -31 4 -59 4 -62 2 -11 -12 12
-108 29 -121 25 -18 127 -18 164 1 25 14 28 18 18 36 -6 11 -8 28 -5 36 4 9 1
22 -5 29 -7 8 -7 14 -1 14 27 0 59 -99 39 -119 -13 -13 -14 -13 102 -11 96 2
131 13 131 41 0 13 12 16 64 18 171 5 318 88 385 218 70 137 41 324 -74 485
-19 26 -35 50 -35 53 0 3 15 5 33 6 29 1 28 2 -13 11 -32 7 -58 22 -90 54 -51
49 -80 61 -35 14 16 -16 26 -30 23 -30 -4 0 -49 21 -101 46 -81 39 -105 46
-161 47 l-65 2 -3 45 -3 45 -60 1 c-33 1 -154 -2 -270 -7z m295 -43 l0 -34
-297 -6 c-164 -3 -346 -7 -405 -9 l-108 -2 0 25 0 25 178 3 c97 2 263 9 367
16 292 20 265 22 265 -18z m280 -114 c58 -28 111 -52 116 -52 15 0 91 -105
125 -173 67 -132 75 -262 23 -377 -29 -66 -96 -135 -162 -169 -87 -44 -272
-69 -272 -37 0 8 5 18 12 22 23 14 -21 19 -119 13 -90 -6 -102 -5 -145 17 -26
13 -49 28 -52 32 -3 5 70 12 161 16 92 4 170 9 175 12 4 3 2 15 -6 26 -14 20
-11 47 7 59 5 4 6 12 2 19 -6 9 -64 11 -238 9 l-230 -4 -8 22 c-11 30 -2 32
193 35 100 2 161 7 168 14 8 8 9 28 5 57 l-7 46 -62 6 c-33 3 -119 2 -191 -4
-71 -6 -134 -6 -138 -2 -4 4 -5 20 -1 35 l7 28 86 -3 c48 -2 92 0 98 4 6 4 14
3 18 -3 3 -5 38 -10 76 -10 67 0 70 1 80 28 7 17 8 45 2 77 l-8 50 -85 0 -85
0 2 -60 c2 -43 0 -54 -6 -40 -5 11 -10 39 -10 63 l-1 42 -65 0 -65 0 23 38 24
37 94 6 c52 4 138 7 191 8 l97 1 -6 53 c-3 28 -6 53 -7 53 -1 1 -53 -3 -116
-8 -63 -5 -121 -7 -130 -5 -22 6 92 57 148 67 26 5 76 8 112 7 56 -2 79 -10
170 -55z m-210 -62 l0 -30 -99 0 c-54 0 -127 -3 -162 -6 l-64 -7 29 31 c28 30
32 31 125 35 53 1 113 4 134 5 35 2 37 0 37 -28z m-425 -187 c-3 -10 -9 -30
-12 -46 -3 -15 -9 -30 -14 -33 -13 -8 -398 -24 -415 -17 -13 5 -20 21 -26 68
-3 20 38 25 441 43 28 2 32 -1 26 -15z m351 -208 c4 -14 4 -29 0 -32 -4 -4
-83 -9 -176 -12 -179 -6 -180 -6 -180 39 0 23 21 26 207 28 l143 2 6 -25z
m-376 3 c0 -7 3 -23 6 -35 l6 -23 -226 0 c-174 0 -226 3 -226 13 0 6 -3 22 -6
35 l-6 22 226 0 c174 0 226 -3 226 -12z m467 -187 l0 -28 -96 -7 c-181 -12
-232 -8 -258 16 -13 12 -23 25 -23 29 0 9 78 14 256 17 l121 2 0 -29z m-388
-9 l20 -29 -151 -6 c-83 -4 -198 -7 -255 -7 l-103 0 0 30 0 30 168 3 c92 1
197 4 234 5 63 2 68 0 87 -26z"/>
<path d="M3364 5525 c-59 -63 -53 -145 12 -161 29 -7 29 -7 -11 -102 -18 -42
-25 -76 -23 -105 3 -40 4 -42 39 -45 30 -3 41 2 63 28 14 17 26 38 26 46 0 25
46 47 78 36 15 -5 50 -7 78 -5 33 3 63 0 88 -11 21 -9 41 -14 46 -11 4 2 29
-4 56 -15 57 -21 149 -24 210 -5 25 7 48 9 55 4 31 -20 128 0 141 28 5 13 108
42 114 32 9 -16 59 -10 120 15 45 18 70 23 107 19 37 -5 47 -3 47 9 0 27 -86
31 -148 8 -60 -23 -98 -26 -105 -7 -3 9 -11 9 -38 -2 -66 -26 -79 -25 -110 5
-37 35 -55 23 -38 -25 15 -42 -3 -64 -41 -53 -20 6 -25 13 -25 42 0 24 -5 36
-16 38 -23 4 -49 -25 -49 -54 0 -15 -6 -24 -16 -24 -8 0 -12 5 -9 10 3 6 3 19
0 30 -13 42 -125 9 -125 -37 0 -20 -44 -10 -84 19 -22 16 -33 18 -46 11 -11
-8 -22 -7 -36 0 -10 6 -55 13 -99 14 -44 2 -96 4 -114 6 -31 2 -38 -3 -64 -40
-17 -27 -36 -43 -48 -43 -23 0 -21 16 12 86 10 22 19 52 19 66 0 19 6 27 24
32 14 3 41 21 61 40 19 19 45 36 58 39 12 2 30 8 39 12 13 5 15 2 11 -14 -12
-45 48 -68 94 -36 20 14 24 13 47 -10 14 -14 32 -25 40 -25 14 0 86 61 86 74
0 10 -23 7 -52 -8 -32 -17 -48 -5 -48 36 0 36 -9 35 -45 -2 -19 -20 -39 -30
-58 -30 -27 0 -28 2 -22 31 7 31 7 32 -26 24 -19 -4 -50 -7 -69 -7 -28 0 -39
-7 -55 -32 -44 -68 -137 -86 -151 -30 -9 34 19 91 51 106 31 14 32 28 4 28
-12 0 -37 -16 -55 -35z"/>
<path d="M3986 5478 c-8 -13 -17 -33 -21 -45 -5 -19 -2 -23 14 -23 11 0 24 7
29 16 7 13 17 14 76 3 54 -10 74 -10 104 1 28 10 37 10 40 1 10 -30 52 -31
126 -6 60 21 78 23 103 14 22 -7 43 -7 72 1 53 14 55 34 3 27 -21 -2 -52 1
-69 8 -26 11 -36 10 -69 -4 -67 -30 -88 -32 -129 -11 -30 15 -46 18 -79 11
-23 -5 -68 -8 -101 -7 -51 1 -60 4 -57 19 4 25 -25 21 -42 -5z"/>
<path d="M1048 5464 c-5 -4 -8 -33 -8 -65 l0 -57 58 -4 c73 -4 144 12 137 30
-3 8 -5 29 -5 47 0 23 -5 35 -17 39 -35 10 -158 18 -165 10z"/>
<path d="M832 5433 c-19 -16 -20 -22 -10 -60 l12 -43 81 0 c45 0 84 2 86 4 2
3 3 25 1 50 -4 51 -3 50 -98 61 -40 4 -56 2 -72 -12z"/>
<path d="M3550 5097 c-32 -25 -50 -60 -38 -74 13 -16 62 -17 90 -2 15 8 26 8
44 -1 15 -8 46 -11 88 -8 l65 6 -6 -31 c-6 -28 -5 -29 23 -25 38 7 157 39 167
45 5 3 -1 12 -12 19 -18 13 -26 12 -70 -11 -62 -31 -71 -31 -68 -2 2 21 0 22
-75 19 -68 -3 -78 -1 -91 18 -14 20 -16 21 -45 6 -47 -24 -55 -21 -48 19 7 37
1 42 -24 22z"/>
<path d="M7565 5059 c-325 -35 -562 -211 -605 -448 -11 -61 -7 -141 10 -186 5
-13 -3 -40 -21 -78 -15 -33 -33 -81 -40 -107 l-12 -47 -95 -7 c-103 -7 -118
-12 -103 -30 5 -6 9 -61 9 -121 0 -61 5 -122 10 -137 12 -29 -1 -30 165 12 71
18 95 21 123 12 20 -6 36 -6 40 -1 3 5 0 34 -6 65 -7 34 -9 83 -5 125 6 60 10
69 27 69 11 0 18 5 15 13 -3 8 -25 11 -72 10 l-67 -3 6 30 c3 17 15 53 27 80
l21 50 29 -39 c65 -90 150 -113 489 -131 118 -6 267 -13 330 -17 202 -10 336
29 418 122 72 81 108 215 100 366 -7 115 -43 194 -123 268 -77 69 -144 93
-265 95 -113 1 -280 -29 -280 -50 0 -17 0 -17 112 2 125 22 255 15 325 -15 63
-28 136 -102 163 -167 50 -116 46 -271 -9 -389 -39 -84 -82 -129 -159 -167
-65 -32 -69 -33 -202 -33 -191 0 -568 23 -675 41 -104 17 -163 47 -200 102
-31 46 -31 53 1 91 17 21 24 37 19 49 -6 15 -10 13 -31 -12 -14 -15 -28 -25
-32 -21 -4 4 -7 50 -7 104 0 89 3 102 33 163 83 169 306 287 577 306 79 6 100
10 100 22 0 19 -33 21 -140 9z m-565 -978 c0 -55 2 -105 5 -113 4 -9 -23 -19
-97 -36 -173 -40 -155 -43 -163 22 -8 64 -3 191 8 203 4 4 37 9 73 11 l66 4
-3 -53 c-3 -45 -1 -54 14 -57 13 -3 17 3 17 26 0 16 3 44 6 61 6 27 10 31 40
31 l34 0 0 -99z"/>
<path d="M3409 4849 c-46 -27 -72 -71 -73 -124 -1 -52 24 -91 72 -113 20 -9
41 -23 45 -29 20 -32 119 1 174 57 40 41 51 90 32 144 -20 57 -51 75 -139 81
-65 5 -80 3 -111 -16z m159 -19 c7 0 24 -11 37 -25 37 -36 35 -113 -2 -154
-28 -29 -29 -30 -102 -22 -66 6 -77 10 -102 39 -34 38 -37 75 -10 116 28 41
56 54 115 50 28 -2 57 -3 64 -4z"/>
<path d="M3453 4799 c-59 -17 -67 -73 -15 -107 15 -9 30 -22 34 -28 6 -9 17
-9 41 -2 28 9 35 18 47 56 13 44 13 46 -14 69 -29 25 -43 26 -93 12z"/>
<path d="M3890 4851 c-141 -6 -176 -13 -165 -32 4 -5 -3 -9 -13 -9 -30 0 -33
-23 -9 -71 12 -24 22 -63 22 -86 0 -25 5 -45 13 -48 20 -7 14 -35 -8 -35 -11
0 -20 -4 -20 -9 0 -13 94 -18 180 -8 54 5 82 4 98 -5 16 -8 25 -9 30 -1 6 9
111 18 347 28 67 3 63 -5 45 95 -5 30 -10 78 -10 105 0 82 4 80 -192 81 -95 0
-238 -2 -318 -5z m460 -31 c10 -6 17 -38 22 -112 3 -57 6 -103 5 -104 -1 -1
-63 -4 -138 -7 l-136 -5 -11 32 c-15 40 -15 73 -2 81 14 8 13 45 -1 45 -8 0
-7 5 2 16 11 14 11 18 -4 29 -9 7 -17 15 -17 18 0 4 48 8 108 10 59 1 118 4
132 5 14 1 32 -3 40 -8z"/>
<path d="M7301 4819 c-13 -12 -37 -43 -53 -68 -21 -32 -28 -38 -24 -21 15 62
18 100 8 100 -16 0 -27 -25 -47 -104 -28 -115 6 -114 95 3 30 39 56 71 58 71
3 0 2 -16 -1 -36 -12 -73 20 -85 82 -29 32 29 41 33 48 21 10 -19 86 -37 104
-25 11 8 10 12 -5 24 -11 8 -30 15 -42 15 -12 0 -27 7 -34 15 -19 23 -49 18
-80 -15 -36 -39 -42 -38 -34 5 11 61 -30 85 -75 44z"/>
<path d="M6558 4825 c-2 -2 -88 -6 -193 -9 -104 -3 -194 -6 -200 -6 -5 0 -19
-7 -29 -15 -14 -10 -16 -18 -9 -27 6 -7 13 -47 16 -88 4 -41 14 -100 23 -130
11 -37 15 -75 11 -117 l-5 -63 33 0 c18 0 99 7 181 15 82 8 192 17 244 19 52
3 105 8 118 12 26 8 30 45 6 65 -14 12 -16 33 -11 159 3 80 8 154 12 165 6 19
1 20 -94 22 -55 0 -101 0 -103 -2z m72 -71 c-18 -22 -53 -61 -77 -88 l-44 -50
-165 83 c-90 45 -164 83 -164 84 0 1 109 4 242 6 l242 3 -34 -38z m85 19 c-4
-10 -9 -71 -12 -135 -3 -65 -8 -118 -11 -118 -2 0 -38 18 -79 41 -67 37 -73
43 -61 59 88 118 186 210 163 153z m-366 -116 l134 -70 -44 -39 c-24 -21 -71
-56 -104 -78 -33 -21 -68 -46 -77 -54 -26 -23 -38 -20 -38 12 0 15 -9 74 -20
132 -11 58 -20 122 -20 142 0 45 -10 48 169 -45z m356 -187 c8 -7 15 -16 15
-20 0 -4 -71 -12 -157 -19 -87 -6 -183 -14 -213 -17 l-55 -6 65 46 c36 25 85
63 109 84 l44 38 89 -47 c49 -26 96 -53 103 -59z"/>
<path d="M1108 4685 c-3 -3 -72 -8 -154 -10 -115 -3 -148 -7 -145 -17 2 -7 6
-25 9 -41 l4 -27 227 2 226 3 1 41 2 41 -52 7 c-63 7 -111 8 -118 1z m95 -21
c31 -6 37 -11 37 -31 l0 -23 -192 2 c-169 3 -193 5 -196 19 -3 14 15 18 120
26 165 13 187 14 231 7z"/>
<path d="M7185 4598 c-20 -57 -45 -170 -45 -201 0 -63 23 -59 104 22 39 39 74
71 76 71 3 0 5 -24 5 -52 0 -46 3 -53 20 -56 13 -2 33 11 55 33 38 40 60 45
60 14 0 -35 19 -59 47 -59 30 0 93 39 93 58 0 18 -24 15 -52 -8 -29 -23 -48
-11 -48 30 0 59 -46 66 -97 15 -20 -20 -38 -33 -41 -30 -3 3 -5 28 -3 55 2 46
1 50 -19 50 -14 0 -51 -28 -97 -72 -83 -81 -81 -84 -41 55 10 37 16 72 13 77
-9 14 -25 12 -30 -2z"/>
<path d="M7724 4580 c-53 -21 -84 -111 -49 -140 24 -20 38 0 25 34 -11 31 1
66 25 66 50 0 57 -31 24 -105 -11 -25 -18 -49 -15 -52 13 -14 38 11 60 59 13
29 33 62 45 72 21 19 21 19 21 -7 0 -14 -4 -37 -10 -51 -8 -22 -7 -26 9 -26
10 0 32 7 49 16 20 10 63 16 119 17 71 2 88 5 88 17 0 9 -10 15 -25 16 -14 0
-31 3 -38 7 -6 5 -20 3 -31 -3 -11 -5 -33 -10 -50 -10 -16 0 -41 -4 -54 -9
-24 -9 -24 -9 -19 35 5 52 -10 64 -54 41 -27 -14 -30 -13 -51 9 -23 25 -35 28
-69 14z"/>
<path d="M1709 4546 c-3 -3 -203 -10 -444 -17 -242 -6 -444 -16 -449 -20 -5
-5 -7 -12 -3 -15 8 -8 865 14 910 22 15 3 26 11 24 17 -4 13 -30 21 -38 13z"/>
<path d="M4446 4508 l-27 -33 -230 0 -230 0 6 -32 c4 -20 2 -33 -5 -33 -15 0
-12 -28 4 -37 8 -5 15 -32 18 -70 4 -62 4 -63 -38 -104 l-42 -41 -7 107 c-4
59 -5 128 -2 154 3 26 3 52 -1 57 -5 6 -70 7 -182 2 -150 -7 -175 -6 -183 7
-7 13 -12 12 -37 -7 -29 -21 -29 -22 -11 -39 22 -21 26 -55 42 -369 6 -124 16
-229 20 -234 26 -28 28 19 15 249 -8 132 -13 241 -12 242 1 2 36 -57 78 -130
l75 -132 -22 -65 c-40 -117 -76 -198 -91 -204 -8 -3 -14 -12 -14 -19 0 -8 -9
-25 -21 -38 l-21 -24 34 -3 c29 -3 122 10 170 24 13 4 19 -2 24 -23 18 -82 37
-134 68 -185 24 -41 29 -54 15 -45 -13 8 -22 8 -29 1 -13 -13 55 -67 167 -133
40 -23 77 -49 84 -57 12 -15 59 -20 59 -5 0 4 30 0 68 -11 72 -21 284 -30 354
-15 l38 8 25 -56 c14 -31 54 -102 90 -156 36 -55 65 -110 65 -122 0 -13 5 -28
12 -35 6 -6 10 -14 7 -16 -7 -8 -93 63 -103 85 -5 10 -15 19 -23 19 -25 0 4
-36 65 -84 32 -24 66 -55 74 -68 20 -30 32 -19 18 17 -9 23 -8 26 5 21 21 -8
19 11 -5 44 -11 15 -23 53 -26 84 -7 57 -19 64 -26 16 -3 -21 -11 -13 -56 58
-68 107 -107 191 -90 197 7 2 38 11 68 20 150 47 296 159 345 267 93 203 32
443 -163 635 -76 76 -175 127 -289 151 -52 10 -83 21 -83 29 0 7 8 13 17 13
15 0 15 2 -2 14 -16 12 -17 16 -6 30 12 14 11 19 -2 34 -10 11 -13 27 -10 45
7 36 -8 34 -41 -5z m-596 -69 c0 -5 -31 -82 -69 -169 l-68 -159 -83 145 c-45
79 -84 153 -87 164 -4 17 1 19 53 23 138 8 254 7 254 -4z m574 -14 c-4 -11
-21 -15 -58 -15 -64 0 -150 -22 -222 -56 l-55 -26 -38 34 c-22 18 -40 41 -40
50 -1 16 16 18 182 21 100 1 194 3 209 5 21 1 26 -2 22 -13z m-19 -45 c-3 -5
-22 -10 -41 -10 -19 0 -34 -4 -34 -10 0 -5 14 -10 30 -10 l30 0 -21 -42 c-18
-36 -103 -174 -115 -187 -7 -8 -144 173 -144 191 0 10 51 36 114 59 55 19 192
26 181 9z m-579 -336 l-44 -76 -21 47 c-12 26 -21 54 -21 62 0 14 46 129 91
228 l23 50 8 -118 8 -118 -44 -75z m624 184 c1 -68 5 -143 11 -168 6 -25 10
-55 10 -68 -1 -17 4 -22 17 -20 13 3 17 12 15 38 -1 19 -5 101 -9 183 l-7 147
28 0 c41 0 143 -29 205 -57 36 -17 83 -54 136 -108 267 -269 253 -632 -31
-800 -51 -30 -196 -85 -225 -85 -4 0 -14 32 -21 70 -7 39 -16 70 -21 70 -9 0
-2 -68 12 -113 13 -39 1 -42 -180 -41 -142 0 -162 2 -238 28 -201 66 -366 245
-375 405 -2 30 1 36 21 39 18 3 22 -1 22 -22 0 -19 5 -26 19 -26 25 0 37 18
22 33 -15 15 -14 27 3 21 8 -3 16 -15 19 -26 3 -11 12 -18 19 -16 10 4 13 51
13 221 l0 216 38 38 c36 37 37 37 37 13 0 -14 5 -65 10 -115 5 -49 10 -128 11
-175 1 -47 4 -102 7 -123 4 -34 7 -38 30 -35 22 2 34 17 68 85 45 90 122 213
133 213 4 0 43 -42 87 -94 82 -99 100 -114 118 -96 7 7 -5 26 -40 63 -28 28
-71 78 -97 109 l-47 57 55 86 c31 47 65 106 77 130 38 77 48 60 48 -77z m-332
-5 c28 -38 64 -84 81 -104 l30 -35 -30 -45 c-17 -24 -56 -87 -87 -139 l-57
-95 -3 45 c-1 25 -9 126 -17 224 l-14 179 22 18 c12 10 23 18 23 19 1 0 24
-30 52 -67z m-238 -289 c0 -144 0 -145 -22 -142 -19 2 -26 16 -43 81 l-20 78
34 64 c18 36 37 65 42 65 5 0 9 -66 9 -146z m-133 21 c13 -33 17 -60 12 -80
-3 -16 -7 -47 -8 -67 -1 -32 -5 -38 -28 -44 -16 -3 -44 -10 -63 -15 -69 -18
-70 -15 -24 76 24 46 51 109 60 140 10 30 21 52 25 48 4 -5 16 -30 26 -58z"/>
<path d="M3272 4365 c-58 -61 -188 -156 -232 -170 -26 -8 -26 -25 -1 -25 11 0
57 9 102 20 46 11 84 18 86 17 6 -6 -41 -145 -64 -191 -35 -69 -123 -158 -193
-195 -33 -18 -60 -36 -60 -42 0 -14 7 -12 69 21 131 70 214 174 260 325 12 39
24 78 27 88 4 14 -1 17 -28 17 -18 0 -49 -4 -67 -10 -19 -5 -36 -8 -38 -7 -2
2 19 18 45 35 27 17 71 54 100 82 28 27 53 50 56 50 3 0 6 -17 6 -37 1 -21 9
-63 20 -93 10 -30 17 -56 15 -58 -2 -2 -13 2 -25 8 -35 19 -47 6 -52 -57 -5
-80 -51 -172 -127 -258 -34 -38 -66 -78 -72 -87 -13 -24 7 -33 25 -11 8 10 45
54 82 98 79 94 124 182 124 243 0 47 2 48 55 26 53 -22 60 -8 31 57 -24 52
-39 105 -51 182 -3 20 -11 37 -18 37 -7 0 -40 -30 -75 -65z"/>
<path d="M595 4410 l-140 -5 -5 -173 c-4 -132 -2 -176 8 -184 8 -7 16 -7 27 2
9 7 28 10 53 5 44 -7 212 12 226 26 12 11 -7 11 -104 -1 -41 -6 -96 -7 -122
-4 l-48 7 0 148 c0 82 3 149 8 149 4 1 66 1 137 2 l130 1 9 -149 c4 -82 10
-151 12 -153 10 -11 35 25 30 43 -3 12 -6 83 -7 159 l-3 137 -35 -2 c-20 -1
-99 -5 -176 -8z"/>
<path d="M865 4414 c-6 -3 -10 -72 -10 -182 0 -171 1 -177 20 -174 61 8 278
16 282 10 2 -5 10 -8 18 -8 11 0 14 28 13 148 -1 81 1 156 3 167 4 19 -3 20
-147 26 -83 3 -155 8 -160 11 -5 3 -13 4 -19 2z m232 -44 l53 0 0 -125 c0
-108 -2 -125 -17 -133 -10 -5 -61 -12 -113 -15 -52 -3 -103 -8 -112 -12 -17
-7 -18 4 -18 145 l0 153 77 -7 c42 -3 100 -6 130 -6z"/>
<path d="M1696 4413 c-4 -5 -107 -10 -229 -13 l-222 -5 4 -151 c2 -133 1 -152
-14 -158 -9 -3 -14 -10 -10 -15 7 -13 147 -5 285 16 58 8 128 12 155 9 l50 -6
0 83 c0 45 4 119 9 165 7 69 6 82 -6 82 -8 0 -18 -3 -22 -7z m-10 -110 c-9
-122 -17 -174 -25 -169 -4 3 -70 -4 -147 -14 -76 -11 -158 -20 -181 -20 l-43
0 0 94 c0 51 -3 114 -6 139 l-7 47 189 3 c104 1 197 3 208 5 17 2 18 -4 12
-85z"/>
<path d="M6451 4314 c-90 -13 -170 -29 -177 -35 -20 -17 -17 -43 9 -67 30 -28
65 -40 142 -48 85 -9 137 11 197 74 59 62 73 88 52 96 -22 9 -39 7 -223 -20z
m179 -14 c0 -16 -61 -80 -91 -96 -32 -16 -118 -18 -170 -4 -38 11 -77 45 -65
57 4 4 75 17 159 29 84 12 155 22 160 23 4 0 7 -3 7 -9z"/>
<path d="M8400 4324 c-63 -8 -118 -18 -123 -23 -14 -14 3 -191 18 -191 7 0 16
7 19 16 5 13 27 15 148 13 104 -1 143 1 146 10 2 7 -5 15 -17 18 -26 7 -36 54
-27 124 8 58 21 55 -164 33z m127 -88 l1 -63 -101 -6 c-56 -3 -105 -3 -109 -1
-5 3 -8 29 -8 59 l0 54 58 6 c31 4 62 8 67 10 6 2 28 4 50 4 l41 1 1 -64z"/>
<path d="M5973 4318 c-5 -7 -24 -38 -42 -70 -17 -31 -51 -82 -76 -113 -59 -76
-45 -104 42 -84 64 15 64 14 57 -41 -4 -34 -3 -50 4 -50 19 0 32 36 32 86 l0
47 -37 -7 c-21 -3 -48 -9 -60 -12 -32 -9 -31 25 1 63 13 16 40 57 61 91 l36
62 70 -87 69 -88 -35 -6 c-19 -3 -38 -8 -41 -12 -10 -10 -8 -137 3 -148 21
-21 34 1 27 47 -3 24 -3 55 0 69 6 22 11 25 56 25 59 0 68 10 32 37 -15 11
-59 61 -97 112 -70 91 -84 102 -102 79z"/>
<path d="M1727 4060 c-26 -17 -45 -35 -41 -41 3 -6 12 -8 20 -5 9 3 16 -4 20
-22 23 -109 46 -162 91 -212 51 -57 153 -129 253 -180 88 -45 222 -100 231
-94 6 4 49 80 49 88 0 2 -20 11 -45 21 -68 25 -334 205 -383 258 -45 50 -75
106 -92 175 -13 52 -34 55 -103 12z m78 -57 c20 -67 60 -127 122 -183 76 -67
210 -158 301 -204 73 -37 78 -41 64 -63 -17 -26 -330 138 -420 221 -45 41 -91
122 -92 161 -1 11 -7 38 -15 59 -8 22 -11 44 -9 48 13 20 38 0 49 -39z"/>
<path d="M8205 4049 c-392 -6 -704 -21 -762 -35 -29 -8 -63 -63 -63 -103 0
-42 38 -81 80 -81 26 0 30 4 30 26 0 15 14 50 30 79 26 45 35 53 65 57 19 2
35 2 35 0 0 -3 -9 -19 -19 -36 -11 -17 -25 -50 -32 -73 -11 -38 -16 -43 -41
-43 -36 0 -37 -19 0 -22 32 -1 33 -1 137 9 44 4 207 8 363 9 155 1 285 4 289
8 3 3 74 6 156 6 172 0 201 9 235 69 31 55 29 88 -8 109 -16 9 -30 20 -30 25
0 4 -8 6 -17 5 -10 -1 -211 -5 -448 -9z m275 -42 c20 -10 25 -20 25 -51 0 -41
-2 -43 -67 -71 -29 -13 -62 -16 -153 -13 -108 3 -118 5 -135 26 -28 34 -4 82
51 106 40 17 248 19 279 3z"/>
<path d="M6453 3957 c-4 -7 -8 -50 -8 -97 l0 -85 -55 -5 c-79 -7 -63 -25 23
-25 l72 0 -3 83 c-2 45 1 82 5 82 19 0 86 -66 124 -122 50 -72 47 -92 -17
-144 -25 -21 -57 -54 -70 -73 l-23 -34 -11 27 c-5 15 -10 42 -10 61 0 19 -3
36 -7 38 -16 10 -123 -15 -123 -28 0 -20 20 -29 33 -16 19 19 57 13 57 -8 0
-30 42 -121 56 -121 7 0 30 21 50 48 21 26 64 75 96 109 32 34 58 66 58 72 0
16 -89 144 -118 169 -55 47 -121 82 -129 69z"/>
<path d="M952 3932 c-22 -22 -38 -83 -27 -101 10 -18 78 -12 113 9 55 34 36
92 -35 106 -23 5 -36 1 -51 -14z"/>
<path d="M5935 3920 c-39 -12 -91 -62 -117 -113 -24 -47 -26 -113 -4 -155 17
-33 83 -92 103 -92 26 0 21 19 -12 41 -127 86 -75 278 80 299 22 3 40 10 40
15 0 13 -52 16 -90 5z"/>
<path d="M6062 3898 c2 -6 30 -17 61 -23 64 -13 98 -39 130 -100 29 -57 28
-117 -2 -149 -19 -20 -22 -29 -13 -38 25 -25 72 46 72 109 0 76 -67 177 -133
202 -39 15 -120 14 -115 -1z"/>
<path d="M733 3888 c-53 -67 12 -142 102 -117 38 11 71 50 62 73 -16 40 -141
73 -164 44z"/>
<path d="M5619 3817 c-30 -34 -78 -86 -106 -115 -35 -34 -53 -61 -53 -77 0
-28 120 -168 184 -215 58 -43 64 -29 38 82 -28 115 -28 122 -1 115 25 -7 69 8
69 23 0 6 -10 8 -25 4 -13 -3 -38 -2 -53 4 -52 18 -59 4 -40 -85 9 -43 19 -87
23 -98 8 -22 -104 83 -136 127 -18 25 -18 30 -5 60 8 18 40 64 72 103 51 59
59 66 62 47 2 -12 -4 -36 -12 -54 -9 -17 -16 -33 -16 -35 0 -1 25 -3 55 -3 42
0 55 3 55 15 0 10 -10 15 -31 15 -26 0 -30 3 -24 18 12 31 18 119 8 125 -6 4
-35 -21 -64 -56z"/>
<path d="M8685 3813 c-22 -2 -107 -10 -190 -18 -82 -8 -182 -15 -222 -15 -47
0 -75 -4 -80 -12 -12 -20 -15 -105 -4 -112 13 -8 179 7 384 36 134 18 161 19
182 8 22 -12 27 -11 39 6 10 13 11 21 4 25 -10 6 -9 22 3 69 4 16 -36 21 -116
13z m73 -45 c-4 -28 -15 -31 -238 -57 -331 -40 -321 -41 -300 13 9 24 15 26
65 26 30 0 121 7 202 15 146 14 206 20 251 23 19 2 23 -2 20 -20z"/>
<path d="M6009 3763 c-48 -30 -53 -47 -50 -200 l2 -141 -47 -44 -47 -43 7 -95
c19 -273 20 -279 41 -294 11 -9 23 -16 27 -16 23 -1 38 -36 38 -88 0 -31 4
-74 9 -95 5 -21 5 -39 0 -43 -5 -3 -9 2 -9 10 0 9 -4 16 -10 16 -17 0 -30 -38
-30 -87 0 -27 -5 -54 -12 -61 -6 -6 -9 -14 -6 -17 3 -3 61 0 129 6 73 6 185 8
272 4 102 -4 147 -3 148 4 0 6 1 39 2 73 1 62 0 62 -28 63 l-29 0 3 65 c2 56
7 72 39 118 36 54 37 54 43 190 3 75 2 151 -3 169 -9 34 -40 58 -62 50 -8 -3
-21 14 -33 43 -25 59 -56 72 -109 47 l-33 -16 -7 37 c-12 67 -20 75 -73 69
l-46 -6 4 77 c5 99 -13 175 -46 202 -31 24 -49 25 -84 3z m67 -44 c17 -19 19
-38 19 -168 0 -80 4 -152 8 -159 15 -22 32 -7 32 29 0 32 2 34 35 34 33 0 35
-2 43 -45 13 -73 14 -75 28 -72 7 2 25 12 40 23 52 37 83 19 99 -56 5 -27 10
-30 45 -30 34 0 39 -3 46 -30 5 -16 6 -38 4 -50 -3 -11 -9 -73 -14 -138 -9
-109 -13 -121 -43 -165 -27 -38 -34 -60 -38 -112 l-5 -65 -165 -6 c-91 -3
-168 -3 -172 1 -4 3 -12 48 -18 100 l-9 95 -46 40 -46 40 2 65 c1 36 -4 106
-11 157 -15 105 -10 134 25 157 l25 16 0 -37 c0 -52 10 -83 25 -83 10 0 12 45
8 223 l-6 224 24 16 c31 22 42 21 65 -4z m359 -1076 l-3 -46 -74 4 c-89 5
-313 0 -350 -7 -27 -5 -28 -4 -28 40 0 47 7 55 28 34 8 -8 15 -8 24 0 15 12
85 17 279 20 l127 2 -3 -47z"/>
<path d="M8065 3770 c-32 -6 -312 -30 -495 -43 -33 -2 -35 -4 -41 -47 -4 -25
-4 -49 -2 -53 5 -8 47 -6 323 13 74 6 168 12 209 14 77 5 115 22 73 32 -29 8
-30 49 -1 65 17 9 19 13 8 20 -16 10 -19 10 -74 -1z m11 -36 c-3 -9 -6 -24 -6
-35 0 -16 -7 -19 -52 -19 -29 0 -102 -4 -163 -9 -266 -23 -295 -23 -295 -4 0
10 4 23 8 29 4 7 94 18 232 29 124 9 227 19 229 21 2 2 15 4 29 4 18 0 23 -4
18 -16z"/>
<path d="M2788 3753 c-30 -8 -20 -25 10 -18 37 8 78 -24 103 -79 25 -55 24
-60 -14 -81 -31 -16 -37 -17 -89 -1 -45 13 -58 21 -68 46 -11 28 -10 33 10 55
13 14 20 31 17 40 -5 12 -14 10 -51 -17 -24 -18 -52 -47 -61 -64 -16 -28 -16
-32 -1 -61 20 -40 63 -70 125 -89 45 -13 54 -13 90 2 61 24 91 65 91 122 0 94
-83 168 -162 145z"/>
<path d="M1258 3736 c-26 -7 -65 -25 -88 -40 -38 -25 -42 -26 -63 -11 -35 25
-113 19 -182 -13 -105 -50 -157 -130 -141 -217 9 -45 46 -88 65 -76 12 7 10
14 -7 35 -49 63 -36 132 38 199 70 63 143 82 200 52 29 -15 34 -25 31 -52 -4
-28 29 -11 46 25 26 54 90 86 171 87 62 0 64 -1 104 -43 30 -33 39 -49 35 -68
-2 -13 0 -27 5 -30 12 -8 48 25 48 43 0 25 87 56 137 49 83 -11 144 -64 115
-99 -24 -29 18 -36 64 -12 39 20 129 19 164 -2 39 -22 54 -55 55 -115 0 -46
-2 -51 -23 -53 -31 -2 -54 -25 -25 -25 29 0 67 -48 92 -115 27 -72 26 -114 -2
-155 -31 -47 -77 -71 -146 -77 -99 -9 -225 45 -233 99 -2 13 -10 23 -18 23
-11 0 -16 -17 -21 -70 -6 -79 -24 -121 -69 -159 -27 -22 -39 -25 -84 -22 -52
3 -116 31 -116 50 0 5 -11 19 -24 31 -13 12 -25 27 -28 35 -6 19 -28 3 -28
-21 0 -22 -15 -21 -77 8 -29 13 -31 18 -26 46 5 25 3 29 -9 24 -9 -3 -18 -3
-21 -1 -3 3 -56 6 -119 7 -95 2 -120 6 -160 25 -87 43 -113 158 -52 231 13 16
20 32 15 35 -33 21 -81 -57 -81 -132 0 -72 34 -130 95 -162 43 -22 65 -25 172
-29 108 -3 123 -5 123 -20 0 -36 72 -81 130 -81 15 0 51 -15 79 -34 28 -19 63
-37 78 -41 19 -4 37 -21 55 -50 31 -52 74 -80 186 -125 57 -23 86 -30 93 -23
13 13 7 16 -46 33 -72 23 -151 68 -183 105 -40 44 -40 52 -2 60 61 14 129 99
130 164 0 26 -5 26 94 -9 84 -30 183 -37 224 -16 48 25 103 77 118 111 13 29
13 29 14 5 0 -14 7 -133 15 -265 8 -132 15 -252 15 -266 l0 -26 133 -7 c72 -3
171 -9 219 -12 71 -5 92 -3 112 9 22 15 25 15 41 -3 32 -35 43 -25 39 33 -2
28 -8 147 -14 262 -25 480 -23 460 -45 457 -18 -3 -376 -30 -470 -36 -35 -2
-41 -5 -46 -32 -4 -16 -7 -23 -8 -16 0 7 -17 45 -35 85 -32 66 -34 77 -25 113
21 83 -31 173 -114 195 -36 10 -107 6 -142 -7 -7 -3 -21 10 -32 29 -44 74
-174 100 -266 53 l-47 -23 -15 23 c-21 33 -87 64 -132 63 -21 0 -59 -6 -85
-13z m1329 -548 c-42 -94 -149 -281 -162 -282 -19 0 -100 113 -156 218 -48 89
-54 106 -40 112 15 6 199 19 328 22 l62 2 -32 -72z m99 -370 c4 -104 5 -188 2
-188 -2 0 -22 25 -43 56 -21 30 -72 85 -113 123 l-74 67 68 120 c38 65 82 151
99 189 l30 70 12 -125 c7 -69 15 -209 19 -312z m-432 266 c29 -57 70 -119 102
-154 30 -32 54 -61 54 -65 0 -4 -29 -51 -65 -104 -92 -137 -109 -161 -116
-161 -3 0 -11 116 -18 258 -6 141 -14 272 -17 290 -3 17 -1 32 3 32 4 0 30
-43 57 -96z m316 -360 c67 -74 84 -107 69 -135 -11 -21 -16 -21 -98 -15 -47 4
-125 9 -173 13 -49 3 -88 9 -88 13 0 4 15 27 34 51 18 25 55 77 80 117 l47 73
39 -31 c21 -17 61 -56 90 -86z"/>
<path d="M2329 3709 c-13 -8 7 -62 58 -150 23 -42 43 -78 43 -81 0 -11 -63
-32 -144 -48 -81 -16 -81 -16 -78 -45 5 -40 29 -65 62 -65 14 0 66 14 116 31
49 16 116 35 149 40 106 17 116 26 70 69 -14 13 -38 62 -57 113 -17 49 -43
103 -56 119 -23 27 -29 29 -89 26 -35 -2 -69 -6 -74 -9z m133 -36 c9 -10 23
-43 33 -73 21 -64 60 -146 75 -155 19 -12 10 -25 -19 -25 -16 0 -62 -12 -103
-26 -40 -14 -94 -31 -120 -37 -41 -9 -50 -8 -68 8 -11 10 -20 21 -20 25 0 3
34 12 75 18 84 13 155 44 155 68 0 9 -8 28 -19 42 -24 34 -81 148 -81 162 0
17 76 12 92 -7z"/>
<path d="M3057 3663 c-4 -3 -4 -37 0 -75 l6 -68 -32 0 c-20 0 -31 -5 -31 -14
0 -19 59 -24 163 -14 45 4 132 7 192 7 l110 -1 0 56 c0 46 2 56 17 56 17 0 34
17 25 26 -18 19 -434 44 -450 27z m267 -33 c48 -5 90 -11 93 -14 3 -2 8 -20
13 -39 l7 -35 -116 -6 c-64 -4 -140 -8 -168 -9 l-53 -4 0 59 0 58 68 0 c37 0
107 -5 156 -10z"/>
<path d="M8641 3614 c-89 -13 -133 -30 -103 -41 6 -3 12 -21 12 -40 l0 -36
183 7 c100 4 186 12 191 17 6 5 0 28 -15 58 l-24 50 -75 0 c-41 -1 -117 -7
-169 -15z m217 -39 c2 -11 10 -25 18 -31 10 -8 -13 -13 -93 -17 -58 -4 -126
-7 -150 -7 -41 0 -43 1 -43 29 0 28 1 29 78 39 42 5 102 9 132 8 46 -1 55 -4
58 -21z"/>
<path d="M8456 3592 c-3 -5 -115 -12 -248 -15 -134 -4 -321 -15 -417 -25 -95
-11 -184 -17 -196 -14 -22 4 -23 2 -22 -54 l2 -59 60 1 c33 0 146 11 250 23
105 12 281 25 393 28 191 6 204 7 218 27 8 13 10 22 4 24 -13 5 -13 39 1 48 8
4 7 9 -2 15 -18 11 -36 11 -43 1z m0 -56 l2 -23 -217 -6 c-229 -7 -366 -18
-495 -42 -43 -8 -91 -15 -107 -15 -25 0 -29 4 -29 29 0 36 -46 29 495 74 22 2
110 4 195 5 l155 2 1 -24z"/>
<path d="M6617 3513 c-12 -11 -8 -23 8 -23 39 0 38 -71 -2 -97 -21 -14 -26
-14 -38 -2 -7 8 -15 25 -17 39 -3 22 0 25 24 22 30 -3 48 16 27 29 -20 13 -63
11 -77 -3 -28 -28 -2 -106 43 -126 50 -23 85 -9 85 34 0 13 5 26 10 29 17 10
11 71 -8 88 -19 18 -44 22 -55 10z"/>
<path d="M1180 3471 c-5 -11 -10 -59 -11 -108 0 -48 -4 -96 -7 -106 -7 -16 -9
-16 -29 -2 -12 9 -50 54 -84 100 -53 74 -89 104 -89 77 0 -17 63 -107 112
-158 38 -40 58 -54 79 -54 15 0 31 6 36 13 4 6 11 59 14 117 3 58 9 113 13
123 11 24 -20 23 -34 -2z"/>
<path d="M1445 3428 c-27 -15 -35 -28 -35 -60 0 -18 -5 -28 -15 -28 -8 0 -15
-7 -15 -15 0 -8 7 -15 15 -15 8 0 26 -11 40 -26 21 -21 33 -25 77 -22 69 4 79
28 11 28 -67 0 -100 32 -45 43 33 8 92 43 92 57 0 28 -93 57 -125 38z"/>
<path d="M3545 3432 c-6 -5 -89 -14 -185 -20 -96 -7 -249 -17 -339 -23 -105
-7 -171 -8 -185 -2 -11 6 -26 8 -31 6 -13 -4 -7 -133 6 -147 5 -6 65 -5 156 2
214 18 438 34 518 38 39 1 73 3 76 3 3 1 5 24 5 51 -1 31 4 54 12 59 7 4 10
15 6 24 -7 18 -24 22 -39 9z m-15 -66 c0 -24 -5 -36 -17 -40 -10 -3 -119 -12
-243 -20 -124 -9 -269 -18 -323 -22 -108 -8 -117 -4 -117 49 l0 27 88 0 c48 0
175 7 282 15 107 8 224 16 260 18 36 2 66 4 68 5 1 1 2 -13 2 -32z"/>
<path d="M8900 3429 c-36 -5 -114 -6 -175 -4 -60 3 -136 2 -167 -3 -35 -5 -61
-5 -67 1 -19 19 -28 -4 -29 -74 l-2 -71 248 7 c136 4 257 11 269 16 20 7 22
14 20 74 -2 51 -5 65 -17 64 -8 -1 -44 -6 -80 -10z m52 -33 c4 -6 8 -23 8 -37
0 -35 -4 -36 -256 -45 l-211 -7 6 44 c5 39 9 45 36 50 57 12 409 8 417 -5z"/>
<path d="M8210 3419 c-52 -4 -158 -17 -235 -28 -77 -11 -174 -23 -215 -27 -41
-3 -81 -11 -87 -17 -7 -5 -13 -26 -13 -46 0 -62 13 -69 105 -59 44 5 214 11
379 13 164 2 301 7 305 11 3 3 -3 12 -13 19 -26 20 -36 115 -12 115 9 0 16 5
16 10 0 6 -17 10 -39 10 -21 0 -51 2 -67 4 -16 2 -72 0 -124 -5z m172 -79 l3
-60 -185 0 c-102 0 -254 -5 -338 -12 -162 -12 -172 -10 -172 32 0 31 19 38
145 54 72 9 173 23 225 30 52 8 145 14 207 15 l111 1 4 -60z"/>
<path d="M1599 3413 c-3 -21 3 -72 12 -100 13 -41 43 -51 78 -26 17 13 37 18
61 16 30 -3 44 3 93 43 53 45 72 74 46 74 -7 0 -34 -20 -60 -45 -53 -50 -76
-56 -81 -23 -5 36 -31 32 -52 -7 -31 -57 -46 -48 -62 38 -4 22 -12 37 -20 37
-8 0 -14 -3 -15 -7z"/>
<path d="M3915 3331 c-39 -16 -58 -48 -51 -83 4 -18 8 -42 10 -53 2 -11 9 -18
17 -16 8 2 43 4 78 5 42 1 66 5 68 14 3 8 -9 12 -41 12 l-47 0 20 28 c29 41
34 68 16 86 -18 17 -39 19 -70 7z"/>
<path d="M5665 3287 c-22 -4 -121 -9 -219 -10 -133 -1 -180 -5 -184 -14 -2 -7
-15 -13 -28 -13 -30 0 -30 -7 1 -36 20 -18 25 -33 25 -71 0 -26 9 -118 20
-203 11 -85 21 -186 21 -225 0 -45 6 -79 16 -94 14 -22 19 -23 92 -17 42 3
139 9 216 12 77 3 147 8 155 10 11 4 4 15 -26 42 -22 20 -57 58 -78 84 -20 26
-59 59 -89 75 -33 18 -53 35 -54 48 -2 11 37 96 86 189 l89 169 6 -89 c4 -49
15 -147 26 -219 11 -71 23 -154 26 -182 4 -35 11 -53 20 -53 20 0 18 60 -6
205 -11 66 -23 179 -27 250 -7 149 -12 158 -88 142z m5 -38 c0 -6 -39 -87 -87
-180 -82 -161 -88 -169 -104 -152 -35 37 -189 289 -189 310 0 22 3 23 138 26
75 1 161 4 190 5 32 1 52 -2 52 -9z m-273 -277 l82 -123 -36 -90 c-20 -50 -42
-93 -49 -96 -8 -3 -14 -11 -14 -19 0 -8 -4 -14 -10 -14 -5 0 -10 11 -10 25 0
14 -4 25 -10 25 -5 0 -10 21 -10 48 0 26 -9 108 -19 182 -29 207 -31 229 -18
206 7 -11 49 -75 94 -144z m207 -195 c15 -11 41 -41 57 -66 l30 -46 -27 -7
c-14 -4 -73 -10 -130 -14 l-104 -7 30 74 c17 41 35 84 40 97 10 22 11 22 42 6
18 -9 46 -26 62 -37z"/>
<path d="M3098 3200 c-200 -4 -271 -13 -230 -27 7 -3 12 -25 12 -60 l0 -55
243 6 c280 8 382 23 336 52 -10 6 -8 26 7 77 5 15 -2 17 -68 15 -40 -1 -175
-5 -300 -8z m320 -52 l-3 -43 -235 -11 c-129 -5 -241 -8 -247 -6 -8 2 -13 22
-13 47 l0 44 212 1 c117 0 214 3 217 5 2 3 20 5 38 5 34 0 34 0 31 -42z"/>
<path d="M8440 3149 c-129 -3 -305 -12 -389 -18 -85 -7 -179 -11 -208 -10 -55
3 -92 -14 -60 -27 14 -5 17 -22 17 -104 0 -76 3 -100 15 -110 21 -18 46 3 27
22 -7 7 -12 40 -12 77 0 115 -12 107 173 115 88 4 175 10 191 13 26 5 29 4 20
-8 -7 -9 -8 -43 -3 -104 4 -49 6 -91 5 -92 -2 -2 -211 -26 -328 -38 -49 -5
-68 -11 -68 -21 0 -19 40 -18 250 7 142 18 250 22 578 26 379 4 402 6 402 23
0 18 -23 34 -34 23 -3 -4 -135 -6 -293 -5 -159 1 -327 -2 -375 -6 -103 -9 -97
-15 -107 109 l-6 86 80 7 c44 3 222 6 396 6 l316 0 6 -80 c4 -44 11 -90 17
-101 11 -20 12 -20 31 -3 13 11 16 20 9 24 -6 4 -16 40 -22 80 -8 57 -8 74 2
80 7 4 10 15 7 24 -6 14 -31 16 -204 14 -109 -1 -304 -5 -433 -9z"/>
<path d="M2760 2967 c0 -13 9 -66 20 -118 11 -52 20 -104 20 -116 0 -31 25
-29 47 4 10 14 32 60 49 102 32 78 31 101 -5 101 -9 0 -34 11 -56 25 -52 32
-75 32 -75 2z"/>
<path d="M2000 2956 c0 -9 -6 -13 -14 -10 -9 3 -25 -11 -44 -38 -17 -24 -46
-59 -66 -77 -20 -19 -36 -41 -36 -48 0 -24 214 -143 230 -127 6 6 3 50 -10
129 -10 66 -20 133 -22 150 -3 31 -38 51 -38 21z m10 -76 c0 -16 7 -61 15
-101 9 -40 13 -74 11 -76 -3 -4 -143 71 -155 82 -2 3 15 21 39 42 23 21 49 51
56 66 18 33 34 27 34 -13z"/>
<path d="M3232 2843 c-36 -17 -82 -67 -82 -88 0 -43 80 -43 120 0 l24 26 23
-26 c26 -28 43 -31 61 -13 20 20 15 41 -8 35 -26 -7 -52 28 -44 60 6 21 3 23
-27 23 -19 0 -49 -8 -67 -17z"/>
<path d="M5076 2831 c-9 -14 10 -21 76 -30 58 -7 59 -9 71 -113 8 -68 -6 -88
-62 -88 -39 0 -72 -22 -52 -34 20 -13 113 7 137 28 23 20 23 23 13 96 -6 41
-11 90 -11 108 l0 32 -53 0 c-29 0 -66 3 -83 6 -17 4 -32 1 -36 -5z"/>
<path d="M3026 2798 c-110 -64 -106 -178 7 -209 32 -8 48 -7 83 6 47 18 69 38
59 55 -4 7 -18 4 -39 -10 -69 -42 -162 -8 -154 57 4 38 69 87 114 86 28 -1 34
2 32 15 -5 26 -57 25 -102 0z"/>
<path d="M9340 2810 c-25 -4 -193 -8 -375 -9 -181 -1 -429 -8 -550 -16 -121
-8 -256 -15 -300 -15 -100 0 -117 -5 -132 -36 -9 -20 -9 -26 3 -31 10 -4 14
-23 14 -68 0 -34 7 -82 15 -105 8 -23 15 -43 15 -45 0 -1 -18 -8 -40 -15 -40
-13 -51 -38 -14 -32 10 2 55 5 99 8 44 3 195 14 335 25 162 13 396 22 643 26
273 4 387 9 387 17 -1 6 -9 36 -20 66 -30 86 -24 184 11 193 21 6 26 37 7 37
-7 0 -22 2 -33 4 -11 2 -40 0 -65 -4z m-261 -44 c-2 -2 -80 -24 -174 -48 -146
-38 -178 -43 -225 -37 -30 4 -155 15 -278 24 -122 9 -235 20 -250 24 -17 5 33
11 133 16 88 4 212 11 275 15 129 8 526 12 519 6z m293 -85 l-3 -90 -32 5
c-18 2 -138 18 -267 34 -128 17 -235 32 -236 33 -2 1 79 25 179 53 153 43 197
52 272 53 l90 1 -3 -89z m-1032 -1 c264 -19 301 -23 296 -28 -3 -2 -117 -33
-253 -67 -136 -35 -261 -68 -276 -74 -16 -6 -32 -11 -36 -11 -12 0 -30 69 -38
140 l-6 63 94 -7 c52 -4 150 -11 219 -16z m572 -59 c73 -11 209 -29 303 -41
152 -19 184 -28 185 -51 0 -3 -165 -9 -367 -12 -223 -4 -465 -15 -613 -27
-135 -11 -265 -19 -290 -19 l-45 1 45 15 c82 27 584 151 617 152 18 1 92 -8
165 -18z"/>
</g>
</svg>
